G04 Layer: TopLayer*
G04 EasyEDA v6.3.22, 2020-02-14T20:54:40+02:00*
G04 d9edcea2a32c4a158ae1cdf756d7b1fd,ef223f4ed8bc40b1a8d29c19021d4d8a,10*
G04 Gerber Generator version 0.2*
G04 Scale: 100 percent, Rotated: No, Reflected: No *
G04 Dimensions in inches *
G04 leading zeros omitted , absolute positions ,2 integer and 4 decimal *
%FSLAX24Y24*%
%MOIN*%
G90*
G70D02*

%ADD11C,0.015000*%
%ADD12C,0.020000*%
%ADD13C,0.024000*%
%ADD14R,0.100000X0.200000*%
%ADD15R,0.070866X0.070866*%
%ADD16C,0.070866*%
%ADD17C,0.070000*%
%ADD18R,0.070000X0.070000*%
%ADD19R,0.063500X0.063500*%
%ADD20C,0.063500*%
%ADD21C,0.065000*%
%ADD22R,0.065000X0.065000*%
%ADD23C,0.074000*%
%ADD24R,0.064300X0.064300*%
%ADD25C,0.064300*%
%ADD26C,0.066929*%

%LPD*%
G36*
G01X52114Y33898D02*
G01X135Y33898D01*
G01X129Y33897D01*
G01X124Y33895D01*
G01X114Y33889D01*
G01X110Y33885D01*
G01X104Y33875D01*
G01X102Y33870D01*
G01X101Y33864D01*
G01X101Y135D01*
G01X102Y129D01*
G01X104Y124D01*
G01X110Y114D01*
G01X114Y110D01*
G01X124Y104D01*
G01X129Y102D01*
G01X135Y101D01*
G01X52114Y101D01*
G01X52120Y102D01*
G01X52125Y104D01*
G01X52135Y110D01*
G01X52139Y114D01*
G01X52145Y124D01*
G01X52147Y129D01*
G01X52148Y135D01*
G01X52148Y33864D01*
G01X52147Y33870D01*
G01X52145Y33875D01*
G01X52139Y33885D01*
G01X52135Y33889D01*
G01X52125Y33895D01*
G01X52120Y33897D01*
G01X52114Y33898D01*
G37*

%LPC*%
G36*
G01X32634Y15613D02*
G01X32608Y15613D01*
G01X32594Y15612D01*
G01X32581Y15610D01*
G01X32568Y15607D01*
G01X32555Y15603D01*
G01X32543Y15599D01*
G01X32530Y15594D01*
G01X32518Y15588D01*
G01X32507Y15582D01*
G01X32496Y15575D01*
G01X32485Y15567D01*
G01X32465Y15549D01*
G01X32447Y15529D01*
G01X32439Y15518D01*
G01X32432Y15507D01*
G01X32425Y15495D01*
G01X32419Y15483D01*
G01X32414Y15471D01*
G01X32410Y15458D01*
G01X32406Y15446D01*
G01X32404Y15432D01*
G01X32402Y15419D01*
G01X32401Y15406D01*
G01X32400Y15392D01*
G01X32401Y15378D01*
G01X32402Y15363D01*
G01X32404Y15349D01*
G01X32412Y15321D01*
G01X32417Y15307D01*
G01X32423Y15294D01*
G01X32430Y15281D01*
G01X32438Y15269D01*
G01X32441Y15263D01*
G01X32443Y15258D01*
G01X32445Y15246D01*
G01X32445Y14860D01*
G01X32443Y14854D01*
G01X32442Y14849D01*
G01X32439Y14844D01*
G01X32435Y14839D01*
G01X32431Y14835D01*
G01X32427Y14832D01*
G01X32422Y14829D01*
G01X32416Y14827D01*
G01X32411Y14826D01*
G01X29084Y14826D01*
G01X29072Y14830D01*
G01X29067Y14833D01*
G01X29058Y14842D01*
G01X29055Y14848D01*
G01X29046Y14865D01*
G01X29036Y14882D01*
G01X29026Y14898D01*
G01X29015Y14914D01*
G01X29003Y14930D01*
G01X28991Y14944D01*
G01X28978Y14959D01*
G01X28964Y14973D01*
G01X28950Y14986D01*
G01X28920Y15010D01*
G01X28888Y15032D01*
G01X28872Y15042D01*
G01X28855Y15051D01*
G01X28837Y15060D01*
G01X28801Y15074D01*
G01X28783Y15080D01*
G01X28764Y15086D01*
G01X28746Y15090D01*
G01X28727Y15094D01*
G01X28707Y15097D01*
G01X28688Y15099D01*
G01X28650Y15101D01*
G01X28630Y15100D01*
G01X28611Y15099D01*
G01X28592Y15097D01*
G01X28572Y15094D01*
G01X28553Y15090D01*
G01X28535Y15086D01*
G01X28516Y15080D01*
G01X28498Y15074D01*
G01X28462Y15060D01*
G01X28444Y15051D01*
G01X28427Y15042D01*
G01X28411Y15032D01*
G01X28379Y15010D01*
G01X28349Y14986D01*
G01X28335Y14973D01*
G01X28321Y14959D01*
G01X28308Y14944D01*
G01X28296Y14930D01*
G01X28284Y14914D01*
G01X28273Y14898D01*
G01X28263Y14882D01*
G01X28253Y14865D01*
G01X28244Y14848D01*
G01X28241Y14842D01*
G01X28232Y14833D01*
G01X28227Y14830D01*
G01X28215Y14826D01*
G01X27350Y14826D01*
G01X27337Y14825D01*
G01X27325Y14824D01*
G01X27312Y14821D01*
G01X27288Y14815D01*
G01X27276Y14809D01*
G01X27265Y14804D01*
G01X27254Y14798D01*
G01X27234Y14782D01*
G01X27225Y14774D01*
G01X24725Y12274D01*
G01X24717Y12265D01*
G01X24709Y12255D01*
G01X24702Y12245D01*
G01X24695Y12234D01*
G01X24689Y12223D01*
G01X24677Y12187D01*
G01X24675Y12175D01*
G01X24674Y12162D01*
G01X24673Y12150D01*
G01X24673Y4833D01*
G01X24672Y4827D01*
G01X24666Y4815D01*
G01X21884Y2033D01*
G01X21878Y2030D01*
G01X21866Y2026D01*
G01X12833Y2026D01*
G01X12821Y2030D01*
G01X12815Y2033D01*
G01X11943Y2905D01*
G01X11940Y2911D01*
G01X11936Y2923D01*
G01X11935Y2929D01*
G01X11935Y2956D01*
G01X11936Y2962D01*
G01X11937Y2967D01*
G01X11939Y2973D01*
G01X11942Y2978D01*
G01X11945Y2982D01*
G01X11949Y2986D01*
G01X11954Y2990D01*
G01X11959Y2993D01*
G01X11976Y3001D01*
G01X11994Y3011D01*
G01X12011Y3021D01*
G01X12027Y3032D01*
G01X12059Y3056D01*
G01X12074Y3069D01*
G01X12088Y3082D01*
G01X12102Y3096D01*
G01X12128Y3126D01*
G01X12140Y3142D01*
G01X12151Y3158D01*
G01X12162Y3175D01*
G01X12172Y3192D01*
G01X12181Y3209D01*
G01X12189Y3227D01*
G01X12197Y3246D01*
G01X12204Y3264D01*
G01X12216Y3302D01*
G01X12220Y3321D01*
G01X12224Y3341D01*
G01X12227Y3360D01*
G01X12229Y3380D01*
G01X12230Y3400D01*
G01X12231Y3419D01*
G01X12230Y3439D01*
G01X12229Y3458D01*
G01X12227Y3478D01*
G01X12221Y3516D01*
G01X12211Y3554D01*
G01X12205Y3573D01*
G01X12191Y3609D01*
G01X12183Y3626D01*
G01X12174Y3644D01*
G01X12164Y3661D01*
G01X12154Y3677D01*
G01X12143Y3693D01*
G01X12131Y3709D01*
G01X12119Y3724D01*
G01X12106Y3738D01*
G01X12093Y3753D01*
G01X12078Y3766D01*
G01X12064Y3779D01*
G01X12049Y3791D01*
G01X12033Y3803D01*
G01X12017Y3814D01*
G01X12001Y3824D01*
G01X11984Y3834D01*
G01X11966Y3843D01*
G01X11949Y3851D01*
G01X11913Y3865D01*
G01X11894Y3871D01*
G01X11875Y3876D01*
G01X11837Y3884D01*
G01X11818Y3887D01*
G01X11798Y3889D01*
G01X11779Y3890D01*
G01X11739Y3890D01*
G01X11720Y3889D01*
G01X11700Y3887D01*
G01X11680Y3884D01*
G01X11660Y3880D01*
G01X11622Y3870D01*
G01X11603Y3864D01*
G01X11584Y3857D01*
G01X11566Y3849D01*
G01X11530Y3831D01*
G01X11513Y3821D01*
G01X11496Y3810D01*
G01X11464Y3786D01*
G01X11434Y3760D01*
G01X11420Y3746D01*
G01X11406Y3731D01*
G01X11394Y3716D01*
G01X11381Y3700D01*
G01X11370Y3684D01*
G01X11359Y3667D01*
G01X11349Y3650D01*
G01X11339Y3632D01*
G01X11336Y3627D01*
G01X11327Y3618D01*
G01X11322Y3615D01*
G01X11310Y3611D01*
G01X11297Y3611D01*
G01X11292Y3613D01*
G01X11286Y3615D01*
G01X11280Y3618D01*
G01X10883Y4015D01*
G01X10877Y4027D01*
G01X10876Y4033D01*
G01X10876Y13550D01*
G01X10875Y13562D01*
G01X10874Y13575D01*
G01X10872Y13587D01*
G01X10860Y13623D01*
G01X10854Y13634D01*
G01X10847Y13645D01*
G01X10840Y13655D01*
G01X10832Y13665D01*
G01X10824Y13674D01*
G01X9324Y15174D01*
G01X9315Y15182D01*
G01X9295Y15198D01*
G01X9284Y15204D01*
G01X9273Y15209D01*
G01X9261Y15215D01*
G01X9225Y15224D01*
G01X9212Y15225D01*
G01X9200Y15226D01*
G01X8501Y15226D01*
G01X8494Y15228D01*
G01X8489Y15230D01*
G01X8483Y15234D01*
G01X8478Y15238D01*
G01X8474Y15243D01*
G01X8463Y15258D01*
G01X8439Y15288D01*
G01X8426Y15302D01*
G01X8398Y15328D01*
G01X8368Y15352D01*
G01X8352Y15363D01*
G01X8336Y15373D01*
G01X8319Y15383D01*
G01X8303Y15392D01*
G01X8285Y15400D01*
G01X8268Y15407D01*
G01X8250Y15414D01*
G01X8231Y15420D01*
G01X8213Y15425D01*
G01X8194Y15430D01*
G01X8176Y15433D01*
G01X8157Y15436D01*
G01X8138Y15438D01*
G01X8100Y15440D01*
G01X8080Y15439D01*
G01X8061Y15438D01*
G01X8042Y15436D01*
G01X8022Y15433D01*
G01X8003Y15429D01*
G01X7985Y15425D01*
G01X7966Y15420D01*
G01X7948Y15413D01*
G01X7930Y15407D01*
G01X7894Y15391D01*
G01X7877Y15382D01*
G01X7861Y15372D01*
G01X7844Y15361D01*
G01X7829Y15350D01*
G01X7799Y15326D01*
G01X7785Y15313D01*
G01X7771Y15299D01*
G01X7758Y15285D01*
G01X7745Y15270D01*
G01X7734Y15255D01*
G01X7722Y15239D01*
G01X7712Y15223D01*
G01X7702Y15206D01*
G01X7693Y15189D01*
G01X7685Y15172D01*
G01X7677Y15154D01*
G01X7670Y15136D01*
G01X7664Y15117D01*
G01X7659Y15099D01*
G01X7654Y15080D01*
G01X7648Y15042D01*
G01X7646Y15023D01*
G01X7644Y15003D01*
G01X7644Y14965D01*
G01X7646Y14945D01*
G01X7648Y14926D01*
G01X7651Y14906D01*
G01X7659Y14868D01*
G01X7671Y14830D01*
G01X7678Y14812D01*
G01X7694Y14776D01*
G01X7714Y14742D01*
G01X7736Y14710D01*
G01X7748Y14695D01*
G01X7761Y14680D01*
G01X7774Y14666D01*
G01X7788Y14652D01*
G01X7818Y14626D01*
G01X7834Y14615D01*
G01X7850Y14603D01*
G01X7866Y14593D01*
G01X7884Y14584D01*
G01X7901Y14575D01*
G01X7919Y14566D01*
G01X7955Y14552D01*
G01X7974Y14546D01*
G01X7993Y14542D01*
G01X8012Y14537D01*
G01X8031Y14534D01*
G01X8051Y14532D01*
G01X8057Y14530D01*
G01X8062Y14528D01*
G01X8068Y14526D01*
G01X8072Y14523D01*
G01X8076Y14519D01*
G01X8080Y14514D01*
G01X8083Y14509D01*
G01X8085Y14503D01*
G01X8086Y14498D01*
G01X8087Y14492D01*
G01X8085Y14480D01*
G01X8083Y14475D01*
G01X8080Y14470D01*
G01X8076Y14465D01*
G01X8068Y14457D01*
G01X8062Y14455D01*
G01X8057Y14453D01*
G01X8051Y14452D01*
G01X8031Y14450D01*
G01X7993Y14442D01*
G01X7974Y14437D01*
G01X7955Y14431D01*
G01X7937Y14425D01*
G01X7901Y14409D01*
G01X7884Y14400D01*
G01X7866Y14390D01*
G01X7850Y14380D01*
G01X7834Y14369D01*
G01X7818Y14357D01*
G01X7803Y14345D01*
G01X7788Y14332D01*
G01X7774Y14318D01*
G01X7761Y14303D01*
G01X7748Y14289D01*
G01X7736Y14273D01*
G01X7714Y14241D01*
G01X7694Y14207D01*
G01X7678Y14171D01*
G01X7671Y14153D01*
G01X7659Y14115D01*
G01X7651Y14077D01*
G01X7648Y14058D01*
G01X7646Y14038D01*
G01X7644Y14019D01*
G01X7644Y13980D01*
G01X7646Y13961D01*
G01X7648Y13941D01*
G01X7651Y13922D01*
G01X7659Y13884D01*
G01X7664Y13865D01*
G01X7671Y13847D01*
G01X7677Y13829D01*
G01X7685Y13811D01*
G01X7693Y13794D01*
G01X7702Y13776D01*
G01X7712Y13759D01*
G01X7723Y13743D01*
G01X7734Y13728D01*
G01X7746Y13712D01*
G01X7759Y13697D01*
G01X7772Y13683D01*
G01X7786Y13669D01*
G01X7800Y13656D01*
G01X7830Y13632D01*
G01X7846Y13621D01*
G01X7863Y13611D01*
G01X7879Y13601D01*
G01X7897Y13592D01*
G01X7914Y13583D01*
G01X7950Y13569D01*
G01X7969Y13563D01*
G01X7987Y13558D01*
G01X8006Y13553D01*
G01X8025Y13550D01*
G01X8075Y13544D01*
G01X8124Y13544D01*
G01X8174Y13550D01*
G01X8212Y13558D01*
G01X8231Y13563D01*
G01X8250Y13570D01*
G01X8269Y13576D01*
G01X8287Y13584D01*
G01X8305Y13593D01*
G01X8322Y13602D01*
G01X8339Y13612D01*
G01X8356Y13623D01*
G01X8372Y13634D01*
G01X8388Y13647D01*
G01X8403Y13659D01*
G01X8431Y13687D01*
G01X8457Y13717D01*
G01X8469Y13733D01*
G01X8480Y13749D01*
G01X8500Y13783D01*
G01X8509Y13801D01*
G01X8513Y13807D01*
G01X8517Y13811D01*
G01X8527Y13819D01*
G01X8539Y13823D01*
G01X9066Y13823D01*
G01X9078Y13819D01*
G01X9084Y13816D01*
G01X9616Y13284D01*
G01X9622Y13272D01*
G01X9623Y13266D01*
G01X9623Y3300D01*
G01X9624Y3287D01*
G01X9625Y3275D01*
G01X9627Y3262D01*
G01X9639Y3226D01*
G01X9645Y3215D01*
G01X9652Y3204D01*
G01X9659Y3194D01*
G01X9667Y3184D01*
G01X9675Y3175D01*
G01X12025Y825D01*
G01X12034Y817D01*
G01X12054Y801D01*
G01X12065Y795D01*
G01X12076Y790D01*
G01X12088Y784D01*
G01X12112Y778D01*
G01X12125Y775D01*
G01X12137Y774D01*
G01X12150Y773D01*
G01X22100Y773D01*
G01X22112Y774D01*
G01X22125Y775D01*
G01X22161Y784D01*
G01X22173Y790D01*
G01X22184Y795D01*
G01X22195Y801D01*
G01X22215Y817D01*
G01X22224Y825D01*
G01X27865Y6466D01*
G01X27871Y6469D01*
G01X27883Y6473D01*
G01X28215Y6473D01*
G01X28227Y6469D01*
G01X28232Y6466D01*
G01X28241Y6457D01*
G01X28244Y6451D01*
G01X28253Y6434D01*
G01X28263Y6417D01*
G01X28273Y6401D01*
G01X28284Y6385D01*
G01X28296Y6369D01*
G01X28308Y6355D01*
G01X28321Y6340D01*
G01X28335Y6326D01*
G01X28349Y6313D01*
G01X28379Y6289D01*
G01X28411Y6267D01*
G01X28427Y6257D01*
G01X28444Y6248D01*
G01X28462Y6239D01*
G01X28498Y6225D01*
G01X28516Y6219D01*
G01X28535Y6213D01*
G01X28553Y6209D01*
G01X28572Y6205D01*
G01X28592Y6202D01*
G01X28611Y6200D01*
G01X28630Y6199D01*
G01X28650Y6198D01*
G01X28688Y6200D01*
G01X28707Y6202D01*
G01X28726Y6205D01*
G01X28744Y6209D01*
G01X28763Y6213D01*
G01X28781Y6218D01*
G01X28800Y6224D01*
G01X28818Y6231D01*
G01X28835Y6238D01*
G01X28886Y6265D01*
G01X28918Y6287D01*
G01X28933Y6299D01*
G01X28947Y6311D01*
G01X28961Y6324D01*
G01X28988Y6351D01*
G01X29012Y6381D01*
G01X29034Y6413D01*
G01X29043Y6430D01*
G01X29052Y6446D01*
G01X29060Y6464D01*
G01X29068Y6481D01*
G01X29075Y6499D01*
G01X29081Y6517D01*
G01X29086Y6536D01*
G01X29090Y6555D01*
G01X29094Y6573D01*
G01X29097Y6592D01*
G01X29099Y6611D01*
G01X29100Y6630D01*
G01X29101Y6650D01*
G01X29099Y6688D01*
G01X29097Y6707D01*
G01X29094Y6726D01*
G01X29090Y6744D01*
G01X29086Y6763D01*
G01X29081Y6782D01*
G01X29075Y6800D01*
G01X29068Y6818D01*
G01X29060Y6835D01*
G01X29052Y6853D01*
G01X29043Y6869D01*
G01X29034Y6886D01*
G01X29012Y6918D01*
G01X28988Y6948D01*
G01X28961Y6975D01*
G01X28947Y6988D01*
G01X28933Y7000D01*
G01X28918Y7012D01*
G01X28886Y7034D01*
G01X28835Y7061D01*
G01X28818Y7068D01*
G01X28800Y7075D01*
G01X28781Y7081D01*
G01X28763Y7086D01*
G01X28744Y7090D01*
G01X28726Y7094D01*
G01X28707Y7097D01*
G01X28688Y7099D01*
G01X28650Y7101D01*
G01X28630Y7100D01*
G01X28611Y7099D01*
G01X28592Y7097D01*
G01X28572Y7094D01*
G01X28553Y7090D01*
G01X28535Y7086D01*
G01X28516Y7080D01*
G01X28498Y7074D01*
G01X28462Y7060D01*
G01X28444Y7051D01*
G01X28427Y7042D01*
G01X28411Y7032D01*
G01X28379Y7010D01*
G01X28349Y6986D01*
G01X28335Y6973D01*
G01X28321Y6959D01*
G01X28308Y6944D01*
G01X28296Y6930D01*
G01X28284Y6914D01*
G01X28273Y6898D01*
G01X28263Y6882D01*
G01X28253Y6865D01*
G01X28244Y6848D01*
G01X28241Y6842D01*
G01X28232Y6833D01*
G01X28227Y6830D01*
G01X28215Y6826D01*
G01X27800Y6826D01*
G01X27787Y6825D01*
G01X27775Y6824D01*
G01X27762Y6821D01*
G01X27738Y6815D01*
G01X27726Y6809D01*
G01X27715Y6804D01*
G01X27704Y6798D01*
G01X27684Y6782D01*
G01X27675Y6774D01*
G01X22034Y1133D01*
G01X22028Y1130D01*
G01X22016Y1126D01*
G01X12233Y1126D01*
G01X12221Y1130D01*
G01X12215Y1133D01*
G01X9983Y3365D01*
G01X9977Y3377D01*
G01X9976Y3383D01*
G01X9976Y13350D01*
G01X9975Y13362D01*
G01X9974Y13375D01*
G01X9972Y13387D01*
G01X9960Y13423D01*
G01X9954Y13434D01*
G01X9947Y13445D01*
G01X9940Y13455D01*
G01X9932Y13465D01*
G01X9924Y13474D01*
G01X9274Y14124D01*
G01X9265Y14132D01*
G01X9245Y14148D01*
G01X9234Y14154D01*
G01X9223Y14159D01*
G01X9211Y14165D01*
G01X9175Y14174D01*
G01X9162Y14175D01*
G01X9150Y14176D01*
G01X8539Y14176D01*
G01X8532Y14178D01*
G01X8527Y14180D01*
G01X8521Y14184D01*
G01X8517Y14188D01*
G01X8512Y14192D01*
G01X8509Y14198D01*
G01X8501Y14215D01*
G01X8491Y14232D01*
G01X8481Y14248D01*
G01X8470Y14264D01*
G01X8459Y14279D01*
G01X8446Y14294D01*
G01X8434Y14309D01*
G01X8420Y14323D01*
G01X8406Y14336D01*
G01X8392Y14348D01*
G01X8377Y14360D01*
G01X8361Y14372D01*
G01X8346Y14382D01*
G01X8312Y14402D01*
G01X8278Y14418D01*
G01X8242Y14432D01*
G01X8223Y14437D01*
G01X8205Y14442D01*
G01X8167Y14450D01*
G01X8148Y14452D01*
G01X8142Y14453D01*
G01X8137Y14455D01*
G01X8131Y14457D01*
G01X8123Y14465D01*
G01X8119Y14470D01*
G01X8116Y14475D01*
G01X8114Y14480D01*
G01X8112Y14492D01*
G01X8113Y14498D01*
G01X8114Y14503D01*
G01X8116Y14509D01*
G01X8119Y14514D01*
G01X8123Y14519D01*
G01X8127Y14523D01*
G01X8131Y14526D01*
G01X8137Y14528D01*
G01X8142Y14530D01*
G01X8148Y14532D01*
G01X8168Y14534D01*
G01X8186Y14537D01*
G01X8206Y14542D01*
G01X8225Y14546D01*
G01X8243Y14552D01*
G01X8261Y14559D01*
G01X8280Y14566D01*
G01X8297Y14574D01*
G01X8331Y14592D01*
G01X8348Y14603D01*
G01X8380Y14625D01*
G01X8395Y14638D01*
G01X8423Y14664D01*
G01X8437Y14678D01*
G01X8450Y14693D01*
G01X8462Y14708D01*
G01X8484Y14740D01*
G01X8494Y14757D01*
G01X8512Y14791D01*
G01X8520Y14809D01*
G01X8527Y14827D01*
G01X8533Y14846D01*
G01X8536Y14851D01*
G01X8539Y14857D01*
G01X8543Y14862D01*
G01X8548Y14866D01*
G01X8553Y14869D01*
G01X8565Y14873D01*
G01X9116Y14873D01*
G01X9128Y14869D01*
G01X9134Y14866D01*
G01X10516Y13484D01*
G01X10522Y13472D01*
G01X10523Y13466D01*
G01X10523Y3950D01*
G01X10524Y3937D01*
G01X10525Y3925D01*
G01X10527Y3912D01*
G01X10539Y3876D01*
G01X10545Y3865D01*
G01X10552Y3854D01*
G01X10559Y3844D01*
G01X10567Y3834D01*
G01X10575Y3825D01*
G01X11114Y3286D01*
G01X11124Y3279D01*
G01X11134Y3271D01*
G01X11156Y3259D01*
G01X11180Y3251D01*
G01X11192Y3248D01*
G01X11205Y3245D01*
G01X11217Y3244D01*
G01X11296Y3244D01*
G01X11302Y3243D01*
G01X11307Y3242D01*
G01X11313Y3240D01*
G01X11318Y3237D01*
G01X11322Y3234D01*
G01X11327Y3230D01*
G01X11330Y3225D01*
G01X11333Y3221D01*
G01X11342Y3202D01*
G01X11352Y3184D01*
G01X11362Y3167D01*
G01X11374Y3149D01*
G01X11386Y3133D01*
G01X11412Y3101D01*
G01X11441Y3072D01*
G01X11473Y3046D01*
G01X11489Y3034D01*
G01X11506Y3022D01*
G01X11542Y3002D01*
G01X11560Y2993D01*
G01X11565Y2990D01*
G01X11570Y2986D01*
G01X11574Y2982D01*
G01X11577Y2978D01*
G01X11580Y2973D01*
G01X11582Y2967D01*
G01X11583Y2962D01*
G01X11584Y2956D01*
G01X11584Y2827D01*
G01X11585Y2815D01*
G01X11588Y2802D01*
G01X11594Y2778D01*
G01X11600Y2766D01*
G01X11605Y2755D01*
G01X11611Y2744D01*
G01X11627Y2724D01*
G01X11635Y2715D01*
G01X12625Y1725D01*
G01X12634Y1717D01*
G01X12654Y1701D01*
G01X12665Y1695D01*
G01X12676Y1690D01*
G01X12688Y1684D01*
G01X12712Y1678D01*
G01X12725Y1675D01*
G01X12737Y1674D01*
G01X12750Y1673D01*
G01X21950Y1673D01*
G01X21962Y1674D01*
G01X21975Y1675D01*
G01X22011Y1684D01*
G01X22023Y1690D01*
G01X22034Y1695D01*
G01X22045Y1701D01*
G01X22065Y1717D01*
G01X22074Y1725D01*
G01X24974Y4625D01*
G01X24982Y4634D01*
G01X24990Y4644D01*
G01X24997Y4654D01*
G01X25004Y4665D01*
G01X25010Y4676D01*
G01X25022Y4712D01*
G01X25024Y4725D01*
G01X25025Y4737D01*
G01X25026Y4750D01*
G01X25026Y12066D01*
G01X25027Y12072D01*
G01X25033Y12084D01*
G01X27415Y14466D01*
G01X27421Y14469D01*
G01X27433Y14473D01*
G01X28215Y14473D01*
G01X28227Y14469D01*
G01X28232Y14466D01*
G01X28241Y14457D01*
G01X28244Y14451D01*
G01X28253Y14434D01*
G01X28263Y14417D01*
G01X28273Y14401D01*
G01X28284Y14385D01*
G01X28296Y14369D01*
G01X28308Y14355D01*
G01X28321Y14340D01*
G01X28335Y14326D01*
G01X28349Y14313D01*
G01X28379Y14289D01*
G01X28411Y14267D01*
G01X28427Y14257D01*
G01X28444Y14248D01*
G01X28462Y14239D01*
G01X28498Y14225D01*
G01X28516Y14219D01*
G01X28535Y14213D01*
G01X28553Y14209D01*
G01X28572Y14205D01*
G01X28592Y14202D01*
G01X28611Y14200D01*
G01X28630Y14199D01*
G01X28650Y14198D01*
G01X28688Y14200D01*
G01X28707Y14202D01*
G01X28727Y14205D01*
G01X28746Y14209D01*
G01X28764Y14213D01*
G01X28783Y14219D01*
G01X28801Y14225D01*
G01X28837Y14239D01*
G01X28855Y14248D01*
G01X28872Y14257D01*
G01X28888Y14267D01*
G01X28920Y14289D01*
G01X28950Y14313D01*
G01X28964Y14326D01*
G01X28978Y14340D01*
G01X28991Y14355D01*
G01X29003Y14369D01*
G01X29015Y14385D01*
G01X29026Y14401D01*
G01X29036Y14417D01*
G01X29046Y14434D01*
G01X29055Y14451D01*
G01X29058Y14457D01*
G01X29067Y14466D01*
G01X29072Y14469D01*
G01X29084Y14473D01*
G01X32416Y14473D01*
G01X32428Y14469D01*
G01X32434Y14466D01*
G01X34025Y12875D01*
G01X34034Y12867D01*
G01X34054Y12851D01*
G01X34065Y12845D01*
G01X34076Y12840D01*
G01X34088Y12834D01*
G01X34112Y12828D01*
G01X34125Y12825D01*
G01X34137Y12824D01*
G01X34150Y12823D01*
G01X39279Y12823D01*
G01X39285Y12822D01*
G01X39290Y12820D01*
G01X39300Y12814D01*
G01X39304Y12810D01*
G01X39310Y12800D01*
G01X39312Y12795D01*
G01X39313Y12789D01*
G01X39314Y12784D01*
G01X39314Y6443D01*
G01X39313Y6437D01*
G01X39312Y6432D01*
G01X39310Y6426D01*
G01X39307Y6421D01*
G01X39304Y6417D01*
G01X39300Y6413D01*
G01X39295Y6409D01*
G01X39290Y6406D01*
G01X39273Y6398D01*
G01X39255Y6388D01*
G01X39238Y6378D01*
G01X39222Y6367D01*
G01X39190Y6343D01*
G01X39175Y6330D01*
G01X39161Y6317D01*
G01X39147Y6303D01*
G01X39121Y6273D01*
G01X39109Y6257D01*
G01X39098Y6241D01*
G01X39087Y6224D01*
G01X39077Y6207D01*
G01X39068Y6190D01*
G01X39060Y6172D01*
G01X39052Y6153D01*
G01X39045Y6135D01*
G01X39033Y6097D01*
G01X39029Y6078D01*
G01X39025Y6058D01*
G01X39022Y6039D01*
G01X39020Y6019D01*
G01X39019Y5999D01*
G01X39018Y5980D01*
G01X39019Y5960D01*
G01X39020Y5941D01*
G01X39022Y5921D01*
G01X39025Y5902D01*
G01X39033Y5864D01*
G01X39038Y5845D01*
G01X39044Y5826D01*
G01X39058Y5790D01*
G01X39066Y5773D01*
G01X39075Y5755D01*
G01X39085Y5738D01*
G01X39095Y5722D01*
G01X39106Y5706D01*
G01X39118Y5690D01*
G01X39130Y5675D01*
G01X39143Y5661D01*
G01X39156Y5646D01*
G01X39171Y5633D01*
G01X39185Y5620D01*
G01X39200Y5608D01*
G01X39216Y5596D01*
G01X39232Y5585D01*
G01X39248Y5575D01*
G01X39265Y5565D01*
G01X39283Y5556D01*
G01X39300Y5548D01*
G01X39336Y5534D01*
G01X39355Y5528D01*
G01X39374Y5523D01*
G01X39412Y5515D01*
G01X39431Y5512D01*
G01X39451Y5510D01*
G01X39470Y5509D01*
G01X39509Y5509D01*
G01X39528Y5510D01*
G01X39548Y5512D01*
G01X39567Y5515D01*
G01X39605Y5523D01*
G01X39624Y5528D01*
G01X39643Y5534D01*
G01X39679Y5548D01*
G01X39696Y5556D01*
G01X39714Y5565D01*
G01X39731Y5575D01*
G01X39747Y5585D01*
G01X39763Y5596D01*
G01X39779Y5608D01*
G01X39794Y5620D01*
G01X39809Y5633D01*
G01X39822Y5646D01*
G01X39836Y5661D01*
G01X39849Y5675D01*
G01X39861Y5690D01*
G01X39873Y5706D01*
G01X39884Y5722D01*
G01X39894Y5738D01*
G01X39904Y5755D01*
G01X39913Y5773D01*
G01X39921Y5790D01*
G01X39935Y5826D01*
G01X39941Y5845D01*
G01X39951Y5883D01*
G01X39957Y5921D01*
G01X39959Y5941D01*
G01X39960Y5960D01*
G01X39960Y5999D01*
G01X39959Y6019D01*
G01X39957Y6039D01*
G01X39954Y6058D01*
G01X39950Y6078D01*
G01X39946Y6097D01*
G01X39934Y6135D01*
G01X39927Y6153D01*
G01X39919Y6172D01*
G01X39911Y6190D01*
G01X39902Y6207D01*
G01X39892Y6224D01*
G01X39881Y6241D01*
G01X39870Y6257D01*
G01X39858Y6273D01*
G01X39832Y6303D01*
G01X39818Y6317D01*
G01X39804Y6330D01*
G01X39789Y6343D01*
G01X39757Y6367D01*
G01X39741Y6378D01*
G01X39724Y6388D01*
G01X39706Y6398D01*
G01X39689Y6406D01*
G01X39684Y6409D01*
G01X39679Y6413D01*
G01X39675Y6417D01*
G01X39672Y6421D01*
G01X39669Y6426D01*
G01X39667Y6432D01*
G01X39666Y6437D01*
G01X39665Y6443D01*
G01X39665Y12784D01*
G01X39666Y12789D01*
G01X39667Y12795D01*
G01X39669Y12800D01*
G01X39675Y12810D01*
G01X39679Y12814D01*
G01X39689Y12820D01*
G01X39694Y12822D01*
G01X39700Y12823D01*
G01X43718Y12823D01*
G01X43730Y12819D01*
G01X43735Y12816D01*
G01X43740Y12812D01*
G01X43744Y12807D01*
G01X43747Y12802D01*
G01X43767Y12768D01*
G01X43778Y12752D01*
G01X43790Y12736D01*
G01X43802Y12721D01*
G01X43815Y12706D01*
G01X43843Y12678D01*
G01X43858Y12665D01*
G01X43890Y12641D01*
G01X43906Y12630D01*
G01X43923Y12620D01*
G01X43940Y12611D01*
G01X43958Y12602D01*
G01X43976Y12594D01*
G01X43995Y12587D01*
G01X44014Y12581D01*
G01X44032Y12575D01*
G01X44052Y12571D01*
G01X44071Y12567D01*
G01X44090Y12564D01*
G01X44110Y12561D01*
G01X44130Y12560D01*
G01X44169Y12560D01*
G01X44188Y12561D01*
G01X44207Y12563D01*
G01X44227Y12567D01*
G01X44246Y12570D01*
G01X44264Y12575D01*
G01X44283Y12580D01*
G01X44301Y12586D01*
G01X44337Y12600D01*
G01X44355Y12609D01*
G01X44372Y12618D01*
G01X44388Y12628D01*
G01X44405Y12638D01*
G01X44420Y12649D01*
G01X44450Y12673D01*
G01X44464Y12686D01*
G01X44478Y12700D01*
G01X44491Y12714D01*
G01X44504Y12729D01*
G01X44515Y12744D01*
G01X44527Y12760D01*
G01X44537Y12776D01*
G01X44547Y12793D01*
G01X44556Y12810D01*
G01X44572Y12846D01*
G01X44579Y12863D01*
G01X44585Y12882D01*
G01X44590Y12901D01*
G01X44595Y12919D01*
G01X44601Y12957D01*
G01X44603Y12976D01*
G01X44605Y12996D01*
G01X44605Y13035D01*
G01X44603Y13054D01*
G01X44601Y13074D01*
G01X44598Y13093D01*
G01X44590Y13131D01*
G01X44585Y13150D01*
G01X44578Y13169D01*
G01X44564Y13205D01*
G01X44555Y13222D01*
G01X44546Y13240D01*
G01X44536Y13256D01*
G01X44525Y13273D01*
G01X44514Y13288D01*
G01X44502Y13304D01*
G01X44489Y13319D01*
G01X44476Y13333D01*
G01X44461Y13347D01*
G01X44447Y13360D01*
G01X44432Y13372D01*
G01X44416Y13384D01*
G01X44384Y13406D01*
G01X44350Y13424D01*
G01X44314Y13440D01*
G01X44295Y13446D01*
G01X44277Y13453D01*
G01X44258Y13457D01*
G01X44239Y13462D01*
G01X44219Y13465D01*
G01X44200Y13468D01*
G01X44194Y13469D01*
G01X44184Y13473D01*
G01X44179Y13477D01*
G01X44175Y13481D01*
G01X44171Y13486D01*
G01X44168Y13490D01*
G01X44166Y13496D01*
G01X44165Y13502D01*
G01X44164Y13507D01*
G01X44166Y13519D01*
G01X44168Y13525D01*
G01X44171Y13530D01*
G01X44179Y13538D01*
G01X44184Y13542D01*
G01X44194Y13546D01*
G01X44200Y13547D01*
G01X44219Y13550D01*
G01X44239Y13553D01*
G01X44258Y13557D01*
G01X44277Y13563D01*
G01X44295Y13568D01*
G01X44314Y13575D01*
G01X44332Y13582D01*
G01X44350Y13591D01*
G01X44384Y13609D01*
G01X44416Y13631D01*
G01X44432Y13643D01*
G01X44447Y13655D01*
G01X44461Y13668D01*
G01X44476Y13682D01*
G01X44489Y13696D01*
G01X44502Y13711D01*
G01X44514Y13726D01*
G01X44525Y13742D01*
G01X44536Y13759D01*
G01X44546Y13776D01*
G01X44564Y13810D01*
G01X44578Y13846D01*
G01X44585Y13865D01*
G01X44590Y13884D01*
G01X44598Y13922D01*
G01X44601Y13941D01*
G01X44603Y13961D01*
G01X44605Y13980D01*
G01X44605Y14019D01*
G01X44603Y14038D01*
G01X44601Y14058D01*
G01X44598Y14077D01*
G01X44590Y14115D01*
G01X44585Y14134D01*
G01X44579Y14152D01*
G01X44572Y14170D01*
G01X44564Y14188D01*
G01X44556Y14205D01*
G01X44547Y14223D01*
G01X44537Y14239D01*
G01X44515Y14271D01*
G01X44503Y14287D01*
G01X44490Y14301D01*
G01X44477Y14316D01*
G01X44464Y14329D01*
G01X44449Y14342D01*
G01X44435Y14355D01*
G01X44419Y14367D01*
G01X44403Y14378D01*
G01X44387Y14388D01*
G01X44370Y14398D01*
G01X44353Y14407D01*
G01X44335Y14415D01*
G01X44318Y14423D01*
G01X44299Y14430D01*
G01X44281Y14436D01*
G01X44262Y14441D01*
G01X44224Y14449D01*
G01X44200Y14452D01*
G01X44175Y14454D01*
G01X44150Y14455D01*
G01X44125Y14454D01*
G01X44100Y14452D01*
G01X44075Y14449D01*
G01X44037Y14441D01*
G01X44018Y14436D01*
G01X44000Y14430D01*
G01X43981Y14423D01*
G01X43964Y14415D01*
G01X43946Y14407D01*
G01X43929Y14398D01*
G01X43912Y14388D01*
G01X43896Y14378D01*
G01X43880Y14367D01*
G01X43864Y14355D01*
G01X43850Y14342D01*
G01X43835Y14329D01*
G01X43822Y14316D01*
G01X43809Y14301D01*
G01X43796Y14287D01*
G01X43784Y14271D01*
G01X43762Y14239D01*
G01X43752Y14223D01*
G01X43743Y14205D01*
G01X43735Y14188D01*
G01X43727Y14170D01*
G01X43720Y14152D01*
G01X43714Y14134D01*
G01X43709Y14115D01*
G01X43701Y14077D01*
G01X43698Y14058D01*
G01X43696Y14038D01*
G01X43694Y14019D01*
G01X43694Y13980D01*
G01X43696Y13961D01*
G01X43698Y13941D01*
G01X43701Y13922D01*
G01X43709Y13884D01*
G01X43714Y13865D01*
G01X43721Y13846D01*
G01X43735Y13810D01*
G01X43753Y13776D01*
G01X43763Y13759D01*
G01X43774Y13742D01*
G01X43785Y13726D01*
G01X43797Y13711D01*
G01X43810Y13696D01*
G01X43823Y13682D01*
G01X43838Y13668D01*
G01X43852Y13655D01*
G01X43867Y13643D01*
G01X43883Y13631D01*
G01X43915Y13609D01*
G01X43932Y13600D01*
G01X43950Y13591D01*
G01X43967Y13582D01*
G01X43985Y13575D01*
G01X44004Y13568D01*
G01X44022Y13563D01*
G01X44041Y13557D01*
G01X44060Y13553D01*
G01X44080Y13550D01*
G01X44099Y13547D01*
G01X44105Y13546D01*
G01X44115Y13542D01*
G01X44120Y13538D01*
G01X44128Y13530D01*
G01X44131Y13525D01*
G01X44133Y13519D01*
G01X44135Y13507D01*
G01X44134Y13502D01*
G01X44133Y13496D01*
G01X44131Y13490D01*
G01X44128Y13486D01*
G01X44124Y13481D01*
G01X44120Y13477D01*
G01X44115Y13473D01*
G01X44105Y13469D01*
G01X44099Y13468D01*
G01X44079Y13465D01*
G01X44060Y13462D01*
G01X44040Y13457D01*
G01X44022Y13452D01*
G01X44003Y13446D01*
G01X43984Y13439D01*
G01X43966Y13432D01*
G01X43930Y13414D01*
G01X43913Y13404D01*
G01X43897Y13394D01*
G01X43880Y13382D01*
G01X43864Y13370D01*
G01X43849Y13357D01*
G01X43835Y13344D01*
G01X43807Y13316D01*
G01X43795Y13301D01*
G01X43782Y13285D01*
G01X43771Y13269D01*
G01X43760Y13252D01*
G01X43751Y13235D01*
G01X43733Y13199D01*
G01X43730Y13194D01*
G01X43727Y13190D01*
G01X43723Y13186D01*
G01X43718Y13182D01*
G01X43713Y13179D01*
G01X43708Y13177D01*
G01X43702Y13176D01*
G01X34233Y13176D01*
G01X34221Y13180D01*
G01X34215Y13183D01*
G01X32809Y14589D01*
G01X32801Y14599D01*
G01X32797Y14611D01*
G01X32797Y15252D01*
G01X32799Y15258D01*
G01X32801Y15263D01*
G01X32804Y15269D01*
G01X32812Y15281D01*
G01X32819Y15294D01*
G01X32825Y15307D01*
G01X32830Y15321D01*
G01X32838Y15349D01*
G01X32840Y15363D01*
G01X32842Y15378D01*
G01X32842Y15406D01*
G01X32840Y15419D01*
G01X32839Y15432D01*
G01X32836Y15446D01*
G01X32832Y15458D01*
G01X32828Y15471D01*
G01X32822Y15483D01*
G01X32817Y15495D01*
G01X32810Y15507D01*
G01X32803Y15518D01*
G01X32795Y15529D01*
G01X32777Y15549D01*
G01X32768Y15558D01*
G01X32757Y15567D01*
G01X32747Y15575D01*
G01X32735Y15582D01*
G01X32724Y15588D01*
G01X32712Y15594D01*
G01X32699Y15599D01*
G01X32687Y15603D01*
G01X32674Y15607D01*
G01X32661Y15610D01*
G01X32648Y15612D01*
G01X32634Y15613D01*
G37*
G36*
G01X37729Y3890D02*
G01X37690Y3890D01*
G01X37671Y3889D01*
G01X37651Y3887D01*
G01X37632Y3884D01*
G01X37594Y3876D01*
G01X37575Y3871D01*
G01X37556Y3865D01*
G01X37520Y3851D01*
G01X37503Y3843D01*
G01X37485Y3834D01*
G01X37468Y3824D01*
G01X37452Y3814D01*
G01X37436Y3803D01*
G01X37420Y3791D01*
G01X37405Y3779D01*
G01X37390Y3766D01*
G01X37377Y3753D01*
G01X37363Y3738D01*
G01X37350Y3724D01*
G01X37338Y3709D01*
G01X37326Y3693D01*
G01X37315Y3677D01*
G01X37305Y3661D01*
G01X37295Y3644D01*
G01X37286Y3626D01*
G01X37278Y3609D01*
G01X37264Y3573D01*
G01X37258Y3554D01*
G01X37248Y3516D01*
G01X37242Y3478D01*
G01X37240Y3458D01*
G01X37239Y3439D01*
G01X37239Y3400D01*
G01X37240Y3381D01*
G01X37242Y3361D01*
G01X37248Y3323D01*
G01X37258Y3285D01*
G01X37264Y3267D01*
G01X37271Y3248D01*
G01X37278Y3230D01*
G01X37286Y3213D01*
G01X37295Y3195D01*
G01X37305Y3178D01*
G01X37315Y3162D01*
G01X37326Y3146D01*
G01X37338Y3130D01*
G01X37350Y3115D01*
G01X37363Y3101D01*
G01X37377Y3086D01*
G01X37390Y3073D01*
G01X37405Y3060D01*
G01X37420Y3048D01*
G01X37436Y3036D01*
G01X37452Y3025D01*
G01X37468Y3015D01*
G01X37485Y3005D01*
G01X37503Y2996D01*
G01X37520Y2988D01*
G01X37556Y2974D01*
G01X37575Y2968D01*
G01X37594Y2963D01*
G01X37632Y2955D01*
G01X37651Y2952D01*
G01X37671Y2950D01*
G01X37690Y2949D01*
G01X37710Y2948D01*
G01X37748Y2950D01*
G01X37768Y2952D01*
G01X37787Y2955D01*
G01X37825Y2963D01*
G01X37844Y2968D01*
G01X37863Y2974D01*
G01X37899Y2988D01*
G01X37916Y2996D01*
G01X37934Y3005D01*
G01X37951Y3015D01*
G01X37967Y3025D01*
G01X37983Y3036D01*
G01X37999Y3048D01*
G01X38014Y3060D01*
G01X38029Y3073D01*
G01X38043Y3086D01*
G01X38056Y3101D01*
G01X38069Y3115D01*
G01X38081Y3130D01*
G01X38093Y3146D01*
G01X38104Y3162D01*
G01X38114Y3178D01*
G01X38124Y3195D01*
G01X38133Y3213D01*
G01X38141Y3230D01*
G01X38148Y3248D01*
G01X38155Y3267D01*
G01X38161Y3285D01*
G01X38171Y3323D01*
G01X38177Y3361D01*
G01X38179Y3381D01*
G01X38181Y3419D01*
G01X38180Y3439D01*
G01X38179Y3458D01*
G01X38177Y3478D01*
G01X38171Y3516D01*
G01X38161Y3554D01*
G01X38155Y3573D01*
G01X38141Y3609D01*
G01X38133Y3626D01*
G01X38124Y3644D01*
G01X38114Y3661D01*
G01X38104Y3677D01*
G01X38093Y3693D01*
G01X38081Y3709D01*
G01X38069Y3724D01*
G01X38056Y3738D01*
G01X38043Y3753D01*
G01X38029Y3766D01*
G01X38014Y3779D01*
G01X37999Y3791D01*
G01X37983Y3803D01*
G01X37967Y3814D01*
G01X37951Y3824D01*
G01X37934Y3834D01*
G01X37916Y3843D01*
G01X37899Y3851D01*
G01X37863Y3865D01*
G01X37844Y3871D01*
G01X37825Y3876D01*
G01X37787Y3884D01*
G01X37768Y3887D01*
G01X37748Y3889D01*
G01X37729Y3890D01*
G37*
G36*
G01X13559Y3890D02*
G01X13520Y3890D01*
G01X13501Y3889D01*
G01X13481Y3887D01*
G01X13462Y3884D01*
G01X13424Y3876D01*
G01X13405Y3871D01*
G01X13386Y3865D01*
G01X13350Y3851D01*
G01X13333Y3843D01*
G01X13315Y3834D01*
G01X13298Y3824D01*
G01X13282Y3814D01*
G01X13266Y3803D01*
G01X13250Y3791D01*
G01X13235Y3779D01*
G01X13221Y3766D01*
G01X13206Y3753D01*
G01X13193Y3738D01*
G01X13180Y3724D01*
G01X13168Y3709D01*
G01X13156Y3693D01*
G01X13145Y3677D01*
G01X13135Y3661D01*
G01X13125Y3644D01*
G01X13116Y3626D01*
G01X13108Y3609D01*
G01X13094Y3573D01*
G01X13088Y3554D01*
G01X13078Y3516D01*
G01X13072Y3478D01*
G01X13070Y3458D01*
G01X13069Y3439D01*
G01X13068Y3419D01*
G01X13070Y3381D01*
G01X13072Y3361D01*
G01X13078Y3323D01*
G01X13088Y3285D01*
G01X13094Y3267D01*
G01X13101Y3248D01*
G01X13108Y3230D01*
G01X13116Y3213D01*
G01X13125Y3195D01*
G01X13135Y3178D01*
G01X13145Y3162D01*
G01X13156Y3146D01*
G01X13168Y3130D01*
G01X13180Y3115D01*
G01X13193Y3101D01*
G01X13206Y3086D01*
G01X13221Y3073D01*
G01X13235Y3060D01*
G01X13250Y3048D01*
G01X13266Y3036D01*
G01X13282Y3025D01*
G01X13298Y3015D01*
G01X13315Y3005D01*
G01X13333Y2996D01*
G01X13350Y2988D01*
G01X13386Y2974D01*
G01X13405Y2968D01*
G01X13424Y2963D01*
G01X13462Y2955D01*
G01X13481Y2952D01*
G01X13501Y2950D01*
G01X13539Y2948D01*
G01X13559Y2949D01*
G01X13578Y2950D01*
G01X13598Y2952D01*
G01X13617Y2955D01*
G01X13655Y2963D01*
G01X13674Y2968D01*
G01X13693Y2974D01*
G01X13729Y2988D01*
G01X13746Y2996D01*
G01X13764Y3005D01*
G01X13781Y3015D01*
G01X13797Y3025D01*
G01X13813Y3036D01*
G01X13829Y3048D01*
G01X13844Y3060D01*
G01X13859Y3073D01*
G01X13872Y3086D01*
G01X13886Y3101D01*
G01X13899Y3115D01*
G01X13911Y3130D01*
G01X13923Y3146D01*
G01X13934Y3162D01*
G01X13944Y3178D01*
G01X13954Y3195D01*
G01X13963Y3213D01*
G01X13971Y3230D01*
G01X13978Y3248D01*
G01X13985Y3267D01*
G01X13991Y3285D01*
G01X14001Y3323D01*
G01X14007Y3361D01*
G01X14009Y3381D01*
G01X14010Y3400D01*
G01X14010Y3439D01*
G01X14009Y3458D01*
G01X14007Y3478D01*
G01X14001Y3516D01*
G01X13991Y3554D01*
G01X13985Y3573D01*
G01X13971Y3609D01*
G01X13963Y3626D01*
G01X13954Y3644D01*
G01X13944Y3661D01*
G01X13934Y3677D01*
G01X13923Y3693D01*
G01X13911Y3709D01*
G01X13899Y3724D01*
G01X13886Y3738D01*
G01X13872Y3753D01*
G01X13859Y3766D01*
G01X13844Y3779D01*
G01X13829Y3791D01*
G01X13813Y3803D01*
G01X13797Y3814D01*
G01X13781Y3824D01*
G01X13764Y3834D01*
G01X13746Y3843D01*
G01X13729Y3851D01*
G01X13693Y3865D01*
G01X13674Y3871D01*
G01X13655Y3876D01*
G01X13617Y3884D01*
G01X13598Y3887D01*
G01X13578Y3889D01*
G01X13559Y3890D01*
G37*
G36*
G01X39509Y3890D02*
G01X39470Y3890D01*
G01X39451Y3889D01*
G01X39431Y3887D01*
G01X39412Y3884D01*
G01X39374Y3876D01*
G01X39355Y3871D01*
G01X39336Y3865D01*
G01X39300Y3851D01*
G01X39283Y3843D01*
G01X39265Y3834D01*
G01X39248Y3824D01*
G01X39232Y3814D01*
G01X39216Y3803D01*
G01X39200Y3791D01*
G01X39185Y3779D01*
G01X39171Y3766D01*
G01X39156Y3753D01*
G01X39143Y3738D01*
G01X39130Y3724D01*
G01X39118Y3709D01*
G01X39106Y3693D01*
G01X39095Y3677D01*
G01X39085Y3661D01*
G01X39075Y3644D01*
G01X39066Y3626D01*
G01X39058Y3609D01*
G01X39044Y3573D01*
G01X39038Y3554D01*
G01X39033Y3535D01*
G01X39025Y3497D01*
G01X39022Y3478D01*
G01X39020Y3458D01*
G01X39019Y3439D01*
G01X39018Y3419D01*
G01X39020Y3381D01*
G01X39022Y3361D01*
G01X39025Y3342D01*
G01X39033Y3304D01*
G01X39038Y3285D01*
G01X39044Y3267D01*
G01X39051Y3248D01*
G01X39058Y3230D01*
G01X39066Y3213D01*
G01X39075Y3195D01*
G01X39085Y3178D01*
G01X39095Y3162D01*
G01X39106Y3146D01*
G01X39118Y3130D01*
G01X39130Y3115D01*
G01X39143Y3101D01*
G01X39156Y3086D01*
G01X39171Y3073D01*
G01X39185Y3060D01*
G01X39200Y3048D01*
G01X39216Y3036D01*
G01X39232Y3025D01*
G01X39248Y3015D01*
G01X39265Y3005D01*
G01X39283Y2996D01*
G01X39300Y2988D01*
G01X39336Y2974D01*
G01X39355Y2968D01*
G01X39374Y2963D01*
G01X39412Y2955D01*
G01X39431Y2952D01*
G01X39451Y2950D01*
G01X39489Y2948D01*
G01X39509Y2949D01*
G01X39528Y2950D01*
G01X39548Y2952D01*
G01X39567Y2955D01*
G01X39605Y2963D01*
G01X39624Y2968D01*
G01X39643Y2974D01*
G01X39679Y2988D01*
G01X39696Y2996D01*
G01X39714Y3005D01*
G01X39731Y3015D01*
G01X39747Y3025D01*
G01X39763Y3036D01*
G01X39779Y3048D01*
G01X39794Y3060D01*
G01X39809Y3073D01*
G01X39822Y3086D01*
G01X39836Y3101D01*
G01X39849Y3115D01*
G01X39861Y3130D01*
G01X39873Y3146D01*
G01X39884Y3162D01*
G01X39894Y3178D01*
G01X39904Y3195D01*
G01X39913Y3213D01*
G01X39921Y3230D01*
G01X39928Y3248D01*
G01X39935Y3267D01*
G01X39941Y3285D01*
G01X39951Y3323D01*
G01X39957Y3361D01*
G01X39959Y3381D01*
G01X39960Y3400D01*
G01X39960Y3439D01*
G01X39959Y3458D01*
G01X39957Y3478D01*
G01X39951Y3516D01*
G01X39941Y3554D01*
G01X39935Y3573D01*
G01X39921Y3609D01*
G01X39913Y3626D01*
G01X39904Y3644D01*
G01X39894Y3661D01*
G01X39884Y3677D01*
G01X39873Y3693D01*
G01X39861Y3709D01*
G01X39849Y3724D01*
G01X39836Y3738D01*
G01X39822Y3753D01*
G01X39809Y3766D01*
G01X39794Y3779D01*
G01X39779Y3791D01*
G01X39763Y3803D01*
G01X39747Y3814D01*
G01X39731Y3824D01*
G01X39714Y3834D01*
G01X39696Y3843D01*
G01X39679Y3851D01*
G01X39643Y3865D01*
G01X39624Y3871D01*
G01X39605Y3876D01*
G01X39567Y3884D01*
G01X39548Y3887D01*
G01X39528Y3889D01*
G01X39509Y3890D01*
G37*
G36*
G01X28688Y4099D02*
G01X28650Y4101D01*
G01X28630Y4100D01*
G01X28611Y4099D01*
G01X28592Y4097D01*
G01X28573Y4094D01*
G01X28555Y4090D01*
G01X28536Y4086D01*
G01X28518Y4081D01*
G01X28499Y4075D01*
G01X28481Y4068D01*
G01X28464Y4061D01*
G01X28413Y4034D01*
G01X28381Y4012D01*
G01X28366Y4000D01*
G01X28352Y3988D01*
G01X28338Y3975D01*
G01X28311Y3948D01*
G01X28287Y3918D01*
G01X28265Y3886D01*
G01X28256Y3869D01*
G01X28247Y3853D01*
G01X28239Y3835D01*
G01X28231Y3818D01*
G01X28224Y3800D01*
G01X28218Y3782D01*
G01X28213Y3763D01*
G01X28209Y3744D01*
G01X28205Y3726D01*
G01X28202Y3707D01*
G01X28200Y3688D01*
G01X28198Y3650D01*
G01X28199Y3630D01*
G01X28200Y3611D01*
G01X28202Y3592D01*
G01X28205Y3573D01*
G01X28209Y3555D01*
G01X28213Y3536D01*
G01X28218Y3517D01*
G01X28224Y3499D01*
G01X28231Y3481D01*
G01X28239Y3464D01*
G01X28247Y3446D01*
G01X28256Y3430D01*
G01X28265Y3413D01*
G01X28287Y3381D01*
G01X28311Y3351D01*
G01X28338Y3324D01*
G01X28352Y3311D01*
G01X28366Y3299D01*
G01X28381Y3287D01*
G01X28413Y3265D01*
G01X28464Y3238D01*
G01X28481Y3231D01*
G01X28499Y3224D01*
G01X28518Y3218D01*
G01X28536Y3213D01*
G01X28555Y3209D01*
G01X28573Y3205D01*
G01X28592Y3202D01*
G01X28611Y3200D01*
G01X28630Y3199D01*
G01X28650Y3198D01*
G01X28688Y3200D01*
G01X28707Y3202D01*
G01X28726Y3205D01*
G01X28744Y3209D01*
G01X28763Y3213D01*
G01X28781Y3218D01*
G01X28800Y3224D01*
G01X28818Y3231D01*
G01X28835Y3238D01*
G01X28886Y3265D01*
G01X28918Y3287D01*
G01X28933Y3299D01*
G01X28947Y3311D01*
G01X28961Y3324D01*
G01X28988Y3351D01*
G01X29012Y3381D01*
G01X29034Y3413D01*
G01X29043Y3430D01*
G01X29052Y3446D01*
G01X29060Y3464D01*
G01X29068Y3481D01*
G01X29075Y3499D01*
G01X29081Y3517D01*
G01X29086Y3536D01*
G01X29090Y3555D01*
G01X29094Y3573D01*
G01X29097Y3592D01*
G01X29099Y3611D01*
G01X29100Y3630D01*
G01X29101Y3650D01*
G01X29099Y3688D01*
G01X29097Y3707D01*
G01X29094Y3726D01*
G01X29090Y3744D01*
G01X29086Y3763D01*
G01X29081Y3782D01*
G01X29075Y3800D01*
G01X29068Y3818D01*
G01X29060Y3835D01*
G01X29052Y3853D01*
G01X29043Y3869D01*
G01X29034Y3886D01*
G01X29012Y3918D01*
G01X28988Y3948D01*
G01X28961Y3975D01*
G01X28947Y3988D01*
G01X28933Y4000D01*
G01X28918Y4012D01*
G01X28886Y4034D01*
G01X28835Y4061D01*
G01X28818Y4068D01*
G01X28800Y4075D01*
G01X28781Y4081D01*
G01X28763Y4086D01*
G01X28744Y4090D01*
G01X28726Y4094D01*
G01X28707Y4097D01*
G01X28688Y4099D01*
G37*
G36*
G01X22688Y4099D02*
G01X22650Y4101D01*
G01X22630Y4100D01*
G01X22611Y4099D01*
G01X22592Y4097D01*
G01X22573Y4094D01*
G01X22555Y4090D01*
G01X22536Y4086D01*
G01X22518Y4081D01*
G01X22499Y4075D01*
G01X22481Y4068D01*
G01X22464Y4061D01*
G01X22413Y4034D01*
G01X22381Y4012D01*
G01X22366Y4000D01*
G01X22352Y3988D01*
G01X22338Y3975D01*
G01X22311Y3948D01*
G01X22287Y3918D01*
G01X22265Y3886D01*
G01X22256Y3869D01*
G01X22247Y3853D01*
G01X22239Y3835D01*
G01X22231Y3818D01*
G01X22224Y3800D01*
G01X22218Y3782D01*
G01X22213Y3763D01*
G01X22209Y3744D01*
G01X22205Y3726D01*
G01X22202Y3707D01*
G01X22200Y3688D01*
G01X22198Y3650D01*
G01X22199Y3630D01*
G01X22200Y3611D01*
G01X22202Y3592D01*
G01X22205Y3573D01*
G01X22209Y3555D01*
G01X22213Y3536D01*
G01X22218Y3517D01*
G01X22224Y3499D01*
G01X22231Y3481D01*
G01X22239Y3464D01*
G01X22247Y3446D01*
G01X22256Y3430D01*
G01X22265Y3413D01*
G01X22287Y3381D01*
G01X22311Y3351D01*
G01X22338Y3324D01*
G01X22352Y3311D01*
G01X22366Y3299D01*
G01X22381Y3287D01*
G01X22413Y3265D01*
G01X22464Y3238D01*
G01X22481Y3231D01*
G01X22499Y3224D01*
G01X22518Y3218D01*
G01X22536Y3213D01*
G01X22555Y3209D01*
G01X22573Y3205D01*
G01X22592Y3202D01*
G01X22611Y3200D01*
G01X22630Y3199D01*
G01X22650Y3198D01*
G01X22688Y3200D01*
G01X22707Y3202D01*
G01X22726Y3205D01*
G01X22744Y3209D01*
G01X22763Y3213D01*
G01X22781Y3218D01*
G01X22800Y3224D01*
G01X22818Y3231D01*
G01X22835Y3238D01*
G01X22886Y3265D01*
G01X22918Y3287D01*
G01X22933Y3299D01*
G01X22947Y3311D01*
G01X22961Y3324D01*
G01X22988Y3351D01*
G01X23012Y3381D01*
G01X23034Y3413D01*
G01X23043Y3430D01*
G01X23052Y3446D01*
G01X23060Y3464D01*
G01X23068Y3481D01*
G01X23075Y3499D01*
G01X23081Y3517D01*
G01X23086Y3536D01*
G01X23090Y3555D01*
G01X23094Y3573D01*
G01X23097Y3592D01*
G01X23099Y3611D01*
G01X23100Y3630D01*
G01X23101Y3650D01*
G01X23099Y3688D01*
G01X23097Y3707D01*
G01X23094Y3726D01*
G01X23090Y3744D01*
G01X23086Y3763D01*
G01X23081Y3782D01*
G01X23075Y3800D01*
G01X23068Y3818D01*
G01X23060Y3835D01*
G01X23052Y3853D01*
G01X23043Y3869D01*
G01X23034Y3886D01*
G01X23012Y3918D01*
G01X22988Y3948D01*
G01X22961Y3975D01*
G01X22947Y3988D01*
G01X22933Y4000D01*
G01X22918Y4012D01*
G01X22886Y4034D01*
G01X22835Y4061D01*
G01X22818Y4068D01*
G01X22800Y4075D01*
G01X22781Y4081D01*
G01X22763Y4086D01*
G01X22744Y4090D01*
G01X22726Y4094D01*
G01X22707Y4097D01*
G01X22688Y4099D01*
G37*
G36*
G01X28688Y5099D02*
G01X28650Y5101D01*
G01X28630Y5100D01*
G01X28611Y5099D01*
G01X28592Y5097D01*
G01X28573Y5094D01*
G01X28555Y5090D01*
G01X28536Y5086D01*
G01X28518Y5081D01*
G01X28499Y5075D01*
G01X28481Y5068D01*
G01X28464Y5061D01*
G01X28413Y5034D01*
G01X28381Y5012D01*
G01X28366Y5000D01*
G01X28352Y4988D01*
G01X28338Y4975D01*
G01X28311Y4948D01*
G01X28287Y4918D01*
G01X28265Y4886D01*
G01X28256Y4869D01*
G01X28247Y4853D01*
G01X28239Y4835D01*
G01X28231Y4818D01*
G01X28224Y4800D01*
G01X28218Y4782D01*
G01X28213Y4763D01*
G01X28209Y4744D01*
G01X28205Y4726D01*
G01X28202Y4707D01*
G01X28200Y4688D01*
G01X28198Y4650D01*
G01X28199Y4630D01*
G01X28200Y4611D01*
G01X28202Y4592D01*
G01X28205Y4573D01*
G01X28209Y4555D01*
G01X28213Y4536D01*
G01X28218Y4517D01*
G01X28224Y4499D01*
G01X28231Y4481D01*
G01X28239Y4464D01*
G01X28247Y4446D01*
G01X28256Y4430D01*
G01X28265Y4413D01*
G01X28287Y4381D01*
G01X28311Y4351D01*
G01X28338Y4324D01*
G01X28352Y4311D01*
G01X28366Y4299D01*
G01X28381Y4287D01*
G01X28413Y4265D01*
G01X28464Y4238D01*
G01X28481Y4231D01*
G01X28499Y4224D01*
G01X28518Y4218D01*
G01X28536Y4213D01*
G01X28555Y4209D01*
G01X28573Y4205D01*
G01X28592Y4202D01*
G01X28611Y4200D01*
G01X28630Y4199D01*
G01X28650Y4198D01*
G01X28688Y4200D01*
G01X28707Y4202D01*
G01X28726Y4205D01*
G01X28744Y4209D01*
G01X28763Y4213D01*
G01X28781Y4218D01*
G01X28800Y4224D01*
G01X28818Y4231D01*
G01X28835Y4238D01*
G01X28886Y4265D01*
G01X28918Y4287D01*
G01X28933Y4299D01*
G01X28947Y4311D01*
G01X28961Y4324D01*
G01X28988Y4351D01*
G01X29012Y4381D01*
G01X29034Y4413D01*
G01X29043Y4430D01*
G01X29052Y4446D01*
G01X29060Y4464D01*
G01X29068Y4481D01*
G01X29075Y4499D01*
G01X29081Y4517D01*
G01X29086Y4536D01*
G01X29090Y4555D01*
G01X29094Y4573D01*
G01X29097Y4592D01*
G01X29099Y4611D01*
G01X29100Y4630D01*
G01X29101Y4650D01*
G01X29099Y4688D01*
G01X29097Y4707D01*
G01X29094Y4726D01*
G01X29090Y4744D01*
G01X29086Y4763D01*
G01X29081Y4782D01*
G01X29075Y4800D01*
G01X29068Y4818D01*
G01X29060Y4835D01*
G01X29052Y4853D01*
G01X29043Y4869D01*
G01X29034Y4886D01*
G01X29012Y4918D01*
G01X28988Y4948D01*
G01X28961Y4975D01*
G01X28947Y4988D01*
G01X28933Y5000D01*
G01X28918Y5012D01*
G01X28886Y5034D01*
G01X28835Y5061D01*
G01X28818Y5068D01*
G01X28800Y5075D01*
G01X28781Y5081D01*
G01X28763Y5086D01*
G01X28744Y5090D01*
G01X28726Y5094D01*
G01X28707Y5097D01*
G01X28688Y5099D01*
G37*
G36*
G01X22688Y5099D02*
G01X22650Y5101D01*
G01X22630Y5100D01*
G01X22611Y5099D01*
G01X22592Y5097D01*
G01X22573Y5094D01*
G01X22555Y5090D01*
G01X22536Y5086D01*
G01X22518Y5081D01*
G01X22499Y5075D01*
G01X22481Y5068D01*
G01X22464Y5061D01*
G01X22413Y5034D01*
G01X22381Y5012D01*
G01X22366Y5000D01*
G01X22352Y4988D01*
G01X22338Y4975D01*
G01X22311Y4948D01*
G01X22287Y4918D01*
G01X22265Y4886D01*
G01X22256Y4869D01*
G01X22247Y4853D01*
G01X22239Y4835D01*
G01X22231Y4818D01*
G01X22224Y4800D01*
G01X22218Y4782D01*
G01X22213Y4763D01*
G01X22209Y4744D01*
G01X22205Y4726D01*
G01X22202Y4707D01*
G01X22200Y4688D01*
G01X22198Y4650D01*
G01X22199Y4630D01*
G01X22200Y4611D01*
G01X22202Y4592D01*
G01X22205Y4573D01*
G01X22209Y4555D01*
G01X22213Y4536D01*
G01X22218Y4517D01*
G01X22224Y4499D01*
G01X22231Y4481D01*
G01X22239Y4464D01*
G01X22247Y4446D01*
G01X22256Y4430D01*
G01X22265Y4413D01*
G01X22287Y4381D01*
G01X22311Y4351D01*
G01X22338Y4324D01*
G01X22352Y4311D01*
G01X22366Y4299D01*
G01X22381Y4287D01*
G01X22413Y4265D01*
G01X22464Y4238D01*
G01X22481Y4231D01*
G01X22499Y4224D01*
G01X22518Y4218D01*
G01X22536Y4213D01*
G01X22555Y4209D01*
G01X22573Y4205D01*
G01X22592Y4202D01*
G01X22611Y4200D01*
G01X22630Y4199D01*
G01X22650Y4198D01*
G01X22688Y4200D01*
G01X22707Y4202D01*
G01X22726Y4205D01*
G01X22744Y4209D01*
G01X22763Y4213D01*
G01X22781Y4218D01*
G01X22800Y4224D01*
G01X22818Y4231D01*
G01X22835Y4238D01*
G01X22886Y4265D01*
G01X22918Y4287D01*
G01X22933Y4299D01*
G01X22947Y4311D01*
G01X22961Y4324D01*
G01X22988Y4351D01*
G01X23012Y4381D01*
G01X23034Y4413D01*
G01X23043Y4430D01*
G01X23052Y4446D01*
G01X23060Y4464D01*
G01X23068Y4481D01*
G01X23075Y4499D01*
G01X23081Y4517D01*
G01X23086Y4536D01*
G01X23090Y4555D01*
G01X23094Y4573D01*
G01X23097Y4592D01*
G01X23099Y4611D01*
G01X23100Y4630D01*
G01X23101Y4650D01*
G01X23099Y4688D01*
G01X23097Y4707D01*
G01X23094Y4726D01*
G01X23090Y4744D01*
G01X23086Y4763D01*
G01X23081Y4782D01*
G01X23075Y4800D01*
G01X23068Y4818D01*
G01X23060Y4835D01*
G01X23052Y4853D01*
G01X23043Y4869D01*
G01X23034Y4886D01*
G01X23012Y4918D01*
G01X22988Y4948D01*
G01X22961Y4975D01*
G01X22947Y4988D01*
G01X22933Y5000D01*
G01X22918Y5012D01*
G01X22886Y5034D01*
G01X22835Y5061D01*
G01X22818Y5068D01*
G01X22800Y5075D01*
G01X22781Y5081D01*
G01X22763Y5086D01*
G01X22744Y5090D01*
G01X22726Y5094D01*
G01X22707Y5097D01*
G01X22688Y5099D01*
G37*
G36*
G01X22688Y6099D02*
G01X22650Y6101D01*
G01X22630Y6100D01*
G01X22611Y6099D01*
G01X22592Y6097D01*
G01X22573Y6094D01*
G01X22555Y6090D01*
G01X22536Y6086D01*
G01X22518Y6081D01*
G01X22499Y6075D01*
G01X22481Y6068D01*
G01X22464Y6061D01*
G01X22413Y6034D01*
G01X22381Y6012D01*
G01X22366Y6000D01*
G01X22352Y5988D01*
G01X22338Y5975D01*
G01X22311Y5948D01*
G01X22287Y5918D01*
G01X22265Y5886D01*
G01X22256Y5869D01*
G01X22247Y5853D01*
G01X22239Y5835D01*
G01X22231Y5818D01*
G01X22224Y5800D01*
G01X22218Y5782D01*
G01X22213Y5763D01*
G01X22209Y5744D01*
G01X22205Y5726D01*
G01X22202Y5707D01*
G01X22200Y5688D01*
G01X22198Y5650D01*
G01X22199Y5630D01*
G01X22200Y5611D01*
G01X22202Y5592D01*
G01X22205Y5573D01*
G01X22209Y5555D01*
G01X22213Y5536D01*
G01X22218Y5517D01*
G01X22224Y5499D01*
G01X22231Y5481D01*
G01X22239Y5464D01*
G01X22247Y5446D01*
G01X22256Y5430D01*
G01X22265Y5413D01*
G01X22287Y5381D01*
G01X22311Y5351D01*
G01X22338Y5324D01*
G01X22352Y5311D01*
G01X22366Y5299D01*
G01X22381Y5287D01*
G01X22413Y5265D01*
G01X22464Y5238D01*
G01X22481Y5231D01*
G01X22499Y5224D01*
G01X22518Y5218D01*
G01X22536Y5213D01*
G01X22555Y5209D01*
G01X22573Y5205D01*
G01X22592Y5202D01*
G01X22611Y5200D01*
G01X22630Y5199D01*
G01X22650Y5198D01*
G01X22688Y5200D01*
G01X22707Y5202D01*
G01X22726Y5205D01*
G01X22744Y5209D01*
G01X22763Y5213D01*
G01X22781Y5218D01*
G01X22800Y5224D01*
G01X22818Y5231D01*
G01X22835Y5238D01*
G01X22886Y5265D01*
G01X22918Y5287D01*
G01X22933Y5299D01*
G01X22947Y5311D01*
G01X22961Y5324D01*
G01X22988Y5351D01*
G01X23012Y5381D01*
G01X23034Y5413D01*
G01X23043Y5430D01*
G01X23052Y5446D01*
G01X23060Y5464D01*
G01X23068Y5481D01*
G01X23075Y5499D01*
G01X23081Y5517D01*
G01X23086Y5536D01*
G01X23090Y5555D01*
G01X23094Y5573D01*
G01X23097Y5592D01*
G01X23099Y5611D01*
G01X23100Y5630D01*
G01X23101Y5650D01*
G01X23099Y5688D01*
G01X23097Y5707D01*
G01X23094Y5726D01*
G01X23090Y5744D01*
G01X23086Y5763D01*
G01X23081Y5782D01*
G01X23075Y5800D01*
G01X23068Y5818D01*
G01X23060Y5835D01*
G01X23052Y5853D01*
G01X23043Y5869D01*
G01X23034Y5886D01*
G01X23012Y5918D01*
G01X22988Y5948D01*
G01X22961Y5975D01*
G01X22947Y5988D01*
G01X22933Y6000D01*
G01X22918Y6012D01*
G01X22886Y6034D01*
G01X22835Y6061D01*
G01X22818Y6068D01*
G01X22800Y6075D01*
G01X22781Y6081D01*
G01X22763Y6086D01*
G01X22744Y6090D01*
G01X22726Y6094D01*
G01X22707Y6097D01*
G01X22688Y6099D01*
G37*
G36*
G01X28688Y6099D02*
G01X28650Y6101D01*
G01X28630Y6100D01*
G01X28611Y6099D01*
G01X28592Y6097D01*
G01X28573Y6094D01*
G01X28555Y6090D01*
G01X28536Y6086D01*
G01X28518Y6081D01*
G01X28499Y6075D01*
G01X28481Y6068D01*
G01X28464Y6061D01*
G01X28413Y6034D01*
G01X28381Y6012D01*
G01X28366Y6000D01*
G01X28352Y5988D01*
G01X28338Y5975D01*
G01X28311Y5948D01*
G01X28287Y5918D01*
G01X28265Y5886D01*
G01X28256Y5869D01*
G01X28247Y5853D01*
G01X28239Y5835D01*
G01X28231Y5818D01*
G01X28224Y5800D01*
G01X28218Y5782D01*
G01X28213Y5763D01*
G01X28209Y5744D01*
G01X28205Y5726D01*
G01X28202Y5707D01*
G01X28200Y5688D01*
G01X28198Y5650D01*
G01X28199Y5630D01*
G01X28200Y5611D01*
G01X28202Y5592D01*
G01X28205Y5573D01*
G01X28209Y5555D01*
G01X28213Y5536D01*
G01X28218Y5517D01*
G01X28224Y5499D01*
G01X28231Y5481D01*
G01X28239Y5464D01*
G01X28247Y5446D01*
G01X28256Y5430D01*
G01X28265Y5413D01*
G01X28287Y5381D01*
G01X28311Y5351D01*
G01X28338Y5324D01*
G01X28352Y5311D01*
G01X28366Y5299D01*
G01X28381Y5287D01*
G01X28413Y5265D01*
G01X28464Y5238D01*
G01X28481Y5231D01*
G01X28499Y5224D01*
G01X28518Y5218D01*
G01X28536Y5213D01*
G01X28555Y5209D01*
G01X28573Y5205D01*
G01X28592Y5202D01*
G01X28611Y5200D01*
G01X28630Y5199D01*
G01X28650Y5198D01*
G01X28688Y5200D01*
G01X28707Y5202D01*
G01X28726Y5205D01*
G01X28744Y5209D01*
G01X28763Y5213D01*
G01X28781Y5218D01*
G01X28800Y5224D01*
G01X28818Y5231D01*
G01X28835Y5238D01*
G01X28886Y5265D01*
G01X28918Y5287D01*
G01X28933Y5299D01*
G01X28947Y5311D01*
G01X28961Y5324D01*
G01X28988Y5351D01*
G01X29012Y5381D01*
G01X29034Y5413D01*
G01X29043Y5430D01*
G01X29052Y5446D01*
G01X29060Y5464D01*
G01X29068Y5481D01*
G01X29075Y5499D01*
G01X29081Y5517D01*
G01X29086Y5536D01*
G01X29090Y5555D01*
G01X29094Y5573D01*
G01X29097Y5592D01*
G01X29099Y5611D01*
G01X29100Y5630D01*
G01X29101Y5650D01*
G01X29099Y5688D01*
G01X29097Y5707D01*
G01X29094Y5726D01*
G01X29090Y5744D01*
G01X29086Y5763D01*
G01X29081Y5782D01*
G01X29075Y5800D01*
G01X29068Y5818D01*
G01X29060Y5835D01*
G01X29052Y5853D01*
G01X29043Y5869D01*
G01X29034Y5886D01*
G01X29012Y5918D01*
G01X28988Y5948D01*
G01X28961Y5975D01*
G01X28947Y5988D01*
G01X28933Y6000D01*
G01X28918Y6012D01*
G01X28886Y6034D01*
G01X28835Y6061D01*
G01X28818Y6068D01*
G01X28800Y6075D01*
G01X28781Y6081D01*
G01X28763Y6086D01*
G01X28744Y6090D01*
G01X28726Y6094D01*
G01X28707Y6097D01*
G01X28688Y6099D01*
G37*
G36*
G01X11798Y6449D02*
G01X11760Y6451D01*
G01X11740Y6450D01*
G01X11721Y6449D01*
G01X11701Y6447D01*
G01X11682Y6444D01*
G01X11644Y6436D01*
G01X11625Y6431D01*
G01X11606Y6425D01*
G01X11570Y6411D01*
G01X11553Y6403D01*
G01X11535Y6394D01*
G01X11518Y6384D01*
G01X11502Y6374D01*
G01X11486Y6363D01*
G01X11470Y6351D01*
G01X11455Y6339D01*
G01X11440Y6326D01*
G01X11427Y6313D01*
G01X11413Y6298D01*
G01X11400Y6284D01*
G01X11388Y6269D01*
G01X11376Y6253D01*
G01X11365Y6237D01*
G01X11355Y6221D01*
G01X11345Y6204D01*
G01X11336Y6186D01*
G01X11328Y6169D01*
G01X11321Y6151D01*
G01X11314Y6132D01*
G01X11308Y6114D01*
G01X11298Y6076D01*
G01X11292Y6038D01*
G01X11290Y6018D01*
G01X11289Y5999D01*
G01X11289Y5960D01*
G01X11290Y5941D01*
G01X11292Y5921D01*
G01X11298Y5883D01*
G01X11308Y5845D01*
G01X11314Y5826D01*
G01X11328Y5790D01*
G01X11336Y5773D01*
G01X11345Y5755D01*
G01X11355Y5738D01*
G01X11365Y5722D01*
G01X11376Y5706D01*
G01X11388Y5690D01*
G01X11400Y5675D01*
G01X11413Y5661D01*
G01X11427Y5646D01*
G01X11440Y5633D01*
G01X11455Y5620D01*
G01X11470Y5608D01*
G01X11486Y5596D01*
G01X11502Y5585D01*
G01X11518Y5575D01*
G01X11535Y5565D01*
G01X11553Y5556D01*
G01X11570Y5548D01*
G01X11606Y5534D01*
G01X11625Y5528D01*
G01X11644Y5523D01*
G01X11682Y5515D01*
G01X11701Y5512D01*
G01X11721Y5510D01*
G01X11740Y5509D01*
G01X11779Y5509D01*
G01X11798Y5510D01*
G01X11818Y5512D01*
G01X11837Y5515D01*
G01X11875Y5523D01*
G01X11894Y5528D01*
G01X11913Y5534D01*
G01X11949Y5548D01*
G01X11966Y5556D01*
G01X11984Y5565D01*
G01X12001Y5575D01*
G01X12017Y5585D01*
G01X12033Y5596D01*
G01X12049Y5608D01*
G01X12064Y5620D01*
G01X12078Y5633D01*
G01X12093Y5646D01*
G01X12106Y5661D01*
G01X12119Y5675D01*
G01X12131Y5690D01*
G01X12143Y5706D01*
G01X12154Y5722D01*
G01X12164Y5738D01*
G01X12174Y5755D01*
G01X12183Y5773D01*
G01X12191Y5790D01*
G01X12205Y5826D01*
G01X12211Y5845D01*
G01X12221Y5883D01*
G01X12227Y5921D01*
G01X12229Y5941D01*
G01X12230Y5960D01*
G01X12231Y5980D01*
G01X12229Y6018D01*
G01X12227Y6038D01*
G01X12221Y6076D01*
G01X12211Y6114D01*
G01X12205Y6132D01*
G01X12198Y6151D01*
G01X12191Y6169D01*
G01X12183Y6186D01*
G01X12174Y6204D01*
G01X12164Y6221D01*
G01X12154Y6237D01*
G01X12143Y6253D01*
G01X12131Y6269D01*
G01X12119Y6284D01*
G01X12106Y6298D01*
G01X12093Y6313D01*
G01X12078Y6326D01*
G01X12064Y6339D01*
G01X12049Y6351D01*
G01X12033Y6363D01*
G01X12017Y6374D01*
G01X12001Y6384D01*
G01X11984Y6394D01*
G01X11966Y6403D01*
G01X11949Y6411D01*
G01X11913Y6425D01*
G01X11894Y6431D01*
G01X11875Y6436D01*
G01X11837Y6444D01*
G01X11818Y6447D01*
G01X11798Y6449D01*
G37*
G36*
G01X37748Y6449D02*
G01X37710Y6451D01*
G01X37690Y6450D01*
G01X37671Y6449D01*
G01X37651Y6447D01*
G01X37632Y6444D01*
G01X37594Y6436D01*
G01X37575Y6431D01*
G01X37556Y6425D01*
G01X37520Y6411D01*
G01X37503Y6403D01*
G01X37485Y6394D01*
G01X37468Y6384D01*
G01X37452Y6374D01*
G01X37436Y6363D01*
G01X37420Y6351D01*
G01X37405Y6339D01*
G01X37390Y6326D01*
G01X37377Y6313D01*
G01X37363Y6298D01*
G01X37350Y6284D01*
G01X37338Y6269D01*
G01X37326Y6253D01*
G01X37315Y6237D01*
G01X37305Y6221D01*
G01X37295Y6204D01*
G01X37286Y6186D01*
G01X37278Y6169D01*
G01X37271Y6151D01*
G01X37264Y6132D01*
G01X37258Y6114D01*
G01X37248Y6076D01*
G01X37242Y6038D01*
G01X37240Y6018D01*
G01X37239Y5999D01*
G01X37239Y5960D01*
G01X37240Y5941D01*
G01X37242Y5921D01*
G01X37248Y5883D01*
G01X37258Y5845D01*
G01X37264Y5826D01*
G01X37278Y5790D01*
G01X37286Y5773D01*
G01X37295Y5755D01*
G01X37305Y5738D01*
G01X37315Y5722D01*
G01X37326Y5706D01*
G01X37338Y5690D01*
G01X37350Y5675D01*
G01X37363Y5661D01*
G01X37377Y5646D01*
G01X37390Y5633D01*
G01X37405Y5620D01*
G01X37420Y5608D01*
G01X37436Y5596D01*
G01X37452Y5585D01*
G01X37468Y5575D01*
G01X37485Y5565D01*
G01X37503Y5556D01*
G01X37520Y5548D01*
G01X37556Y5534D01*
G01X37575Y5528D01*
G01X37594Y5523D01*
G01X37632Y5515D01*
G01X37651Y5512D01*
G01X37671Y5510D01*
G01X37690Y5509D01*
G01X37729Y5509D01*
G01X37748Y5510D01*
G01X37768Y5512D01*
G01X37787Y5515D01*
G01X37825Y5523D01*
G01X37844Y5528D01*
G01X37863Y5534D01*
G01X37899Y5548D01*
G01X37916Y5556D01*
G01X37934Y5565D01*
G01X37951Y5575D01*
G01X37967Y5585D01*
G01X37983Y5596D01*
G01X37999Y5608D01*
G01X38014Y5620D01*
G01X38029Y5633D01*
G01X38043Y5646D01*
G01X38056Y5661D01*
G01X38069Y5675D01*
G01X38081Y5690D01*
G01X38093Y5706D01*
G01X38104Y5722D01*
G01X38114Y5738D01*
G01X38124Y5755D01*
G01X38133Y5773D01*
G01X38141Y5790D01*
G01X38155Y5826D01*
G01X38161Y5845D01*
G01X38171Y5883D01*
G01X38177Y5921D01*
G01X38179Y5941D01*
G01X38180Y5960D01*
G01X38181Y5980D01*
G01X38179Y6018D01*
G01X38177Y6038D01*
G01X38171Y6076D01*
G01X38161Y6114D01*
G01X38155Y6132D01*
G01X38148Y6151D01*
G01X38141Y6169D01*
G01X38133Y6186D01*
G01X38124Y6204D01*
G01X38114Y6221D01*
G01X38104Y6237D01*
G01X38093Y6253D01*
G01X38081Y6269D01*
G01X38069Y6284D01*
G01X38056Y6298D01*
G01X38043Y6313D01*
G01X38029Y6326D01*
G01X38014Y6339D01*
G01X37999Y6351D01*
G01X37983Y6363D01*
G01X37967Y6374D01*
G01X37951Y6384D01*
G01X37934Y6394D01*
G01X37916Y6403D01*
G01X37899Y6411D01*
G01X37863Y6425D01*
G01X37844Y6431D01*
G01X37825Y6436D01*
G01X37787Y6444D01*
G01X37768Y6447D01*
G01X37748Y6449D01*
G37*
G36*
G01X22688Y14099D02*
G01X22650Y14101D01*
G01X22631Y14100D01*
G01X22611Y14099D01*
G01X22593Y14097D01*
G01X22574Y14094D01*
G01X22536Y14086D01*
G01X22518Y14081D01*
G01X22500Y14075D01*
G01X22482Y14068D01*
G01X22465Y14061D01*
G01X22447Y14053D01*
G01X22431Y14044D01*
G01X22414Y14034D01*
G01X22398Y14024D01*
G01X22382Y14013D01*
G01X22368Y14001D01*
G01X22353Y13989D01*
G01X22325Y13963D01*
G01X22312Y13949D01*
G01X22288Y13919D01*
G01X22277Y13904D01*
G01X22257Y13872D01*
G01X22248Y13855D01*
G01X22240Y13838D01*
G01X22232Y13820D01*
G01X22225Y13803D01*
G01X22219Y13784D01*
G01X22209Y13748D01*
G01X22206Y13729D01*
G01X22202Y13710D01*
G01X22202Y13705D01*
G01X22200Y13699D01*
G01X22197Y13694D01*
G01X22193Y13690D01*
G01X22189Y13685D01*
G01X22185Y13682D01*
G01X22180Y13679D01*
G01X22174Y13677D01*
G01X22169Y13676D01*
G01X19600Y13676D01*
G01X19587Y13675D01*
G01X19575Y13674D01*
G01X19562Y13671D01*
G01X19538Y13665D01*
G01X19526Y13659D01*
G01X19515Y13654D01*
G01X19504Y13648D01*
G01X19484Y13632D01*
G01X19475Y13624D01*
G01X13406Y7555D01*
G01X13392Y7535D01*
G01X13385Y7524D01*
G01X13380Y7513D01*
G01X13375Y7501D01*
G01X13371Y7489D01*
G01X13365Y7465D01*
G01X13364Y7452D01*
G01X13364Y6443D01*
G01X13363Y6437D01*
G01X13362Y6432D01*
G01X13360Y6426D01*
G01X13357Y6421D01*
G01X13354Y6417D01*
G01X13350Y6413D01*
G01X13345Y6409D01*
G01X13340Y6406D01*
G01X13323Y6398D01*
G01X13305Y6388D01*
G01X13288Y6378D01*
G01X13272Y6367D01*
G01X13240Y6343D01*
G01X13225Y6330D01*
G01X13211Y6317D01*
G01X13197Y6303D01*
G01X13171Y6273D01*
G01X13159Y6257D01*
G01X13148Y6241D01*
G01X13137Y6224D01*
G01X13127Y6207D01*
G01X13118Y6190D01*
G01X13110Y6172D01*
G01X13102Y6153D01*
G01X13095Y6135D01*
G01X13083Y6097D01*
G01X13079Y6078D01*
G01X13075Y6058D01*
G01X13072Y6039D01*
G01X13070Y6019D01*
G01X13069Y5999D01*
G01X13068Y5980D01*
G01X13069Y5960D01*
G01X13070Y5941D01*
G01X13072Y5921D01*
G01X13078Y5883D01*
G01X13088Y5845D01*
G01X13094Y5826D01*
G01X13108Y5790D01*
G01X13116Y5773D01*
G01X13125Y5755D01*
G01X13135Y5738D01*
G01X13145Y5722D01*
G01X13156Y5706D01*
G01X13168Y5690D01*
G01X13180Y5675D01*
G01X13193Y5661D01*
G01X13206Y5646D01*
G01X13221Y5633D01*
G01X13235Y5620D01*
G01X13250Y5608D01*
G01X13266Y5596D01*
G01X13282Y5585D01*
G01X13298Y5575D01*
G01X13315Y5565D01*
G01X13333Y5556D01*
G01X13350Y5548D01*
G01X13386Y5534D01*
G01X13405Y5528D01*
G01X13424Y5523D01*
G01X13462Y5515D01*
G01X13481Y5512D01*
G01X13501Y5510D01*
G01X13520Y5509D01*
G01X13559Y5509D01*
G01X13578Y5510D01*
G01X13598Y5512D01*
G01X13617Y5515D01*
G01X13655Y5523D01*
G01X13674Y5528D01*
G01X13693Y5534D01*
G01X13729Y5548D01*
G01X13746Y5556D01*
G01X13764Y5565D01*
G01X13781Y5575D01*
G01X13797Y5585D01*
G01X13813Y5596D01*
G01X13829Y5608D01*
G01X13844Y5620D01*
G01X13859Y5633D01*
G01X13872Y5646D01*
G01X13886Y5661D01*
G01X13899Y5675D01*
G01X13911Y5690D01*
G01X13923Y5706D01*
G01X13934Y5722D01*
G01X13944Y5738D01*
G01X13954Y5755D01*
G01X13963Y5773D01*
G01X13971Y5790D01*
G01X13985Y5826D01*
G01X13991Y5845D01*
G01X14001Y5883D01*
G01X14007Y5921D01*
G01X14009Y5941D01*
G01X14010Y5960D01*
G01X14010Y5999D01*
G01X14009Y6019D01*
G01X14007Y6039D01*
G01X14004Y6058D01*
G01X14000Y6078D01*
G01X13996Y6097D01*
G01X13984Y6135D01*
G01X13977Y6153D01*
G01X13969Y6172D01*
G01X13961Y6190D01*
G01X13952Y6207D01*
G01X13942Y6224D01*
G01X13931Y6241D01*
G01X13920Y6257D01*
G01X13908Y6273D01*
G01X13882Y6303D01*
G01X13868Y6317D01*
G01X13854Y6330D01*
G01X13839Y6343D01*
G01X13807Y6367D01*
G01X13791Y6378D01*
G01X13774Y6388D01*
G01X13756Y6398D01*
G01X13739Y6406D01*
G01X13734Y6409D01*
G01X13729Y6413D01*
G01X13725Y6417D01*
G01X13722Y6421D01*
G01X13719Y6426D01*
G01X13717Y6432D01*
G01X13716Y6437D01*
G01X13715Y6443D01*
G01X13715Y7350D01*
G01X13716Y7356D01*
G01X13720Y7368D01*
G01X13723Y7373D01*
G01X13727Y7378D01*
G01X19665Y13316D01*
G01X19671Y13319D01*
G01X19683Y13323D01*
G01X22328Y13323D01*
G01X22334Y13322D01*
G01X22339Y13320D01*
G01X22344Y13317D01*
G01X22379Y13289D01*
G01X22394Y13278D01*
G01X22411Y13267D01*
G01X22427Y13257D01*
G01X22444Y13248D01*
G01X22480Y13232D01*
G01X22498Y13225D01*
G01X22516Y13219D01*
G01X22535Y13213D01*
G01X22553Y13209D01*
G01X22572Y13205D01*
G01X22592Y13202D01*
G01X22611Y13200D01*
G01X22630Y13199D01*
G01X22650Y13198D01*
G01X22688Y13200D01*
G01X22707Y13202D01*
G01X22726Y13205D01*
G01X22744Y13209D01*
G01X22763Y13213D01*
G01X22781Y13218D01*
G01X22800Y13224D01*
G01X22818Y13231D01*
G01X22835Y13238D01*
G01X22886Y13265D01*
G01X22918Y13287D01*
G01X22933Y13299D01*
G01X22947Y13311D01*
G01X22961Y13324D01*
G01X22988Y13351D01*
G01X23012Y13381D01*
G01X23034Y13413D01*
G01X23043Y13430D01*
G01X23052Y13446D01*
G01X23060Y13464D01*
G01X23068Y13481D01*
G01X23075Y13499D01*
G01X23081Y13517D01*
G01X23086Y13536D01*
G01X23090Y13555D01*
G01X23094Y13573D01*
G01X23097Y13592D01*
G01X23099Y13611D01*
G01X23100Y13630D01*
G01X23101Y13650D01*
G01X23099Y13688D01*
G01X23097Y13707D01*
G01X23094Y13726D01*
G01X23090Y13744D01*
G01X23086Y13763D01*
G01X23081Y13782D01*
G01X23075Y13800D01*
G01X23068Y13818D01*
G01X23060Y13835D01*
G01X23052Y13853D01*
G01X23043Y13869D01*
G01X23034Y13886D01*
G01X23012Y13918D01*
G01X22988Y13948D01*
G01X22961Y13975D01*
G01X22947Y13988D01*
G01X22933Y14000D01*
G01X22918Y14012D01*
G01X22886Y14034D01*
G01X22835Y14061D01*
G01X22818Y14068D01*
G01X22800Y14075D01*
G01X22781Y14081D01*
G01X22763Y14086D01*
G01X22744Y14090D01*
G01X22726Y14094D01*
G01X22707Y14097D01*
G01X22688Y14099D01*
G37*
G36*
G01X22688Y7099D02*
G01X22650Y7101D01*
G01X22630Y7100D01*
G01X22611Y7099D01*
G01X22592Y7097D01*
G01X22573Y7094D01*
G01X22555Y7090D01*
G01X22536Y7086D01*
G01X22518Y7081D01*
G01X22499Y7075D01*
G01X22481Y7068D01*
G01X22464Y7061D01*
G01X22413Y7034D01*
G01X22381Y7012D01*
G01X22366Y7000D01*
G01X22352Y6988D01*
G01X22338Y6975D01*
G01X22311Y6948D01*
G01X22287Y6918D01*
G01X22265Y6886D01*
G01X22256Y6869D01*
G01X22247Y6853D01*
G01X22239Y6835D01*
G01X22231Y6818D01*
G01X22224Y6800D01*
G01X22218Y6782D01*
G01X22213Y6763D01*
G01X22209Y6744D01*
G01X22205Y6726D01*
G01X22202Y6707D01*
G01X22200Y6688D01*
G01X22198Y6650D01*
G01X22199Y6630D01*
G01X22200Y6611D01*
G01X22202Y6592D01*
G01X22205Y6573D01*
G01X22209Y6555D01*
G01X22213Y6536D01*
G01X22218Y6517D01*
G01X22224Y6499D01*
G01X22231Y6481D01*
G01X22239Y6464D01*
G01X22247Y6446D01*
G01X22256Y6430D01*
G01X22265Y6413D01*
G01X22287Y6381D01*
G01X22311Y6351D01*
G01X22338Y6324D01*
G01X22352Y6311D01*
G01X22366Y6299D01*
G01X22381Y6287D01*
G01X22413Y6265D01*
G01X22464Y6238D01*
G01X22481Y6231D01*
G01X22499Y6224D01*
G01X22518Y6218D01*
G01X22536Y6213D01*
G01X22555Y6209D01*
G01X22573Y6205D01*
G01X22592Y6202D01*
G01X22611Y6200D01*
G01X22630Y6199D01*
G01X22650Y6198D01*
G01X22688Y6200D01*
G01X22707Y6202D01*
G01X22726Y6205D01*
G01X22744Y6209D01*
G01X22763Y6213D01*
G01X22781Y6218D01*
G01X22800Y6224D01*
G01X22818Y6231D01*
G01X22835Y6238D01*
G01X22886Y6265D01*
G01X22918Y6287D01*
G01X22933Y6299D01*
G01X22947Y6311D01*
G01X22961Y6324D01*
G01X22988Y6351D01*
G01X23012Y6381D01*
G01X23034Y6413D01*
G01X23043Y6430D01*
G01X23052Y6446D01*
G01X23060Y6464D01*
G01X23068Y6481D01*
G01X23075Y6499D01*
G01X23081Y6517D01*
G01X23086Y6536D01*
G01X23090Y6555D01*
G01X23094Y6573D01*
G01X23097Y6592D01*
G01X23099Y6611D01*
G01X23100Y6630D01*
G01X23101Y6650D01*
G01X23099Y6688D01*
G01X23097Y6707D01*
G01X23094Y6726D01*
G01X23090Y6744D01*
G01X23086Y6763D01*
G01X23081Y6782D01*
G01X23075Y6800D01*
G01X23068Y6818D01*
G01X23060Y6835D01*
G01X23052Y6853D01*
G01X23043Y6869D01*
G01X23034Y6886D01*
G01X23012Y6918D01*
G01X22988Y6948D01*
G01X22961Y6975D01*
G01X22947Y6988D01*
G01X22933Y7000D01*
G01X22918Y7012D01*
G01X22886Y7034D01*
G01X22835Y7061D01*
G01X22818Y7068D01*
G01X22800Y7075D01*
G01X22781Y7081D01*
G01X22763Y7086D01*
G01X22744Y7090D01*
G01X22726Y7094D01*
G01X22707Y7097D01*
G01X22688Y7099D01*
G37*
G36*
G01X22688Y8099D02*
G01X22650Y8101D01*
G01X22630Y8100D01*
G01X22611Y8099D01*
G01X22592Y8097D01*
G01X22573Y8094D01*
G01X22555Y8090D01*
G01X22536Y8086D01*
G01X22518Y8081D01*
G01X22499Y8075D01*
G01X22481Y8068D01*
G01X22464Y8061D01*
G01X22413Y8034D01*
G01X22381Y8012D01*
G01X22366Y8000D01*
G01X22352Y7988D01*
G01X22338Y7975D01*
G01X22311Y7948D01*
G01X22287Y7918D01*
G01X22265Y7886D01*
G01X22256Y7869D01*
G01X22247Y7853D01*
G01X22239Y7835D01*
G01X22231Y7818D01*
G01X22224Y7800D01*
G01X22218Y7782D01*
G01X22213Y7763D01*
G01X22209Y7744D01*
G01X22205Y7726D01*
G01X22202Y7707D01*
G01X22200Y7688D01*
G01X22198Y7650D01*
G01X22199Y7630D01*
G01X22200Y7611D01*
G01X22202Y7592D01*
G01X22205Y7573D01*
G01X22209Y7555D01*
G01X22213Y7536D01*
G01X22218Y7517D01*
G01X22224Y7499D01*
G01X22231Y7481D01*
G01X22239Y7464D01*
G01X22247Y7446D01*
G01X22256Y7430D01*
G01X22265Y7413D01*
G01X22287Y7381D01*
G01X22311Y7351D01*
G01X22338Y7324D01*
G01X22352Y7311D01*
G01X22366Y7299D01*
G01X22381Y7287D01*
G01X22413Y7265D01*
G01X22464Y7238D01*
G01X22481Y7231D01*
G01X22499Y7224D01*
G01X22518Y7218D01*
G01X22536Y7213D01*
G01X22555Y7209D01*
G01X22573Y7205D01*
G01X22592Y7202D01*
G01X22611Y7200D01*
G01X22630Y7199D01*
G01X22650Y7198D01*
G01X22688Y7200D01*
G01X22707Y7202D01*
G01X22726Y7205D01*
G01X22744Y7209D01*
G01X22763Y7213D01*
G01X22781Y7218D01*
G01X22800Y7224D01*
G01X22818Y7231D01*
G01X22835Y7238D01*
G01X22886Y7265D01*
G01X22918Y7287D01*
G01X22933Y7299D01*
G01X22947Y7311D01*
G01X22961Y7324D01*
G01X22988Y7351D01*
G01X23012Y7381D01*
G01X23034Y7413D01*
G01X23043Y7430D01*
G01X23052Y7446D01*
G01X23060Y7464D01*
G01X23068Y7481D01*
G01X23075Y7499D01*
G01X23081Y7517D01*
G01X23086Y7536D01*
G01X23090Y7555D01*
G01X23094Y7573D01*
G01X23097Y7592D01*
G01X23099Y7611D01*
G01X23100Y7630D01*
G01X23101Y7650D01*
G01X23099Y7688D01*
G01X23097Y7707D01*
G01X23094Y7726D01*
G01X23090Y7744D01*
G01X23086Y7763D01*
G01X23081Y7782D01*
G01X23075Y7800D01*
G01X23068Y7818D01*
G01X23060Y7835D01*
G01X23052Y7853D01*
G01X23043Y7869D01*
G01X23034Y7886D01*
G01X23012Y7918D01*
G01X22988Y7948D01*
G01X22961Y7975D01*
G01X22947Y7988D01*
G01X22933Y8000D01*
G01X22918Y8012D01*
G01X22886Y8034D01*
G01X22835Y8061D01*
G01X22818Y8068D01*
G01X22800Y8075D01*
G01X22781Y8081D01*
G01X22763Y8086D01*
G01X22744Y8090D01*
G01X22726Y8094D01*
G01X22707Y8097D01*
G01X22688Y8099D01*
G37*
G36*
G01X28688Y8099D02*
G01X28650Y8101D01*
G01X28630Y8100D01*
G01X28611Y8099D01*
G01X28592Y8097D01*
G01X28573Y8094D01*
G01X28555Y8090D01*
G01X28536Y8086D01*
G01X28518Y8081D01*
G01X28499Y8075D01*
G01X28481Y8068D01*
G01X28464Y8061D01*
G01X28413Y8034D01*
G01X28381Y8012D01*
G01X28366Y8000D01*
G01X28352Y7988D01*
G01X28338Y7975D01*
G01X28311Y7948D01*
G01X28287Y7918D01*
G01X28265Y7886D01*
G01X28256Y7869D01*
G01X28247Y7853D01*
G01X28239Y7835D01*
G01X28231Y7818D01*
G01X28224Y7800D01*
G01X28218Y7782D01*
G01X28213Y7763D01*
G01X28209Y7744D01*
G01X28205Y7726D01*
G01X28202Y7707D01*
G01X28200Y7688D01*
G01X28198Y7650D01*
G01X28199Y7630D01*
G01X28200Y7611D01*
G01X28202Y7592D01*
G01X28205Y7573D01*
G01X28209Y7555D01*
G01X28213Y7536D01*
G01X28218Y7517D01*
G01X28224Y7499D01*
G01X28231Y7481D01*
G01X28239Y7464D01*
G01X28247Y7446D01*
G01X28256Y7430D01*
G01X28265Y7413D01*
G01X28287Y7381D01*
G01X28311Y7351D01*
G01X28338Y7324D01*
G01X28352Y7311D01*
G01X28366Y7299D01*
G01X28381Y7287D01*
G01X28413Y7265D01*
G01X28464Y7238D01*
G01X28481Y7231D01*
G01X28499Y7224D01*
G01X28518Y7218D01*
G01X28536Y7213D01*
G01X28555Y7209D01*
G01X28573Y7205D01*
G01X28592Y7202D01*
G01X28611Y7200D01*
G01X28630Y7199D01*
G01X28650Y7198D01*
G01X28688Y7200D01*
G01X28707Y7202D01*
G01X28726Y7205D01*
G01X28744Y7209D01*
G01X28763Y7213D01*
G01X28781Y7218D01*
G01X28800Y7224D01*
G01X28818Y7231D01*
G01X28835Y7238D01*
G01X28886Y7265D01*
G01X28918Y7287D01*
G01X28933Y7299D01*
G01X28947Y7311D01*
G01X28961Y7324D01*
G01X28988Y7351D01*
G01X29012Y7381D01*
G01X29034Y7413D01*
G01X29043Y7430D01*
G01X29052Y7446D01*
G01X29060Y7464D01*
G01X29068Y7481D01*
G01X29075Y7499D01*
G01X29081Y7517D01*
G01X29086Y7536D01*
G01X29090Y7555D01*
G01X29094Y7573D01*
G01X29097Y7592D01*
G01X29099Y7611D01*
G01X29100Y7630D01*
G01X29101Y7650D01*
G01X29099Y7688D01*
G01X29097Y7707D01*
G01X29094Y7726D01*
G01X29090Y7744D01*
G01X29086Y7763D01*
G01X29081Y7782D01*
G01X29075Y7800D01*
G01X29068Y7818D01*
G01X29060Y7835D01*
G01X29052Y7853D01*
G01X29043Y7869D01*
G01X29034Y7886D01*
G01X29012Y7918D01*
G01X28988Y7948D01*
G01X28961Y7975D01*
G01X28947Y7988D01*
G01X28933Y8000D01*
G01X28918Y8012D01*
G01X28886Y8034D01*
G01X28835Y8061D01*
G01X28818Y8068D01*
G01X28800Y8075D01*
G01X28781Y8081D01*
G01X28763Y8086D01*
G01X28744Y8090D01*
G01X28726Y8094D01*
G01X28707Y8097D01*
G01X28688Y8099D01*
G37*
G36*
G01X22688Y9099D02*
G01X22650Y9101D01*
G01X22630Y9100D01*
G01X22611Y9099D01*
G01X22592Y9097D01*
G01X22573Y9094D01*
G01X22555Y9090D01*
G01X22536Y9086D01*
G01X22518Y9081D01*
G01X22499Y9075D01*
G01X22481Y9068D01*
G01X22464Y9061D01*
G01X22413Y9034D01*
G01X22381Y9012D01*
G01X22366Y9000D01*
G01X22352Y8988D01*
G01X22338Y8975D01*
G01X22311Y8948D01*
G01X22287Y8918D01*
G01X22265Y8886D01*
G01X22256Y8869D01*
G01X22247Y8853D01*
G01X22239Y8835D01*
G01X22231Y8818D01*
G01X22224Y8800D01*
G01X22218Y8782D01*
G01X22213Y8763D01*
G01X22209Y8744D01*
G01X22205Y8726D01*
G01X22202Y8707D01*
G01X22200Y8688D01*
G01X22198Y8650D01*
G01X22199Y8630D01*
G01X22200Y8611D01*
G01X22202Y8592D01*
G01X22205Y8573D01*
G01X22209Y8555D01*
G01X22213Y8536D01*
G01X22218Y8517D01*
G01X22224Y8499D01*
G01X22231Y8481D01*
G01X22239Y8464D01*
G01X22247Y8446D01*
G01X22256Y8430D01*
G01X22265Y8413D01*
G01X22287Y8381D01*
G01X22311Y8351D01*
G01X22338Y8324D01*
G01X22352Y8311D01*
G01X22366Y8299D01*
G01X22381Y8287D01*
G01X22413Y8265D01*
G01X22464Y8238D01*
G01X22481Y8231D01*
G01X22499Y8224D01*
G01X22518Y8218D01*
G01X22536Y8213D01*
G01X22555Y8209D01*
G01X22573Y8205D01*
G01X22592Y8202D01*
G01X22611Y8200D01*
G01X22630Y8199D01*
G01X22650Y8198D01*
G01X22688Y8200D01*
G01X22707Y8202D01*
G01X22726Y8205D01*
G01X22744Y8209D01*
G01X22763Y8213D01*
G01X22781Y8218D01*
G01X22800Y8224D01*
G01X22818Y8231D01*
G01X22835Y8238D01*
G01X22886Y8265D01*
G01X22918Y8287D01*
G01X22933Y8299D01*
G01X22947Y8311D01*
G01X22961Y8324D01*
G01X22988Y8351D01*
G01X23012Y8381D01*
G01X23034Y8413D01*
G01X23043Y8430D01*
G01X23052Y8446D01*
G01X23060Y8464D01*
G01X23068Y8481D01*
G01X23075Y8499D01*
G01X23081Y8517D01*
G01X23086Y8536D01*
G01X23090Y8555D01*
G01X23094Y8573D01*
G01X23097Y8592D01*
G01X23099Y8611D01*
G01X23100Y8630D01*
G01X23101Y8650D01*
G01X23099Y8688D01*
G01X23097Y8707D01*
G01X23094Y8726D01*
G01X23090Y8744D01*
G01X23086Y8763D01*
G01X23081Y8782D01*
G01X23075Y8800D01*
G01X23068Y8818D01*
G01X23060Y8835D01*
G01X23052Y8853D01*
G01X23043Y8869D01*
G01X23034Y8886D01*
G01X23012Y8918D01*
G01X22988Y8948D01*
G01X22961Y8975D01*
G01X22947Y8988D01*
G01X22933Y9000D01*
G01X22918Y9012D01*
G01X22886Y9034D01*
G01X22835Y9061D01*
G01X22818Y9068D01*
G01X22800Y9075D01*
G01X22781Y9081D01*
G01X22763Y9086D01*
G01X22744Y9090D01*
G01X22726Y9094D01*
G01X22707Y9097D01*
G01X22688Y9099D01*
G37*
G36*
G01X28688Y9099D02*
G01X28650Y9101D01*
G01X28630Y9100D01*
G01X28611Y9099D01*
G01X28592Y9097D01*
G01X28573Y9094D01*
G01X28555Y9090D01*
G01X28536Y9086D01*
G01X28518Y9081D01*
G01X28499Y9075D01*
G01X28481Y9068D01*
G01X28464Y9061D01*
G01X28413Y9034D01*
G01X28381Y9012D01*
G01X28366Y9000D01*
G01X28352Y8988D01*
G01X28338Y8975D01*
G01X28311Y8948D01*
G01X28287Y8918D01*
G01X28265Y8886D01*
G01X28256Y8869D01*
G01X28247Y8853D01*
G01X28239Y8835D01*
G01X28231Y8818D01*
G01X28224Y8800D01*
G01X28218Y8782D01*
G01X28213Y8763D01*
G01X28209Y8744D01*
G01X28205Y8726D01*
G01X28202Y8707D01*
G01X28200Y8688D01*
G01X28198Y8650D01*
G01X28199Y8630D01*
G01X28200Y8611D01*
G01X28202Y8592D01*
G01X28205Y8573D01*
G01X28209Y8555D01*
G01X28213Y8536D01*
G01X28218Y8517D01*
G01X28224Y8499D01*
G01X28231Y8481D01*
G01X28239Y8464D01*
G01X28247Y8446D01*
G01X28256Y8430D01*
G01X28265Y8413D01*
G01X28287Y8381D01*
G01X28311Y8351D01*
G01X28338Y8324D01*
G01X28352Y8311D01*
G01X28366Y8299D01*
G01X28381Y8287D01*
G01X28413Y8265D01*
G01X28464Y8238D01*
G01X28481Y8231D01*
G01X28499Y8224D01*
G01X28518Y8218D01*
G01X28536Y8213D01*
G01X28555Y8209D01*
G01X28573Y8205D01*
G01X28592Y8202D01*
G01X28611Y8200D01*
G01X28630Y8199D01*
G01X28650Y8198D01*
G01X28688Y8200D01*
G01X28707Y8202D01*
G01X28726Y8205D01*
G01X28744Y8209D01*
G01X28763Y8213D01*
G01X28781Y8218D01*
G01X28800Y8224D01*
G01X28818Y8231D01*
G01X28835Y8238D01*
G01X28886Y8265D01*
G01X28918Y8287D01*
G01X28933Y8299D01*
G01X28947Y8311D01*
G01X28961Y8324D01*
G01X28988Y8351D01*
G01X29012Y8381D01*
G01X29034Y8413D01*
G01X29043Y8430D01*
G01X29052Y8446D01*
G01X29060Y8464D01*
G01X29068Y8481D01*
G01X29075Y8499D01*
G01X29081Y8517D01*
G01X29086Y8536D01*
G01X29090Y8555D01*
G01X29094Y8573D01*
G01X29097Y8592D01*
G01X29099Y8611D01*
G01X29100Y8630D01*
G01X29101Y8650D01*
G01X29099Y8688D01*
G01X29097Y8707D01*
G01X29094Y8726D01*
G01X29090Y8744D01*
G01X29086Y8763D01*
G01X29081Y8782D01*
G01X29075Y8800D01*
G01X29068Y8818D01*
G01X29060Y8835D01*
G01X29052Y8853D01*
G01X29043Y8869D01*
G01X29034Y8886D01*
G01X29012Y8918D01*
G01X28988Y8948D01*
G01X28961Y8975D01*
G01X28947Y8988D01*
G01X28933Y9000D01*
G01X28918Y9012D01*
G01X28886Y9034D01*
G01X28835Y9061D01*
G01X28818Y9068D01*
G01X28800Y9075D01*
G01X28781Y9081D01*
G01X28763Y9086D01*
G01X28744Y9090D01*
G01X28726Y9094D01*
G01X28707Y9097D01*
G01X28688Y9099D01*
G37*
G36*
G01X22688Y10099D02*
G01X22650Y10101D01*
G01X22630Y10100D01*
G01X22611Y10099D01*
G01X22592Y10097D01*
G01X22573Y10094D01*
G01X22555Y10090D01*
G01X22536Y10086D01*
G01X22518Y10081D01*
G01X22499Y10075D01*
G01X22481Y10068D01*
G01X22464Y10061D01*
G01X22413Y10034D01*
G01X22381Y10012D01*
G01X22366Y10000D01*
G01X22352Y9988D01*
G01X22338Y9975D01*
G01X22311Y9948D01*
G01X22287Y9918D01*
G01X22265Y9886D01*
G01X22256Y9869D01*
G01X22247Y9853D01*
G01X22239Y9835D01*
G01X22231Y9818D01*
G01X22224Y9800D01*
G01X22218Y9782D01*
G01X22213Y9763D01*
G01X22209Y9744D01*
G01X22205Y9726D01*
G01X22202Y9707D01*
G01X22200Y9688D01*
G01X22198Y9650D01*
G01X22199Y9630D01*
G01X22200Y9611D01*
G01X22202Y9592D01*
G01X22205Y9573D01*
G01X22209Y9555D01*
G01X22213Y9536D01*
G01X22218Y9517D01*
G01X22224Y9499D01*
G01X22231Y9481D01*
G01X22239Y9464D01*
G01X22247Y9446D01*
G01X22256Y9430D01*
G01X22265Y9413D01*
G01X22287Y9381D01*
G01X22311Y9351D01*
G01X22338Y9324D01*
G01X22352Y9311D01*
G01X22366Y9299D01*
G01X22381Y9287D01*
G01X22413Y9265D01*
G01X22464Y9238D01*
G01X22481Y9231D01*
G01X22499Y9224D01*
G01X22518Y9218D01*
G01X22536Y9213D01*
G01X22555Y9209D01*
G01X22573Y9205D01*
G01X22592Y9202D01*
G01X22611Y9200D01*
G01X22630Y9199D01*
G01X22650Y9198D01*
G01X22688Y9200D01*
G01X22707Y9202D01*
G01X22726Y9205D01*
G01X22744Y9209D01*
G01X22763Y9213D01*
G01X22781Y9218D01*
G01X22800Y9224D01*
G01X22818Y9231D01*
G01X22835Y9238D01*
G01X22886Y9265D01*
G01X22918Y9287D01*
G01X22933Y9299D01*
G01X22947Y9311D01*
G01X22961Y9324D01*
G01X22988Y9351D01*
G01X23012Y9381D01*
G01X23034Y9413D01*
G01X23043Y9430D01*
G01X23052Y9446D01*
G01X23060Y9464D01*
G01X23068Y9481D01*
G01X23075Y9499D01*
G01X23081Y9517D01*
G01X23086Y9536D01*
G01X23090Y9555D01*
G01X23094Y9573D01*
G01X23097Y9592D01*
G01X23099Y9611D01*
G01X23100Y9630D01*
G01X23101Y9650D01*
G01X23099Y9688D01*
G01X23097Y9707D01*
G01X23094Y9726D01*
G01X23090Y9744D01*
G01X23086Y9763D01*
G01X23081Y9782D01*
G01X23075Y9800D01*
G01X23068Y9818D01*
G01X23060Y9835D01*
G01X23052Y9853D01*
G01X23043Y9869D01*
G01X23034Y9886D01*
G01X23012Y9918D01*
G01X22988Y9948D01*
G01X22961Y9975D01*
G01X22947Y9988D01*
G01X22933Y10000D01*
G01X22918Y10012D01*
G01X22886Y10034D01*
G01X22835Y10061D01*
G01X22818Y10068D01*
G01X22800Y10075D01*
G01X22781Y10081D01*
G01X22763Y10086D01*
G01X22744Y10090D01*
G01X22726Y10094D01*
G01X22707Y10097D01*
G01X22688Y10099D01*
G37*
G36*
G01X28688Y10099D02*
G01X28650Y10101D01*
G01X28630Y10100D01*
G01X28611Y10099D01*
G01X28592Y10097D01*
G01X28573Y10094D01*
G01X28555Y10090D01*
G01X28536Y10086D01*
G01X28518Y10081D01*
G01X28499Y10075D01*
G01X28481Y10068D01*
G01X28464Y10061D01*
G01X28413Y10034D01*
G01X28381Y10012D01*
G01X28366Y10000D01*
G01X28352Y9988D01*
G01X28338Y9975D01*
G01X28311Y9948D01*
G01X28287Y9918D01*
G01X28265Y9886D01*
G01X28256Y9869D01*
G01X28247Y9853D01*
G01X28239Y9835D01*
G01X28231Y9818D01*
G01X28224Y9800D01*
G01X28218Y9782D01*
G01X28213Y9763D01*
G01X28209Y9744D01*
G01X28205Y9726D01*
G01X28202Y9707D01*
G01X28200Y9688D01*
G01X28198Y9650D01*
G01X28199Y9630D01*
G01X28200Y9611D01*
G01X28202Y9592D01*
G01X28205Y9573D01*
G01X28209Y9555D01*
G01X28213Y9536D01*
G01X28218Y9517D01*
G01X28224Y9499D01*
G01X28231Y9481D01*
G01X28239Y9464D01*
G01X28247Y9446D01*
G01X28256Y9430D01*
G01X28265Y9413D01*
G01X28287Y9381D01*
G01X28311Y9351D01*
G01X28338Y9324D01*
G01X28352Y9311D01*
G01X28366Y9299D01*
G01X28381Y9287D01*
G01X28413Y9265D01*
G01X28464Y9238D01*
G01X28481Y9231D01*
G01X28499Y9224D01*
G01X28518Y9218D01*
G01X28536Y9213D01*
G01X28555Y9209D01*
G01X28573Y9205D01*
G01X28592Y9202D01*
G01X28611Y9200D01*
G01X28630Y9199D01*
G01X28650Y9198D01*
G01X28688Y9200D01*
G01X28707Y9202D01*
G01X28726Y9205D01*
G01X28744Y9209D01*
G01X28763Y9213D01*
G01X28781Y9218D01*
G01X28800Y9224D01*
G01X28818Y9231D01*
G01X28835Y9238D01*
G01X28886Y9265D01*
G01X28918Y9287D01*
G01X28933Y9299D01*
G01X28947Y9311D01*
G01X28961Y9324D01*
G01X28988Y9351D01*
G01X29012Y9381D01*
G01X29034Y9413D01*
G01X29043Y9430D01*
G01X29052Y9446D01*
G01X29060Y9464D01*
G01X29068Y9481D01*
G01X29075Y9499D01*
G01X29081Y9517D01*
G01X29086Y9536D01*
G01X29090Y9555D01*
G01X29094Y9573D01*
G01X29097Y9592D01*
G01X29099Y9611D01*
G01X29100Y9630D01*
G01X29101Y9650D01*
G01X29099Y9688D01*
G01X29097Y9707D01*
G01X29094Y9726D01*
G01X29090Y9744D01*
G01X29086Y9763D01*
G01X29081Y9782D01*
G01X29075Y9800D01*
G01X29068Y9818D01*
G01X29060Y9835D01*
G01X29052Y9853D01*
G01X29043Y9869D01*
G01X29034Y9886D01*
G01X29012Y9918D01*
G01X28988Y9948D01*
G01X28961Y9975D01*
G01X28947Y9988D01*
G01X28933Y10000D01*
G01X28918Y10012D01*
G01X28886Y10034D01*
G01X28835Y10061D01*
G01X28818Y10068D01*
G01X28800Y10075D01*
G01X28781Y10081D01*
G01X28763Y10086D01*
G01X28744Y10090D01*
G01X28726Y10094D01*
G01X28707Y10097D01*
G01X28688Y10099D01*
G37*
G36*
G01X28688Y11099D02*
G01X28650Y11101D01*
G01X28630Y11100D01*
G01X28611Y11099D01*
G01X28592Y11097D01*
G01X28573Y11094D01*
G01X28555Y11090D01*
G01X28536Y11086D01*
G01X28518Y11081D01*
G01X28499Y11075D01*
G01X28481Y11068D01*
G01X28464Y11061D01*
G01X28413Y11034D01*
G01X28381Y11012D01*
G01X28366Y11000D01*
G01X28352Y10988D01*
G01X28338Y10975D01*
G01X28311Y10948D01*
G01X28287Y10918D01*
G01X28265Y10886D01*
G01X28256Y10869D01*
G01X28247Y10853D01*
G01X28239Y10835D01*
G01X28231Y10818D01*
G01X28224Y10800D01*
G01X28218Y10782D01*
G01X28213Y10763D01*
G01X28209Y10744D01*
G01X28205Y10726D01*
G01X28202Y10707D01*
G01X28200Y10688D01*
G01X28198Y10650D01*
G01X28199Y10630D01*
G01X28200Y10611D01*
G01X28202Y10592D01*
G01X28205Y10573D01*
G01X28209Y10555D01*
G01X28213Y10536D01*
G01X28218Y10517D01*
G01X28224Y10499D01*
G01X28231Y10481D01*
G01X28239Y10464D01*
G01X28247Y10446D01*
G01X28256Y10430D01*
G01X28265Y10413D01*
G01X28287Y10381D01*
G01X28311Y10351D01*
G01X28338Y10324D01*
G01X28352Y10311D01*
G01X28366Y10299D01*
G01X28381Y10287D01*
G01X28413Y10265D01*
G01X28464Y10238D01*
G01X28481Y10231D01*
G01X28499Y10224D01*
G01X28518Y10218D01*
G01X28536Y10213D01*
G01X28555Y10209D01*
G01X28573Y10205D01*
G01X28592Y10202D01*
G01X28611Y10200D01*
G01X28630Y10199D01*
G01X28650Y10198D01*
G01X28688Y10200D01*
G01X28707Y10202D01*
G01X28726Y10205D01*
G01X28744Y10209D01*
G01X28763Y10213D01*
G01X28781Y10218D01*
G01X28800Y10224D01*
G01X28818Y10231D01*
G01X28835Y10238D01*
G01X28886Y10265D01*
G01X28918Y10287D01*
G01X28933Y10299D01*
G01X28947Y10311D01*
G01X28961Y10324D01*
G01X28988Y10351D01*
G01X29012Y10381D01*
G01X29034Y10413D01*
G01X29043Y10430D01*
G01X29052Y10446D01*
G01X29060Y10464D01*
G01X29068Y10481D01*
G01X29075Y10499D01*
G01X29081Y10517D01*
G01X29086Y10536D01*
G01X29090Y10555D01*
G01X29094Y10573D01*
G01X29097Y10592D01*
G01X29099Y10611D01*
G01X29100Y10630D01*
G01X29101Y10650D01*
G01X29099Y10688D01*
G01X29097Y10707D01*
G01X29094Y10726D01*
G01X29090Y10744D01*
G01X29086Y10763D01*
G01X29081Y10782D01*
G01X29075Y10800D01*
G01X29068Y10818D01*
G01X29060Y10835D01*
G01X29052Y10853D01*
G01X29043Y10869D01*
G01X29034Y10886D01*
G01X29012Y10918D01*
G01X28988Y10948D01*
G01X28961Y10975D01*
G01X28947Y10988D01*
G01X28933Y11000D01*
G01X28918Y11012D01*
G01X28886Y11034D01*
G01X28835Y11061D01*
G01X28818Y11068D01*
G01X28800Y11075D01*
G01X28781Y11081D01*
G01X28763Y11086D01*
G01X28744Y11090D01*
G01X28726Y11094D01*
G01X28707Y11097D01*
G01X28688Y11099D01*
G37*
G36*
G01X19963Y11820D02*
G01X19950Y11821D01*
G01X19936Y11820D01*
G01X19923Y11819D01*
G01X19910Y11817D01*
G01X19884Y11811D01*
G01X19871Y11806D01*
G01X19859Y11801D01*
G01X19835Y11789D01*
G01X19813Y11773D01*
G01X19803Y11765D01*
G01X19793Y11756D01*
G01X19784Y11746D01*
G01X19776Y11736D01*
G01X19760Y11714D01*
G01X19748Y11690D01*
G01X19743Y11678D01*
G01X19735Y11652D01*
G01X19732Y11639D01*
G01X19730Y11626D01*
G01X19728Y11600D01*
G01X19730Y11572D01*
G01X19732Y11558D01*
G01X19735Y11544D01*
G01X19739Y11531D01*
G01X19744Y11518D01*
G01X19750Y11505D01*
G01X19756Y11493D01*
G01X19763Y11481D01*
G01X19779Y11459D01*
G01X19788Y11448D01*
G01X19798Y11438D01*
G01X19809Y11429D01*
G01X19819Y11421D01*
G01X19831Y11413D01*
G01X19843Y11406D01*
G01X19855Y11400D01*
G01X19868Y11394D01*
G01X19881Y11389D01*
G01X19894Y11386D01*
G01X19908Y11382D01*
G01X19914Y11381D01*
G01X19924Y11375D01*
G01X19929Y11371D01*
G01X20775Y10525D01*
G01X20784Y10517D01*
G01X20804Y10501D01*
G01X20815Y10495D01*
G01X20826Y10490D01*
G01X20838Y10484D01*
G01X20862Y10478D01*
G01X20875Y10475D01*
G01X20887Y10474D01*
G01X20900Y10473D01*
G01X22215Y10473D01*
G01X22227Y10469D01*
G01X22232Y10466D01*
G01X22241Y10457D01*
G01X22244Y10451D01*
G01X22253Y10434D01*
G01X22263Y10417D01*
G01X22273Y10401D01*
G01X22284Y10385D01*
G01X22296Y10369D01*
G01X22308Y10355D01*
G01X22321Y10340D01*
G01X22335Y10326D01*
G01X22349Y10313D01*
G01X22379Y10289D01*
G01X22411Y10267D01*
G01X22427Y10257D01*
G01X22444Y10248D01*
G01X22462Y10239D01*
G01X22498Y10225D01*
G01X22516Y10219D01*
G01X22535Y10213D01*
G01X22553Y10209D01*
G01X22572Y10205D01*
G01X22592Y10202D01*
G01X22611Y10200D01*
G01X22630Y10199D01*
G01X22650Y10198D01*
G01X22688Y10200D01*
G01X22707Y10202D01*
G01X22726Y10205D01*
G01X22744Y10209D01*
G01X22763Y10213D01*
G01X22781Y10218D01*
G01X22800Y10224D01*
G01X22818Y10231D01*
G01X22835Y10238D01*
G01X22886Y10265D01*
G01X22918Y10287D01*
G01X22933Y10299D01*
G01X22947Y10311D01*
G01X22961Y10324D01*
G01X22988Y10351D01*
G01X23012Y10381D01*
G01X23034Y10413D01*
G01X23043Y10430D01*
G01X23052Y10446D01*
G01X23060Y10464D01*
G01X23068Y10481D01*
G01X23075Y10499D01*
G01X23081Y10517D01*
G01X23086Y10536D01*
G01X23090Y10555D01*
G01X23094Y10573D01*
G01X23097Y10592D01*
G01X23099Y10611D01*
G01X23100Y10630D01*
G01X23101Y10650D01*
G01X23099Y10688D01*
G01X23097Y10707D01*
G01X23094Y10726D01*
G01X23090Y10744D01*
G01X23086Y10763D01*
G01X23081Y10782D01*
G01X23075Y10800D01*
G01X23068Y10818D01*
G01X23060Y10835D01*
G01X23052Y10853D01*
G01X23043Y10869D01*
G01X23034Y10886D01*
G01X23012Y10918D01*
G01X22988Y10948D01*
G01X22961Y10975D01*
G01X22947Y10988D01*
G01X22933Y11000D01*
G01X22918Y11012D01*
G01X22886Y11034D01*
G01X22835Y11061D01*
G01X22818Y11068D01*
G01X22800Y11075D01*
G01X22781Y11081D01*
G01X22763Y11086D01*
G01X22744Y11090D01*
G01X22726Y11094D01*
G01X22707Y11097D01*
G01X22688Y11099D01*
G01X22650Y11101D01*
G01X22630Y11100D01*
G01X22611Y11099D01*
G01X22592Y11097D01*
G01X22572Y11094D01*
G01X22553Y11090D01*
G01X22535Y11086D01*
G01X22516Y11080D01*
G01X22498Y11074D01*
G01X22462Y11060D01*
G01X22444Y11051D01*
G01X22427Y11042D01*
G01X22411Y11032D01*
G01X22379Y11010D01*
G01X22349Y10986D01*
G01X22335Y10973D01*
G01X22321Y10959D01*
G01X22308Y10944D01*
G01X22296Y10930D01*
G01X22284Y10914D01*
G01X22273Y10898D01*
G01X22263Y10882D01*
G01X22253Y10865D01*
G01X22244Y10848D01*
G01X22241Y10842D01*
G01X22232Y10833D01*
G01X22227Y10830D01*
G01X22215Y10826D01*
G01X20983Y10826D01*
G01X20971Y10830D01*
G01X20965Y10833D01*
G01X20961Y10837D01*
G01X20177Y11620D01*
G01X20168Y11635D01*
G01X20167Y11641D01*
G01X20164Y11655D01*
G01X20160Y11668D01*
G01X20155Y11681D01*
G01X20149Y11694D01*
G01X20143Y11706D01*
G01X20136Y11718D01*
G01X20128Y11730D01*
G01X20120Y11740D01*
G01X20110Y11751D01*
G01X20101Y11761D01*
G01X20090Y11770D01*
G01X20068Y11786D01*
G01X20056Y11793D01*
G01X20043Y11800D01*
G01X20031Y11805D01*
G01X20018Y11810D01*
G01X20005Y11813D01*
G01X19991Y11817D01*
G01X19977Y11819D01*
G01X19963Y11820D01*
G37*
G36*
G01X28688Y12099D02*
G01X28650Y12101D01*
G01X28630Y12100D01*
G01X28611Y12099D01*
G01X28592Y12097D01*
G01X28573Y12094D01*
G01X28555Y12090D01*
G01X28536Y12086D01*
G01X28518Y12081D01*
G01X28499Y12075D01*
G01X28481Y12068D01*
G01X28464Y12061D01*
G01X28413Y12034D01*
G01X28381Y12012D01*
G01X28366Y12000D01*
G01X28352Y11988D01*
G01X28338Y11975D01*
G01X28311Y11948D01*
G01X28287Y11918D01*
G01X28265Y11886D01*
G01X28256Y11869D01*
G01X28247Y11853D01*
G01X28239Y11835D01*
G01X28231Y11818D01*
G01X28224Y11800D01*
G01X28218Y11782D01*
G01X28213Y11763D01*
G01X28209Y11744D01*
G01X28205Y11726D01*
G01X28202Y11707D01*
G01X28200Y11688D01*
G01X28198Y11650D01*
G01X28199Y11630D01*
G01X28200Y11611D01*
G01X28202Y11592D01*
G01X28205Y11573D01*
G01X28209Y11555D01*
G01X28213Y11536D01*
G01X28218Y11517D01*
G01X28224Y11499D01*
G01X28231Y11481D01*
G01X28239Y11464D01*
G01X28247Y11446D01*
G01X28256Y11430D01*
G01X28265Y11413D01*
G01X28287Y11381D01*
G01X28311Y11351D01*
G01X28338Y11324D01*
G01X28352Y11311D01*
G01X28366Y11299D01*
G01X28381Y11287D01*
G01X28413Y11265D01*
G01X28464Y11238D01*
G01X28481Y11231D01*
G01X28499Y11224D01*
G01X28518Y11218D01*
G01X28536Y11213D01*
G01X28555Y11209D01*
G01X28573Y11205D01*
G01X28592Y11202D01*
G01X28611Y11200D01*
G01X28630Y11199D01*
G01X28650Y11198D01*
G01X28688Y11200D01*
G01X28707Y11202D01*
G01X28726Y11205D01*
G01X28744Y11209D01*
G01X28763Y11213D01*
G01X28781Y11218D01*
G01X28800Y11224D01*
G01X28818Y11231D01*
G01X28835Y11238D01*
G01X28886Y11265D01*
G01X28918Y11287D01*
G01X28933Y11299D01*
G01X28947Y11311D01*
G01X28961Y11324D01*
G01X28988Y11351D01*
G01X29012Y11381D01*
G01X29034Y11413D01*
G01X29043Y11430D01*
G01X29052Y11446D01*
G01X29060Y11464D01*
G01X29068Y11481D01*
G01X29075Y11499D01*
G01X29081Y11517D01*
G01X29086Y11536D01*
G01X29090Y11555D01*
G01X29094Y11573D01*
G01X29097Y11592D01*
G01X29099Y11611D01*
G01X29100Y11630D01*
G01X29101Y11650D01*
G01X29099Y11688D01*
G01X29097Y11707D01*
G01X29094Y11726D01*
G01X29090Y11744D01*
G01X29086Y11763D01*
G01X29081Y11782D01*
G01X29075Y11800D01*
G01X29068Y11818D01*
G01X29060Y11835D01*
G01X29052Y11853D01*
G01X29043Y11869D01*
G01X29034Y11886D01*
G01X29012Y11918D01*
G01X28988Y11948D01*
G01X28961Y11975D01*
G01X28947Y11988D01*
G01X28933Y12000D01*
G01X28918Y12012D01*
G01X28886Y12034D01*
G01X28835Y12061D01*
G01X28818Y12068D01*
G01X28800Y12075D01*
G01X28781Y12081D01*
G01X28763Y12086D01*
G01X28744Y12090D01*
G01X28726Y12094D01*
G01X28707Y12097D01*
G01X28688Y12099D01*
G37*
G36*
G01X22688Y12099D02*
G01X22650Y12101D01*
G01X22630Y12100D01*
G01X22611Y12099D01*
G01X22592Y12097D01*
G01X22573Y12094D01*
G01X22555Y12090D01*
G01X22536Y12086D01*
G01X22518Y12081D01*
G01X22499Y12075D01*
G01X22481Y12068D01*
G01X22464Y12061D01*
G01X22413Y12034D01*
G01X22381Y12012D01*
G01X22366Y12000D01*
G01X22352Y11988D01*
G01X22338Y11975D01*
G01X22311Y11948D01*
G01X22287Y11918D01*
G01X22265Y11886D01*
G01X22256Y11869D01*
G01X22247Y11853D01*
G01X22239Y11835D01*
G01X22231Y11818D01*
G01X22224Y11800D01*
G01X22218Y11782D01*
G01X22213Y11763D01*
G01X22209Y11744D01*
G01X22205Y11726D01*
G01X22202Y11707D01*
G01X22200Y11688D01*
G01X22198Y11650D01*
G01X22199Y11630D01*
G01X22200Y11611D01*
G01X22202Y11592D01*
G01X22205Y11573D01*
G01X22209Y11555D01*
G01X22213Y11536D01*
G01X22218Y11517D01*
G01X22224Y11499D01*
G01X22231Y11481D01*
G01X22239Y11464D01*
G01X22247Y11446D01*
G01X22256Y11430D01*
G01X22265Y11413D01*
G01X22287Y11381D01*
G01X22311Y11351D01*
G01X22338Y11324D01*
G01X22352Y11311D01*
G01X22366Y11299D01*
G01X22381Y11287D01*
G01X22413Y11265D01*
G01X22464Y11238D01*
G01X22481Y11231D01*
G01X22499Y11224D01*
G01X22518Y11218D01*
G01X22536Y11213D01*
G01X22555Y11209D01*
G01X22573Y11205D01*
G01X22592Y11202D01*
G01X22611Y11200D01*
G01X22630Y11199D01*
G01X22650Y11198D01*
G01X22688Y11200D01*
G01X22707Y11202D01*
G01X22726Y11205D01*
G01X22744Y11209D01*
G01X22763Y11213D01*
G01X22781Y11218D01*
G01X22800Y11224D01*
G01X22818Y11231D01*
G01X22835Y11238D01*
G01X22886Y11265D01*
G01X22918Y11287D01*
G01X22933Y11299D01*
G01X22947Y11311D01*
G01X22961Y11324D01*
G01X22988Y11351D01*
G01X23012Y11381D01*
G01X23034Y11413D01*
G01X23043Y11430D01*
G01X23052Y11446D01*
G01X23060Y11464D01*
G01X23068Y11481D01*
G01X23075Y11499D01*
G01X23081Y11517D01*
G01X23086Y11536D01*
G01X23090Y11555D01*
G01X23094Y11573D01*
G01X23097Y11592D01*
G01X23099Y11611D01*
G01X23100Y11630D01*
G01X23101Y11650D01*
G01X23099Y11688D01*
G01X23097Y11707D01*
G01X23094Y11726D01*
G01X23090Y11744D01*
G01X23086Y11763D01*
G01X23081Y11782D01*
G01X23075Y11800D01*
G01X23068Y11818D01*
G01X23060Y11835D01*
G01X23052Y11853D01*
G01X23043Y11869D01*
G01X23034Y11886D01*
G01X23012Y11918D01*
G01X22988Y11948D01*
G01X22961Y11975D01*
G01X22947Y11988D01*
G01X22933Y12000D01*
G01X22918Y12012D01*
G01X22886Y12034D01*
G01X22835Y12061D01*
G01X22818Y12068D01*
G01X22800Y12075D01*
G01X22781Y12081D01*
G01X22763Y12086D01*
G01X22744Y12090D01*
G01X22726Y12094D01*
G01X22707Y12097D01*
G01X22688Y12099D01*
G37*
G36*
G01X22688Y13099D02*
G01X22650Y13101D01*
G01X22630Y13100D01*
G01X22611Y13099D01*
G01X22592Y13097D01*
G01X22573Y13094D01*
G01X22555Y13090D01*
G01X22536Y13086D01*
G01X22518Y13081D01*
G01X22499Y13075D01*
G01X22481Y13068D01*
G01X22464Y13061D01*
G01X22413Y13034D01*
G01X22381Y13012D01*
G01X22366Y13000D01*
G01X22352Y12988D01*
G01X22338Y12975D01*
G01X22311Y12948D01*
G01X22287Y12918D01*
G01X22265Y12886D01*
G01X22256Y12869D01*
G01X22247Y12853D01*
G01X22239Y12835D01*
G01X22231Y12818D01*
G01X22224Y12800D01*
G01X22218Y12782D01*
G01X22213Y12763D01*
G01X22209Y12744D01*
G01X22205Y12726D01*
G01X22202Y12707D01*
G01X22200Y12688D01*
G01X22198Y12650D01*
G01X22199Y12630D01*
G01X22200Y12611D01*
G01X22202Y12592D01*
G01X22205Y12573D01*
G01X22209Y12555D01*
G01X22213Y12536D01*
G01X22218Y12517D01*
G01X22224Y12499D01*
G01X22231Y12481D01*
G01X22239Y12464D01*
G01X22247Y12446D01*
G01X22256Y12430D01*
G01X22265Y12413D01*
G01X22287Y12381D01*
G01X22311Y12351D01*
G01X22338Y12324D01*
G01X22352Y12311D01*
G01X22366Y12299D01*
G01X22381Y12287D01*
G01X22413Y12265D01*
G01X22464Y12238D01*
G01X22481Y12231D01*
G01X22499Y12224D01*
G01X22518Y12218D01*
G01X22536Y12213D01*
G01X22555Y12209D01*
G01X22573Y12205D01*
G01X22592Y12202D01*
G01X22611Y12200D01*
G01X22630Y12199D01*
G01X22650Y12198D01*
G01X22688Y12200D01*
G01X22707Y12202D01*
G01X22726Y12205D01*
G01X22744Y12209D01*
G01X22763Y12213D01*
G01X22781Y12218D01*
G01X22800Y12224D01*
G01X22818Y12231D01*
G01X22835Y12238D01*
G01X22886Y12265D01*
G01X22918Y12287D01*
G01X22933Y12299D01*
G01X22947Y12311D01*
G01X22961Y12324D01*
G01X22988Y12351D01*
G01X23012Y12381D01*
G01X23034Y12413D01*
G01X23043Y12430D01*
G01X23052Y12446D01*
G01X23060Y12464D01*
G01X23068Y12481D01*
G01X23075Y12499D01*
G01X23081Y12517D01*
G01X23086Y12536D01*
G01X23090Y12555D01*
G01X23094Y12573D01*
G01X23097Y12592D01*
G01X23099Y12611D01*
G01X23100Y12630D01*
G01X23101Y12650D01*
G01X23099Y12688D01*
G01X23097Y12707D01*
G01X23094Y12726D01*
G01X23090Y12744D01*
G01X23086Y12763D01*
G01X23081Y12782D01*
G01X23075Y12800D01*
G01X23068Y12818D01*
G01X23060Y12835D01*
G01X23052Y12853D01*
G01X23043Y12869D01*
G01X23034Y12886D01*
G01X23012Y12918D01*
G01X22988Y12948D01*
G01X22961Y12975D01*
G01X22947Y12988D01*
G01X22933Y13000D01*
G01X22918Y13012D01*
G01X22886Y13034D01*
G01X22835Y13061D01*
G01X22818Y13068D01*
G01X22800Y13075D01*
G01X22781Y13081D01*
G01X22763Y13086D01*
G01X22744Y13090D01*
G01X22726Y13094D01*
G01X22707Y13097D01*
G01X22688Y13099D01*
G37*
G36*
G01X28688Y13099D02*
G01X28650Y13101D01*
G01X28630Y13100D01*
G01X28611Y13099D01*
G01X28592Y13097D01*
G01X28573Y13094D01*
G01X28555Y13090D01*
G01X28536Y13086D01*
G01X28518Y13081D01*
G01X28499Y13075D01*
G01X28481Y13068D01*
G01X28464Y13061D01*
G01X28413Y13034D01*
G01X28381Y13012D01*
G01X28366Y13000D01*
G01X28352Y12988D01*
G01X28338Y12975D01*
G01X28311Y12948D01*
G01X28287Y12918D01*
G01X28265Y12886D01*
G01X28256Y12869D01*
G01X28247Y12853D01*
G01X28239Y12835D01*
G01X28231Y12818D01*
G01X28224Y12800D01*
G01X28218Y12782D01*
G01X28213Y12763D01*
G01X28209Y12744D01*
G01X28205Y12726D01*
G01X28202Y12707D01*
G01X28200Y12688D01*
G01X28198Y12650D01*
G01X28199Y12630D01*
G01X28200Y12611D01*
G01X28202Y12592D01*
G01X28205Y12573D01*
G01X28209Y12555D01*
G01X28213Y12536D01*
G01X28218Y12517D01*
G01X28224Y12499D01*
G01X28231Y12481D01*
G01X28239Y12464D01*
G01X28247Y12446D01*
G01X28256Y12430D01*
G01X28265Y12413D01*
G01X28287Y12381D01*
G01X28311Y12351D01*
G01X28338Y12324D01*
G01X28352Y12311D01*
G01X28366Y12299D01*
G01X28381Y12287D01*
G01X28413Y12265D01*
G01X28464Y12238D01*
G01X28481Y12231D01*
G01X28499Y12224D01*
G01X28518Y12218D01*
G01X28536Y12213D01*
G01X28555Y12209D01*
G01X28573Y12205D01*
G01X28592Y12202D01*
G01X28611Y12200D01*
G01X28630Y12199D01*
G01X28650Y12198D01*
G01X28688Y12200D01*
G01X28707Y12202D01*
G01X28726Y12205D01*
G01X28744Y12209D01*
G01X28763Y12213D01*
G01X28781Y12218D01*
G01X28800Y12224D01*
G01X28818Y12231D01*
G01X28835Y12238D01*
G01X28886Y12265D01*
G01X28918Y12287D01*
G01X28933Y12299D01*
G01X28947Y12311D01*
G01X28961Y12324D01*
G01X28988Y12351D01*
G01X29012Y12381D01*
G01X29034Y12413D01*
G01X29043Y12430D01*
G01X29052Y12446D01*
G01X29060Y12464D01*
G01X29068Y12481D01*
G01X29075Y12499D01*
G01X29081Y12517D01*
G01X29086Y12536D01*
G01X29090Y12555D01*
G01X29094Y12573D01*
G01X29097Y12592D01*
G01X29099Y12611D01*
G01X29100Y12630D01*
G01X29101Y12650D01*
G01X29099Y12688D01*
G01X29097Y12707D01*
G01X29094Y12726D01*
G01X29090Y12744D01*
G01X29086Y12763D01*
G01X29081Y12782D01*
G01X29075Y12800D01*
G01X29068Y12818D01*
G01X29060Y12835D01*
G01X29052Y12853D01*
G01X29043Y12869D01*
G01X29034Y12886D01*
G01X29012Y12918D01*
G01X28988Y12948D01*
G01X28961Y12975D01*
G01X28947Y12988D01*
G01X28933Y13000D01*
G01X28918Y13012D01*
G01X28886Y13034D01*
G01X28835Y13061D01*
G01X28818Y13068D01*
G01X28800Y13075D01*
G01X28781Y13081D01*
G01X28763Y13086D01*
G01X28744Y13090D01*
G01X28726Y13094D01*
G01X28707Y13097D01*
G01X28688Y13099D01*
G37*
G36*
G01X7897Y12813D02*
G01X7644Y12813D01*
G01X7644Y12661D01*
G01X7645Y12651D01*
G01X7646Y12642D01*
G01X7648Y12633D01*
G01X7651Y12624D01*
G01X7659Y12608D01*
G01X7664Y12600D01*
G01X7671Y12593D01*
G01X7677Y12586D01*
G01X7684Y12580D01*
G01X7692Y12575D01*
G01X7700Y12571D01*
G01X7709Y12567D01*
G01X7727Y12561D01*
G01X7736Y12560D01*
G01X7897Y12560D01*
G01X7897Y12813D01*
G37*
G36*
G01X8555Y12813D02*
G01X8302Y12813D01*
G01X8302Y12560D01*
G01X8463Y12560D01*
G01X8472Y12561D01*
G01X8490Y12567D01*
G01X8499Y12571D01*
G01X8507Y12575D01*
G01X8515Y12580D01*
G01X8522Y12586D01*
G01X8528Y12593D01*
G01X8535Y12600D01*
G01X8540Y12608D01*
G01X8548Y12624D01*
G01X8551Y12633D01*
G01X8553Y12642D01*
G01X8554Y12651D01*
G01X8555Y12661D01*
G01X8555Y12813D01*
G37*
G36*
G01X28688Y14099D02*
G01X28650Y14101D01*
G01X28630Y14100D01*
G01X28611Y14099D01*
G01X28592Y14097D01*
G01X28573Y14094D01*
G01X28555Y14090D01*
G01X28536Y14086D01*
G01X28518Y14081D01*
G01X28499Y14075D01*
G01X28481Y14068D01*
G01X28464Y14061D01*
G01X28413Y14034D01*
G01X28381Y14012D01*
G01X28366Y14000D01*
G01X28352Y13988D01*
G01X28338Y13975D01*
G01X28311Y13948D01*
G01X28287Y13918D01*
G01X28265Y13886D01*
G01X28256Y13869D01*
G01X28247Y13853D01*
G01X28239Y13835D01*
G01X28231Y13818D01*
G01X28224Y13800D01*
G01X28218Y13782D01*
G01X28213Y13763D01*
G01X28209Y13744D01*
G01X28205Y13726D01*
G01X28202Y13707D01*
G01X28200Y13688D01*
G01X28198Y13650D01*
G01X28199Y13630D01*
G01X28200Y13611D01*
G01X28202Y13592D01*
G01X28205Y13573D01*
G01X28209Y13555D01*
G01X28213Y13536D01*
G01X28218Y13517D01*
G01X28224Y13499D01*
G01X28231Y13481D01*
G01X28239Y13464D01*
G01X28247Y13446D01*
G01X28256Y13430D01*
G01X28265Y13413D01*
G01X28287Y13381D01*
G01X28311Y13351D01*
G01X28338Y13324D01*
G01X28352Y13311D01*
G01X28366Y13299D01*
G01X28381Y13287D01*
G01X28413Y13265D01*
G01X28464Y13238D01*
G01X28481Y13231D01*
G01X28499Y13224D01*
G01X28518Y13218D01*
G01X28536Y13213D01*
G01X28555Y13209D01*
G01X28573Y13205D01*
G01X28592Y13202D01*
G01X28611Y13200D01*
G01X28630Y13199D01*
G01X28650Y13198D01*
G01X28688Y13200D01*
G01X28707Y13202D01*
G01X28726Y13205D01*
G01X28744Y13209D01*
G01X28763Y13213D01*
G01X28781Y13218D01*
G01X28800Y13224D01*
G01X28818Y13231D01*
G01X28835Y13238D01*
G01X28886Y13265D01*
G01X28918Y13287D01*
G01X28933Y13299D01*
G01X28947Y13311D01*
G01X28961Y13324D01*
G01X28988Y13351D01*
G01X29012Y13381D01*
G01X29034Y13413D01*
G01X29043Y13430D01*
G01X29052Y13446D01*
G01X29060Y13464D01*
G01X29068Y13481D01*
G01X29075Y13499D01*
G01X29081Y13517D01*
G01X29086Y13536D01*
G01X29090Y13555D01*
G01X29094Y13573D01*
G01X29097Y13592D01*
G01X29099Y13611D01*
G01X29100Y13630D01*
G01X29101Y13650D01*
G01X29099Y13688D01*
G01X29097Y13707D01*
G01X29094Y13726D01*
G01X29090Y13744D01*
G01X29086Y13763D01*
G01X29081Y13782D01*
G01X29075Y13800D01*
G01X29068Y13818D01*
G01X29060Y13835D01*
G01X29052Y13853D01*
G01X29043Y13869D01*
G01X29034Y13886D01*
G01X29012Y13918D01*
G01X28988Y13948D01*
G01X28961Y13975D01*
G01X28947Y13988D01*
G01X28933Y14000D01*
G01X28918Y14012D01*
G01X28886Y14034D01*
G01X28835Y14061D01*
G01X28818Y14068D01*
G01X28800Y14075D01*
G01X28781Y14081D01*
G01X28763Y14086D01*
G01X28744Y14090D01*
G01X28726Y14094D01*
G01X28707Y14097D01*
G01X28688Y14099D01*
G37*
G36*
G01X8454Y13471D02*
G01X8302Y13471D01*
G01X8302Y13217D01*
G01X8555Y13217D01*
G01X8555Y13369D01*
G01X8554Y13379D01*
G01X8553Y13388D01*
G01X8551Y13397D01*
G01X8548Y13406D01*
G01X8544Y13415D01*
G01X8540Y13423D01*
G01X8535Y13430D01*
G01X8528Y13438D01*
G01X8522Y13444D01*
G01X8515Y13450D01*
G01X8499Y13460D01*
G01X8490Y13464D01*
G01X8481Y13467D01*
G01X8472Y13469D01*
G01X8454Y13471D01*
G37*
G36*
G01X7897Y13471D02*
G01X7745Y13471D01*
G01X7727Y13469D01*
G01X7718Y13467D01*
G01X7709Y13464D01*
G01X7700Y13460D01*
G01X7684Y13450D01*
G01X7677Y13444D01*
G01X7671Y13438D01*
G01X7664Y13430D01*
G01X7659Y13423D01*
G01X7655Y13415D01*
G01X7651Y13406D01*
G01X7648Y13397D01*
G01X7646Y13388D01*
G01X7645Y13379D01*
G01X7644Y13369D01*
G01X7644Y13217D01*
G01X7897Y13217D01*
G01X7897Y13471D01*
G37*
G36*
G01X22688Y15099D02*
G01X22650Y15101D01*
G01X22630Y15100D01*
G01X22611Y15099D01*
G01X22592Y15097D01*
G01X22573Y15094D01*
G01X22555Y15090D01*
G01X22536Y15086D01*
G01X22518Y15081D01*
G01X22499Y15075D01*
G01X22481Y15068D01*
G01X22464Y15061D01*
G01X22413Y15034D01*
G01X22381Y15012D01*
G01X22366Y15000D01*
G01X22352Y14988D01*
G01X22338Y14975D01*
G01X22311Y14948D01*
G01X22287Y14918D01*
G01X22265Y14886D01*
G01X22256Y14869D01*
G01X22247Y14853D01*
G01X22239Y14835D01*
G01X22231Y14818D01*
G01X22224Y14800D01*
G01X22218Y14782D01*
G01X22213Y14763D01*
G01X22209Y14744D01*
G01X22205Y14726D01*
G01X22202Y14707D01*
G01X22200Y14688D01*
G01X22198Y14650D01*
G01X22199Y14630D01*
G01X22200Y14611D01*
G01X22202Y14592D01*
G01X22205Y14573D01*
G01X22209Y14555D01*
G01X22213Y14536D01*
G01X22218Y14517D01*
G01X22224Y14499D01*
G01X22231Y14481D01*
G01X22239Y14464D01*
G01X22247Y14446D01*
G01X22256Y14430D01*
G01X22265Y14413D01*
G01X22287Y14381D01*
G01X22311Y14351D01*
G01X22338Y14324D01*
G01X22352Y14311D01*
G01X22366Y14299D01*
G01X22381Y14287D01*
G01X22413Y14265D01*
G01X22464Y14238D01*
G01X22481Y14231D01*
G01X22499Y14224D01*
G01X22518Y14218D01*
G01X22536Y14213D01*
G01X22555Y14209D01*
G01X22573Y14205D01*
G01X22592Y14202D01*
G01X22611Y14200D01*
G01X22630Y14199D01*
G01X22650Y14198D01*
G01X22688Y14200D01*
G01X22707Y14202D01*
G01X22726Y14205D01*
G01X22744Y14209D01*
G01X22763Y14213D01*
G01X22781Y14218D01*
G01X22800Y14224D01*
G01X22818Y14231D01*
G01X22835Y14238D01*
G01X22886Y14265D01*
G01X22918Y14287D01*
G01X22933Y14299D01*
G01X22947Y14311D01*
G01X22961Y14324D01*
G01X22988Y14351D01*
G01X23012Y14381D01*
G01X23034Y14413D01*
G01X23043Y14430D01*
G01X23052Y14446D01*
G01X23060Y14464D01*
G01X23068Y14481D01*
G01X23075Y14499D01*
G01X23081Y14517D01*
G01X23086Y14536D01*
G01X23090Y14555D01*
G01X23094Y14573D01*
G01X23097Y14592D01*
G01X23099Y14611D01*
G01X23100Y14630D01*
G01X23101Y14650D01*
G01X23099Y14688D01*
G01X23097Y14707D01*
G01X23094Y14726D01*
G01X23090Y14744D01*
G01X23086Y14763D01*
G01X23081Y14782D01*
G01X23075Y14800D01*
G01X23068Y14818D01*
G01X23060Y14835D01*
G01X23052Y14853D01*
G01X23043Y14869D01*
G01X23034Y14886D01*
G01X23012Y14918D01*
G01X22988Y14948D01*
G01X22961Y14975D01*
G01X22947Y14988D01*
G01X22933Y15000D01*
G01X22918Y15012D01*
G01X22886Y15034D01*
G01X22835Y15061D01*
G01X22818Y15068D01*
G01X22800Y15075D01*
G01X22781Y15081D01*
G01X22763Y15086D01*
G01X22744Y15090D01*
G01X22726Y15094D01*
G01X22707Y15097D01*
G01X22688Y15099D01*
G37*
G36*
G01X43947Y14782D02*
G01X43694Y14782D01*
G01X43694Y14629D01*
G01X43696Y14611D01*
G01X43698Y14602D01*
G01X43701Y14593D01*
G01X43705Y14584D01*
G01X43709Y14576D01*
G01X43714Y14569D01*
G01X43721Y14561D01*
G01X43727Y14555D01*
G01X43734Y14549D01*
G01X43750Y14539D01*
G01X43759Y14535D01*
G01X43768Y14532D01*
G01X43777Y14530D01*
G01X43795Y14528D01*
G01X43947Y14528D01*
G01X43947Y14782D01*
G37*
G36*
G01X44605Y14782D02*
G01X44352Y14782D01*
G01X44352Y14528D01*
G01X44504Y14528D01*
G01X44522Y14530D01*
G01X44531Y14532D01*
G01X44540Y14535D01*
G01X44549Y14539D01*
G01X44565Y14549D01*
G01X44579Y14561D01*
G01X44585Y14569D01*
G01X44590Y14576D01*
G01X44594Y14584D01*
G01X44598Y14593D01*
G01X44601Y14602D01*
G01X44603Y14611D01*
G01X44605Y14629D01*
G01X44605Y14782D01*
G37*
G36*
G01X43947Y15439D02*
G01X43795Y15439D01*
G01X43777Y15437D01*
G01X43768Y15435D01*
G01X43759Y15432D01*
G01X43750Y15428D01*
G01X43742Y15424D01*
G01X43734Y15419D01*
G01X43727Y15413D01*
G01X43721Y15406D01*
G01X43714Y15399D01*
G01X43709Y15391D01*
G01X43701Y15375D01*
G01X43698Y15366D01*
G01X43696Y15357D01*
G01X43695Y15347D01*
G01X43694Y15338D01*
G01X43694Y15186D01*
G01X43947Y15186D01*
G01X43947Y15439D01*
G37*
G36*
G01X44504Y15439D02*
G01X44352Y15439D01*
G01X44352Y15186D01*
G01X44605Y15186D01*
G01X44605Y15338D01*
G01X44604Y15347D01*
G01X44603Y15357D01*
G01X44601Y15366D01*
G01X44598Y15375D01*
G01X44590Y15391D01*
G01X44585Y15399D01*
G01X44579Y15406D01*
G01X44572Y15413D01*
G01X44565Y15419D01*
G01X44557Y15424D01*
G01X44549Y15428D01*
G01X44540Y15432D01*
G01X44531Y15435D01*
G01X44522Y15437D01*
G01X44504Y15439D01*
G37*
G36*
G01X28688Y16099D02*
G01X28650Y16101D01*
G01X28630Y16100D01*
G01X28611Y16099D01*
G01X28592Y16097D01*
G01X28573Y16094D01*
G01X28555Y16090D01*
G01X28536Y16086D01*
G01X28518Y16081D01*
G01X28499Y16075D01*
G01X28481Y16068D01*
G01X28464Y16061D01*
G01X28413Y16034D01*
G01X28381Y16012D01*
G01X28366Y16000D01*
G01X28352Y15988D01*
G01X28338Y15975D01*
G01X28311Y15948D01*
G01X28287Y15918D01*
G01X28265Y15886D01*
G01X28256Y15869D01*
G01X28247Y15853D01*
G01X28239Y15835D01*
G01X28231Y15818D01*
G01X28224Y15800D01*
G01X28218Y15782D01*
G01X28213Y15763D01*
G01X28209Y15744D01*
G01X28205Y15726D01*
G01X28202Y15707D01*
G01X28200Y15688D01*
G01X28198Y15650D01*
G01X28199Y15630D01*
G01X28200Y15611D01*
G01X28202Y15592D01*
G01X28205Y15573D01*
G01X28209Y15555D01*
G01X28213Y15536D01*
G01X28218Y15517D01*
G01X28224Y15499D01*
G01X28231Y15481D01*
G01X28239Y15464D01*
G01X28247Y15446D01*
G01X28256Y15430D01*
G01X28265Y15413D01*
G01X28287Y15381D01*
G01X28311Y15351D01*
G01X28338Y15324D01*
G01X28352Y15311D01*
G01X28366Y15299D01*
G01X28381Y15287D01*
G01X28413Y15265D01*
G01X28464Y15238D01*
G01X28481Y15231D01*
G01X28499Y15224D01*
G01X28518Y15218D01*
G01X28536Y15213D01*
G01X28555Y15209D01*
G01X28573Y15205D01*
G01X28592Y15202D01*
G01X28611Y15200D01*
G01X28630Y15199D01*
G01X28650Y15198D01*
G01X28688Y15200D01*
G01X28707Y15202D01*
G01X28726Y15205D01*
G01X28744Y15209D01*
G01X28763Y15213D01*
G01X28781Y15218D01*
G01X28800Y15224D01*
G01X28818Y15231D01*
G01X28835Y15238D01*
G01X28886Y15265D01*
G01X28918Y15287D01*
G01X28933Y15299D01*
G01X28947Y15311D01*
G01X28961Y15324D01*
G01X28988Y15351D01*
G01X29012Y15381D01*
G01X29034Y15413D01*
G01X29043Y15430D01*
G01X29052Y15446D01*
G01X29060Y15464D01*
G01X29068Y15481D01*
G01X29075Y15499D01*
G01X29081Y15517D01*
G01X29086Y15536D01*
G01X29090Y15555D01*
G01X29094Y15573D01*
G01X29097Y15592D01*
G01X29099Y15611D01*
G01X29100Y15630D01*
G01X29101Y15650D01*
G01X29099Y15688D01*
G01X29097Y15707D01*
G01X29094Y15726D01*
G01X29090Y15744D01*
G01X29086Y15763D01*
G01X29081Y15782D01*
G01X29075Y15800D01*
G01X29068Y15818D01*
G01X29060Y15835D01*
G01X29052Y15853D01*
G01X29043Y15869D01*
G01X29034Y15886D01*
G01X29012Y15918D01*
G01X28988Y15948D01*
G01X28961Y15975D01*
G01X28947Y15988D01*
G01X28933Y16000D01*
G01X28918Y16012D01*
G01X28886Y16034D01*
G01X28835Y16061D01*
G01X28818Y16068D01*
G01X28800Y16075D01*
G01X28781Y16081D01*
G01X28763Y16086D01*
G01X28744Y16090D01*
G01X28726Y16094D01*
G01X28707Y16097D01*
G01X28688Y16099D01*
G37*
G36*
G01X22688Y16099D02*
G01X22650Y16101D01*
G01X22630Y16100D01*
G01X22611Y16099D01*
G01X22592Y16097D01*
G01X22573Y16094D01*
G01X22555Y16090D01*
G01X22536Y16086D01*
G01X22518Y16081D01*
G01X22499Y16075D01*
G01X22481Y16068D01*
G01X22464Y16061D01*
G01X22413Y16034D01*
G01X22381Y16012D01*
G01X22366Y16000D01*
G01X22352Y15988D01*
G01X22338Y15975D01*
G01X22311Y15948D01*
G01X22287Y15918D01*
G01X22265Y15886D01*
G01X22256Y15869D01*
G01X22247Y15853D01*
G01X22239Y15835D01*
G01X22231Y15818D01*
G01X22224Y15800D01*
G01X22218Y15782D01*
G01X22213Y15763D01*
G01X22209Y15744D01*
G01X22205Y15726D01*
G01X22202Y15707D01*
G01X22200Y15688D01*
G01X22198Y15650D01*
G01X22199Y15630D01*
G01X22200Y15611D01*
G01X22202Y15592D01*
G01X22205Y15573D01*
G01X22209Y15555D01*
G01X22213Y15536D01*
G01X22218Y15517D01*
G01X22224Y15499D01*
G01X22231Y15481D01*
G01X22239Y15464D01*
G01X22247Y15446D01*
G01X22256Y15430D01*
G01X22265Y15413D01*
G01X22287Y15381D01*
G01X22311Y15351D01*
G01X22338Y15324D01*
G01X22352Y15311D01*
G01X22366Y15299D01*
G01X22381Y15287D01*
G01X22413Y15265D01*
G01X22464Y15238D01*
G01X22481Y15231D01*
G01X22499Y15224D01*
G01X22518Y15218D01*
G01X22536Y15213D01*
G01X22555Y15209D01*
G01X22573Y15205D01*
G01X22592Y15202D01*
G01X22611Y15200D01*
G01X22630Y15199D01*
G01X22650Y15198D01*
G01X22688Y15200D01*
G01X22707Y15202D01*
G01X22726Y15205D01*
G01X22744Y15209D01*
G01X22763Y15213D01*
G01X22781Y15218D01*
G01X22800Y15224D01*
G01X22818Y15231D01*
G01X22835Y15238D01*
G01X22886Y15265D01*
G01X22918Y15287D01*
G01X22933Y15299D01*
G01X22947Y15311D01*
G01X22961Y15324D01*
G01X22988Y15351D01*
G01X23012Y15381D01*
G01X23034Y15413D01*
G01X23043Y15430D01*
G01X23052Y15446D01*
G01X23060Y15464D01*
G01X23068Y15481D01*
G01X23075Y15499D01*
G01X23081Y15517D01*
G01X23086Y15536D01*
G01X23090Y15555D01*
G01X23094Y15573D01*
G01X23097Y15592D01*
G01X23099Y15611D01*
G01X23100Y15630D01*
G01X23101Y15650D01*
G01X23099Y15688D01*
G01X23097Y15707D01*
G01X23094Y15726D01*
G01X23090Y15744D01*
G01X23086Y15763D01*
G01X23081Y15782D01*
G01X23075Y15800D01*
G01X23068Y15818D01*
G01X23060Y15835D01*
G01X23052Y15853D01*
G01X23043Y15869D01*
G01X23034Y15886D01*
G01X23012Y15918D01*
G01X22988Y15948D01*
G01X22961Y15975D01*
G01X22947Y15988D01*
G01X22933Y16000D01*
G01X22918Y16012D01*
G01X22886Y16034D01*
G01X22835Y16061D01*
G01X22818Y16068D01*
G01X22800Y16075D01*
G01X22781Y16081D01*
G01X22763Y16086D01*
G01X22744Y16090D01*
G01X22726Y16094D01*
G01X22707Y16097D01*
G01X22688Y16099D01*
G37*
G36*
G01X28450Y16450D02*
G01X28198Y16450D01*
G01X28198Y16300D01*
G01X28199Y16290D01*
G01X28200Y16281D01*
G01X28202Y16272D01*
G01X28205Y16263D01*
G01X28209Y16255D01*
G01X28214Y16246D01*
G01X28219Y16239D01*
G01X28231Y16225D01*
G01X28239Y16219D01*
G01X28246Y16214D01*
G01X28255Y16209D01*
G01X28263Y16205D01*
G01X28272Y16202D01*
G01X28281Y16200D01*
G01X28290Y16199D01*
G01X28300Y16198D01*
G01X28450Y16198D01*
G01X28450Y16450D01*
G37*
G36*
G01X29101Y16450D02*
G01X28850Y16450D01*
G01X28850Y16198D01*
G01X29000Y16198D01*
G01X29018Y16200D01*
G01X29027Y16202D01*
G01X29036Y16205D01*
G01X29044Y16209D01*
G01X29053Y16214D01*
G01X29060Y16219D01*
G01X29068Y16225D01*
G01X29080Y16239D01*
G01X29085Y16246D01*
G01X29090Y16255D01*
G01X29094Y16263D01*
G01X29097Y16272D01*
G01X29099Y16281D01*
G01X29100Y16290D01*
G01X29101Y16300D01*
G01X29101Y16450D01*
G37*
G36*
G01X22688Y17099D02*
G01X22650Y17101D01*
G01X22630Y17100D01*
G01X22611Y17099D01*
G01X22592Y17097D01*
G01X22573Y17094D01*
G01X22555Y17090D01*
G01X22536Y17086D01*
G01X22518Y17081D01*
G01X22499Y17075D01*
G01X22481Y17068D01*
G01X22464Y17061D01*
G01X22413Y17034D01*
G01X22381Y17012D01*
G01X22366Y17000D01*
G01X22352Y16988D01*
G01X22338Y16975D01*
G01X22311Y16948D01*
G01X22287Y16918D01*
G01X22265Y16886D01*
G01X22256Y16869D01*
G01X22247Y16853D01*
G01X22239Y16835D01*
G01X22231Y16818D01*
G01X22224Y16800D01*
G01X22218Y16782D01*
G01X22213Y16763D01*
G01X22209Y16744D01*
G01X22205Y16726D01*
G01X22202Y16707D01*
G01X22200Y16688D01*
G01X22198Y16650D01*
G01X22199Y16630D01*
G01X22200Y16611D01*
G01X22202Y16592D01*
G01X22205Y16573D01*
G01X22209Y16555D01*
G01X22213Y16536D01*
G01X22218Y16517D01*
G01X22224Y16499D01*
G01X22231Y16481D01*
G01X22239Y16464D01*
G01X22247Y16446D01*
G01X22256Y16430D01*
G01X22265Y16413D01*
G01X22287Y16381D01*
G01X22311Y16351D01*
G01X22338Y16324D01*
G01X22352Y16311D01*
G01X22366Y16299D01*
G01X22381Y16287D01*
G01X22413Y16265D01*
G01X22464Y16238D01*
G01X22481Y16231D01*
G01X22499Y16224D01*
G01X22518Y16218D01*
G01X22536Y16213D01*
G01X22555Y16209D01*
G01X22573Y16205D01*
G01X22592Y16202D01*
G01X22611Y16200D01*
G01X22630Y16199D01*
G01X22650Y16198D01*
G01X22688Y16200D01*
G01X22707Y16202D01*
G01X22726Y16205D01*
G01X22744Y16209D01*
G01X22763Y16213D01*
G01X22781Y16218D01*
G01X22800Y16224D01*
G01X22818Y16231D01*
G01X22835Y16238D01*
G01X22886Y16265D01*
G01X22918Y16287D01*
G01X22933Y16299D01*
G01X22947Y16311D01*
G01X22961Y16324D01*
G01X22988Y16351D01*
G01X23012Y16381D01*
G01X23034Y16413D01*
G01X23043Y16430D01*
G01X23052Y16446D01*
G01X23060Y16464D01*
G01X23068Y16481D01*
G01X23075Y16499D01*
G01X23081Y16517D01*
G01X23086Y16536D01*
G01X23090Y16555D01*
G01X23094Y16573D01*
G01X23097Y16592D01*
G01X23099Y16611D01*
G01X23100Y16630D01*
G01X23101Y16650D01*
G01X23099Y16688D01*
G01X23097Y16707D01*
G01X23094Y16726D01*
G01X23090Y16744D01*
G01X23086Y16763D01*
G01X23081Y16782D01*
G01X23075Y16800D01*
G01X23068Y16818D01*
G01X23060Y16835D01*
G01X23052Y16853D01*
G01X23043Y16869D01*
G01X23034Y16886D01*
G01X23012Y16918D01*
G01X22988Y16948D01*
G01X22961Y16975D01*
G01X22947Y16988D01*
G01X22933Y17000D01*
G01X22918Y17012D01*
G01X22886Y17034D01*
G01X22835Y17061D01*
G01X22818Y17068D01*
G01X22800Y17075D01*
G01X22781Y17081D01*
G01X22763Y17086D01*
G01X22744Y17090D01*
G01X22726Y17094D01*
G01X22707Y17097D01*
G01X22688Y17099D01*
G37*
G36*
G01X29000Y17101D02*
G01X28850Y17101D01*
G01X28850Y16850D01*
G01X29101Y16850D01*
G01X29101Y17000D01*
G01X29099Y17018D01*
G01X29097Y17027D01*
G01X29094Y17036D01*
G01X29090Y17044D01*
G01X29085Y17053D01*
G01X29080Y17060D01*
G01X29068Y17074D01*
G01X29060Y17080D01*
G01X29053Y17085D01*
G01X29044Y17090D01*
G01X29036Y17094D01*
G01X29027Y17097D01*
G01X29018Y17099D01*
G01X29000Y17101D01*
G37*
G36*
G01X28450Y17101D02*
G01X28300Y17101D01*
G01X28290Y17100D01*
G01X28281Y17099D01*
G01X28272Y17097D01*
G01X28263Y17094D01*
G01X28255Y17090D01*
G01X28246Y17085D01*
G01X28239Y17080D01*
G01X28231Y17074D01*
G01X28219Y17060D01*
G01X28214Y17053D01*
G01X28209Y17044D01*
G01X28205Y17036D01*
G01X28202Y17027D01*
G01X28200Y17018D01*
G01X28198Y17000D01*
G01X28198Y16850D01*
G01X28450Y16850D01*
G01X28450Y17101D01*
G37*
G36*
G01X22688Y18099D02*
G01X22650Y18101D01*
G01X22630Y18100D01*
G01X22611Y18099D01*
G01X22592Y18097D01*
G01X22573Y18094D01*
G01X22555Y18090D01*
G01X22536Y18086D01*
G01X22518Y18081D01*
G01X22499Y18075D01*
G01X22481Y18068D01*
G01X22464Y18061D01*
G01X22413Y18034D01*
G01X22381Y18012D01*
G01X22366Y18000D01*
G01X22352Y17988D01*
G01X22338Y17975D01*
G01X22311Y17948D01*
G01X22287Y17918D01*
G01X22265Y17886D01*
G01X22256Y17869D01*
G01X22247Y17853D01*
G01X22239Y17835D01*
G01X22231Y17818D01*
G01X22224Y17800D01*
G01X22218Y17782D01*
G01X22213Y17763D01*
G01X22209Y17744D01*
G01X22205Y17726D01*
G01X22202Y17707D01*
G01X22200Y17688D01*
G01X22198Y17650D01*
G01X22199Y17630D01*
G01X22200Y17611D01*
G01X22202Y17592D01*
G01X22205Y17573D01*
G01X22209Y17555D01*
G01X22213Y17536D01*
G01X22218Y17517D01*
G01X22224Y17499D01*
G01X22231Y17481D01*
G01X22239Y17464D01*
G01X22247Y17446D01*
G01X22256Y17430D01*
G01X22265Y17413D01*
G01X22287Y17381D01*
G01X22299Y17366D01*
G01X22311Y17352D01*
G01X22324Y17338D01*
G01X22338Y17324D01*
G01X22352Y17311D01*
G01X22366Y17299D01*
G01X22381Y17287D01*
G01X22413Y17265D01*
G01X22464Y17238D01*
G01X22481Y17231D01*
G01X22499Y17224D01*
G01X22518Y17218D01*
G01X22536Y17213D01*
G01X22555Y17209D01*
G01X22573Y17205D01*
G01X22592Y17202D01*
G01X22611Y17200D01*
G01X22630Y17199D01*
G01X22650Y17198D01*
G01X22688Y17200D01*
G01X22707Y17202D01*
G01X22726Y17205D01*
G01X22744Y17209D01*
G01X22763Y17213D01*
G01X22781Y17218D01*
G01X22800Y17224D01*
G01X22818Y17231D01*
G01X22835Y17238D01*
G01X22886Y17265D01*
G01X22918Y17287D01*
G01X22933Y17299D01*
G01X22947Y17311D01*
G01X22961Y17324D01*
G01X22975Y17338D01*
G01X22988Y17352D01*
G01X23000Y17366D01*
G01X23012Y17381D01*
G01X23034Y17413D01*
G01X23043Y17430D01*
G01X23052Y17446D01*
G01X23060Y17464D01*
G01X23068Y17481D01*
G01X23075Y17499D01*
G01X23081Y17517D01*
G01X23086Y17536D01*
G01X23090Y17555D01*
G01X23094Y17573D01*
G01X23097Y17592D01*
G01X23099Y17611D01*
G01X23100Y17630D01*
G01X23101Y17650D01*
G01X23099Y17688D01*
G01X23097Y17707D01*
G01X23094Y17726D01*
G01X23090Y17744D01*
G01X23086Y17763D01*
G01X23081Y17782D01*
G01X23075Y17800D01*
G01X23068Y17818D01*
G01X23060Y17835D01*
G01X23052Y17853D01*
G01X23043Y17869D01*
G01X23034Y17886D01*
G01X23012Y17918D01*
G01X22988Y17948D01*
G01X22961Y17975D01*
G01X22947Y17988D01*
G01X22933Y18000D01*
G01X22918Y18012D01*
G01X22886Y18034D01*
G01X22835Y18061D01*
G01X22818Y18068D01*
G01X22800Y18075D01*
G01X22781Y18081D01*
G01X22763Y18086D01*
G01X22744Y18090D01*
G01X22726Y18094D01*
G01X22707Y18097D01*
G01X22688Y18099D01*
G37*
G36*
G01X17618Y30375D02*
G01X17600Y30376D01*
G01X17562Y30374D01*
G01X17544Y30372D01*
G01X17526Y30369D01*
G01X17507Y30365D01*
G01X17489Y30361D01*
G01X17471Y30356D01*
G01X17454Y30350D01*
G01X17436Y30343D01*
G01X17419Y30336D01*
G01X17403Y30327D01*
G01X17386Y30319D01*
G01X17371Y30309D01*
G01X17355Y30298D01*
G01X17340Y30288D01*
G01X17326Y30276D01*
G01X17312Y30263D01*
G01X17298Y30251D01*
G01X17285Y30237D01*
G01X17261Y30209D01*
G01X17251Y30194D01*
G01X17240Y30178D01*
G01X17231Y30163D01*
G01X17222Y30146D01*
G01X17214Y30130D01*
G01X17206Y30113D01*
G01X17199Y30095D01*
G01X17193Y30078D01*
G01X17188Y30060D01*
G01X17184Y30042D01*
G01X17180Y30023D01*
G01X17177Y30005D01*
G01X17175Y29987D01*
G01X17174Y29968D01*
G01X17173Y29950D01*
G01X17174Y29931D01*
G01X17175Y29913D01*
G01X17177Y29894D01*
G01X17180Y29876D01*
G01X17184Y29857D01*
G01X17188Y29840D01*
G01X17193Y29822D01*
G01X17199Y29804D01*
G01X17213Y29770D01*
G01X17222Y29753D01*
G01X17230Y29737D01*
G01X17250Y29705D01*
G01X17261Y29690D01*
G01X17285Y29662D01*
G01X17311Y29636D01*
G01X17325Y29624D01*
G01X17340Y29612D01*
G01X17355Y29601D01*
G01X17370Y29591D01*
G01X17386Y29581D01*
G01X17402Y29572D01*
G01X17407Y29569D01*
G01X17412Y29565D01*
G01X17416Y29560D01*
G01X17419Y29555D01*
G01X17422Y29549D01*
G01X17423Y29543D01*
G01X17423Y26148D01*
G01X17422Y26142D01*
G01X17419Y26136D01*
G01X17416Y26131D01*
G01X17412Y26126D01*
G01X17407Y26122D01*
G01X17402Y26119D01*
G01X17386Y26110D01*
G01X17356Y26090D01*
G01X17341Y26078D01*
G01X17327Y26067D01*
G01X17313Y26055D01*
G01X17300Y26042D01*
G01X17287Y26028D01*
G01X17276Y26014D01*
G01X17264Y26000D01*
G01X17253Y25985D01*
G01X17243Y25969D01*
G01X17240Y25965D01*
G01X17236Y25961D01*
G01X17231Y25957D01*
G01X17226Y25954D01*
G01X17221Y25952D01*
G01X17215Y25951D01*
G01X13343Y25951D01*
G01X13331Y25955D01*
G01X13326Y25958D01*
G01X13321Y25962D01*
G01X12592Y26692D01*
G01X12582Y26701D01*
G01X12572Y26709D01*
G01X12561Y26717D01*
G01X12550Y26723D01*
G01X12538Y26730D01*
G01X12527Y26735D01*
G01X12514Y26740D01*
G01X12502Y26744D01*
G01X12489Y26747D01*
G01X12476Y26749D01*
G01X12450Y26751D01*
G01X11506Y26751D01*
G01X11495Y26752D01*
G01X11482Y26755D01*
G01X11468Y26758D01*
G01X11454Y26759D01*
G01X10321Y26759D01*
G01X10309Y26761D01*
G01X10303Y26763D01*
G01X10298Y26767D01*
G01X10294Y26770D01*
G01X10290Y26775D01*
G01X10286Y26779D01*
G01X10277Y26795D01*
G01X10266Y26811D01*
G01X10255Y26826D01*
G01X10243Y26841D01*
G01X10217Y26869D01*
G01X10203Y26881D01*
G01X10189Y26894D01*
G01X10174Y26905D01*
G01X10159Y26917D01*
G01X10127Y26937D01*
G01X10110Y26946D01*
G01X10093Y26954D01*
G01X10059Y26968D01*
G01X10023Y26980D01*
G01X10004Y26984D01*
G01X9986Y26988D01*
G01X9967Y26990D01*
G01X9948Y26993D01*
G01X9930Y26994D01*
G01X9419Y26994D01*
G01X9401Y26992D01*
G01X9363Y26988D01*
G01X9344Y26984D01*
G01X9326Y26980D01*
G01X9307Y26974D01*
G01X9289Y26968D01*
G01X9272Y26961D01*
G01X9238Y26945D01*
G01X9221Y26936D01*
G01X9205Y26926D01*
G01X9173Y26904D01*
G01X9159Y26892D01*
G01X9144Y26880D01*
G01X9117Y26853D01*
G01X9105Y26839D01*
G01X9093Y26824D01*
G01X9082Y26809D01*
G01X9071Y26793D01*
G01X9061Y26777D01*
G01X9052Y26760D01*
G01X9044Y26743D01*
G01X9036Y26725D01*
G01X9029Y26707D01*
G01X9023Y26690D01*
G01X9018Y26671D01*
G01X9013Y26653D01*
G01X9007Y26615D01*
G01X9005Y26596D01*
G01X9003Y26578D01*
G01X9003Y26540D01*
G01X9007Y26502D01*
G01X9013Y26464D01*
G01X9023Y26428D01*
G01X9029Y26410D01*
G01X9036Y26392D01*
G01X9044Y26375D01*
G01X9052Y26357D01*
G01X9061Y26341D01*
G01X9071Y26325D01*
G01X9093Y26293D01*
G01X9105Y26278D01*
G01X9117Y26264D01*
G01X9131Y26251D01*
G01X9144Y26238D01*
G01X9159Y26225D01*
G01X9173Y26213D01*
G01X9205Y26191D01*
G01X9221Y26181D01*
G01X9238Y26172D01*
G01X9272Y26156D01*
G01X9289Y26149D01*
G01X9307Y26143D01*
G01X9326Y26138D01*
G01X9344Y26133D01*
G01X9382Y26127D01*
G01X9401Y26125D01*
G01X9419Y26123D01*
G01X9930Y26123D01*
G01X9948Y26125D01*
G01X9967Y26127D01*
G01X9986Y26130D01*
G01X10004Y26133D01*
G01X10023Y26138D01*
G01X10041Y26143D01*
G01X10059Y26149D01*
G01X10093Y26163D01*
G01X10110Y26171D01*
G01X10127Y26180D01*
G01X10143Y26190D01*
G01X10159Y26201D01*
G01X10189Y26223D01*
G01X10217Y26249D01*
G01X10230Y26262D01*
G01X10243Y26277D01*
G01X10255Y26291D01*
G01X10266Y26306D01*
G01X10277Y26322D01*
G01X10286Y26338D01*
G01X10290Y26343D01*
G01X10298Y26351D01*
G01X10303Y26354D01*
G01X10309Y26356D01*
G01X10315Y26357D01*
G01X10321Y26357D01*
G01X11340Y26358D01*
G01X11347Y26357D01*
G01X11353Y26356D01*
G01X11359Y26353D01*
G01X11364Y26350D01*
G01X11369Y26346D01*
G01X12687Y25028D01*
G01X12691Y25023D01*
G01X12694Y25018D01*
G01X12697Y25012D01*
G01X12698Y25006D01*
G01X12698Y20300D01*
G01X12699Y20286D01*
G01X12700Y20273D01*
G01X12702Y20260D01*
G01X12705Y20248D01*
G01X12709Y20235D01*
G01X12719Y20211D01*
G01X12726Y20199D01*
G01X12732Y20188D01*
G01X12740Y20177D01*
G01X12748Y20167D01*
G01X12757Y20157D01*
G01X14207Y18707D01*
G01X14217Y18698D01*
G01X14227Y18690D01*
G01X14238Y18682D01*
G01X14249Y18676D01*
G01X14261Y18669D01*
G01X14272Y18664D01*
G01X14285Y18659D01*
G01X14297Y18655D01*
G01X14310Y18652D01*
G01X14323Y18650D01*
G01X14336Y18649D01*
G01X14350Y18648D01*
G01X27356Y18648D01*
G01X27368Y18644D01*
G01X27373Y18641D01*
G01X27378Y18637D01*
G01X28205Y17810D01*
G01X28209Y17805D01*
G01X28212Y17800D01*
G01X28215Y17794D01*
G01X28217Y17782D01*
G01X28215Y17771D01*
G01X28210Y17751D01*
G01X28206Y17731D01*
G01X28203Y17711D01*
G01X28200Y17690D01*
G01X28198Y17650D01*
G01X28199Y17630D01*
G01X28200Y17611D01*
G01X28202Y17592D01*
G01X28205Y17573D01*
G01X28209Y17555D01*
G01X28213Y17536D01*
G01X28218Y17517D01*
G01X28224Y17499D01*
G01X28231Y17481D01*
G01X28239Y17464D01*
G01X28247Y17446D01*
G01X28256Y17430D01*
G01X28265Y17413D01*
G01X28287Y17381D01*
G01X28299Y17366D01*
G01X28311Y17352D01*
G01X28324Y17338D01*
G01X28338Y17324D01*
G01X28352Y17311D01*
G01X28366Y17299D01*
G01X28381Y17287D01*
G01X28413Y17265D01*
G01X28464Y17238D01*
G01X28481Y17231D01*
G01X28499Y17224D01*
G01X28518Y17218D01*
G01X28536Y17213D01*
G01X28555Y17209D01*
G01X28573Y17205D01*
G01X28592Y17202D01*
G01X28611Y17200D01*
G01X28630Y17199D01*
G01X28650Y17198D01*
G01X28688Y17200D01*
G01X28707Y17202D01*
G01X28726Y17205D01*
G01X28744Y17209D01*
G01X28763Y17213D01*
G01X28781Y17218D01*
G01X28800Y17224D01*
G01X28818Y17231D01*
G01X28835Y17238D01*
G01X28886Y17265D01*
G01X28918Y17287D01*
G01X28933Y17299D01*
G01X28947Y17311D01*
G01X28961Y17324D01*
G01X28975Y17338D01*
G01X28988Y17352D01*
G01X29000Y17366D01*
G01X29012Y17381D01*
G01X29034Y17413D01*
G01X29043Y17430D01*
G01X29052Y17446D01*
G01X29060Y17464D01*
G01X29068Y17481D01*
G01X29075Y17499D01*
G01X29081Y17517D01*
G01X29086Y17536D01*
G01X29090Y17555D01*
G01X29094Y17573D01*
G01X29097Y17592D01*
G01X29099Y17611D01*
G01X29100Y17630D01*
G01X29101Y17650D01*
G01X29099Y17688D01*
G01X29097Y17707D01*
G01X29094Y17726D01*
G01X29090Y17744D01*
G01X29086Y17763D01*
G01X29081Y17782D01*
G01X29075Y17800D01*
G01X29068Y17818D01*
G01X29060Y17835D01*
G01X29052Y17853D01*
G01X29043Y17869D01*
G01X29034Y17886D01*
G01X29012Y17918D01*
G01X28988Y17948D01*
G01X28961Y17975D01*
G01X28947Y17988D01*
G01X28933Y18000D01*
G01X28918Y18012D01*
G01X28886Y18034D01*
G01X28835Y18061D01*
G01X28818Y18068D01*
G01X28800Y18075D01*
G01X28781Y18081D01*
G01X28763Y18086D01*
G01X28744Y18090D01*
G01X28726Y18094D01*
G01X28707Y18097D01*
G01X28688Y18099D01*
G01X28650Y18101D01*
G01X28629Y18100D01*
G01X28609Y18099D01*
G01X28588Y18096D01*
G01X28568Y18093D01*
G01X28548Y18089D01*
G01X28528Y18084D01*
G01X28518Y18082D01*
G01X28511Y18083D01*
G01X28505Y18084D01*
G01X28499Y18087D01*
G01X28494Y18090D01*
G01X28489Y18094D01*
G01X27592Y18992D01*
G01X27582Y19001D01*
G01X27572Y19009D01*
G01X27561Y19017D01*
G01X27550Y19023D01*
G01X27538Y19030D01*
G01X27527Y19035D01*
G01X27514Y19040D01*
G01X27502Y19044D01*
G01X27489Y19047D01*
G01X27476Y19049D01*
G01X27450Y19051D01*
G01X14443Y19051D01*
G01X14431Y19055D01*
G01X14426Y19058D01*
G01X14421Y19062D01*
G01X13112Y20371D01*
G01X13108Y20376D01*
G01X13105Y20381D01*
G01X13102Y20387D01*
G01X13101Y20393D01*
G01X13101Y25100D01*
G01X13099Y25126D01*
G01X13097Y25139D01*
G01X13094Y25152D01*
G01X13090Y25164D01*
G01X13085Y25177D01*
G01X13080Y25188D01*
G01X13073Y25200D01*
G01X13067Y25211D01*
G01X13059Y25222D01*
G01X13051Y25232D01*
G01X13042Y25242D01*
G01X12003Y26280D01*
G01X11999Y26285D01*
G01X11996Y26290D01*
G01X11993Y26296D01*
G01X11992Y26302D01*
G01X11991Y26309D01*
G01X11992Y26314D01*
G01X11993Y26320D01*
G01X11995Y26325D01*
G01X12001Y26335D01*
G01X12005Y26339D01*
G01X12015Y26345D01*
G01X12020Y26347D01*
G01X12026Y26348D01*
G01X12356Y26348D01*
G01X12368Y26344D01*
G01X12373Y26341D01*
G01X12378Y26337D01*
G01X13107Y25607D01*
G01X13117Y25598D01*
G01X13127Y25590D01*
G01X13138Y25582D01*
G01X13149Y25576D01*
G01X13161Y25569D01*
G01X13172Y25564D01*
G01X13185Y25559D01*
G01X13197Y25555D01*
G01X13210Y25552D01*
G01X13223Y25550D01*
G01X13236Y25549D01*
G01X13250Y25548D01*
G01X17215Y25548D01*
G01X17221Y25547D01*
G01X17226Y25545D01*
G01X17231Y25542D01*
G01X17236Y25538D01*
G01X17240Y25534D01*
G01X17243Y25530D01*
G01X17253Y25514D01*
G01X17264Y25499D01*
G01X17276Y25484D01*
G01X17288Y25470D01*
G01X17314Y25444D01*
G01X17327Y25432D01*
G01X17342Y25420D01*
G01X17356Y25409D01*
G01X17372Y25398D01*
G01X17388Y25388D01*
G01X17404Y25380D01*
G01X17420Y25371D01*
G01X17437Y25364D01*
G01X17455Y25357D01*
G01X17472Y25351D01*
G01X17508Y25341D01*
G01X17544Y25335D01*
G01X17563Y25333D01*
G01X17581Y25332D01*
G01X17600Y25331D01*
G01X17618Y25332D01*
G01X17637Y25333D01*
G01X17656Y25335D01*
G01X17674Y25338D01*
G01X17693Y25342D01*
G01X17711Y25346D01*
G01X17747Y25358D01*
G01X17764Y25365D01*
G01X17798Y25381D01*
G01X17814Y25390D01*
G01X17830Y25400D01*
G01X17846Y25411D01*
G01X17860Y25422D01*
G01X17875Y25434D01*
G01X17889Y25447D01*
G01X17902Y25460D01*
G01X17915Y25474D01*
G01X17927Y25488D01*
G01X17938Y25503D01*
G01X17949Y25519D01*
G01X17959Y25535D01*
G01X17968Y25551D01*
G01X17977Y25568D01*
G01X17984Y25585D01*
G01X17991Y25603D01*
G01X17997Y25620D01*
G01X18003Y25638D01*
G01X18007Y25656D01*
G01X18011Y25675D01*
G01X18014Y25693D01*
G01X18018Y25731D01*
G01X18018Y25768D01*
G01X18014Y25806D01*
G01X18011Y25825D01*
G01X18003Y25861D01*
G01X17991Y25897D01*
G01X17984Y25915D01*
G01X17976Y25932D01*
G01X17968Y25948D01*
G01X17959Y25965D01*
G01X17948Y25981D01*
G01X17938Y25996D01*
G01X17914Y26026D01*
G01X17901Y26039D01*
G01X17888Y26053D01*
G01X17860Y26077D01*
G01X17844Y26089D01*
G01X17829Y26100D01*
G01X17813Y26109D01*
G01X17797Y26119D01*
G01X17792Y26122D01*
G01X17787Y26126D01*
G01X17783Y26131D01*
G01X17780Y26136D01*
G01X17777Y26142D01*
G01X17776Y26148D01*
G01X17776Y29543D01*
G01X17777Y29549D01*
G01X17780Y29555D01*
G01X17783Y29560D01*
G01X17787Y29565D01*
G01X17792Y29569D01*
G01X17797Y29572D01*
G01X17813Y29581D01*
G01X17829Y29591D01*
G01X17844Y29601D01*
G01X17859Y29612D01*
G01X17874Y29624D01*
G01X17888Y29636D01*
G01X17914Y29662D01*
G01X17938Y29690D01*
G01X17949Y29705D01*
G01X17969Y29737D01*
G01X17977Y29753D01*
G01X17986Y29770D01*
G01X18000Y29804D01*
G01X18006Y29822D01*
G01X18011Y29840D01*
G01X18015Y29857D01*
G01X18019Y29876D01*
G01X18022Y29894D01*
G01X18024Y29913D01*
G01X18025Y29931D01*
G01X18026Y29950D01*
G01X18025Y29968D01*
G01X18024Y29987D01*
G01X18022Y30005D01*
G01X18019Y30023D01*
G01X18015Y30042D01*
G01X18011Y30060D01*
G01X18006Y30078D01*
G01X18000Y30095D01*
G01X17993Y30113D01*
G01X17985Y30130D01*
G01X17977Y30146D01*
G01X17968Y30163D01*
G01X17959Y30178D01*
G01X17948Y30194D01*
G01X17938Y30209D01*
G01X17914Y30237D01*
G01X17901Y30251D01*
G01X17887Y30263D01*
G01X17873Y30276D01*
G01X17859Y30288D01*
G01X17844Y30298D01*
G01X17828Y30309D01*
G01X17813Y30319D01*
G01X17796Y30327D01*
G01X17780Y30336D01*
G01X17763Y30343D01*
G01X17745Y30350D01*
G01X17728Y30356D01*
G01X17710Y30361D01*
G01X17692Y30365D01*
G01X17673Y30369D01*
G01X17655Y30372D01*
G01X17637Y30374D01*
G01X17618Y30375D01*
G37*
G36*
G01X6900Y20951D02*
G01X6200Y20951D01*
G01X6190Y20950D01*
G01X6181Y20949D01*
G01X6172Y20947D01*
G01X6163Y20944D01*
G01X6155Y20940D01*
G01X6146Y20935D01*
G01X6139Y20930D01*
G01X6131Y20924D01*
G01X6119Y20910D01*
G01X6114Y20903D01*
G01X6109Y20894D01*
G01X6105Y20886D01*
G01X6102Y20877D01*
G01X6100Y20868D01*
G01X6098Y20850D01*
G01X6098Y20150D01*
G01X6099Y20140D01*
G01X6100Y20131D01*
G01X6102Y20122D01*
G01X6105Y20113D01*
G01X6109Y20105D01*
G01X6114Y20096D01*
G01X6119Y20089D01*
G01X6131Y20075D01*
G01X6139Y20069D01*
G01X6146Y20064D01*
G01X6155Y20059D01*
G01X6163Y20055D01*
G01X6172Y20052D01*
G01X6181Y20050D01*
G01X6190Y20049D01*
G01X6200Y20048D01*
G01X6900Y20048D01*
G01X6918Y20050D01*
G01X6927Y20052D01*
G01X6936Y20055D01*
G01X6944Y20059D01*
G01X6953Y20064D01*
G01X6960Y20069D01*
G01X6968Y20075D01*
G01X6980Y20089D01*
G01X6985Y20096D01*
G01X6990Y20105D01*
G01X6994Y20113D01*
G01X6997Y20122D01*
G01X6999Y20131D01*
G01X7000Y20140D01*
G01X7001Y20150D01*
G01X7001Y20850D01*
G01X6999Y20868D01*
G01X6997Y20877D01*
G01X6994Y20886D01*
G01X6990Y20894D01*
G01X6985Y20903D01*
G01X6980Y20910D01*
G01X6968Y20924D01*
G01X6960Y20930D01*
G01X6953Y20935D01*
G01X6944Y20940D01*
G01X6936Y20944D01*
G01X6927Y20947D01*
G01X6918Y20949D01*
G01X6900Y20951D01*
G37*
G36*
G01X40486Y27020D02*
G01X40450Y27022D01*
G01X40431Y27021D01*
G01X40413Y27020D01*
G01X40394Y27018D01*
G01X40358Y27012D01*
G01X40340Y27008D01*
G01X40322Y27003D01*
G01X40305Y26996D01*
G01X40288Y26990D01*
G01X40271Y26982D01*
G01X40255Y26974D01*
G01X40238Y26965D01*
G01X40222Y26956D01*
G01X40207Y26946D01*
G01X40192Y26935D01*
G01X40164Y26911D01*
G01X40138Y26885D01*
G01X40114Y26857D01*
G01X40104Y26842D01*
G01X40093Y26827D01*
G01X40084Y26811D01*
G01X40075Y26794D01*
G01X40067Y26778D01*
G01X40059Y26761D01*
G01X40052Y26744D01*
G01X40047Y26727D01*
G01X40041Y26709D01*
G01X40037Y26691D01*
G01X40031Y26655D01*
G01X40029Y26636D01*
G01X40027Y26618D01*
G01X40027Y26581D01*
G01X40031Y26543D01*
G01X40034Y26525D01*
G01X40038Y26506D01*
G01X40042Y26488D01*
G01X40047Y26470D01*
G01X40054Y26452D01*
G01X40060Y26434D01*
G01X40068Y26417D01*
G01X40077Y26401D01*
G01X40086Y26384D01*
G01X40096Y26368D01*
G01X40118Y26338D01*
G01X40130Y26323D01*
G01X40143Y26309D01*
G01X40156Y26296D01*
G01X40170Y26283D01*
G01X40184Y26271D01*
G01X40199Y26259D01*
G01X40214Y26248D01*
G01X40230Y26238D01*
G01X40247Y26229D01*
G01X40263Y26220D01*
G01X40281Y26212D01*
G01X40298Y26205D01*
G01X40303Y26203D01*
G01X40313Y26195D01*
G01X40317Y26190D01*
G01X40319Y26185D01*
G01X40322Y26180D01*
G01X40323Y26174D01*
G01X40323Y23483D01*
G01X40322Y23477D01*
G01X40316Y23465D01*
G01X37484Y20633D01*
G01X37478Y20630D01*
G01X37466Y20626D01*
G01X24240Y20626D01*
G01X24234Y20627D01*
G01X24229Y20630D01*
G01X24223Y20632D01*
G01X24211Y20640D01*
G01X24198Y20647D01*
G01X24185Y20653D01*
G01X24171Y20659D01*
G01X24157Y20663D01*
G01X24129Y20669D01*
G01X24114Y20670D01*
G01X24100Y20671D01*
G01X24086Y20670D01*
G01X24073Y20669D01*
G01X24060Y20667D01*
G01X24034Y20661D01*
G01X24021Y20656D01*
G01X24009Y20651D01*
G01X23985Y20639D01*
G01X23963Y20623D01*
G01X23953Y20615D01*
G01X23943Y20606D01*
G01X23934Y20596D01*
G01X23926Y20586D01*
G01X23910Y20564D01*
G01X23898Y20540D01*
G01X23893Y20528D01*
G01X23885Y20502D01*
G01X23882Y20489D01*
G01X23880Y20476D01*
G01X23878Y20450D01*
G01X23879Y20436D01*
G01X23880Y20423D01*
G01X23882Y20410D01*
G01X23885Y20397D01*
G01X23893Y20371D01*
G01X23898Y20359D01*
G01X23910Y20335D01*
G01X23926Y20313D01*
G01X23934Y20303D01*
G01X23943Y20293D01*
G01X23953Y20284D01*
G01X23963Y20276D01*
G01X23985Y20260D01*
G01X24009Y20248D01*
G01X24021Y20243D01*
G01X24034Y20238D01*
G01X24060Y20232D01*
G01X24073Y20230D01*
G01X24086Y20229D01*
G01X24100Y20228D01*
G01X24114Y20229D01*
G01X24129Y20230D01*
G01X24157Y20236D01*
G01X24171Y20240D01*
G01X24185Y20246D01*
G01X24198Y20252D01*
G01X24211Y20259D01*
G01X24223Y20267D01*
G01X24229Y20269D01*
G01X24234Y20272D01*
G01X24240Y20273D01*
G01X37550Y20273D01*
G01X37562Y20274D01*
G01X37575Y20275D01*
G01X37611Y20284D01*
G01X37623Y20290D01*
G01X37634Y20295D01*
G01X37645Y20302D01*
G01X37655Y20309D01*
G01X37665Y20317D01*
G01X37674Y20325D01*
G01X40624Y23275D01*
G01X40632Y23284D01*
G01X40640Y23294D01*
G01X40647Y23304D01*
G01X40654Y23315D01*
G01X40660Y23326D01*
G01X40672Y23362D01*
G01X40674Y23375D01*
G01X40675Y23387D01*
G01X40676Y23400D01*
G01X40676Y26228D01*
G01X40677Y26234D01*
G01X40680Y26240D01*
G01X40683Y26245D01*
G01X40688Y26250D01*
G01X40693Y26254D01*
G01X40707Y26265D01*
G01X40722Y26276D01*
G01X40735Y26288D01*
G01X40749Y26301D01*
G01X40761Y26315D01*
G01X40773Y26328D01*
G01X40785Y26343D01*
G01X40796Y26357D01*
G01X40816Y26389D01*
G01X40825Y26405D01*
G01X40832Y26421D01*
G01X40840Y26438D01*
G01X40847Y26455D01*
G01X40852Y26473D01*
G01X40858Y26490D01*
G01X40866Y26526D01*
G01X40868Y26544D01*
G01X40870Y26563D01*
G01X40872Y26581D01*
G01X40872Y26618D01*
G01X40870Y26636D01*
G01X40868Y26655D01*
G01X40862Y26691D01*
G01X40858Y26709D01*
G01X40852Y26727D01*
G01X40847Y26744D01*
G01X40840Y26761D01*
G01X40832Y26778D01*
G01X40824Y26794D01*
G01X40815Y26811D01*
G01X40806Y26827D01*
G01X40796Y26842D01*
G01X40785Y26857D01*
G01X40761Y26885D01*
G01X40735Y26911D01*
G01X40707Y26935D01*
G01X40692Y26946D01*
G01X40677Y26956D01*
G01X40661Y26965D01*
G01X40644Y26974D01*
G01X40628Y26982D01*
G01X40611Y26990D01*
G01X40594Y26996D01*
G01X40577Y27003D01*
G01X40559Y27008D01*
G01X40541Y27012D01*
G01X40505Y27018D01*
G01X40486Y27020D01*
G37*
G36*
G01X39486Y27020D02*
G01X39450Y27022D01*
G01X39431Y27021D01*
G01X39413Y27020D01*
G01X39394Y27018D01*
G01X39358Y27012D01*
G01X39340Y27008D01*
G01X39322Y27003D01*
G01X39305Y26996D01*
G01X39288Y26990D01*
G01X39271Y26982D01*
G01X39255Y26974D01*
G01X39238Y26965D01*
G01X39222Y26956D01*
G01X39207Y26946D01*
G01X39192Y26935D01*
G01X39164Y26911D01*
G01X39138Y26885D01*
G01X39114Y26857D01*
G01X39104Y26842D01*
G01X39093Y26827D01*
G01X39084Y26811D01*
G01X39075Y26794D01*
G01X39067Y26778D01*
G01X39059Y26761D01*
G01X39052Y26744D01*
G01X39047Y26727D01*
G01X39041Y26709D01*
G01X39037Y26691D01*
G01X39031Y26655D01*
G01X39029Y26636D01*
G01X39027Y26618D01*
G01X39027Y26580D01*
G01X39031Y26542D01*
G01X39034Y26523D01*
G01X39038Y26505D01*
G01X39043Y26486D01*
G01X39048Y26468D01*
G01X39054Y26450D01*
G01X39061Y26432D01*
G01X39069Y26415D01*
G01X39078Y26398D01*
G01X39088Y26381D01*
G01X39098Y26365D01*
G01X39109Y26350D01*
G01X39121Y26334D01*
G01X39133Y26320D01*
G01X39159Y26292D01*
G01X39173Y26280D01*
G01X39188Y26267D01*
G01X39204Y26256D01*
G01X39219Y26245D01*
G01X39235Y26235D01*
G01X39252Y26226D01*
G01X39257Y26223D01*
G01X39262Y26219D01*
G01X39266Y26214D01*
G01X39269Y26209D01*
G01X39272Y26203D01*
G01X39273Y26197D01*
G01X39273Y23883D01*
G01X39272Y23877D01*
G01X39266Y23865D01*
G01X36634Y21233D01*
G01X36628Y21230D01*
G01X36616Y21226D01*
G01X23790Y21226D01*
G01X23784Y21227D01*
G01X23779Y21230D01*
G01X23773Y21232D01*
G01X23761Y21240D01*
G01X23748Y21247D01*
G01X23735Y21253D01*
G01X23721Y21259D01*
G01X23707Y21263D01*
G01X23679Y21269D01*
G01X23664Y21270D01*
G01X23650Y21271D01*
G01X23636Y21270D01*
G01X23623Y21269D01*
G01X23610Y21267D01*
G01X23584Y21261D01*
G01X23571Y21256D01*
G01X23559Y21251D01*
G01X23535Y21239D01*
G01X23513Y21223D01*
G01X23503Y21215D01*
G01X23493Y21206D01*
G01X23484Y21196D01*
G01X23476Y21186D01*
G01X23460Y21164D01*
G01X23448Y21140D01*
G01X23443Y21128D01*
G01X23435Y21102D01*
G01X23432Y21089D01*
G01X23430Y21076D01*
G01X23428Y21050D01*
G01X23429Y21036D01*
G01X23430Y21023D01*
G01X23432Y21010D01*
G01X23435Y20997D01*
G01X23443Y20971D01*
G01X23448Y20959D01*
G01X23460Y20935D01*
G01X23476Y20913D01*
G01X23484Y20903D01*
G01X23493Y20893D01*
G01X23503Y20884D01*
G01X23513Y20876D01*
G01X23535Y20860D01*
G01X23559Y20848D01*
G01X23571Y20843D01*
G01X23584Y20838D01*
G01X23610Y20832D01*
G01X23623Y20830D01*
G01X23636Y20829D01*
G01X23650Y20828D01*
G01X23664Y20829D01*
G01X23679Y20830D01*
G01X23707Y20836D01*
G01X23721Y20840D01*
G01X23735Y20846D01*
G01X23748Y20852D01*
G01X23761Y20859D01*
G01X23773Y20867D01*
G01X23779Y20869D01*
G01X23784Y20872D01*
G01X23790Y20873D01*
G01X36700Y20873D01*
G01X36712Y20874D01*
G01X36725Y20875D01*
G01X36761Y20884D01*
G01X36773Y20890D01*
G01X36784Y20895D01*
G01X36795Y20902D01*
G01X36805Y20909D01*
G01X36815Y20917D01*
G01X36824Y20925D01*
G01X39574Y23675D01*
G01X39582Y23684D01*
G01X39590Y23694D01*
G01X39597Y23704D01*
G01X39604Y23715D01*
G01X39610Y23726D01*
G01X39622Y23762D01*
G01X39624Y23775D01*
G01X39625Y23787D01*
G01X39626Y23800D01*
G01X39626Y26197D01*
G01X39627Y26203D01*
G01X39630Y26209D01*
G01X39633Y26214D01*
G01X39637Y26219D01*
G01X39642Y26223D01*
G01X39647Y26226D01*
G01X39664Y26235D01*
G01X39680Y26245D01*
G01X39696Y26256D01*
G01X39711Y26267D01*
G01X39726Y26280D01*
G01X39740Y26292D01*
G01X39779Y26334D01*
G01X39790Y26350D01*
G01X39801Y26365D01*
G01X39811Y26381D01*
G01X39821Y26398D01*
G01X39830Y26415D01*
G01X39838Y26432D01*
G01X39845Y26450D01*
G01X39851Y26468D01*
G01X39856Y26486D01*
G01X39861Y26505D01*
G01X39865Y26523D01*
G01X39868Y26542D01*
G01X39872Y26580D01*
G01X39872Y26618D01*
G01X39870Y26636D01*
G01X39868Y26655D01*
G01X39862Y26691D01*
G01X39858Y26709D01*
G01X39852Y26727D01*
G01X39847Y26744D01*
G01X39840Y26761D01*
G01X39832Y26778D01*
G01X39824Y26794D01*
G01X39815Y26811D01*
G01X39806Y26827D01*
G01X39796Y26842D01*
G01X39785Y26857D01*
G01X39761Y26885D01*
G01X39735Y26911D01*
G01X39707Y26935D01*
G01X39692Y26946D01*
G01X39677Y26956D01*
G01X39661Y26965D01*
G01X39644Y26974D01*
G01X39628Y26982D01*
G01X39611Y26990D01*
G01X39594Y26996D01*
G01X39577Y27003D01*
G01X39559Y27008D01*
G01X39541Y27012D01*
G01X39505Y27018D01*
G01X39486Y27020D01*
G37*
G36*
G01X9930Y25140D02*
G01X9420Y25140D01*
G01X9382Y25136D01*
G01X9364Y25133D01*
G01X9345Y25130D01*
G01X9309Y25120D01*
G01X9291Y25114D01*
G01X9273Y25107D01*
G01X9256Y25100D01*
G01X9222Y25082D01*
G01X9206Y25073D01*
G01X9190Y25062D01*
G01X9175Y25051D01*
G01X9160Y25039D01*
G01X9146Y25027D01*
G01X9132Y25014D01*
G01X9119Y25001D01*
G01X9107Y24986D01*
G01X9095Y24972D01*
G01X9084Y24957D01*
G01X9073Y24941D01*
G01X9063Y24925D01*
G01X9060Y24920D01*
G01X9056Y24916D01*
G01X9051Y24912D01*
G01X9046Y24909D01*
G01X9040Y24907D01*
G01X9035Y24906D01*
G01X9028Y24905D01*
G01X8291Y24905D01*
G01X8265Y24901D01*
G01X8252Y24898D01*
G01X8239Y24894D01*
G01X8227Y24890D01*
G01X8215Y24884D01*
G01X8204Y24878D01*
G01X8182Y24864D01*
G01X8162Y24846D01*
G01X6407Y23092D01*
G01X6398Y23082D01*
G01X6390Y23072D01*
G01X6382Y23061D01*
G01X6376Y23050D01*
G01X6369Y23038D01*
G01X6364Y23027D01*
G01X6359Y23014D01*
G01X6355Y23002D01*
G01X6352Y22989D01*
G01X6350Y22976D01*
G01X6348Y22950D01*
G01X6348Y21921D01*
G01X6347Y21915D01*
G01X6344Y21910D01*
G01X6342Y21905D01*
G01X6338Y21900D01*
G01X6328Y21892D01*
G01X6312Y21883D01*
G01X6280Y21861D01*
G01X6265Y21850D01*
G01X6251Y21837D01*
G01X6236Y21824D01*
G01X6223Y21811D01*
G01X6210Y21797D01*
G01X6186Y21767D01*
G01X6175Y21751D01*
G01X6155Y21719D01*
G01X6147Y21702D01*
G01X6138Y21685D01*
G01X6124Y21649D01*
G01X6118Y21631D01*
G01X6113Y21613D01*
G01X6109Y21594D01*
G01X6105Y21576D01*
G01X6102Y21557D01*
G01X6100Y21538D01*
G01X6098Y21500D01*
G01X6099Y21480D01*
G01X6100Y21461D01*
G01X6102Y21442D01*
G01X6105Y21423D01*
G01X6109Y21405D01*
G01X6113Y21386D01*
G01X6118Y21367D01*
G01X6124Y21349D01*
G01X6131Y21331D01*
G01X6139Y21314D01*
G01X6147Y21296D01*
G01X6156Y21280D01*
G01X6165Y21263D01*
G01X6187Y21231D01*
G01X6199Y21216D01*
G01X6211Y21202D01*
G01X6224Y21188D01*
G01X6238Y21174D01*
G01X6252Y21161D01*
G01X6266Y21149D01*
G01X6281Y21137D01*
G01X6313Y21115D01*
G01X6364Y21088D01*
G01X6381Y21081D01*
G01X6399Y21074D01*
G01X6418Y21068D01*
G01X6436Y21063D01*
G01X6455Y21059D01*
G01X6473Y21055D01*
G01X6492Y21052D01*
G01X6511Y21050D01*
G01X6530Y21049D01*
G01X6550Y21048D01*
G01X6588Y21050D01*
G01X6607Y21052D01*
G01X6626Y21055D01*
G01X6644Y21059D01*
G01X6663Y21063D01*
G01X6681Y21068D01*
G01X6700Y21074D01*
G01X6718Y21081D01*
G01X6735Y21088D01*
G01X6786Y21115D01*
G01X6818Y21137D01*
G01X6833Y21149D01*
G01X6847Y21161D01*
G01X6861Y21174D01*
G01X6875Y21188D01*
G01X6888Y21202D01*
G01X6900Y21216D01*
G01X6912Y21231D01*
G01X6934Y21263D01*
G01X6943Y21280D01*
G01X6952Y21296D01*
G01X6960Y21314D01*
G01X6968Y21331D01*
G01X6975Y21349D01*
G01X6981Y21367D01*
G01X6986Y21386D01*
G01X6990Y21405D01*
G01X6994Y21423D01*
G01X6997Y21442D01*
G01X6999Y21461D01*
G01X7000Y21480D01*
G01X7001Y21500D01*
G01X6999Y21538D01*
G01X6997Y21557D01*
G01X6994Y21576D01*
G01X6990Y21594D01*
G01X6986Y21613D01*
G01X6981Y21631D01*
G01X6975Y21649D01*
G01X6961Y21685D01*
G01X6952Y21702D01*
G01X6944Y21719D01*
G01X6924Y21751D01*
G01X6913Y21767D01*
G01X6889Y21797D01*
G01X6876Y21811D01*
G01X6863Y21824D01*
G01X6848Y21837D01*
G01X6834Y21850D01*
G01X6819Y21861D01*
G01X6787Y21883D01*
G01X6771Y21892D01*
G01X6761Y21900D01*
G01X6757Y21905D01*
G01X6755Y21910D01*
G01X6752Y21915D01*
G01X6751Y21921D01*
G01X6751Y22856D01*
G01X6752Y22862D01*
G01X6755Y22868D01*
G01X6758Y22873D01*
G01X6762Y22878D01*
G01X8376Y24492D01*
G01X8381Y24496D01*
G01X8386Y24499D01*
G01X8398Y24503D01*
G01X9035Y24503D01*
G01X9040Y24502D01*
G01X9046Y24499D01*
G01X9056Y24493D01*
G01X9060Y24488D01*
G01X9063Y24484D01*
G01X9073Y24467D01*
G01X9095Y24437D01*
G01X9107Y24422D01*
G01X9119Y24408D01*
G01X9132Y24394D01*
G01X9146Y24382D01*
G01X9160Y24369D01*
G01X9175Y24357D01*
G01X9190Y24346D01*
G01X9222Y24326D01*
G01X9239Y24317D01*
G01X9273Y24301D01*
G01X9291Y24294D01*
G01X9309Y24288D01*
G01X9327Y24283D01*
G01X9345Y24279D01*
G01X9364Y24275D01*
G01X9382Y24272D01*
G01X9401Y24270D01*
G01X9420Y24269D01*
G01X9930Y24269D01*
G01X9949Y24270D01*
G01X9968Y24272D01*
G01X9986Y24275D01*
G01X10005Y24279D01*
G01X10023Y24283D01*
G01X10042Y24289D01*
G01X10060Y24295D01*
G01X10077Y24302D01*
G01X10095Y24309D01*
G01X10112Y24318D01*
G01X10128Y24327D01*
G01X10145Y24337D01*
G01X10161Y24347D01*
G01X10191Y24371D01*
G01X10205Y24383D01*
G01X10219Y24396D01*
G01X10232Y24410D01*
G01X10244Y24424D01*
G01X10268Y24454D01*
G01X10288Y24486D01*
G01X10306Y24520D01*
G01X10313Y24538D01*
G01X10320Y24555D01*
G01X10326Y24573D01*
G01X10331Y24592D01*
G01X10336Y24610D01*
G01X10340Y24628D01*
G01X10343Y24647D01*
G01X10345Y24666D01*
G01X10346Y24685D01*
G01X10346Y24723D01*
G01X10345Y24742D01*
G01X10343Y24761D01*
G01X10340Y24780D01*
G01X10336Y24798D01*
G01X10331Y24817D01*
G01X10326Y24835D01*
G01X10320Y24853D01*
G01X10313Y24871D01*
G01X10306Y24888D01*
G01X10288Y24922D01*
G01X10268Y24954D01*
G01X10244Y24984D01*
G01X10232Y24998D01*
G01X10219Y25012D01*
G01X10191Y25038D01*
G01X10176Y25050D01*
G01X10161Y25061D01*
G01X10145Y25072D01*
G01X10128Y25082D01*
G01X10112Y25091D01*
G01X10095Y25099D01*
G01X10077Y25107D01*
G01X10060Y25113D01*
G01X10042Y25120D01*
G01X10023Y25125D01*
G01X10005Y25130D01*
G01X9986Y25133D01*
G01X9968Y25136D01*
G01X9930Y25140D01*
G37*
G36*
G01X38486Y27020D02*
G01X38450Y27022D01*
G01X38431Y27021D01*
G01X38413Y27020D01*
G01X38394Y27018D01*
G01X38358Y27012D01*
G01X38340Y27008D01*
G01X38322Y27003D01*
G01X38305Y26996D01*
G01X38288Y26990D01*
G01X38271Y26982D01*
G01X38255Y26974D01*
G01X38238Y26965D01*
G01X38222Y26956D01*
G01X38207Y26946D01*
G01X38192Y26935D01*
G01X38164Y26911D01*
G01X38138Y26885D01*
G01X38114Y26857D01*
G01X38104Y26842D01*
G01X38093Y26827D01*
G01X38084Y26811D01*
G01X38075Y26794D01*
G01X38067Y26778D01*
G01X38059Y26761D01*
G01X38052Y26744D01*
G01X38047Y26727D01*
G01X38041Y26709D01*
G01X38037Y26691D01*
G01X38031Y26655D01*
G01X38029Y26636D01*
G01X38027Y26618D01*
G01X38027Y26581D01*
G01X38031Y26543D01*
G01X38034Y26525D01*
G01X38038Y26506D01*
G01X38042Y26488D01*
G01X38047Y26470D01*
G01X38054Y26452D01*
G01X38060Y26434D01*
G01X38068Y26417D01*
G01X38077Y26401D01*
G01X38086Y26384D01*
G01X38096Y26368D01*
G01X38118Y26338D01*
G01X38130Y26323D01*
G01X38143Y26309D01*
G01X38156Y26296D01*
G01X38170Y26283D01*
G01X38184Y26271D01*
G01X38199Y26259D01*
G01X38214Y26248D01*
G01X38230Y26238D01*
G01X38247Y26229D01*
G01X38263Y26220D01*
G01X38281Y26212D01*
G01X38298Y26205D01*
G01X38303Y26203D01*
G01X38313Y26195D01*
G01X38317Y26190D01*
G01X38319Y26185D01*
G01X38322Y26180D01*
G01X38323Y26174D01*
G01X38323Y24633D01*
G01X38322Y24627D01*
G01X38316Y24615D01*
G01X35834Y22133D01*
G01X35828Y22130D01*
G01X35816Y22126D01*
G01X23790Y22126D01*
G01X23784Y22127D01*
G01X23779Y22130D01*
G01X23773Y22132D01*
G01X23761Y22140D01*
G01X23748Y22147D01*
G01X23735Y22153D01*
G01X23721Y22159D01*
G01X23707Y22163D01*
G01X23679Y22169D01*
G01X23664Y22170D01*
G01X23650Y22171D01*
G01X23636Y22170D01*
G01X23623Y22169D01*
G01X23610Y22167D01*
G01X23584Y22161D01*
G01X23571Y22156D01*
G01X23559Y22151D01*
G01X23535Y22139D01*
G01X23513Y22123D01*
G01X23503Y22115D01*
G01X23493Y22106D01*
G01X23484Y22096D01*
G01X23476Y22086D01*
G01X23460Y22064D01*
G01X23448Y22040D01*
G01X23443Y22028D01*
G01X23435Y22002D01*
G01X23432Y21989D01*
G01X23430Y21976D01*
G01X23428Y21950D01*
G01X23429Y21936D01*
G01X23430Y21923D01*
G01X23432Y21910D01*
G01X23435Y21897D01*
G01X23443Y21871D01*
G01X23448Y21859D01*
G01X23460Y21835D01*
G01X23476Y21813D01*
G01X23484Y21803D01*
G01X23493Y21793D01*
G01X23503Y21784D01*
G01X23513Y21776D01*
G01X23535Y21760D01*
G01X23559Y21748D01*
G01X23571Y21743D01*
G01X23584Y21738D01*
G01X23610Y21732D01*
G01X23623Y21730D01*
G01X23636Y21729D01*
G01X23650Y21728D01*
G01X23664Y21729D01*
G01X23679Y21730D01*
G01X23707Y21736D01*
G01X23721Y21740D01*
G01X23735Y21746D01*
G01X23748Y21752D01*
G01X23761Y21759D01*
G01X23773Y21767D01*
G01X23779Y21769D01*
G01X23784Y21772D01*
G01X23790Y21773D01*
G01X35900Y21773D01*
G01X35912Y21774D01*
G01X35925Y21775D01*
G01X35961Y21784D01*
G01X35973Y21790D01*
G01X35984Y21795D01*
G01X35995Y21802D01*
G01X36005Y21809D01*
G01X36015Y21817D01*
G01X36024Y21825D01*
G01X38624Y24425D01*
G01X38632Y24434D01*
G01X38640Y24444D01*
G01X38647Y24454D01*
G01X38654Y24465D01*
G01X38660Y24476D01*
G01X38672Y24512D01*
G01X38674Y24525D01*
G01X38675Y24537D01*
G01X38676Y24550D01*
G01X38676Y26228D01*
G01X38677Y26234D01*
G01X38680Y26240D01*
G01X38683Y26245D01*
G01X38688Y26250D01*
G01X38693Y26254D01*
G01X38707Y26265D01*
G01X38722Y26276D01*
G01X38735Y26288D01*
G01X38749Y26301D01*
G01X38761Y26315D01*
G01X38773Y26328D01*
G01X38785Y26343D01*
G01X38796Y26357D01*
G01X38816Y26389D01*
G01X38825Y26405D01*
G01X38832Y26421D01*
G01X38840Y26438D01*
G01X38847Y26455D01*
G01X38852Y26473D01*
G01X38858Y26490D01*
G01X38866Y26526D01*
G01X38868Y26544D01*
G01X38870Y26563D01*
G01X38872Y26581D01*
G01X38872Y26618D01*
G01X38870Y26636D01*
G01X38868Y26655D01*
G01X38862Y26691D01*
G01X38858Y26709D01*
G01X38852Y26727D01*
G01X38847Y26744D01*
G01X38840Y26761D01*
G01X38832Y26778D01*
G01X38824Y26794D01*
G01X38815Y26811D01*
G01X38806Y26827D01*
G01X38796Y26842D01*
G01X38785Y26857D01*
G01X38761Y26885D01*
G01X38735Y26911D01*
G01X38707Y26935D01*
G01X38692Y26946D01*
G01X38677Y26956D01*
G01X38661Y26965D01*
G01X38644Y26974D01*
G01X38628Y26982D01*
G01X38611Y26990D01*
G01X38594Y26996D01*
G01X38577Y27003D01*
G01X38559Y27008D01*
G01X38541Y27012D01*
G01X38505Y27018D01*
G01X38486Y27020D01*
G37*
G36*
G01X37486Y27020D02*
G01X37450Y27022D01*
G01X37431Y27021D01*
G01X37413Y27020D01*
G01X37394Y27018D01*
G01X37358Y27012D01*
G01X37340Y27008D01*
G01X37322Y27003D01*
G01X37305Y26996D01*
G01X37288Y26990D01*
G01X37271Y26982D01*
G01X37255Y26974D01*
G01X37238Y26965D01*
G01X37222Y26956D01*
G01X37207Y26946D01*
G01X37192Y26935D01*
G01X37164Y26911D01*
G01X37138Y26885D01*
G01X37114Y26857D01*
G01X37104Y26842D01*
G01X37093Y26827D01*
G01X37084Y26811D01*
G01X37075Y26794D01*
G01X37067Y26778D01*
G01X37059Y26761D01*
G01X37052Y26744D01*
G01X37047Y26727D01*
G01X37041Y26709D01*
G01X37037Y26691D01*
G01X37031Y26655D01*
G01X37029Y26636D01*
G01X37027Y26618D01*
G01X37027Y26580D01*
G01X37031Y26542D01*
G01X37034Y26523D01*
G01X37038Y26505D01*
G01X37043Y26486D01*
G01X37048Y26468D01*
G01X37054Y26450D01*
G01X37061Y26432D01*
G01X37069Y26415D01*
G01X37078Y26398D01*
G01X37088Y26381D01*
G01X37098Y26365D01*
G01X37109Y26350D01*
G01X37121Y26334D01*
G01X37133Y26320D01*
G01X37159Y26292D01*
G01X37173Y26280D01*
G01X37188Y26267D01*
G01X37204Y26256D01*
G01X37219Y26245D01*
G01X37235Y26235D01*
G01X37252Y26226D01*
G01X37257Y26223D01*
G01X37262Y26219D01*
G01X37266Y26214D01*
G01X37269Y26209D01*
G01X37272Y26203D01*
G01X37273Y26197D01*
G01X37273Y24933D01*
G01X37272Y24927D01*
G01X37266Y24915D01*
G01X35334Y22983D01*
G01X35328Y22980D01*
G01X35316Y22976D01*
G01X23690Y22976D01*
G01X23684Y22977D01*
G01X23679Y22980D01*
G01X23673Y22982D01*
G01X23661Y22990D01*
G01X23648Y22997D01*
G01X23635Y23003D01*
G01X23621Y23009D01*
G01X23607Y23013D01*
G01X23579Y23019D01*
G01X23564Y23020D01*
G01X23550Y23021D01*
G01X23536Y23020D01*
G01X23523Y23019D01*
G01X23510Y23017D01*
G01X23484Y23011D01*
G01X23471Y23006D01*
G01X23459Y23001D01*
G01X23435Y22989D01*
G01X23413Y22973D01*
G01X23403Y22965D01*
G01X23393Y22956D01*
G01X23384Y22946D01*
G01X23376Y22936D01*
G01X23360Y22914D01*
G01X23348Y22890D01*
G01X23343Y22878D01*
G01X23335Y22852D01*
G01X23332Y22839D01*
G01X23330Y22826D01*
G01X23328Y22800D01*
G01X23329Y22786D01*
G01X23330Y22773D01*
G01X23332Y22760D01*
G01X23335Y22747D01*
G01X23343Y22721D01*
G01X23348Y22709D01*
G01X23360Y22685D01*
G01X23376Y22663D01*
G01X23384Y22653D01*
G01X23393Y22643D01*
G01X23403Y22634D01*
G01X23413Y22626D01*
G01X23435Y22610D01*
G01X23459Y22598D01*
G01X23471Y22593D01*
G01X23484Y22588D01*
G01X23510Y22582D01*
G01X23523Y22580D01*
G01X23536Y22579D01*
G01X23550Y22578D01*
G01X23564Y22579D01*
G01X23579Y22580D01*
G01X23607Y22586D01*
G01X23621Y22590D01*
G01X23635Y22596D01*
G01X23648Y22602D01*
G01X23661Y22609D01*
G01X23673Y22617D01*
G01X23679Y22619D01*
G01X23684Y22622D01*
G01X23690Y22623D01*
G01X35400Y22623D01*
G01X35412Y22624D01*
G01X35425Y22625D01*
G01X35461Y22634D01*
G01X35473Y22640D01*
G01X35484Y22645D01*
G01X35495Y22652D01*
G01X35505Y22659D01*
G01X35515Y22667D01*
G01X35524Y22675D01*
G01X37574Y24725D01*
G01X37582Y24734D01*
G01X37590Y24744D01*
G01X37597Y24754D01*
G01X37604Y24765D01*
G01X37610Y24776D01*
G01X37622Y24812D01*
G01X37624Y24825D01*
G01X37625Y24837D01*
G01X37626Y24850D01*
G01X37626Y26197D01*
G01X37627Y26203D01*
G01X37630Y26209D01*
G01X37633Y26214D01*
G01X37637Y26219D01*
G01X37642Y26223D01*
G01X37647Y26226D01*
G01X37664Y26235D01*
G01X37680Y26245D01*
G01X37696Y26256D01*
G01X37711Y26267D01*
G01X37726Y26280D01*
G01X37740Y26292D01*
G01X37779Y26334D01*
G01X37790Y26350D01*
G01X37801Y26365D01*
G01X37811Y26381D01*
G01X37821Y26398D01*
G01X37830Y26415D01*
G01X37838Y26432D01*
G01X37845Y26450D01*
G01X37851Y26468D01*
G01X37856Y26486D01*
G01X37861Y26505D01*
G01X37865Y26523D01*
G01X37868Y26542D01*
G01X37872Y26580D01*
G01X37872Y26618D01*
G01X37870Y26636D01*
G01X37868Y26655D01*
G01X37862Y26691D01*
G01X37858Y26709D01*
G01X37852Y26727D01*
G01X37847Y26744D01*
G01X37840Y26761D01*
G01X37832Y26778D01*
G01X37824Y26794D01*
G01X37815Y26811D01*
G01X37806Y26827D01*
G01X37796Y26842D01*
G01X37785Y26857D01*
G01X37761Y26885D01*
G01X37735Y26911D01*
G01X37707Y26935D01*
G01X37692Y26946D01*
G01X37677Y26956D01*
G01X37661Y26965D01*
G01X37644Y26974D01*
G01X37628Y26982D01*
G01X37611Y26990D01*
G01X37594Y26996D01*
G01X37577Y27003D01*
G01X37559Y27008D01*
G01X37541Y27012D01*
G01X37505Y27018D01*
G01X37486Y27020D01*
G37*
G36*
G01X27450Y33076D02*
G01X26050Y33076D01*
G01X26037Y33075D01*
G01X26025Y33074D01*
G01X26012Y33071D01*
G01X25988Y33065D01*
G01X25976Y33059D01*
G01X25965Y33054D01*
G01X25954Y33048D01*
G01X25934Y33032D01*
G01X25925Y33024D01*
G01X24525Y31624D01*
G01X24517Y31615D01*
G01X24501Y31595D01*
G01X24489Y31573D01*
G01X24477Y31537D01*
G01X24475Y31525D01*
G01X24474Y31512D01*
G01X24473Y31500D01*
G01X24473Y31189D01*
G01X24472Y31183D01*
G01X24469Y31177D01*
G01X24461Y31167D01*
G01X24456Y31163D01*
G01X24451Y31160D01*
G01X24434Y31151D01*
G01X24416Y31141D01*
G01X24400Y31131D01*
G01X24384Y31120D01*
G01X24368Y31108D01*
G01X24353Y31096D01*
G01X24338Y31082D01*
G01X24324Y31069D01*
G01X24311Y31054D01*
G01X24298Y31040D01*
G01X24286Y31024D01*
G01X24264Y30992D01*
G01X24244Y30958D01*
G01X24228Y30922D01*
G01X24221Y30904D01*
G01X24209Y30866D01*
G01X24201Y30828D01*
G01X24198Y30809D01*
G01X24194Y30769D01*
G01X24194Y30731D01*
G01X24196Y30711D01*
G01X24198Y30692D01*
G01X24204Y30654D01*
G01X24209Y30635D01*
G01X24214Y30617D01*
G01X24220Y30598D01*
G01X24227Y30580D01*
G01X24235Y30563D01*
G01X24243Y30545D01*
G01X24252Y30528D01*
G01X24262Y30511D01*
G01X24272Y30495D01*
G01X24284Y30479D01*
G01X24295Y30464D01*
G01X24308Y30449D01*
G01X24321Y30435D01*
G01X24335Y30421D01*
G01X24349Y30408D01*
G01X24379Y30384D01*
G01X24394Y30373D01*
G01X24411Y30362D01*
G01X24427Y30353D01*
G01X24444Y30344D01*
G01X24462Y30335D01*
G01X24498Y30321D01*
G01X24516Y30315D01*
G01X24535Y30309D01*
G01X24553Y30305D01*
G01X24572Y30301D01*
G01X24592Y30298D01*
G01X24611Y30296D01*
G01X24630Y30295D01*
G01X24669Y30295D01*
G01X24688Y30296D01*
G01X24707Y30298D01*
G01X24727Y30301D01*
G01X24746Y30305D01*
G01X24764Y30309D01*
G01X24783Y30315D01*
G01X24801Y30321D01*
G01X24837Y30335D01*
G01X24855Y30344D01*
G01X24872Y30353D01*
G01X24888Y30362D01*
G01X24905Y30373D01*
G01X24920Y30384D01*
G01X24950Y30408D01*
G01X24964Y30421D01*
G01X24978Y30435D01*
G01X24991Y30449D01*
G01X25004Y30464D01*
G01X25015Y30479D01*
G01X25027Y30495D01*
G01X25037Y30511D01*
G01X25047Y30528D01*
G01X25056Y30545D01*
G01X25064Y30563D01*
G01X25072Y30580D01*
G01X25079Y30598D01*
G01X25085Y30617D01*
G01X25090Y30635D01*
G01X25095Y30654D01*
G01X25101Y30692D01*
G01X25103Y30711D01*
G01X25105Y30731D01*
G01X25105Y30770D01*
G01X25103Y30789D01*
G01X25101Y30809D01*
G01X25098Y30828D01*
G01X25090Y30866D01*
G01X25078Y30904D01*
G01X25071Y30922D01*
G01X25055Y30958D01*
G01X25035Y30992D01*
G01X25025Y31008D01*
G01X25001Y31040D01*
G01X24988Y31054D01*
G01X24975Y31069D01*
G01X24961Y31082D01*
G01X24946Y31096D01*
G01X24931Y31108D01*
G01X24915Y31120D01*
G01X24899Y31131D01*
G01X24865Y31151D01*
G01X24848Y31160D01*
G01X24843Y31163D01*
G01X24838Y31167D01*
G01X24833Y31172D01*
G01X24830Y31177D01*
G01X24827Y31183D01*
G01X24826Y31190D01*
G01X24826Y31416D01*
G01X24827Y31422D01*
G01X24833Y31434D01*
G01X26115Y32716D01*
G01X26121Y32719D01*
G01X26133Y32723D01*
G01X27366Y32723D01*
G01X27378Y32719D01*
G01X27384Y32716D01*
G01X29166Y30934D01*
G01X29172Y30922D01*
G01X29173Y30916D01*
G01X29173Y27433D01*
G01X29172Y27427D01*
G01X29166Y27415D01*
G01X25279Y23528D01*
G01X25274Y23524D01*
G01X25264Y23518D01*
G01X25258Y23517D01*
G01X25244Y23513D01*
G01X25231Y23510D01*
G01X25218Y23505D01*
G01X25205Y23499D01*
G01X25193Y23493D01*
G01X25181Y23486D01*
G01X25169Y23478D01*
G01X25159Y23470D01*
G01X25148Y23461D01*
G01X25138Y23451D01*
G01X25129Y23440D01*
G01X25113Y23418D01*
G01X25106Y23406D01*
G01X25100Y23394D01*
G01X25094Y23381D01*
G01X25089Y23368D01*
G01X25085Y23355D01*
G01X25082Y23341D01*
G01X25080Y23327D01*
G01X25079Y23313D01*
G01X25078Y23300D01*
G01X25079Y23286D01*
G01X25080Y23273D01*
G01X25082Y23260D01*
G01X25085Y23247D01*
G01X25093Y23221D01*
G01X25098Y23209D01*
G01X25110Y23185D01*
G01X25126Y23163D01*
G01X25134Y23153D01*
G01X25143Y23143D01*
G01X25153Y23134D01*
G01X25163Y23126D01*
G01X25185Y23110D01*
G01X25209Y23098D01*
G01X25221Y23093D01*
G01X25234Y23088D01*
G01X25260Y23082D01*
G01X25273Y23080D01*
G01X25286Y23079D01*
G01X25300Y23078D01*
G01X25313Y23079D01*
G01X25327Y23080D01*
G01X25341Y23082D01*
G01X25355Y23086D01*
G01X25368Y23089D01*
G01X25381Y23094D01*
G01X25393Y23100D01*
G01X25406Y23106D01*
G01X25418Y23113D01*
G01X25440Y23129D01*
G01X25451Y23138D01*
G01X25460Y23148D01*
G01X25470Y23159D01*
G01X25478Y23169D01*
G01X25486Y23181D01*
G01X25493Y23193D01*
G01X25499Y23205D01*
G01X25505Y23218D01*
G01X25510Y23231D01*
G01X25514Y23244D01*
G01X25517Y23258D01*
G01X25518Y23264D01*
G01X25527Y23279D01*
G01X29474Y27225D01*
G01X29482Y27234D01*
G01X29490Y27244D01*
G01X29497Y27254D01*
G01X29504Y27265D01*
G01X29510Y27276D01*
G01X29522Y27312D01*
G01X29524Y27325D01*
G01X29525Y27337D01*
G01X29526Y27350D01*
G01X29526Y31000D01*
G01X29525Y31012D01*
G01X29524Y31025D01*
G01X29522Y31037D01*
G01X29510Y31073D01*
G01X29504Y31084D01*
G01X29497Y31095D01*
G01X29490Y31105D01*
G01X29482Y31115D01*
G01X29474Y31124D01*
G01X27574Y33024D01*
G01X27565Y33032D01*
G01X27545Y33048D01*
G01X27534Y33054D01*
G01X27523Y33059D01*
G01X27511Y33065D01*
G01X27475Y33074D01*
G01X27462Y33075D01*
G01X27450Y33076D01*
G37*
G36*
G01X27000Y32526D02*
G01X26400Y32526D01*
G01X26387Y32525D01*
G01X26375Y32524D01*
G01X26362Y32521D01*
G01X26338Y32515D01*
G01X26326Y32509D01*
G01X26315Y32504D01*
G01X26304Y32498D01*
G01X26284Y32482D01*
G01X26275Y32474D01*
G01X25525Y31724D01*
G01X25517Y31715D01*
G01X25509Y31705D01*
G01X25502Y31695D01*
G01X25495Y31684D01*
G01X25489Y31673D01*
G01X25477Y31637D01*
G01X25475Y31625D01*
G01X25474Y31612D01*
G01X25473Y31600D01*
G01X25473Y31189D01*
G01X25472Y31183D01*
G01X25469Y31177D01*
G01X25461Y31167D01*
G01X25456Y31163D01*
G01X25451Y31160D01*
G01X25434Y31151D01*
G01X25400Y31131D01*
G01X25384Y31120D01*
G01X25368Y31108D01*
G01X25353Y31096D01*
G01X25338Y31082D01*
G01X25324Y31069D01*
G01X25311Y31054D01*
G01X25298Y31040D01*
G01X25286Y31024D01*
G01X25264Y30992D01*
G01X25244Y30958D01*
G01X25228Y30922D01*
G01X25221Y30904D01*
G01X25209Y30866D01*
G01X25201Y30828D01*
G01X25198Y30809D01*
G01X25194Y30769D01*
G01X25194Y30731D01*
G01X25196Y30711D01*
G01X25198Y30692D01*
G01X25204Y30654D01*
G01X25209Y30635D01*
G01X25214Y30617D01*
G01X25220Y30598D01*
G01X25227Y30580D01*
G01X25235Y30563D01*
G01X25243Y30545D01*
G01X25252Y30528D01*
G01X25262Y30511D01*
G01X25272Y30495D01*
G01X25284Y30479D01*
G01X25295Y30464D01*
G01X25308Y30449D01*
G01X25321Y30435D01*
G01X25335Y30421D01*
G01X25349Y30408D01*
G01X25379Y30384D01*
G01X25394Y30373D01*
G01X25411Y30362D01*
G01X25427Y30353D01*
G01X25444Y30344D01*
G01X25462Y30335D01*
G01X25498Y30321D01*
G01X25516Y30315D01*
G01X25535Y30309D01*
G01X25553Y30305D01*
G01X25572Y30301D01*
G01X25592Y30298D01*
G01X25611Y30296D01*
G01X25630Y30295D01*
G01X25669Y30295D01*
G01X25688Y30296D01*
G01X25707Y30298D01*
G01X25727Y30301D01*
G01X25746Y30305D01*
G01X25764Y30309D01*
G01X25783Y30315D01*
G01X25801Y30321D01*
G01X25837Y30335D01*
G01X25855Y30344D01*
G01X25872Y30353D01*
G01X25888Y30362D01*
G01X25905Y30373D01*
G01X25920Y30384D01*
G01X25950Y30408D01*
G01X25964Y30421D01*
G01X25978Y30435D01*
G01X25991Y30449D01*
G01X26004Y30464D01*
G01X26015Y30479D01*
G01X26027Y30495D01*
G01X26037Y30511D01*
G01X26047Y30528D01*
G01X26056Y30545D01*
G01X26064Y30563D01*
G01X26072Y30580D01*
G01X26079Y30598D01*
G01X26085Y30617D01*
G01X26090Y30635D01*
G01X26095Y30654D01*
G01X26101Y30692D01*
G01X26103Y30711D01*
G01X26105Y30731D01*
G01X26105Y30770D01*
G01X26103Y30789D01*
G01X26101Y30809D01*
G01X26098Y30828D01*
G01X26090Y30866D01*
G01X26078Y30904D01*
G01X26071Y30922D01*
G01X26055Y30958D01*
G01X26035Y30992D01*
G01X26025Y31008D01*
G01X26001Y31040D01*
G01X25988Y31054D01*
G01X25975Y31069D01*
G01X25961Y31082D01*
G01X25946Y31096D01*
G01X25931Y31108D01*
G01X25915Y31120D01*
G01X25899Y31131D01*
G01X25865Y31151D01*
G01X25848Y31160D01*
G01X25843Y31163D01*
G01X25838Y31167D01*
G01X25833Y31172D01*
G01X25830Y31177D01*
G01X25827Y31183D01*
G01X25826Y31189D01*
G01X25826Y31516D01*
G01X25827Y31522D01*
G01X25833Y31534D01*
G01X26465Y32166D01*
G01X26471Y32169D01*
G01X26483Y32173D01*
G01X26916Y32173D01*
G01X26928Y32169D01*
G01X26934Y32166D01*
G01X28316Y30784D01*
G01X28322Y30772D01*
G01X28323Y30766D01*
G01X28323Y27433D01*
G01X28322Y27427D01*
G01X28316Y27415D01*
G01X25929Y25028D01*
G01X25924Y25024D01*
G01X25914Y25018D01*
G01X25908Y25017D01*
G01X25894Y25013D01*
G01X25881Y25010D01*
G01X25868Y25005D01*
G01X25855Y24999D01*
G01X25843Y24993D01*
G01X25831Y24986D01*
G01X25819Y24978D01*
G01X25809Y24970D01*
G01X25798Y24961D01*
G01X25788Y24951D01*
G01X25779Y24940D01*
G01X25763Y24918D01*
G01X25756Y24906D01*
G01X25750Y24894D01*
G01X25744Y24881D01*
G01X25739Y24868D01*
G01X25735Y24855D01*
G01X25732Y24841D01*
G01X25730Y24827D01*
G01X25729Y24813D01*
G01X25728Y24800D01*
G01X25729Y24786D01*
G01X25730Y24773D01*
G01X25732Y24760D01*
G01X25735Y24747D01*
G01X25743Y24721D01*
G01X25748Y24709D01*
G01X25760Y24685D01*
G01X25776Y24663D01*
G01X25784Y24653D01*
G01X25793Y24643D01*
G01X25803Y24634D01*
G01X25813Y24626D01*
G01X25835Y24610D01*
G01X25859Y24598D01*
G01X25871Y24593D01*
G01X25884Y24588D01*
G01X25910Y24582D01*
G01X25923Y24580D01*
G01X25936Y24579D01*
G01X25950Y24578D01*
G01X25963Y24579D01*
G01X25977Y24580D01*
G01X25991Y24582D01*
G01X26005Y24586D01*
G01X26018Y24589D01*
G01X26031Y24594D01*
G01X26043Y24600D01*
G01X26056Y24606D01*
G01X26068Y24613D01*
G01X26090Y24629D01*
G01X26101Y24638D01*
G01X26110Y24648D01*
G01X26120Y24659D01*
G01X26128Y24669D01*
G01X26136Y24681D01*
G01X26143Y24693D01*
G01X26149Y24705D01*
G01X26155Y24718D01*
G01X26160Y24731D01*
G01X26164Y24744D01*
G01X26167Y24758D01*
G01X26168Y24764D01*
G01X26177Y24779D01*
G01X28624Y27225D01*
G01X28632Y27234D01*
G01X28640Y27244D01*
G01X28647Y27254D01*
G01X28654Y27265D01*
G01X28660Y27276D01*
G01X28672Y27312D01*
G01X28674Y27325D01*
G01X28675Y27337D01*
G01X28676Y27350D01*
G01X28676Y30850D01*
G01X28675Y30862D01*
G01X28674Y30875D01*
G01X28672Y30887D01*
G01X28660Y30923D01*
G01X28654Y30934D01*
G01X28647Y30945D01*
G01X28640Y30955D01*
G01X28632Y30965D01*
G01X28624Y30974D01*
G01X27124Y32474D01*
G01X27115Y32482D01*
G01X27095Y32498D01*
G01X27084Y32504D01*
G01X27073Y32509D01*
G01X27061Y32515D01*
G01X27025Y32524D01*
G01X27012Y32525D01*
G01X27000Y32526D01*
G37*
G36*
G01X19416Y25566D02*
G01X19181Y25566D01*
G01X19181Y25423D01*
G01X19183Y25413D01*
G01X19185Y25404D01*
G01X19188Y25396D01*
G01X19192Y25387D01*
G01X19196Y25379D01*
G01X19202Y25371D01*
G01X19207Y25364D01*
G01X19214Y25357D01*
G01X19221Y25352D01*
G01X19229Y25346D01*
G01X19237Y25342D01*
G01X19246Y25338D01*
G01X19254Y25335D01*
G01X19264Y25333D01*
G01X19282Y25331D01*
G01X19416Y25331D01*
G01X19416Y25566D01*
G37*
G36*
G01X20018Y25566D02*
G01X19783Y25566D01*
G01X19783Y25331D01*
G01X19917Y25331D01*
G01X19935Y25333D01*
G01X19945Y25335D01*
G01X19953Y25338D01*
G01X19962Y25342D01*
G01X19970Y25346D01*
G01X19978Y25352D01*
G01X19985Y25357D01*
G01X19992Y25364D01*
G01X19997Y25371D01*
G01X20003Y25379D01*
G01X20007Y25387D01*
G01X20011Y25396D01*
G01X20014Y25404D01*
G01X20016Y25413D01*
G01X20018Y25423D01*
G01X20018Y25566D01*
G37*
G36*
G01X19218Y32875D02*
G01X19200Y32876D01*
G01X19162Y32874D01*
G01X19144Y32872D01*
G01X19126Y32869D01*
G01X19107Y32865D01*
G01X19089Y32861D01*
G01X19071Y32856D01*
G01X19054Y32850D01*
G01X19036Y32843D01*
G01X19019Y32836D01*
G01X19003Y32827D01*
G01X18986Y32819D01*
G01X18971Y32809D01*
G01X18955Y32798D01*
G01X18940Y32788D01*
G01X18926Y32776D01*
G01X18912Y32763D01*
G01X18898Y32751D01*
G01X18885Y32737D01*
G01X18861Y32709D01*
G01X18851Y32694D01*
G01X18840Y32678D01*
G01X18831Y32663D01*
G01X18822Y32646D01*
G01X18814Y32630D01*
G01X18806Y32613D01*
G01X18799Y32595D01*
G01X18793Y32578D01*
G01X18788Y32560D01*
G01X18784Y32542D01*
G01X18780Y32523D01*
G01X18777Y32505D01*
G01X18775Y32487D01*
G01X18774Y32468D01*
G01X18773Y32450D01*
G01X18774Y32431D01*
G01X18775Y32413D01*
G01X18777Y32394D01*
G01X18780Y32376D01*
G01X18784Y32357D01*
G01X18788Y32340D01*
G01X18793Y32322D01*
G01X18799Y32304D01*
G01X18813Y32270D01*
G01X18822Y32253D01*
G01X18830Y32237D01*
G01X18850Y32205D01*
G01X18861Y32190D01*
G01X18885Y32162D01*
G01X18911Y32136D01*
G01X18925Y32124D01*
G01X18940Y32112D01*
G01X18955Y32101D01*
G01X18970Y32091D01*
G01X18986Y32081D01*
G01X19002Y32072D01*
G01X19007Y32069D01*
G01X19012Y32065D01*
G01X19016Y32060D01*
G01X19019Y32055D01*
G01X19022Y32049D01*
G01X19023Y32043D01*
G01X19023Y31100D01*
G01X19024Y31087D01*
G01X19025Y31075D01*
G01X19027Y31062D01*
G01X19039Y31026D01*
G01X19045Y31015D01*
G01X19052Y31004D01*
G01X19059Y30994D01*
G01X19067Y30984D01*
G01X19075Y30975D01*
G01X19375Y30675D01*
G01X19384Y30667D01*
G01X19394Y30659D01*
G01X19404Y30652D01*
G01X19415Y30645D01*
G01X19426Y30640D01*
G01X19438Y30634D01*
G01X19462Y30628D01*
G01X19475Y30625D01*
G01X19487Y30624D01*
G01X19500Y30623D01*
G01X20334Y30623D01*
G01X20339Y30622D01*
G01X20345Y30620D01*
G01X20350Y30617D01*
G01X20354Y30614D01*
G01X20358Y30610D01*
G01X20362Y30605D01*
G01X20364Y30600D01*
G01X20367Y30595D01*
G01X20368Y30589D01*
G01X20368Y30577D01*
G01X20364Y30565D01*
G01X20356Y30555D01*
G01X18475Y28674D01*
G01X18467Y28665D01*
G01X18459Y28655D01*
G01X18452Y28645D01*
G01X18445Y28634D01*
G01X18439Y28623D01*
G01X18427Y28587D01*
G01X18425Y28575D01*
G01X18424Y28562D01*
G01X18423Y28550D01*
G01X18423Y26148D01*
G01X18422Y26142D01*
G01X18419Y26136D01*
G01X18416Y26131D01*
G01X18412Y26126D01*
G01X18407Y26122D01*
G01X18402Y26119D01*
G01X18386Y26109D01*
G01X18370Y26100D01*
G01X18355Y26089D01*
G01X18339Y26077D01*
G01X18311Y26053D01*
G01X18298Y26039D01*
G01X18285Y26026D01*
G01X18261Y25996D01*
G01X18251Y25981D01*
G01X18240Y25965D01*
G01X18231Y25948D01*
G01X18223Y25932D01*
G01X18215Y25915D01*
G01X18208Y25897D01*
G01X18196Y25861D01*
G01X18188Y25825D01*
G01X18185Y25806D01*
G01X18181Y25768D01*
G01X18181Y25731D01*
G01X18185Y25693D01*
G01X18188Y25675D01*
G01X18192Y25656D01*
G01X18196Y25638D01*
G01X18202Y25620D01*
G01X18208Y25603D01*
G01X18215Y25585D01*
G01X18222Y25568D01*
G01X18231Y25551D01*
G01X18240Y25535D01*
G01X18250Y25519D01*
G01X18261Y25503D01*
G01X18272Y25488D01*
G01X18284Y25474D01*
G01X18297Y25460D01*
G01X18310Y25447D01*
G01X18324Y25434D01*
G01X18339Y25422D01*
G01X18353Y25411D01*
G01X18369Y25400D01*
G01X18385Y25390D01*
G01X18401Y25381D01*
G01X18435Y25365D01*
G01X18452Y25358D01*
G01X18488Y25346D01*
G01X18506Y25342D01*
G01X18525Y25338D01*
G01X18543Y25335D01*
G01X18562Y25333D01*
G01X18600Y25331D01*
G01X18618Y25332D01*
G01X18637Y25333D01*
G01X18656Y25335D01*
G01X18674Y25338D01*
G01X18693Y25342D01*
G01X18711Y25346D01*
G01X18747Y25358D01*
G01X18764Y25365D01*
G01X18798Y25381D01*
G01X18814Y25390D01*
G01X18830Y25400D01*
G01X18846Y25411D01*
G01X18860Y25422D01*
G01X18875Y25434D01*
G01X18889Y25447D01*
G01X18902Y25460D01*
G01X18915Y25474D01*
G01X18927Y25488D01*
G01X18938Y25503D01*
G01X18949Y25519D01*
G01X18959Y25535D01*
G01X18968Y25551D01*
G01X18977Y25568D01*
G01X18984Y25585D01*
G01X18991Y25603D01*
G01X18997Y25620D01*
G01X19003Y25638D01*
G01X19007Y25656D01*
G01X19011Y25675D01*
G01X19014Y25693D01*
G01X19018Y25731D01*
G01X19018Y25768D01*
G01X19014Y25806D01*
G01X19011Y25825D01*
G01X19003Y25861D01*
G01X18991Y25897D01*
G01X18984Y25915D01*
G01X18976Y25932D01*
G01X18968Y25948D01*
G01X18959Y25965D01*
G01X18948Y25981D01*
G01X18938Y25996D01*
G01X18914Y26026D01*
G01X18901Y26039D01*
G01X18888Y26053D01*
G01X18860Y26077D01*
G01X18844Y26089D01*
G01X18829Y26100D01*
G01X18813Y26109D01*
G01X18797Y26119D01*
G01X18792Y26122D01*
G01X18787Y26126D01*
G01X18783Y26131D01*
G01X18780Y26136D01*
G01X18777Y26142D01*
G01X18776Y26148D01*
G01X18776Y28466D01*
G01X18777Y28472D01*
G01X18783Y28484D01*
G01X20915Y30616D01*
G01X20921Y30619D01*
G01X20933Y30623D01*
G01X23189Y30623D01*
G01X23195Y30622D01*
G01X23201Y30619D01*
G01X23206Y30616D01*
G01X23211Y30612D01*
G01X23215Y30608D01*
G01X23218Y30603D01*
G01X23221Y30597D01*
G01X23227Y30579D01*
G01X23235Y30561D01*
G01X23243Y30544D01*
G01X23263Y30510D01*
G01X23273Y30494D01*
G01X23284Y30478D01*
G01X23308Y30448D01*
G01X23335Y30421D01*
G01X23349Y30408D01*
G01X23364Y30395D01*
G01X23379Y30384D01*
G01X23395Y30372D01*
G01X23411Y30362D01*
G01X23428Y30352D01*
G01X23445Y30343D01*
G01X23463Y30335D01*
G01X23480Y30327D01*
G01X23498Y30321D01*
G01X23517Y30315D01*
G01X23535Y30309D01*
G01X23573Y30301D01*
G01X23592Y30298D01*
G01X23611Y30296D01*
G01X23630Y30295D01*
G01X23669Y30295D01*
G01X23688Y30296D01*
G01X23707Y30298D01*
G01X23727Y30301D01*
G01X23746Y30305D01*
G01X23764Y30309D01*
G01X23783Y30315D01*
G01X23801Y30321D01*
G01X23837Y30335D01*
G01X23855Y30344D01*
G01X23872Y30353D01*
G01X23888Y30362D01*
G01X23905Y30373D01*
G01X23920Y30384D01*
G01X23950Y30408D01*
G01X23964Y30421D01*
G01X23978Y30435D01*
G01X23991Y30449D01*
G01X24004Y30464D01*
G01X24015Y30479D01*
G01X24027Y30495D01*
G01X24037Y30511D01*
G01X24047Y30528D01*
G01X24056Y30545D01*
G01X24064Y30563D01*
G01X24072Y30580D01*
G01X24079Y30598D01*
G01X24085Y30617D01*
G01X24090Y30635D01*
G01X24095Y30654D01*
G01X24101Y30692D01*
G01X24103Y30711D01*
G01X24105Y30731D01*
G01X24105Y30769D01*
G01X24103Y30789D01*
G01X24101Y30808D01*
G01X24095Y30846D01*
G01X24090Y30865D01*
G01X24085Y30883D01*
G01X24079Y30902D01*
G01X24072Y30920D01*
G01X24064Y30938D01*
G01X24056Y30955D01*
G01X24047Y30972D01*
G01X24037Y30989D01*
G01X24027Y31005D01*
G01X24015Y31021D01*
G01X24004Y31036D01*
G01X23991Y31051D01*
G01X23978Y31065D01*
G01X23964Y31079D01*
G01X23950Y31092D01*
G01X23920Y31116D01*
G01X23905Y31127D01*
G01X23888Y31138D01*
G01X23872Y31148D01*
G01X23855Y31157D01*
G01X23819Y31173D01*
G01X23783Y31185D01*
G01X23764Y31191D01*
G01X23746Y31195D01*
G01X23727Y31199D01*
G01X23707Y31202D01*
G01X23688Y31204D01*
G01X23669Y31205D01*
G01X23630Y31205D01*
G01X23610Y31203D01*
G01X23590Y31202D01*
G01X23570Y31198D01*
G01X23551Y31194D01*
G01X23531Y31190D01*
G01X23493Y31178D01*
G01X23475Y31171D01*
G01X23457Y31163D01*
G01X23439Y31154D01*
G01X23405Y31134D01*
G01X23388Y31123D01*
G01X23372Y31111D01*
G01X23356Y31098D01*
G01X23342Y31085D01*
G01X23327Y31071D01*
G01X23314Y31057D01*
G01X23300Y31042D01*
G01X23288Y31027D01*
G01X23276Y31011D01*
G01X23265Y30994D01*
G01X23262Y30990D01*
G01X23258Y30985D01*
G01X23248Y30979D01*
G01X23243Y30977D01*
G01X23237Y30976D01*
G01X20850Y30976D01*
G01X20831Y30975D01*
G01X20827Y30974D01*
G01X20823Y30975D01*
G01X20805Y30976D01*
G01X19583Y30976D01*
G01X19571Y30980D01*
G01X19565Y30983D01*
G01X19383Y31165D01*
G01X19377Y31177D01*
G01X19376Y31183D01*
G01X19376Y32043D01*
G01X19377Y32049D01*
G01X19380Y32055D01*
G01X19383Y32060D01*
G01X19387Y32065D01*
G01X19392Y32069D01*
G01X19397Y32072D01*
G01X19413Y32081D01*
G01X19429Y32091D01*
G01X19444Y32101D01*
G01X19459Y32112D01*
G01X19474Y32124D01*
G01X19488Y32136D01*
G01X19514Y32162D01*
G01X19538Y32190D01*
G01X19549Y32205D01*
G01X19569Y32237D01*
G01X19577Y32253D01*
G01X19586Y32270D01*
G01X19600Y32304D01*
G01X19606Y32322D01*
G01X19611Y32340D01*
G01X19615Y32357D01*
G01X19619Y32376D01*
G01X19622Y32394D01*
G01X19624Y32413D01*
G01X19625Y32431D01*
G01X19626Y32450D01*
G01X19625Y32468D01*
G01X19624Y32487D01*
G01X19622Y32505D01*
G01X19619Y32523D01*
G01X19615Y32542D01*
G01X19611Y32560D01*
G01X19606Y32578D01*
G01X19600Y32595D01*
G01X19593Y32613D01*
G01X19585Y32630D01*
G01X19577Y32646D01*
G01X19568Y32663D01*
G01X19559Y32678D01*
G01X19548Y32694D01*
G01X19538Y32709D01*
G01X19514Y32737D01*
G01X19501Y32751D01*
G01X19487Y32763D01*
G01X19473Y32776D01*
G01X19459Y32788D01*
G01X19444Y32798D01*
G01X19428Y32809D01*
G01X19413Y32819D01*
G01X19396Y32827D01*
G01X19380Y32836D01*
G01X19363Y32843D01*
G01X19345Y32850D01*
G01X19328Y32856D01*
G01X19310Y32861D01*
G01X19292Y32865D01*
G01X19273Y32869D01*
G01X19255Y32872D01*
G01X19237Y32874D01*
G01X19218Y32875D01*
G37*
G36*
G01X19416Y26168D02*
G01X19282Y26168D01*
G01X19264Y26166D01*
G01X19254Y26164D01*
G01X19246Y26161D01*
G01X19237Y26157D01*
G01X19229Y26153D01*
G01X19221Y26148D01*
G01X19214Y26142D01*
G01X19207Y26135D01*
G01X19202Y26128D01*
G01X19196Y26120D01*
G01X19192Y26112D01*
G01X19188Y26103D01*
G01X19185Y26095D01*
G01X19183Y26086D01*
G01X19181Y26076D01*
G01X19181Y25933D01*
G01X19416Y25933D01*
G01X19416Y26168D01*
G37*
G36*
G01X19917Y26168D02*
G01X19783Y26168D01*
G01X19783Y25933D01*
G01X20018Y25933D01*
G01X20018Y26076D01*
G01X20016Y26086D01*
G01X20014Y26095D01*
G01X20011Y26103D01*
G01X20007Y26112D01*
G01X20003Y26120D01*
G01X19997Y26128D01*
G01X19992Y26135D01*
G01X19985Y26142D01*
G01X19978Y26148D01*
G01X19970Y26153D01*
G01X19962Y26157D01*
G01X19953Y26161D01*
G01X19945Y26164D01*
G01X19935Y26166D01*
G01X19917Y26168D01*
G37*
G36*
G01X35264Y26414D02*
G01X35027Y26414D01*
G01X35027Y26269D01*
G01X35029Y26259D01*
G01X35031Y26250D01*
G01X35034Y26242D01*
G01X35038Y26233D01*
G01X35042Y26225D01*
G01X35047Y26217D01*
G01X35053Y26210D01*
G01X35060Y26203D01*
G01X35067Y26198D01*
G01X35075Y26192D01*
G01X35083Y26188D01*
G01X35092Y26184D01*
G01X35100Y26181D01*
G01X35110Y26179D01*
G01X35128Y26177D01*
G01X35264Y26177D01*
G01X35264Y26414D01*
G37*
G36*
G01X35872Y26414D02*
G01X35635Y26414D01*
G01X35635Y26177D01*
G01X35771Y26177D01*
G01X35789Y26179D01*
G01X35799Y26181D01*
G01X35807Y26184D01*
G01X35816Y26188D01*
G01X35824Y26192D01*
G01X35832Y26198D01*
G01X35839Y26203D01*
G01X35846Y26210D01*
G01X35852Y26217D01*
G01X35857Y26225D01*
G01X35861Y26233D01*
G01X35865Y26242D01*
G01X35868Y26250D01*
G01X35870Y26259D01*
G01X35872Y26269D01*
G01X35872Y26414D01*
G37*
G36*
G01X41486Y27020D02*
G01X41450Y27022D01*
G01X41431Y27021D01*
G01X41413Y27020D01*
G01X41394Y27018D01*
G01X41358Y27012D01*
G01X41340Y27008D01*
G01X41322Y27003D01*
G01X41305Y26996D01*
G01X41288Y26990D01*
G01X41271Y26982D01*
G01X41255Y26974D01*
G01X41238Y26965D01*
G01X41222Y26956D01*
G01X41207Y26946D01*
G01X41192Y26935D01*
G01X41164Y26911D01*
G01X41138Y26885D01*
G01X41114Y26857D01*
G01X41104Y26842D01*
G01X41093Y26827D01*
G01X41084Y26811D01*
G01X41075Y26794D01*
G01X41067Y26778D01*
G01X41059Y26761D01*
G01X41052Y26744D01*
G01X41047Y26727D01*
G01X41041Y26709D01*
G01X41037Y26691D01*
G01X41031Y26655D01*
G01X41029Y26636D01*
G01X41027Y26618D01*
G01X41027Y26581D01*
G01X41029Y26563D01*
G01X41031Y26544D01*
G01X41037Y26508D01*
G01X41041Y26490D01*
G01X41047Y26473D01*
G01X41052Y26455D01*
G01X41059Y26438D01*
G01X41067Y26421D01*
G01X41075Y26405D01*
G01X41084Y26388D01*
G01X41093Y26373D01*
G01X41104Y26357D01*
G01X41114Y26342D01*
G01X41138Y26314D01*
G01X41164Y26288D01*
G01X41192Y26264D01*
G01X41207Y26253D01*
G01X41222Y26243D01*
G01X41238Y26234D01*
G01X41255Y26225D01*
G01X41271Y26217D01*
G01X41288Y26209D01*
G01X41305Y26203D01*
G01X41322Y26196D01*
G01X41340Y26191D01*
G01X41358Y26187D01*
G01X41394Y26181D01*
G01X41413Y26179D01*
G01X41431Y26178D01*
G01X41450Y26177D01*
G01X41486Y26179D01*
G01X41505Y26181D01*
G01X41541Y26187D01*
G01X41559Y26191D01*
G01X41577Y26196D01*
G01X41594Y26203D01*
G01X41611Y26209D01*
G01X41628Y26217D01*
G01X41644Y26225D01*
G01X41661Y26234D01*
G01X41677Y26243D01*
G01X41692Y26253D01*
G01X41707Y26264D01*
G01X41735Y26288D01*
G01X41761Y26314D01*
G01X41785Y26342D01*
G01X41796Y26357D01*
G01X41806Y26373D01*
G01X41815Y26388D01*
G01X41824Y26405D01*
G01X41832Y26421D01*
G01X41840Y26438D01*
G01X41847Y26455D01*
G01X41852Y26473D01*
G01X41858Y26490D01*
G01X41862Y26508D01*
G01X41868Y26544D01*
G01X41870Y26563D01*
G01X41872Y26581D01*
G01X41872Y26618D01*
G01X41870Y26636D01*
G01X41868Y26655D01*
G01X41862Y26691D01*
G01X41858Y26709D01*
G01X41852Y26727D01*
G01X41847Y26744D01*
G01X41840Y26761D01*
G01X41832Y26778D01*
G01X41824Y26794D01*
G01X41815Y26811D01*
G01X41806Y26827D01*
G01X41796Y26842D01*
G01X41785Y26857D01*
G01X41761Y26885D01*
G01X41735Y26911D01*
G01X41707Y26935D01*
G01X41692Y26946D01*
G01X41677Y26956D01*
G01X41661Y26965D01*
G01X41644Y26974D01*
G01X41628Y26982D01*
G01X41611Y26990D01*
G01X41594Y26996D01*
G01X41577Y27003D01*
G01X41559Y27008D01*
G01X41541Y27012D01*
G01X41505Y27018D01*
G01X41486Y27020D01*
G37*
G36*
G01X36486Y27020D02*
G01X36450Y27022D01*
G01X36431Y27021D01*
G01X36413Y27020D01*
G01X36394Y27018D01*
G01X36358Y27012D01*
G01X36340Y27008D01*
G01X36322Y27003D01*
G01X36305Y26996D01*
G01X36288Y26990D01*
G01X36271Y26982D01*
G01X36255Y26974D01*
G01X36238Y26965D01*
G01X36222Y26956D01*
G01X36207Y26946D01*
G01X36192Y26935D01*
G01X36164Y26911D01*
G01X36138Y26885D01*
G01X36114Y26857D01*
G01X36104Y26842D01*
G01X36093Y26827D01*
G01X36084Y26811D01*
G01X36075Y26794D01*
G01X36067Y26778D01*
G01X36059Y26761D01*
G01X36052Y26744D01*
G01X36047Y26727D01*
G01X36041Y26709D01*
G01X36037Y26691D01*
G01X36031Y26655D01*
G01X36029Y26636D01*
G01X36027Y26618D01*
G01X36027Y26581D01*
G01X36029Y26563D01*
G01X36031Y26544D01*
G01X36037Y26508D01*
G01X36041Y26490D01*
G01X36047Y26473D01*
G01X36052Y26455D01*
G01X36059Y26438D01*
G01X36067Y26421D01*
G01X36075Y26405D01*
G01X36084Y26388D01*
G01X36093Y26373D01*
G01X36104Y26357D01*
G01X36114Y26342D01*
G01X36138Y26314D01*
G01X36164Y26288D01*
G01X36192Y26264D01*
G01X36207Y26253D01*
G01X36222Y26243D01*
G01X36238Y26234D01*
G01X36255Y26225D01*
G01X36271Y26217D01*
G01X36288Y26209D01*
G01X36305Y26203D01*
G01X36322Y26196D01*
G01X36340Y26191D01*
G01X36358Y26187D01*
G01X36394Y26181D01*
G01X36413Y26179D01*
G01X36431Y26178D01*
G01X36450Y26177D01*
G01X36486Y26179D01*
G01X36505Y26181D01*
G01X36541Y26187D01*
G01X36559Y26191D01*
G01X36577Y26196D01*
G01X36594Y26203D01*
G01X36611Y26209D01*
G01X36628Y26217D01*
G01X36644Y26225D01*
G01X36661Y26234D01*
G01X36677Y26243D01*
G01X36692Y26253D01*
G01X36707Y26264D01*
G01X36735Y26288D01*
G01X36761Y26314D01*
G01X36785Y26342D01*
G01X36796Y26357D01*
G01X36806Y26373D01*
G01X36815Y26388D01*
G01X36824Y26405D01*
G01X36832Y26421D01*
G01X36840Y26438D01*
G01X36847Y26455D01*
G01X36852Y26473D01*
G01X36858Y26490D01*
G01X36862Y26508D01*
G01X36868Y26544D01*
G01X36870Y26563D01*
G01X36872Y26581D01*
G01X36872Y26618D01*
G01X36870Y26636D01*
G01X36868Y26655D01*
G01X36862Y26691D01*
G01X36858Y26709D01*
G01X36852Y26727D01*
G01X36847Y26744D01*
G01X36840Y26761D01*
G01X36832Y26778D01*
G01X36824Y26794D01*
G01X36815Y26811D01*
G01X36806Y26827D01*
G01X36796Y26842D01*
G01X36785Y26857D01*
G01X36761Y26885D01*
G01X36735Y26911D01*
G01X36707Y26935D01*
G01X36692Y26946D01*
G01X36677Y26956D01*
G01X36661Y26965D01*
G01X36644Y26974D01*
G01X36628Y26982D01*
G01X36611Y26990D01*
G01X36594Y26996D01*
G01X36577Y27003D01*
G01X36559Y27008D01*
G01X36541Y27012D01*
G01X36505Y27018D01*
G01X36486Y27020D01*
G37*
G36*
G01X42486Y27020D02*
G01X42450Y27022D01*
G01X42431Y27021D01*
G01X42413Y27020D01*
G01X42394Y27018D01*
G01X42358Y27012D01*
G01X42340Y27008D01*
G01X42322Y27003D01*
G01X42305Y26996D01*
G01X42288Y26990D01*
G01X42271Y26982D01*
G01X42255Y26974D01*
G01X42238Y26965D01*
G01X42222Y26956D01*
G01X42207Y26946D01*
G01X42192Y26935D01*
G01X42164Y26911D01*
G01X42138Y26885D01*
G01X42114Y26857D01*
G01X42104Y26842D01*
G01X42093Y26827D01*
G01X42084Y26811D01*
G01X42075Y26794D01*
G01X42067Y26778D01*
G01X42059Y26761D01*
G01X42052Y26744D01*
G01X42047Y26727D01*
G01X42041Y26709D01*
G01X42037Y26691D01*
G01X42031Y26655D01*
G01X42029Y26636D01*
G01X42027Y26618D01*
G01X42027Y26581D01*
G01X42029Y26563D01*
G01X42031Y26544D01*
G01X42037Y26508D01*
G01X42041Y26490D01*
G01X42047Y26473D01*
G01X42052Y26455D01*
G01X42059Y26438D01*
G01X42067Y26421D01*
G01X42075Y26405D01*
G01X42084Y26388D01*
G01X42093Y26373D01*
G01X42104Y26357D01*
G01X42114Y26342D01*
G01X42138Y26314D01*
G01X42164Y26288D01*
G01X42192Y26264D01*
G01X42207Y26253D01*
G01X42222Y26243D01*
G01X42238Y26234D01*
G01X42255Y26225D01*
G01X42271Y26217D01*
G01X42288Y26209D01*
G01X42305Y26203D01*
G01X42322Y26196D01*
G01X42340Y26191D01*
G01X42358Y26187D01*
G01X42394Y26181D01*
G01X42413Y26179D01*
G01X42431Y26178D01*
G01X42450Y26177D01*
G01X42486Y26179D01*
G01X42505Y26181D01*
G01X42541Y26187D01*
G01X42559Y26191D01*
G01X42577Y26196D01*
G01X42594Y26203D01*
G01X42611Y26209D01*
G01X42628Y26217D01*
G01X42644Y26225D01*
G01X42661Y26234D01*
G01X42677Y26243D01*
G01X42692Y26253D01*
G01X42707Y26264D01*
G01X42735Y26288D01*
G01X42761Y26314D01*
G01X42785Y26342D01*
G01X42796Y26357D01*
G01X42806Y26373D01*
G01X42815Y26388D01*
G01X42824Y26405D01*
G01X42832Y26421D01*
G01X42840Y26438D01*
G01X42847Y26455D01*
G01X42852Y26473D01*
G01X42858Y26490D01*
G01X42862Y26508D01*
G01X42868Y26544D01*
G01X42870Y26563D01*
G01X42872Y26581D01*
G01X42872Y26618D01*
G01X42870Y26636D01*
G01X42868Y26655D01*
G01X42862Y26691D01*
G01X42858Y26709D01*
G01X42852Y26727D01*
G01X42847Y26744D01*
G01X42840Y26761D01*
G01X42832Y26778D01*
G01X42824Y26794D01*
G01X42815Y26811D01*
G01X42806Y26827D01*
G01X42796Y26842D01*
G01X42785Y26857D01*
G01X42761Y26885D01*
G01X42735Y26911D01*
G01X42707Y26935D01*
G01X42692Y26946D01*
G01X42677Y26956D01*
G01X42661Y26965D01*
G01X42644Y26974D01*
G01X42628Y26982D01*
G01X42611Y26990D01*
G01X42594Y26996D01*
G01X42577Y27003D01*
G01X42559Y27008D01*
G01X42541Y27012D01*
G01X42505Y27018D01*
G01X42486Y27020D01*
G37*
G36*
G01X35264Y27022D02*
G01X35128Y27022D01*
G01X35110Y27020D01*
G01X35100Y27018D01*
G01X35092Y27015D01*
G01X35083Y27011D01*
G01X35075Y27007D01*
G01X35067Y27002D01*
G01X35060Y26996D01*
G01X35053Y26989D01*
G01X35047Y26982D01*
G01X35042Y26974D01*
G01X35038Y26966D01*
G01X35034Y26957D01*
G01X35031Y26949D01*
G01X35029Y26940D01*
G01X35027Y26930D01*
G01X35027Y26785D01*
G01X35264Y26785D01*
G01X35264Y27022D01*
G37*
G36*
G01X35771Y27022D02*
G01X35635Y27022D01*
G01X35635Y26785D01*
G01X35872Y26785D01*
G01X35872Y26930D01*
G01X35870Y26940D01*
G01X35868Y26949D01*
G01X35865Y26957D01*
G01X35861Y26966D01*
G01X35857Y26974D01*
G01X35852Y26982D01*
G01X35846Y26989D01*
G01X35839Y26996D01*
G01X35832Y27002D01*
G01X35824Y27007D01*
G01X35816Y27011D01*
G01X35807Y27015D01*
G01X35799Y27018D01*
G01X35789Y27020D01*
G01X35771Y27022D01*
G37*
G36*
G01X25664Y27470D02*
G01X25650Y27471D01*
G01X25636Y27470D01*
G01X25623Y27469D01*
G01X25610Y27467D01*
G01X25584Y27461D01*
G01X25571Y27456D01*
G01X25559Y27451D01*
G01X25535Y27439D01*
G01X25513Y27423D01*
G01X25503Y27415D01*
G01X25493Y27406D01*
G01X25484Y27396D01*
G01X25476Y27386D01*
G01X25460Y27364D01*
G01X25448Y27340D01*
G01X25443Y27328D01*
G01X25435Y27302D01*
G01X25432Y27289D01*
G01X25430Y27276D01*
G01X25428Y27250D01*
G01X25429Y27236D01*
G01X25430Y27223D01*
G01X25432Y27210D01*
G01X25435Y27197D01*
G01X25443Y27171D01*
G01X25448Y27159D01*
G01X25460Y27135D01*
G01X25476Y27113D01*
G01X25484Y27103D01*
G01X25493Y27093D01*
G01X25503Y27084D01*
G01X25513Y27076D01*
G01X25535Y27060D01*
G01X25559Y27048D01*
G01X25571Y27043D01*
G01X25584Y27038D01*
G01X25610Y27032D01*
G01X25623Y27030D01*
G01X25636Y27029D01*
G01X25650Y27028D01*
G01X25664Y27029D01*
G01X25679Y27030D01*
G01X25707Y27036D01*
G01X25721Y27040D01*
G01X25735Y27046D01*
G01X25748Y27052D01*
G01X25761Y27059D01*
G01X25773Y27067D01*
G01X25779Y27069D01*
G01X25784Y27072D01*
G01X25790Y27073D01*
G01X27359Y27073D01*
G01X27365Y27072D01*
G01X27370Y27069D01*
G01X27376Y27067D01*
G01X27388Y27059D01*
G01X27401Y27052D01*
G01X27414Y27046D01*
G01X27428Y27040D01*
G01X27442Y27036D01*
G01X27470Y27030D01*
G01X27500Y27028D01*
G01X27526Y27030D01*
G01X27539Y27032D01*
G01X27565Y27038D01*
G01X27578Y27043D01*
G01X27590Y27048D01*
G01X27614Y27060D01*
G01X27636Y27076D01*
G01X27646Y27084D01*
G01X27656Y27093D01*
G01X27665Y27103D01*
G01X27673Y27113D01*
G01X27689Y27135D01*
G01X27701Y27159D01*
G01X27706Y27171D01*
G01X27714Y27197D01*
G01X27717Y27210D01*
G01X27719Y27223D01*
G01X27720Y27236D01*
G01X27721Y27250D01*
G01X27719Y27276D01*
G01X27717Y27289D01*
G01X27714Y27302D01*
G01X27706Y27328D01*
G01X27701Y27340D01*
G01X27689Y27364D01*
G01X27673Y27386D01*
G01X27665Y27396D01*
G01X27656Y27406D01*
G01X27646Y27415D01*
G01X27636Y27423D01*
G01X27614Y27439D01*
G01X27590Y27451D01*
G01X27578Y27456D01*
G01X27565Y27461D01*
G01X27539Y27467D01*
G01X27526Y27469D01*
G01X27500Y27471D01*
G01X27470Y27469D01*
G01X27442Y27463D01*
G01X27428Y27459D01*
G01X27414Y27453D01*
G01X27401Y27447D01*
G01X27388Y27440D01*
G01X27376Y27432D01*
G01X27370Y27430D01*
G01X27365Y27427D01*
G01X27359Y27426D01*
G01X25790Y27426D01*
G01X25784Y27427D01*
G01X25779Y27430D01*
G01X25773Y27432D01*
G01X25761Y27440D01*
G01X25748Y27447D01*
G01X25735Y27453D01*
G01X25721Y27459D01*
G01X25707Y27463D01*
G01X25679Y27469D01*
G01X25664Y27470D01*
G37*
G36*
G01X9930Y28848D02*
G01X9419Y28848D01*
G01X9401Y28847D01*
G01X9382Y28845D01*
G01X9363Y28842D01*
G01X9344Y28838D01*
G01X9326Y28834D01*
G01X9307Y28828D01*
G01X9289Y28822D01*
G01X9255Y28808D01*
G01X9221Y28790D01*
G01X9189Y28770D01*
G01X9173Y28759D01*
G01X9159Y28747D01*
G01X9144Y28734D01*
G01X9117Y28707D01*
G01X9105Y28693D01*
G01X9093Y28678D01*
G01X9082Y28663D01*
G01X9071Y28647D01*
G01X9061Y28631D01*
G01X9052Y28614D01*
G01X9036Y28580D01*
G01X9029Y28562D01*
G01X9023Y28544D01*
G01X9018Y28526D01*
G01X9013Y28507D01*
G01X9010Y28488D01*
G01X9007Y28470D01*
G01X9003Y28432D01*
G01X9003Y28394D01*
G01X9007Y28356D01*
G01X9010Y28337D01*
G01X9013Y28319D01*
G01X9018Y28300D01*
G01X9023Y28282D01*
G01X9029Y28264D01*
G01X9036Y28246D01*
G01X9052Y28212D01*
G01X9061Y28195D01*
G01X9071Y28179D01*
G01X9082Y28163D01*
G01X9093Y28148D01*
G01X9105Y28133D01*
G01X9117Y28119D01*
G01X9144Y28092D01*
G01X9159Y28079D01*
G01X9173Y28067D01*
G01X9189Y28056D01*
G01X9221Y28036D01*
G01X9255Y28018D01*
G01X9272Y28011D01*
G01X9289Y28003D01*
G01X9307Y27998D01*
G01X9326Y27992D01*
G01X9344Y27988D01*
G01X9363Y27984D01*
G01X9382Y27981D01*
G01X9401Y27979D01*
G01X9419Y27978D01*
G01X9439Y27977D01*
G01X9911Y27977D01*
G01X9949Y27979D01*
G01X9968Y27981D01*
G01X9986Y27984D01*
G01X10005Y27988D01*
G01X10023Y27992D01*
G01X10042Y27998D01*
G01X10060Y28003D01*
G01X10077Y28011D01*
G01X10095Y28018D01*
G01X10112Y28027D01*
G01X10128Y28036D01*
G01X10145Y28046D01*
G01X10161Y28056D01*
G01X10176Y28067D01*
G01X10191Y28079D01*
G01X10219Y28105D01*
G01X10232Y28119D01*
G01X10244Y28133D01*
G01X10268Y28163D01*
G01X10288Y28195D01*
G01X10306Y28229D01*
G01X10313Y28246D01*
G01X10320Y28264D01*
G01X10326Y28282D01*
G01X10331Y28300D01*
G01X10336Y28319D01*
G01X10340Y28337D01*
G01X10343Y28356D01*
G01X10345Y28375D01*
G01X10346Y28394D01*
G01X10346Y28432D01*
G01X10345Y28451D01*
G01X10343Y28470D01*
G01X10340Y28488D01*
G01X10336Y28507D01*
G01X10331Y28526D01*
G01X10326Y28544D01*
G01X10320Y28562D01*
G01X10313Y28580D01*
G01X10306Y28597D01*
G01X10288Y28631D01*
G01X10268Y28663D01*
G01X10244Y28693D01*
G01X10232Y28707D01*
G01X10219Y28721D01*
G01X10191Y28747D01*
G01X10176Y28759D01*
G01X10161Y28770D01*
G01X10145Y28780D01*
G01X10128Y28790D01*
G01X10112Y28799D01*
G01X10095Y28808D01*
G01X10077Y28815D01*
G01X10060Y28822D01*
G01X10042Y28828D01*
G01X10023Y28834D01*
G01X10005Y28838D01*
G01X9986Y28842D01*
G01X9968Y28845D01*
G01X9949Y28847D01*
G01X9930Y28848D01*
G37*
G36*
G01X23448Y29547D02*
G01X23195Y29547D01*
G01X23195Y29395D01*
G01X23196Y29385D01*
G01X23197Y29376D01*
G01X23199Y29367D01*
G01X23202Y29358D01*
G01X23210Y29342D01*
G01X23215Y29334D01*
G01X23222Y29327D01*
G01X23228Y29320D01*
G01X23235Y29314D01*
G01X23251Y29304D01*
G01X23260Y29301D01*
G01X23268Y29298D01*
G01X23278Y29295D01*
G01X23287Y29294D01*
G01X23448Y29294D01*
G01X23448Y29547D01*
G37*
G36*
G01X24106Y29547D02*
G01X23853Y29547D01*
G01X23853Y29294D01*
G01X24014Y29294D01*
G01X24023Y29295D01*
G01X24050Y29304D01*
G01X24066Y29314D01*
G01X24073Y29320D01*
G01X24080Y29327D01*
G01X24085Y29334D01*
G01X24091Y29342D01*
G01X24099Y29358D01*
G01X24102Y29367D01*
G01X24104Y29376D01*
G01X24105Y29385D01*
G01X24106Y29395D01*
G01X24106Y29547D01*
G37*
G36*
G01X25669Y30205D02*
G01X25630Y30205D01*
G01X25611Y30204D01*
G01X25592Y30202D01*
G01X25572Y30199D01*
G01X25553Y30195D01*
G01X25535Y30191D01*
G01X25516Y30185D01*
G01X25480Y30173D01*
G01X25444Y30157D01*
G01X25427Y30148D01*
G01X25411Y30138D01*
G01X25394Y30127D01*
G01X25379Y30116D01*
G01X25349Y30092D01*
G01X25335Y30079D01*
G01X25321Y30065D01*
G01X25308Y30051D01*
G01X25295Y30036D01*
G01X25284Y30021D01*
G01X25272Y30005D01*
G01X25262Y29989D01*
G01X25252Y29972D01*
G01X25243Y29955D01*
G01X25235Y29938D01*
G01X25227Y29920D01*
G01X25220Y29902D01*
G01X25214Y29883D01*
G01X25209Y29865D01*
G01X25204Y29846D01*
G01X25198Y29808D01*
G01X25196Y29789D01*
G01X25194Y29769D01*
G01X25194Y29731D01*
G01X25196Y29711D01*
G01X25198Y29692D01*
G01X25204Y29654D01*
G01X25209Y29635D01*
G01X25214Y29617D01*
G01X25220Y29598D01*
G01X25227Y29580D01*
G01X25235Y29563D01*
G01X25243Y29545D01*
G01X25252Y29528D01*
G01X25262Y29511D01*
G01X25272Y29495D01*
G01X25284Y29479D01*
G01X25295Y29464D01*
G01X25308Y29449D01*
G01X25321Y29435D01*
G01X25335Y29421D01*
G01X25349Y29408D01*
G01X25379Y29384D01*
G01X25394Y29373D01*
G01X25411Y29362D01*
G01X25427Y29353D01*
G01X25444Y29344D01*
G01X25462Y29335D01*
G01X25498Y29321D01*
G01X25516Y29315D01*
G01X25535Y29309D01*
G01X25553Y29305D01*
G01X25572Y29301D01*
G01X25592Y29298D01*
G01X25611Y29296D01*
G01X25630Y29295D01*
G01X25669Y29295D01*
G01X25688Y29296D01*
G01X25707Y29298D01*
G01X25727Y29301D01*
G01X25746Y29305D01*
G01X25764Y29309D01*
G01X25783Y29315D01*
G01X25801Y29321D01*
G01X25837Y29335D01*
G01X25855Y29344D01*
G01X25872Y29353D01*
G01X25888Y29362D01*
G01X25905Y29373D01*
G01X25920Y29384D01*
G01X25950Y29408D01*
G01X25964Y29421D01*
G01X25978Y29435D01*
G01X25991Y29449D01*
G01X26004Y29464D01*
G01X26015Y29479D01*
G01X26027Y29495D01*
G01X26037Y29511D01*
G01X26047Y29528D01*
G01X26056Y29545D01*
G01X26064Y29563D01*
G01X26072Y29580D01*
G01X26079Y29598D01*
G01X26085Y29617D01*
G01X26090Y29635D01*
G01X26095Y29654D01*
G01X26101Y29692D01*
G01X26103Y29711D01*
G01X26105Y29731D01*
G01X26105Y29769D01*
G01X26103Y29789D01*
G01X26101Y29808D01*
G01X26095Y29846D01*
G01X26090Y29865D01*
G01X26085Y29883D01*
G01X26079Y29902D01*
G01X26072Y29920D01*
G01X26064Y29938D01*
G01X26056Y29955D01*
G01X26047Y29972D01*
G01X26037Y29989D01*
G01X26027Y30005D01*
G01X26015Y30021D01*
G01X26004Y30036D01*
G01X25991Y30051D01*
G01X25978Y30065D01*
G01X25964Y30079D01*
G01X25950Y30092D01*
G01X25920Y30116D01*
G01X25905Y30127D01*
G01X25888Y30138D01*
G01X25872Y30148D01*
G01X25855Y30157D01*
G01X25819Y30173D01*
G01X25783Y30185D01*
G01X25764Y30191D01*
G01X25746Y30195D01*
G01X25727Y30199D01*
G01X25707Y30202D01*
G01X25688Y30204D01*
G01X25669Y30205D01*
G37*
G36*
G01X24669Y30205D02*
G01X24630Y30205D01*
G01X24611Y30204D01*
G01X24592Y30202D01*
G01X24572Y30199D01*
G01X24553Y30195D01*
G01X24535Y30191D01*
G01X24516Y30185D01*
G01X24480Y30173D01*
G01X24444Y30157D01*
G01X24427Y30148D01*
G01X24411Y30138D01*
G01X24394Y30127D01*
G01X24379Y30116D01*
G01X24349Y30092D01*
G01X24335Y30079D01*
G01X24321Y30065D01*
G01X24308Y30051D01*
G01X24295Y30036D01*
G01X24284Y30021D01*
G01X24272Y30005D01*
G01X24262Y29989D01*
G01X24252Y29972D01*
G01X24243Y29955D01*
G01X24235Y29938D01*
G01X24227Y29920D01*
G01X24220Y29902D01*
G01X24214Y29883D01*
G01X24209Y29865D01*
G01X24204Y29846D01*
G01X24198Y29808D01*
G01X24196Y29789D01*
G01X24194Y29769D01*
G01X24194Y29731D01*
G01X24196Y29711D01*
G01X24198Y29692D01*
G01X24204Y29654D01*
G01X24209Y29635D01*
G01X24214Y29617D01*
G01X24220Y29598D01*
G01X24227Y29580D01*
G01X24235Y29563D01*
G01X24243Y29545D01*
G01X24252Y29528D01*
G01X24262Y29511D01*
G01X24272Y29495D01*
G01X24284Y29479D01*
G01X24295Y29464D01*
G01X24308Y29449D01*
G01X24321Y29435D01*
G01X24335Y29421D01*
G01X24349Y29408D01*
G01X24379Y29384D01*
G01X24394Y29373D01*
G01X24411Y29362D01*
G01X24427Y29353D01*
G01X24444Y29344D01*
G01X24462Y29335D01*
G01X24498Y29321D01*
G01X24516Y29315D01*
G01X24535Y29309D01*
G01X24553Y29305D01*
G01X24572Y29301D01*
G01X24592Y29298D01*
G01X24611Y29296D01*
G01X24630Y29295D01*
G01X24669Y29295D01*
G01X24688Y29296D01*
G01X24707Y29298D01*
G01X24727Y29301D01*
G01X24746Y29305D01*
G01X24764Y29309D01*
G01X24783Y29315D01*
G01X24801Y29321D01*
G01X24837Y29335D01*
G01X24855Y29344D01*
G01X24872Y29353D01*
G01X24888Y29362D01*
G01X24905Y29373D01*
G01X24920Y29384D01*
G01X24950Y29408D01*
G01X24964Y29421D01*
G01X24978Y29435D01*
G01X24991Y29449D01*
G01X25004Y29464D01*
G01X25015Y29479D01*
G01X25027Y29495D01*
G01X25037Y29511D01*
G01X25047Y29528D01*
G01X25056Y29545D01*
G01X25064Y29563D01*
G01X25072Y29580D01*
G01X25079Y29598D01*
G01X25085Y29617D01*
G01X25090Y29635D01*
G01X25095Y29654D01*
G01X25101Y29692D01*
G01X25103Y29711D01*
G01X25105Y29731D01*
G01X25105Y29769D01*
G01X25103Y29789D01*
G01X25101Y29808D01*
G01X25095Y29846D01*
G01X25090Y29865D01*
G01X25085Y29883D01*
G01X25079Y29902D01*
G01X25072Y29920D01*
G01X25064Y29938D01*
G01X25056Y29955D01*
G01X25047Y29972D01*
G01X25037Y29989D01*
G01X25027Y30005D01*
G01X25015Y30021D01*
G01X25004Y30036D01*
G01X24991Y30051D01*
G01X24978Y30065D01*
G01X24964Y30079D01*
G01X24950Y30092D01*
G01X24920Y30116D01*
G01X24905Y30127D01*
G01X24888Y30138D01*
G01X24872Y30148D01*
G01X24855Y30157D01*
G01X24819Y30173D01*
G01X24783Y30185D01*
G01X24764Y30191D01*
G01X24746Y30195D01*
G01X24727Y30199D01*
G01X24707Y30202D01*
G01X24688Y30204D01*
G01X24669Y30205D01*
G37*
G36*
G01X26669Y30205D02*
G01X26630Y30205D01*
G01X26611Y30204D01*
G01X26592Y30202D01*
G01X26572Y30199D01*
G01X26553Y30195D01*
G01X26535Y30191D01*
G01X26516Y30185D01*
G01X26480Y30173D01*
G01X26444Y30157D01*
G01X26427Y30148D01*
G01X26411Y30138D01*
G01X26394Y30127D01*
G01X26379Y30116D01*
G01X26349Y30092D01*
G01X26335Y30079D01*
G01X26321Y30065D01*
G01X26308Y30051D01*
G01X26295Y30036D01*
G01X26284Y30021D01*
G01X26272Y30005D01*
G01X26262Y29989D01*
G01X26252Y29972D01*
G01X26243Y29955D01*
G01X26235Y29938D01*
G01X26227Y29920D01*
G01X26220Y29902D01*
G01X26214Y29883D01*
G01X26209Y29865D01*
G01X26204Y29846D01*
G01X26198Y29808D01*
G01X26196Y29789D01*
G01X26194Y29769D01*
G01X26194Y29731D01*
G01X26196Y29711D01*
G01X26198Y29692D01*
G01X26204Y29654D01*
G01X26209Y29635D01*
G01X26214Y29617D01*
G01X26220Y29598D01*
G01X26227Y29580D01*
G01X26235Y29563D01*
G01X26243Y29545D01*
G01X26252Y29528D01*
G01X26262Y29511D01*
G01X26272Y29495D01*
G01X26284Y29479D01*
G01X26295Y29464D01*
G01X26308Y29449D01*
G01X26321Y29435D01*
G01X26335Y29421D01*
G01X26349Y29408D01*
G01X26379Y29384D01*
G01X26394Y29373D01*
G01X26411Y29362D01*
G01X26427Y29353D01*
G01X26444Y29344D01*
G01X26462Y29335D01*
G01X26498Y29321D01*
G01X26516Y29315D01*
G01X26535Y29309D01*
G01X26553Y29305D01*
G01X26572Y29301D01*
G01X26592Y29298D01*
G01X26611Y29296D01*
G01X26630Y29295D01*
G01X26669Y29295D01*
G01X26688Y29296D01*
G01X26707Y29298D01*
G01X26727Y29301D01*
G01X26746Y29305D01*
G01X26764Y29309D01*
G01X26783Y29315D01*
G01X26801Y29321D01*
G01X26837Y29335D01*
G01X26855Y29344D01*
G01X26872Y29353D01*
G01X26888Y29362D01*
G01X26905Y29373D01*
G01X26920Y29384D01*
G01X26950Y29408D01*
G01X26964Y29421D01*
G01X26978Y29435D01*
G01X26991Y29449D01*
G01X27004Y29464D01*
G01X27015Y29479D01*
G01X27027Y29495D01*
G01X27037Y29511D01*
G01X27047Y29528D01*
G01X27056Y29545D01*
G01X27064Y29563D01*
G01X27072Y29580D01*
G01X27079Y29598D01*
G01X27085Y29617D01*
G01X27090Y29635D01*
G01X27095Y29654D01*
G01X27101Y29692D01*
G01X27103Y29711D01*
G01X27105Y29731D01*
G01X27105Y29769D01*
G01X27103Y29789D01*
G01X27101Y29808D01*
G01X27095Y29846D01*
G01X27090Y29865D01*
G01X27085Y29883D01*
G01X27079Y29902D01*
G01X27072Y29920D01*
G01X27064Y29938D01*
G01X27056Y29955D01*
G01X27047Y29972D01*
G01X27037Y29989D01*
G01X27027Y30005D01*
G01X27015Y30021D01*
G01X27004Y30036D01*
G01X26991Y30051D01*
G01X26978Y30065D01*
G01X26964Y30079D01*
G01X26950Y30092D01*
G01X26920Y30116D01*
G01X26905Y30127D01*
G01X26888Y30138D01*
G01X26872Y30148D01*
G01X26855Y30157D01*
G01X26819Y30173D01*
G01X26783Y30185D01*
G01X26764Y30191D01*
G01X26746Y30195D01*
G01X26727Y30199D01*
G01X26707Y30202D01*
G01X26688Y30204D01*
G01X26669Y30205D01*
G37*
G36*
G01X19026Y29762D02*
G01X18787Y29762D01*
G01X18787Y29523D01*
G01X18925Y29523D01*
G01X18943Y29525D01*
G01X18952Y29527D01*
G01X18961Y29530D01*
G01X18969Y29534D01*
G01X18978Y29539D01*
G01X18985Y29544D01*
G01X18993Y29550D01*
G01X19005Y29564D01*
G01X19010Y29571D01*
G01X19015Y29580D01*
G01X19019Y29588D01*
G01X19022Y29597D01*
G01X19024Y29606D01*
G01X19025Y29615D01*
G01X19026Y29625D01*
G01X19026Y29762D01*
G37*
G36*
G01X18412Y29762D02*
G01X18173Y29762D01*
G01X18173Y29625D01*
G01X18174Y29615D01*
G01X18175Y29606D01*
G01X18177Y29597D01*
G01X18180Y29588D01*
G01X18184Y29580D01*
G01X18189Y29571D01*
G01X18194Y29564D01*
G01X18206Y29550D01*
G01X18214Y29544D01*
G01X18221Y29539D01*
G01X18230Y29534D01*
G01X18238Y29530D01*
G01X18247Y29527D01*
G01X18256Y29525D01*
G01X18265Y29524D01*
G01X18275Y29523D01*
G01X18412Y29523D01*
G01X18412Y29762D01*
G37*
G36*
G01X32375Y30425D02*
G01X32048Y30425D01*
G01X32048Y29950D01*
G01X32049Y29940D01*
G01X32050Y29931D01*
G01X32052Y29922D01*
G01X32055Y29913D01*
G01X32059Y29905D01*
G01X32064Y29896D01*
G01X32069Y29889D01*
G01X32081Y29875D01*
G01X32089Y29869D01*
G01X32096Y29864D01*
G01X32105Y29859D01*
G01X32113Y29855D01*
G01X32122Y29852D01*
G01X32131Y29850D01*
G01X32140Y29849D01*
G01X32150Y29848D01*
G01X32375Y29848D01*
G01X32375Y30425D01*
G37*
G36*
G01X33251Y30425D02*
G01X32925Y30425D01*
G01X32925Y29848D01*
G01X33150Y29848D01*
G01X33168Y29850D01*
G01X33177Y29852D01*
G01X33186Y29855D01*
G01X33194Y29859D01*
G01X33203Y29864D01*
G01X33210Y29869D01*
G01X33218Y29875D01*
G01X33230Y29889D01*
G01X33235Y29896D01*
G01X33240Y29905D01*
G01X33244Y29913D01*
G01X33247Y29922D01*
G01X33249Y29931D01*
G01X33250Y29940D01*
G01X33251Y29950D01*
G01X33251Y30425D01*
G37*
G36*
G01X23448Y30204D02*
G01X23287Y30204D01*
G01X23278Y30203D01*
G01X23268Y30201D01*
G01X23260Y30198D01*
G01X23251Y30194D01*
G01X23235Y30184D01*
G01X23228Y30178D01*
G01X23222Y30171D01*
G01X23215Y30164D01*
G01X23210Y30157D01*
G01X23206Y30148D01*
G01X23202Y30140D01*
G01X23199Y30131D01*
G01X23197Y30122D01*
G01X23196Y30113D01*
G01X23195Y30103D01*
G01X23195Y29951D01*
G01X23448Y29951D01*
G01X23448Y30204D01*
G37*
G36*
G01X24014Y30204D02*
G01X23853Y30204D01*
G01X23853Y29951D01*
G01X24106Y29951D01*
G01X24106Y30103D01*
G01X24105Y30113D01*
G01X24104Y30122D01*
G01X24102Y30131D01*
G01X24099Y30140D01*
G01X24095Y30148D01*
G01X24091Y30157D01*
G01X24085Y30164D01*
G01X24080Y30171D01*
G01X24073Y30178D01*
G01X24066Y30184D01*
G01X24050Y30194D01*
G01X24041Y30198D01*
G01X24032Y30201D01*
G01X24023Y30203D01*
G01X24014Y30204D01*
G37*
G36*
G01X18925Y30376D02*
G01X18787Y30376D01*
G01X18787Y30137D01*
G01X19026Y30137D01*
G01X19026Y30275D01*
G01X19024Y30293D01*
G01X19022Y30302D01*
G01X19019Y30311D01*
G01X19015Y30319D01*
G01X19010Y30328D01*
G01X19005Y30335D01*
G01X18993Y30349D01*
G01X18985Y30355D01*
G01X18978Y30360D01*
G01X18969Y30365D01*
G01X18961Y30369D01*
G01X18952Y30372D01*
G01X18943Y30374D01*
G01X18925Y30376D01*
G37*
G36*
G01X18412Y30376D02*
G01X18275Y30376D01*
G01X18265Y30375D01*
G01X18256Y30374D01*
G01X18247Y30372D01*
G01X18238Y30369D01*
G01X18230Y30365D01*
G01X18221Y30360D01*
G01X18214Y30355D01*
G01X18206Y30349D01*
G01X18194Y30335D01*
G01X18189Y30328D01*
G01X18184Y30319D01*
G01X18180Y30311D01*
G01X18177Y30302D01*
G01X18175Y30293D01*
G01X18173Y30275D01*
G01X18173Y30137D01*
G01X18412Y30137D01*
G01X18412Y30376D01*
G37*
G36*
G01X26669Y31205D02*
G01X26630Y31205D01*
G01X26611Y31204D01*
G01X26592Y31202D01*
G01X26572Y31199D01*
G01X26553Y31195D01*
G01X26535Y31191D01*
G01X26516Y31185D01*
G01X26480Y31173D01*
G01X26444Y31157D01*
G01X26427Y31148D01*
G01X26411Y31138D01*
G01X26394Y31127D01*
G01X26379Y31116D01*
G01X26349Y31092D01*
G01X26335Y31079D01*
G01X26321Y31065D01*
G01X26308Y31051D01*
G01X26295Y31036D01*
G01X26284Y31021D01*
G01X26272Y31005D01*
G01X26262Y30989D01*
G01X26252Y30972D01*
G01X26243Y30955D01*
G01X26235Y30938D01*
G01X26227Y30920D01*
G01X26220Y30902D01*
G01X26214Y30883D01*
G01X26209Y30865D01*
G01X26204Y30846D01*
G01X26198Y30808D01*
G01X26196Y30789D01*
G01X26194Y30769D01*
G01X26194Y30731D01*
G01X26196Y30711D01*
G01X26198Y30692D01*
G01X26204Y30654D01*
G01X26209Y30635D01*
G01X26214Y30617D01*
G01X26220Y30598D01*
G01X26227Y30580D01*
G01X26235Y30563D01*
G01X26243Y30545D01*
G01X26252Y30528D01*
G01X26262Y30511D01*
G01X26272Y30495D01*
G01X26284Y30479D01*
G01X26295Y30464D01*
G01X26308Y30449D01*
G01X26321Y30435D01*
G01X26335Y30421D01*
G01X26349Y30408D01*
G01X26379Y30384D01*
G01X26394Y30373D01*
G01X26411Y30362D01*
G01X26427Y30353D01*
G01X26444Y30344D01*
G01X26462Y30335D01*
G01X26498Y30321D01*
G01X26516Y30315D01*
G01X26535Y30309D01*
G01X26553Y30305D01*
G01X26572Y30301D01*
G01X26592Y30298D01*
G01X26611Y30296D01*
G01X26630Y30295D01*
G01X26669Y30295D01*
G01X26688Y30296D01*
G01X26707Y30298D01*
G01X26727Y30301D01*
G01X26746Y30305D01*
G01X26764Y30309D01*
G01X26783Y30315D01*
G01X26801Y30321D01*
G01X26837Y30335D01*
G01X26855Y30344D01*
G01X26872Y30353D01*
G01X26888Y30362D01*
G01X26905Y30373D01*
G01X26920Y30384D01*
G01X26950Y30408D01*
G01X26964Y30421D01*
G01X26978Y30435D01*
G01X26991Y30449D01*
G01X27004Y30464D01*
G01X27015Y30479D01*
G01X27027Y30495D01*
G01X27037Y30511D01*
G01X27047Y30528D01*
G01X27056Y30545D01*
G01X27064Y30563D01*
G01X27072Y30580D01*
G01X27079Y30598D01*
G01X27085Y30617D01*
G01X27090Y30635D01*
G01X27095Y30654D01*
G01X27101Y30692D01*
G01X27103Y30711D01*
G01X27105Y30731D01*
G01X27105Y30769D01*
G01X27103Y30789D01*
G01X27101Y30808D01*
G01X27095Y30846D01*
G01X27090Y30865D01*
G01X27085Y30883D01*
G01X27079Y30902D01*
G01X27072Y30920D01*
G01X27064Y30938D01*
G01X27056Y30955D01*
G01X27047Y30972D01*
G01X27037Y30989D01*
G01X27027Y31005D01*
G01X27015Y31021D01*
G01X27004Y31036D01*
G01X26991Y31051D01*
G01X26978Y31065D01*
G01X26964Y31079D01*
G01X26950Y31092D01*
G01X26920Y31116D01*
G01X26905Y31127D01*
G01X26888Y31138D01*
G01X26872Y31148D01*
G01X26855Y31157D01*
G01X26819Y31173D01*
G01X26783Y31185D01*
G01X26764Y31191D01*
G01X26746Y31195D01*
G01X26727Y31199D01*
G01X26707Y31202D01*
G01X26688Y31204D01*
G01X26669Y31205D01*
G37*
G36*
G01X33150Y32051D02*
G01X32925Y32051D01*
G01X32925Y31475D01*
G01X33251Y31475D01*
G01X33251Y31950D01*
G01X33249Y31968D01*
G01X33247Y31977D01*
G01X33244Y31986D01*
G01X33240Y31994D01*
G01X33235Y32003D01*
G01X33230Y32010D01*
G01X33218Y32024D01*
G01X33210Y32030D01*
G01X33203Y32035D01*
G01X33194Y32040D01*
G01X33186Y32044D01*
G01X33177Y32047D01*
G01X33168Y32049D01*
G01X33150Y32051D01*
G37*
G36*
G01X32375Y32051D02*
G01X32150Y32051D01*
G01X32140Y32050D01*
G01X32131Y32049D01*
G01X32122Y32047D01*
G01X32113Y32044D01*
G01X32105Y32040D01*
G01X32096Y32035D01*
G01X32089Y32030D01*
G01X32081Y32024D01*
G01X32069Y32010D01*
G01X32064Y32003D01*
G01X32059Y31994D01*
G01X32055Y31986D01*
G01X32052Y31977D01*
G01X32050Y31968D01*
G01X32048Y31950D01*
G01X32048Y31475D01*
G01X32375Y31475D01*
G01X32375Y32051D01*
G37*
G36*
G01X20626Y32262D02*
G01X20387Y32262D01*
G01X20387Y32023D01*
G01X20525Y32023D01*
G01X20543Y32025D01*
G01X20552Y32027D01*
G01X20561Y32030D01*
G01X20569Y32034D01*
G01X20578Y32039D01*
G01X20585Y32044D01*
G01X20593Y32050D01*
G01X20605Y32064D01*
G01X20610Y32071D01*
G01X20615Y32080D01*
G01X20619Y32088D01*
G01X20622Y32097D01*
G01X20624Y32106D01*
G01X20625Y32115D01*
G01X20626Y32125D01*
G01X20626Y32262D01*
G37*
G36*
G01X20012Y32262D02*
G01X19773Y32262D01*
G01X19773Y32125D01*
G01X19774Y32115D01*
G01X19775Y32106D01*
G01X19777Y32097D01*
G01X19780Y32088D01*
G01X19784Y32080D01*
G01X19789Y32071D01*
G01X19794Y32064D01*
G01X19806Y32050D01*
G01X19814Y32044D01*
G01X19821Y32039D01*
G01X19830Y32034D01*
G01X19838Y32030D01*
G01X19847Y32027D01*
G01X19856Y32025D01*
G01X19865Y32024D01*
G01X19875Y32023D01*
G01X20012Y32023D01*
G01X20012Y32262D01*
G37*
G36*
G01X20012Y32876D02*
G01X19875Y32876D01*
G01X19865Y32875D01*
G01X19856Y32874D01*
G01X19847Y32872D01*
G01X19838Y32869D01*
G01X19830Y32865D01*
G01X19821Y32860D01*
G01X19814Y32855D01*
G01X19806Y32849D01*
G01X19794Y32835D01*
G01X19789Y32828D01*
G01X19784Y32819D01*
G01X19780Y32811D01*
G01X19777Y32802D01*
G01X19775Y32793D01*
G01X19773Y32775D01*
G01X19773Y32637D01*
G01X20012Y32637D01*
G01X20012Y32876D01*
G37*
G36*
G01X20525Y32876D02*
G01X20387Y32876D01*
G01X20387Y32637D01*
G01X20626Y32637D01*
G01X20626Y32775D01*
G01X20624Y32793D01*
G01X20622Y32802D01*
G01X20619Y32811D01*
G01X20615Y32819D01*
G01X20610Y32828D01*
G01X20605Y32835D01*
G01X20593Y32849D01*
G01X20585Y32855D01*
G01X20578Y32860D01*
G01X20569Y32865D01*
G01X20561Y32869D01*
G01X20552Y32872D01*
G01X20543Y32874D01*
G01X20525Y32876D01*
G37*

%LPD*%
G54D11*
G01X18600Y25750D02*
G01X18600Y28550D01*
G01X20850Y30800D01*
G01X23600Y30800D01*
G01X23649Y30750D01*
G01X13539Y5980D02*
G01X13539Y7440D01*
G01X19600Y13500D01*
G01X22500Y13500D01*
G01X22650Y13650D01*
G54D12*
G01X9675Y26559D02*
G01X11440Y26559D01*
G01X12900Y25100D01*
G01X12900Y20300D01*
G01X14350Y18850D01*
G01X27450Y18850D01*
G01X28650Y17650D01*
G01X9675Y24704D02*
G01X8304Y24704D01*
G01X6550Y22950D01*
G01X6550Y21500D01*
G54D11*
G01X25649Y27250D02*
G01X27500Y27250D01*
G01X25649Y30750D02*
G01X25649Y31599D01*
G01X26400Y32350D01*
G01X27000Y32350D01*
G01X28500Y30850D01*
G01X28500Y27350D01*
G01X25950Y24800D01*
G01X24649Y30750D02*
G01X24649Y31499D01*
G01X26050Y32900D01*
G01X27450Y32900D01*
G01X29350Y31000D01*
G01X29350Y27350D01*
G01X25300Y23300D01*
G01X28650Y6650D02*
G01X27800Y6650D01*
G01X22100Y950D01*
G01X12150Y950D01*
G01X9800Y3300D01*
G01X9800Y13350D01*
G01X9150Y14000D01*
G01X8100Y14000D01*
G01X17600Y29950D02*
G01X17600Y25750D01*
G01X19200Y32450D02*
G01X19200Y31100D01*
G01X19500Y30800D01*
G01X20805Y30800D01*
G01X24100Y20450D02*
G01X37550Y20450D01*
G01X40500Y23400D01*
G01X40500Y26550D01*
G01X40450Y26600D01*
G01X23650Y21050D02*
G01X36700Y21050D01*
G01X39450Y23800D01*
G01X39450Y26600D01*
G01X23650Y21950D02*
G01X35900Y21950D01*
G01X38500Y24550D01*
G01X38500Y26550D01*
G01X38450Y26600D01*
G01X22650Y10650D02*
G01X20900Y10650D01*
G01X19950Y11600D01*
G01X23550Y22800D02*
G01X35400Y22800D01*
G01X37450Y24850D01*
G01X37450Y26600D01*
G54D12*
G01X17600Y25750D02*
G01X13250Y25750D01*
G01X12450Y26550D01*
G01X11440Y26550D01*
G54D11*
G01X11760Y3419D02*
G01X11760Y2840D01*
G01X12750Y1850D01*
G01X21950Y1850D01*
G01X24850Y4750D01*
G01X24850Y12150D01*
G01X27350Y14650D01*
G01X28650Y14650D01*
G01X11760Y3419D02*
G01X11230Y3419D01*
G01X10700Y3950D01*
G01X10700Y13550D01*
G01X9200Y15050D01*
G01X8165Y15050D01*
G01X8100Y14984D01*
G01X39489Y5980D02*
G01X39489Y13000D01*
G01X44150Y13015D02*
G01X44134Y13000D01*
G01X34150Y13000D01*
G01X32500Y14650D01*
G01X28650Y14650D01*
G01X32621Y15393D02*
G01X32621Y14552D01*
G54D14*
G01X32650Y30950D03*
G54D15*
G01X8100Y13015D03*
G54D16*
G01X8100Y14000D03*
G01X8100Y14984D03*
G54D17*
G01X22650Y17650D03*
G01X22650Y16650D03*
G01X22650Y15650D03*
G01X22650Y14650D03*
G01X22650Y13650D03*
G01X22650Y12650D03*
G01X22650Y11650D03*
G01X22650Y10650D03*
G01X22650Y9650D03*
G01X22650Y8650D03*
G01X22650Y7650D03*
G01X22650Y6650D03*
G01X22650Y5650D03*
G01X22650Y4650D03*
G01X22650Y3650D03*
G01X28650Y17650D03*
G54D18*
G01X28650Y16650D03*
G54D17*
G01X28650Y15650D03*
G01X28650Y14650D03*
G01X28650Y13650D03*
G01X28650Y12650D03*
G01X28650Y11650D03*
G01X28650Y10650D03*
G01X28650Y9650D03*
G01X28650Y8650D03*
G01X28650Y7650D03*
G01X28650Y6650D03*
G01X28650Y5650D03*
G01X28650Y4650D03*
G01X28650Y3650D03*
G54D19*
G01X19600Y25750D03*
G54D20*
G01X18600Y25750D03*
G01X17600Y25750D03*
G54D21*
G01X17600Y29950D03*
G54D22*
G01X18600Y29950D03*
G54D21*
G01X19200Y32450D03*
G54D22*
G01X20200Y32450D03*
G54D17*
G01X6550Y21500D03*
G54D18*
G01X6550Y20500D03*
G54D23*
G01X13539Y5980D03*
G01X13539Y3419D03*
G01X11760Y5980D03*
G01X11760Y3419D03*
G01X37710Y3419D03*
G01X37710Y5980D03*
G01X39489Y3419D03*
G01X39489Y5980D03*
G54D15*
G01X23651Y29749D03*
G54D16*
G01X23650Y30750D03*
G01X24650Y29750D03*
G01X24650Y30750D03*
G01X25650Y29750D03*
G01X25650Y30750D03*
G01X26650Y29750D03*
G01X26650Y30750D03*
G54D15*
G01X44150Y14984D03*
G54D16*
G01X44150Y13999D03*
G01X44150Y13015D03*
G54D24*
G01X35450Y26600D03*
G54D25*
G01X36450Y26600D03*
G01X37450Y26600D03*
G01X38450Y26600D03*
G01X39450Y26600D03*
G01X40450Y26600D03*
G01X41450Y26600D03*
G01X42450Y26600D03*
G54D13*
G01X25650Y27250D03*
G01X27500Y27250D03*
G01X25950Y24800D03*
G01X25300Y23300D03*
G01X24100Y20450D03*
G01X23650Y21050D03*
G01X23650Y21950D03*
G01X19950Y11600D03*
G01X23550Y22800D03*
G01X32621Y15393D03*
G54D26*
G01X9438Y24704D02*
G01X9911Y24704D01*
G01X9438Y26559D02*
G01X9911Y26559D01*
G01X9438Y28413D02*
G01X9911Y28413D01*
M00*
M02*
