G04 Layer: BottomSolderMaskLayer*
G04 EasyEDA v6.3.22, 2020-02-14T20:54:40+02:00*
G04 d9edcea2a32c4a158ae1cdf756d7b1fd,ef223f4ed8bc40b1a8d29c19021d4d8a,10*
G04 Gerber Generator version 0.2*
G04 Scale: 100 percent, Rotated: No, Reflected: No *
G04 Dimensions in inches *
G04 leading zeros omitted , absolute positions ,2 integer and 4 decimal *
%FSLAX24Y24*%
%MOIN*%
G90*
G70D02*

%ADD32C,0.074929*%
%ADD35C,0.078866*%
%ADD36C,0.078000*%
%ADD39C,0.071500*%
%ADD40C,0.073000*%
%ADD42C,0.082000*%
%ADD44C,0.072300*%

%LPD*%
G54D32*
G01X9438Y24704D02*
G01X9911Y24704D01*
G01X9438Y26559D02*
G01X9911Y26559D01*
G01X9438Y28413D02*
G01X9911Y28413D01*
G36*
G01X32110Y29909D02*
G01X32110Y31990D01*
G01X33189Y31990D01*
G01X33189Y29909D01*
G01X32110Y29909D01*
G37*
G36*
G01X7706Y12621D02*
G01X7706Y13409D01*
G01X8493Y13409D01*
G01X8493Y12621D01*
G01X7706Y12621D01*
G37*
G54D35*
G01X8100Y14000D03*
G01X8100Y14984D03*
G54D36*
G01X22650Y17650D03*
G01X22650Y16650D03*
G01X22650Y15650D03*
G01X22650Y14650D03*
G01X22650Y13650D03*
G01X22650Y12650D03*
G01X22650Y11650D03*
G01X22650Y10650D03*
G01X22650Y9650D03*
G01X22650Y8650D03*
G01X22650Y7650D03*
G01X22650Y6650D03*
G01X22650Y5650D03*
G01X22650Y4650D03*
G01X22650Y3650D03*
G01X28650Y17650D03*
G36*
G01X28260Y16259D02*
G01X28260Y17040D01*
G01X29039Y17040D01*
G01X29039Y16259D01*
G01X28260Y16259D01*
G37*
G01X28650Y15650D03*
G01X28650Y14650D03*
G01X28650Y13650D03*
G01X28650Y12650D03*
G01X28650Y11650D03*
G01X28650Y10650D03*
G01X28650Y9650D03*
G01X28650Y8650D03*
G01X28650Y7650D03*
G01X28650Y6650D03*
G01X28650Y5650D03*
G01X28650Y4650D03*
G01X28650Y3650D03*
G36*
G01X19243Y25392D02*
G01X19243Y26107D01*
G01X19957Y26107D01*
G01X19957Y25392D01*
G01X19243Y25392D01*
G37*
G54D39*
G01X18600Y25750D03*
G01X17600Y25750D03*
G54D40*
G01X17600Y29950D03*
G36*
G01X18235Y29584D02*
G01X18235Y30315D01*
G01X18964Y30315D01*
G01X18964Y29584D01*
G01X18235Y29584D01*
G37*
G01X19200Y32450D03*
G36*
G01X19835Y32084D02*
G01X19835Y32815D01*
G01X20564Y32815D01*
G01X20564Y32084D01*
G01X19835Y32084D01*
G37*
G54D36*
G01X6550Y21500D03*
G36*
G01X6160Y20109D02*
G01X6160Y20890D01*
G01X6939Y20890D01*
G01X6939Y20109D01*
G01X6160Y20109D01*
G37*
G54D42*
G01X13539Y5980D03*
G01X13539Y3419D03*
G01X11760Y5980D03*
G01X11760Y3419D03*
G01X37710Y3419D03*
G01X37710Y5980D03*
G01X39489Y3419D03*
G01X39489Y5980D03*
G36*
G01X23256Y29355D02*
G01X23256Y30144D01*
G01X24044Y30144D01*
G01X24044Y29355D01*
G01X23256Y29355D01*
G37*
G54D35*
G01X23650Y30750D03*
G01X24650Y29750D03*
G01X24650Y30750D03*
G01X25650Y29750D03*
G01X25650Y30750D03*
G01X26650Y29750D03*
G01X26650Y30750D03*
G36*
G01X43756Y14590D02*
G01X43756Y15378D01*
G01X44543Y15378D01*
G01X44543Y14590D01*
G01X43756Y14590D01*
G37*
G01X44150Y13999D03*
G01X44150Y13015D03*
G36*
G01X35089Y26238D02*
G01X35089Y26961D01*
G01X35811Y26961D01*
G01X35811Y26238D01*
G01X35089Y26238D01*
G37*
G54D44*
G01X36450Y26600D03*
G01X37450Y26600D03*
G01X38450Y26600D03*
G01X39450Y26600D03*
G01X40450Y26600D03*
G01X41450Y26600D03*
G01X42450Y26600D03*
M00*
M02*
