;Layer: Drill PTH
;EasyEDA v6.3.22, 2020-02-14T20:54:40+02:00
;d9edcea2a32c4a158ae1cdf756d7b1fd,ef223f4ed8bc40b1a8d29c19021d4d8a,10
;Gerber Generator version 0.2
M48
INCH,LZ,00.0000
;Holesize 1 = 0.012 INCH
T01C0.012
;Holesize 2 = 0.028 INCH
T02C0.028
;Holesize 3 = 0.036 INCH
T03C0.036
;Holesize 4 = 0.039 INCH
T04C0.039
;Holesize 5 = 0.040 INCH
T05C0.040
;Holesize 6 = 0.040 INCH
T06C0.040
;Holesize 7 = 0.042 INCH
T07C0.042
;Holesize 8 = 0.047 INCH
T08C0.047
%
G05
G90
T01
X+025650Y+027250
X+027500Y+027250
X+025950Y+024800
X+025300Y+023300
X+024100Y+020450
X+023650Y+021050
X+023650Y+021950
X+019950Y+011600
X+023550Y+022800
X+032621Y+015393
T02
X+017600Y+029950
X+018600Y+029950
X+019200Y+032450
X+020200Y+032450
T03
X+022650Y+017650
X+022650Y+016650
X+022650Y+015650
X+022650Y+014650
X+022650Y+013650
X+022650Y+012650
X+022650Y+011650
X+022650Y+010650
X+022650Y+009650
X+022650Y+008650
X+022650Y+007650
X+022650Y+006650
X+022650Y+005650
X+022650Y+004650
X+022650Y+003650
X+028650Y+017650
X+028650Y+016650
X+028650Y+015650
X+028650Y+014650
X+028650Y+013650
X+028650Y+012650
X+028650Y+011650
X+028650Y+010650
X+028650Y+009650
X+028650Y+008650
X+028650Y+007650
X+028650Y+006650
X+028650Y+005650
X+028650Y+004650
X+028650Y+003650
T04
X+009438Y+024704G85X+009911Y+024704
X+009438Y+026559G85X+009911Y+026559
X+009438Y+028413G85X+009911Y+028413
T05
X+032650Y+030959G85X+032650Y+030940
X+008110Y+013015G85X+008089Y+013015
X+008110Y+013999G85X+008089Y+013999
X+008110Y+014984G85X+008089Y+014984
X+006550Y+021500
X+006550Y+020500
X+013539Y+005980
X+013539Y+003419
X+011760Y+005980
X+011760Y+003419
X+037710Y+003419
X+037710Y+005980
X+039489Y+003419
X+039489Y+005980
X+044139Y+014984G85X+044160Y+014984
X+044139Y+014000G85X+044160Y+014000
X+044139Y+013015G85X+044160Y+013015
T06
X+035450Y+026600
X+036450Y+026600
X+037450Y+026600
X+038450Y+026600
X+039450Y+026600
X+040450Y+026600
X+041450Y+026600
X+042450Y+026600
T07
X+019600Y+025750
X+018600Y+025750
X+017600Y+025750
T08
X+023651Y+029749
X+023650Y+030750
X+024650Y+029750
X+024650Y+030750
X+025650Y+029750
X+025650Y+030750
X+026650Y+029750
X+026650Y+030750
M30
