G04 Layer: BottomLayer*
G04 EasyEDA v6.3.22, 2020-02-14T20:54:40+02:00*
G04 d9edcea2a32c4a158ae1cdf756d7b1fd,ef223f4ed8bc40b1a8d29c19021d4d8a,10*
G04 Gerber Generator version 0.2*
G04 Scale: 100 percent, Rotated: No, Reflected: No *
G04 Dimensions in inches *
G04 leading zeros omitted , absolute positions ,2 integer and 4 decimal *
%FSLAX24Y24*%
%MOIN*%
G90*
G70D02*

%ADD11C,0.015000*%
%ADD13C,0.024000*%
%ADD14R,0.100000X0.200000*%
%ADD15R,0.070866X0.070866*%
%ADD16C,0.070866*%
%ADD17C,0.070000*%
%ADD18R,0.070000X0.070000*%
%ADD19R,0.063500X0.063500*%
%ADD20C,0.063500*%
%ADD21C,0.065000*%
%ADD22R,0.065000X0.065000*%
%ADD23C,0.074000*%
%ADD24R,0.064300X0.064300*%
%ADD25C,0.064300*%
%ADD26C,0.066929*%

%LPD*%
G36*
G01X52114Y33898D02*
G01X135Y33898D01*
G01X129Y33897D01*
G01X124Y33895D01*
G01X114Y33889D01*
G01X110Y33885D01*
G01X104Y33875D01*
G01X102Y33870D01*
G01X101Y33864D01*
G01X101Y135D01*
G01X102Y129D01*
G01X104Y124D01*
G01X110Y114D01*
G01X114Y110D01*
G01X124Y104D01*
G01X129Y102D01*
G01X135Y101D01*
G01X52114Y101D01*
G01X52120Y102D01*
G01X52125Y104D01*
G01X52135Y110D01*
G01X52139Y114D01*
G01X52145Y124D01*
G01X52147Y129D01*
G01X52148Y135D01*
G01X52148Y33864D01*
G01X52147Y33870D01*
G01X52145Y33875D01*
G01X52139Y33885D01*
G01X52135Y33889D01*
G01X52125Y33895D01*
G01X52120Y33897D01*
G01X52114Y33898D01*
G37*

%LPC*%
G36*
G01X22688Y12099D02*
G01X22650Y12101D01*
G01X22630Y12100D01*
G01X22611Y12099D01*
G01X22592Y12097D01*
G01X22572Y12094D01*
G01X22553Y12090D01*
G01X22535Y12086D01*
G01X22516Y12080D01*
G01X22498Y12074D01*
G01X22462Y12060D01*
G01X22444Y12051D01*
G01X22427Y12042D01*
G01X22411Y12032D01*
G01X22379Y12010D01*
G01X22349Y11986D01*
G01X22335Y11973D01*
G01X22321Y11959D01*
G01X22308Y11944D01*
G01X22296Y11930D01*
G01X22284Y11914D01*
G01X22273Y11898D01*
G01X22263Y11882D01*
G01X22253Y11865D01*
G01X22244Y11848D01*
G01X22241Y11842D01*
G01X22232Y11833D01*
G01X22227Y11830D01*
G01X22215Y11826D01*
G01X21800Y11826D01*
G01X21787Y11825D01*
G01X21775Y11824D01*
G01X21762Y11821D01*
G01X21738Y11815D01*
G01X21726Y11809D01*
G01X21715Y11804D01*
G01X21704Y11798D01*
G01X21684Y11782D01*
G01X21675Y11774D01*
G01X19725Y9824D01*
G01X19717Y9815D01*
G01X19709Y9805D01*
G01X19702Y9795D01*
G01X19695Y9784D01*
G01X19689Y9773D01*
G01X19677Y9737D01*
G01X19675Y9725D01*
G01X19674Y9712D01*
G01X19673Y9700D01*
G01X19673Y4000D01*
G01X19674Y3987D01*
G01X19675Y3975D01*
G01X19677Y3962D01*
G01X19689Y3926D01*
G01X19695Y3915D01*
G01X19702Y3904D01*
G01X19709Y3894D01*
G01X19717Y3884D01*
G01X19725Y3875D01*
G01X20925Y2675D01*
G01X20934Y2667D01*
G01X20954Y2651D01*
G01X20965Y2645D01*
G01X20976Y2640D01*
G01X20988Y2634D01*
G01X21012Y2628D01*
G01X21025Y2625D01*
G01X21037Y2624D01*
G01X21050Y2623D01*
G01X32250Y2623D01*
G01X32262Y2624D01*
G01X32275Y2625D01*
G01X32311Y2634D01*
G01X32323Y2640D01*
G01X32334Y2645D01*
G01X32345Y2651D01*
G01X32365Y2667D01*
G01X32374Y2675D01*
G01X32935Y3236D01*
G01X32947Y3242D01*
G01X32959Y3244D01*
G01X37246Y3244D01*
G01X37252Y3243D01*
G01X37257Y3242D01*
G01X37263Y3240D01*
G01X37268Y3237D01*
G01X37272Y3234D01*
G01X37277Y3230D01*
G01X37280Y3225D01*
G01X37283Y3221D01*
G01X37291Y3203D01*
G01X37301Y3185D01*
G01X37311Y3168D01*
G01X37322Y3152D01*
G01X37346Y3120D01*
G01X37359Y3105D01*
G01X37372Y3091D01*
G01X37386Y3077D01*
G01X37416Y3051D01*
G01X37432Y3039D01*
G01X37448Y3028D01*
G01X37465Y3017D01*
G01X37482Y3007D01*
G01X37500Y2998D01*
G01X37517Y2990D01*
G01X37536Y2982D01*
G01X37554Y2975D01*
G01X37592Y2963D01*
G01X37611Y2959D01*
G01X37631Y2955D01*
G01X37650Y2952D01*
G01X37670Y2950D01*
G01X37710Y2948D01*
G01X37748Y2950D01*
G01X37768Y2952D01*
G01X37787Y2955D01*
G01X37825Y2963D01*
G01X37844Y2968D01*
G01X37863Y2974D01*
G01X37899Y2988D01*
G01X37916Y2996D01*
G01X37934Y3005D01*
G01X37951Y3015D01*
G01X37967Y3025D01*
G01X37983Y3036D01*
G01X37999Y3048D01*
G01X38014Y3060D01*
G01X38029Y3073D01*
G01X38043Y3086D01*
G01X38056Y3101D01*
G01X38069Y3115D01*
G01X38081Y3130D01*
G01X38093Y3146D01*
G01X38104Y3162D01*
G01X38114Y3178D01*
G01X38124Y3195D01*
G01X38133Y3213D01*
G01X38141Y3230D01*
G01X38148Y3248D01*
G01X38155Y3267D01*
G01X38161Y3285D01*
G01X38171Y3323D01*
G01X38177Y3361D01*
G01X38179Y3381D01*
G01X38181Y3419D01*
G01X38180Y3439D01*
G01X38179Y3458D01*
G01X38177Y3478D01*
G01X38171Y3516D01*
G01X38161Y3554D01*
G01X38155Y3573D01*
G01X38141Y3609D01*
G01X38133Y3626D01*
G01X38124Y3644D01*
G01X38114Y3661D01*
G01X38104Y3677D01*
G01X38093Y3693D01*
G01X38081Y3709D01*
G01X38069Y3724D01*
G01X38056Y3738D01*
G01X38043Y3753D01*
G01X38029Y3766D01*
G01X38014Y3779D01*
G01X37999Y3791D01*
G01X37983Y3803D01*
G01X37967Y3814D01*
G01X37951Y3824D01*
G01X37934Y3834D01*
G01X37916Y3843D01*
G01X37899Y3851D01*
G01X37863Y3865D01*
G01X37844Y3871D01*
G01X37825Y3876D01*
G01X37787Y3884D01*
G01X37768Y3887D01*
G01X37748Y3889D01*
G01X37729Y3890D01*
G01X37690Y3890D01*
G01X37670Y3889D01*
G01X37650Y3887D01*
G01X37631Y3884D01*
G01X37611Y3880D01*
G01X37592Y3876D01*
G01X37554Y3864D01*
G01X37536Y3857D01*
G01X37517Y3850D01*
G01X37500Y3841D01*
G01X37482Y3832D01*
G01X37465Y3822D01*
G01X37448Y3811D01*
G01X37432Y3800D01*
G01X37416Y3788D01*
G01X37386Y3762D01*
G01X37372Y3748D01*
G01X37359Y3734D01*
G01X37346Y3719D01*
G01X37322Y3687D01*
G01X37311Y3671D01*
G01X37301Y3654D01*
G01X37291Y3636D01*
G01X37283Y3619D01*
G01X37277Y3609D01*
G01X37272Y3605D01*
G01X37268Y3602D01*
G01X37263Y3599D01*
G01X37257Y3597D01*
G01X37252Y3596D01*
G01X32869Y3596D01*
G01X32857Y3595D01*
G01X32844Y3594D01*
G01X32832Y3592D01*
G01X32796Y3580D01*
G01X32785Y3574D01*
G01X32774Y3567D01*
G01X32754Y3553D01*
G01X32184Y2983D01*
G01X32178Y2980D01*
G01X32166Y2976D01*
G01X21133Y2976D01*
G01X21121Y2980D01*
G01X21115Y2983D01*
G01X20033Y4065D01*
G01X20027Y4077D01*
G01X20026Y4083D01*
G01X20026Y9616D01*
G01X20027Y9622D01*
G01X20033Y9634D01*
G01X21865Y11466D01*
G01X21871Y11469D01*
G01X21883Y11473D01*
G01X22215Y11473D01*
G01X22227Y11469D01*
G01X22232Y11466D01*
G01X22241Y11457D01*
G01X22244Y11451D01*
G01X22253Y11434D01*
G01X22263Y11417D01*
G01X22273Y11401D01*
G01X22284Y11385D01*
G01X22296Y11369D01*
G01X22308Y11355D01*
G01X22321Y11340D01*
G01X22335Y11326D01*
G01X22349Y11313D01*
G01X22379Y11289D01*
G01X22411Y11267D01*
G01X22427Y11257D01*
G01X22444Y11248D01*
G01X22462Y11239D01*
G01X22498Y11225D01*
G01X22516Y11219D01*
G01X22535Y11213D01*
G01X22553Y11209D01*
G01X22572Y11205D01*
G01X22592Y11202D01*
G01X22611Y11200D01*
G01X22630Y11199D01*
G01X22650Y11198D01*
G01X22688Y11200D01*
G01X22707Y11202D01*
G01X22726Y11205D01*
G01X22744Y11209D01*
G01X22763Y11213D01*
G01X22781Y11218D01*
G01X22800Y11224D01*
G01X22818Y11231D01*
G01X22835Y11238D01*
G01X22886Y11265D01*
G01X22918Y11287D01*
G01X22933Y11299D01*
G01X22947Y11311D01*
G01X22961Y11324D01*
G01X22988Y11351D01*
G01X23012Y11381D01*
G01X23034Y11413D01*
G01X23043Y11430D01*
G01X23052Y11446D01*
G01X23060Y11464D01*
G01X23068Y11481D01*
G01X23075Y11499D01*
G01X23081Y11517D01*
G01X23086Y11536D01*
G01X23090Y11555D01*
G01X23094Y11573D01*
G01X23097Y11592D01*
G01X23099Y11611D01*
G01X23100Y11630D01*
G01X23101Y11650D01*
G01X23099Y11688D01*
G01X23097Y11707D01*
G01X23094Y11726D01*
G01X23090Y11744D01*
G01X23086Y11763D01*
G01X23081Y11782D01*
G01X23075Y11800D01*
G01X23068Y11818D01*
G01X23060Y11835D01*
G01X23052Y11853D01*
G01X23043Y11869D01*
G01X23034Y11886D01*
G01X23012Y11918D01*
G01X22988Y11948D01*
G01X22961Y11975D01*
G01X22947Y11988D01*
G01X22933Y12000D01*
G01X22918Y12012D01*
G01X22886Y12034D01*
G01X22835Y12061D01*
G01X22818Y12068D01*
G01X22800Y12075D01*
G01X22781Y12081D01*
G01X22763Y12086D01*
G01X22744Y12090D01*
G01X22726Y12094D01*
G01X22707Y12097D01*
G01X22688Y12099D01*
G37*
G36*
G01X13559Y3890D02*
G01X13520Y3890D01*
G01X13501Y3889D01*
G01X13481Y3887D01*
G01X13462Y3884D01*
G01X13424Y3876D01*
G01X13405Y3871D01*
G01X13386Y3865D01*
G01X13350Y3851D01*
G01X13333Y3843D01*
G01X13315Y3834D01*
G01X13298Y3824D01*
G01X13282Y3814D01*
G01X13266Y3803D01*
G01X13250Y3791D01*
G01X13235Y3779D01*
G01X13221Y3766D01*
G01X13206Y3753D01*
G01X13193Y3738D01*
G01X13180Y3724D01*
G01X13168Y3709D01*
G01X13156Y3693D01*
G01X13145Y3677D01*
G01X13135Y3661D01*
G01X13125Y3644D01*
G01X13116Y3626D01*
G01X13108Y3609D01*
G01X13094Y3573D01*
G01X13088Y3554D01*
G01X13078Y3516D01*
G01X13072Y3478D01*
G01X13070Y3458D01*
G01X13069Y3439D01*
G01X13068Y3419D01*
G01X13070Y3381D01*
G01X13072Y3361D01*
G01X13078Y3323D01*
G01X13088Y3285D01*
G01X13094Y3267D01*
G01X13101Y3248D01*
G01X13108Y3230D01*
G01X13116Y3213D01*
G01X13125Y3195D01*
G01X13135Y3178D01*
G01X13145Y3162D01*
G01X13156Y3146D01*
G01X13168Y3130D01*
G01X13180Y3115D01*
G01X13193Y3101D01*
G01X13206Y3086D01*
G01X13221Y3073D01*
G01X13235Y3060D01*
G01X13250Y3048D01*
G01X13266Y3036D01*
G01X13282Y3025D01*
G01X13298Y3015D01*
G01X13315Y3005D01*
G01X13333Y2996D01*
G01X13350Y2988D01*
G01X13386Y2974D01*
G01X13405Y2968D01*
G01X13424Y2963D01*
G01X13462Y2955D01*
G01X13481Y2952D01*
G01X13501Y2950D01*
G01X13539Y2948D01*
G01X13559Y2949D01*
G01X13578Y2950D01*
G01X13598Y2952D01*
G01X13617Y2955D01*
G01X13655Y2963D01*
G01X13674Y2968D01*
G01X13693Y2974D01*
G01X13729Y2988D01*
G01X13746Y2996D01*
G01X13764Y3005D01*
G01X13781Y3015D01*
G01X13797Y3025D01*
G01X13813Y3036D01*
G01X13829Y3048D01*
G01X13844Y3060D01*
G01X13859Y3073D01*
G01X13872Y3086D01*
G01X13886Y3101D01*
G01X13899Y3115D01*
G01X13911Y3130D01*
G01X13923Y3146D01*
G01X13934Y3162D01*
G01X13944Y3178D01*
G01X13954Y3195D01*
G01X13963Y3213D01*
G01X13971Y3230D01*
G01X13978Y3248D01*
G01X13985Y3267D01*
G01X13991Y3285D01*
G01X14001Y3323D01*
G01X14007Y3361D01*
G01X14009Y3381D01*
G01X14010Y3400D01*
G01X14010Y3439D01*
G01X14009Y3458D01*
G01X14007Y3478D01*
G01X14001Y3516D01*
G01X13991Y3554D01*
G01X13985Y3573D01*
G01X13971Y3609D01*
G01X13963Y3626D01*
G01X13954Y3644D01*
G01X13944Y3661D01*
G01X13934Y3677D01*
G01X13923Y3693D01*
G01X13911Y3709D01*
G01X13899Y3724D01*
G01X13886Y3738D01*
G01X13872Y3753D01*
G01X13859Y3766D01*
G01X13844Y3779D01*
G01X13829Y3791D01*
G01X13813Y3803D01*
G01X13797Y3814D01*
G01X13781Y3824D01*
G01X13764Y3834D01*
G01X13746Y3843D01*
G01X13729Y3851D01*
G01X13693Y3865D01*
G01X13674Y3871D01*
G01X13655Y3876D01*
G01X13617Y3884D01*
G01X13598Y3887D01*
G01X13578Y3889D01*
G01X13559Y3890D01*
G37*
G36*
G01X11779Y3890D02*
G01X11740Y3890D01*
G01X11721Y3889D01*
G01X11701Y3887D01*
G01X11682Y3884D01*
G01X11644Y3876D01*
G01X11625Y3871D01*
G01X11606Y3865D01*
G01X11570Y3851D01*
G01X11553Y3843D01*
G01X11535Y3834D01*
G01X11518Y3824D01*
G01X11502Y3814D01*
G01X11486Y3803D01*
G01X11470Y3791D01*
G01X11455Y3779D01*
G01X11440Y3766D01*
G01X11427Y3753D01*
G01X11413Y3738D01*
G01X11400Y3724D01*
G01X11388Y3709D01*
G01X11376Y3693D01*
G01X11365Y3677D01*
G01X11355Y3661D01*
G01X11345Y3644D01*
G01X11336Y3626D01*
G01X11328Y3609D01*
G01X11314Y3573D01*
G01X11308Y3554D01*
G01X11298Y3516D01*
G01X11292Y3478D01*
G01X11290Y3458D01*
G01X11289Y3439D01*
G01X11289Y3400D01*
G01X11290Y3381D01*
G01X11292Y3361D01*
G01X11298Y3323D01*
G01X11308Y3285D01*
G01X11314Y3267D01*
G01X11321Y3248D01*
G01X11328Y3230D01*
G01X11336Y3213D01*
G01X11345Y3195D01*
G01X11355Y3178D01*
G01X11365Y3162D01*
G01X11376Y3146D01*
G01X11388Y3130D01*
G01X11400Y3115D01*
G01X11413Y3101D01*
G01X11427Y3086D01*
G01X11440Y3073D01*
G01X11455Y3060D01*
G01X11470Y3048D01*
G01X11486Y3036D01*
G01X11502Y3025D01*
G01X11518Y3015D01*
G01X11535Y3005D01*
G01X11553Y2996D01*
G01X11570Y2988D01*
G01X11606Y2974D01*
G01X11625Y2968D01*
G01X11644Y2963D01*
G01X11682Y2955D01*
G01X11701Y2952D01*
G01X11721Y2950D01*
G01X11740Y2949D01*
G01X11760Y2948D01*
G01X11798Y2950D01*
G01X11818Y2952D01*
G01X11837Y2955D01*
G01X11875Y2963D01*
G01X11894Y2968D01*
G01X11913Y2974D01*
G01X11949Y2988D01*
G01X11966Y2996D01*
G01X11984Y3005D01*
G01X12001Y3015D01*
G01X12017Y3025D01*
G01X12033Y3036D01*
G01X12049Y3048D01*
G01X12064Y3060D01*
G01X12078Y3073D01*
G01X12093Y3086D01*
G01X12106Y3101D01*
G01X12119Y3115D01*
G01X12131Y3130D01*
G01X12143Y3146D01*
G01X12154Y3162D01*
G01X12164Y3178D01*
G01X12174Y3195D01*
G01X12183Y3213D01*
G01X12191Y3230D01*
G01X12198Y3248D01*
G01X12205Y3267D01*
G01X12211Y3285D01*
G01X12221Y3323D01*
G01X12227Y3361D01*
G01X12229Y3381D01*
G01X12231Y3419D01*
G01X12230Y3439D01*
G01X12229Y3458D01*
G01X12227Y3478D01*
G01X12221Y3516D01*
G01X12211Y3554D01*
G01X12205Y3573D01*
G01X12191Y3609D01*
G01X12183Y3626D01*
G01X12174Y3644D01*
G01X12164Y3661D01*
G01X12154Y3677D01*
G01X12143Y3693D01*
G01X12131Y3709D01*
G01X12119Y3724D01*
G01X12106Y3738D01*
G01X12093Y3753D01*
G01X12078Y3766D01*
G01X12064Y3779D01*
G01X12049Y3791D01*
G01X12033Y3803D01*
G01X12017Y3814D01*
G01X12001Y3824D01*
G01X11984Y3834D01*
G01X11966Y3843D01*
G01X11949Y3851D01*
G01X11913Y3865D01*
G01X11894Y3871D01*
G01X11875Y3876D01*
G01X11837Y3884D01*
G01X11818Y3887D01*
G01X11798Y3889D01*
G01X11779Y3890D01*
G37*
G36*
G01X39509Y3890D02*
G01X39470Y3890D01*
G01X39451Y3889D01*
G01X39431Y3887D01*
G01X39412Y3884D01*
G01X39374Y3876D01*
G01X39355Y3871D01*
G01X39336Y3865D01*
G01X39300Y3851D01*
G01X39283Y3843D01*
G01X39265Y3834D01*
G01X39248Y3824D01*
G01X39232Y3814D01*
G01X39216Y3803D01*
G01X39200Y3791D01*
G01X39185Y3779D01*
G01X39171Y3766D01*
G01X39156Y3753D01*
G01X39143Y3738D01*
G01X39130Y3724D01*
G01X39118Y3709D01*
G01X39106Y3693D01*
G01X39095Y3677D01*
G01X39085Y3661D01*
G01X39075Y3644D01*
G01X39066Y3626D01*
G01X39058Y3609D01*
G01X39044Y3573D01*
G01X39038Y3554D01*
G01X39033Y3535D01*
G01X39025Y3497D01*
G01X39022Y3478D01*
G01X39020Y3458D01*
G01X39019Y3439D01*
G01X39018Y3419D01*
G01X39020Y3381D01*
G01X39022Y3361D01*
G01X39025Y3342D01*
G01X39033Y3304D01*
G01X39038Y3285D01*
G01X39044Y3267D01*
G01X39051Y3248D01*
G01X39058Y3230D01*
G01X39066Y3213D01*
G01X39075Y3195D01*
G01X39085Y3178D01*
G01X39095Y3162D01*
G01X39106Y3146D01*
G01X39118Y3130D01*
G01X39130Y3115D01*
G01X39143Y3101D01*
G01X39156Y3086D01*
G01X39171Y3073D01*
G01X39185Y3060D01*
G01X39200Y3048D01*
G01X39216Y3036D01*
G01X39232Y3025D01*
G01X39248Y3015D01*
G01X39265Y3005D01*
G01X39283Y2996D01*
G01X39300Y2988D01*
G01X39336Y2974D01*
G01X39355Y2968D01*
G01X39374Y2963D01*
G01X39412Y2955D01*
G01X39431Y2952D01*
G01X39451Y2950D01*
G01X39489Y2948D01*
G01X39509Y2949D01*
G01X39528Y2950D01*
G01X39548Y2952D01*
G01X39567Y2955D01*
G01X39605Y2963D01*
G01X39624Y2968D01*
G01X39643Y2974D01*
G01X39679Y2988D01*
G01X39696Y2996D01*
G01X39714Y3005D01*
G01X39731Y3015D01*
G01X39747Y3025D01*
G01X39763Y3036D01*
G01X39779Y3048D01*
G01X39794Y3060D01*
G01X39809Y3073D01*
G01X39822Y3086D01*
G01X39836Y3101D01*
G01X39849Y3115D01*
G01X39861Y3130D01*
G01X39873Y3146D01*
G01X39884Y3162D01*
G01X39894Y3178D01*
G01X39904Y3195D01*
G01X39913Y3213D01*
G01X39921Y3230D01*
G01X39928Y3248D01*
G01X39935Y3267D01*
G01X39941Y3285D01*
G01X39951Y3323D01*
G01X39957Y3361D01*
G01X39959Y3381D01*
G01X39960Y3400D01*
G01X39960Y3439D01*
G01X39959Y3458D01*
G01X39957Y3478D01*
G01X39951Y3516D01*
G01X39941Y3554D01*
G01X39935Y3573D01*
G01X39921Y3609D01*
G01X39913Y3626D01*
G01X39904Y3644D01*
G01X39894Y3661D01*
G01X39884Y3677D01*
G01X39873Y3693D01*
G01X39861Y3709D01*
G01X39849Y3724D01*
G01X39836Y3738D01*
G01X39822Y3753D01*
G01X39809Y3766D01*
G01X39794Y3779D01*
G01X39779Y3791D01*
G01X39763Y3803D01*
G01X39747Y3814D01*
G01X39731Y3824D01*
G01X39714Y3834D01*
G01X39696Y3843D01*
G01X39679Y3851D01*
G01X39643Y3865D01*
G01X39624Y3871D01*
G01X39605Y3876D01*
G01X39567Y3884D01*
G01X39548Y3887D01*
G01X39528Y3889D01*
G01X39509Y3890D01*
G37*
G36*
G01X27526Y27469D02*
G01X27500Y27471D01*
G01X27486Y27470D01*
G01X27473Y27469D01*
G01X27460Y27467D01*
G01X27434Y27461D01*
G01X27421Y27456D01*
G01X27409Y27451D01*
G01X27385Y27439D01*
G01X27363Y27423D01*
G01X27353Y27415D01*
G01X27343Y27406D01*
G01X27334Y27396D01*
G01X27326Y27386D01*
G01X27310Y27364D01*
G01X27298Y27340D01*
G01X27293Y27328D01*
G01X27285Y27302D01*
G01X27282Y27289D01*
G01X27280Y27276D01*
G01X27278Y27250D01*
G01X27279Y27235D01*
G01X27281Y27220D01*
G01X27283Y27206D01*
G01X27286Y27192D01*
G01X27290Y27178D01*
G01X27296Y27164D01*
G01X27302Y27151D01*
G01X27309Y27138D01*
G01X27317Y27126D01*
G01X27319Y27120D01*
G01X27322Y27115D01*
G01X27323Y27109D01*
G01X27323Y4250D01*
G01X27324Y4237D01*
G01X27325Y4225D01*
G01X27327Y4212D01*
G01X27339Y4176D01*
G01X27345Y4165D01*
G01X27352Y4154D01*
G01X27359Y4144D01*
G01X27367Y4134D01*
G01X27375Y4125D01*
G01X27975Y3525D01*
G01X27984Y3517D01*
G01X28004Y3501D01*
G01X28015Y3495D01*
G01X28026Y3490D01*
G01X28038Y3484D01*
G01X28062Y3478D01*
G01X28075Y3475D01*
G01X28087Y3474D01*
G01X28100Y3473D01*
G01X28215Y3473D01*
G01X28227Y3469D01*
G01X28232Y3466D01*
G01X28241Y3457D01*
G01X28244Y3451D01*
G01X28253Y3434D01*
G01X28263Y3417D01*
G01X28273Y3401D01*
G01X28284Y3385D01*
G01X28296Y3369D01*
G01X28308Y3355D01*
G01X28321Y3340D01*
G01X28335Y3326D01*
G01X28349Y3313D01*
G01X28379Y3289D01*
G01X28411Y3267D01*
G01X28427Y3257D01*
G01X28444Y3248D01*
G01X28462Y3239D01*
G01X28498Y3225D01*
G01X28516Y3219D01*
G01X28535Y3213D01*
G01X28553Y3209D01*
G01X28572Y3205D01*
G01X28592Y3202D01*
G01X28611Y3200D01*
G01X28630Y3199D01*
G01X28650Y3198D01*
G01X28688Y3200D01*
G01X28707Y3202D01*
G01X28726Y3205D01*
G01X28744Y3209D01*
G01X28763Y3213D01*
G01X28781Y3218D01*
G01X28800Y3224D01*
G01X28818Y3231D01*
G01X28835Y3238D01*
G01X28886Y3265D01*
G01X28918Y3287D01*
G01X28933Y3299D01*
G01X28947Y3311D01*
G01X28961Y3324D01*
G01X28988Y3351D01*
G01X29012Y3381D01*
G01X29034Y3413D01*
G01X29043Y3430D01*
G01X29052Y3446D01*
G01X29060Y3464D01*
G01X29068Y3481D01*
G01X29075Y3499D01*
G01X29081Y3517D01*
G01X29086Y3536D01*
G01X29090Y3555D01*
G01X29094Y3573D01*
G01X29097Y3592D01*
G01X29099Y3611D01*
G01X29100Y3630D01*
G01X29101Y3650D01*
G01X29099Y3688D01*
G01X29097Y3707D01*
G01X29094Y3726D01*
G01X29090Y3744D01*
G01X29086Y3763D01*
G01X29081Y3782D01*
G01X29075Y3800D01*
G01X29068Y3818D01*
G01X29060Y3835D01*
G01X29052Y3853D01*
G01X29043Y3869D01*
G01X29034Y3886D01*
G01X29012Y3918D01*
G01X28988Y3948D01*
G01X28961Y3975D01*
G01X28947Y3988D01*
G01X28933Y4000D01*
G01X28918Y4012D01*
G01X28886Y4034D01*
G01X28835Y4061D01*
G01X28818Y4068D01*
G01X28800Y4075D01*
G01X28781Y4081D01*
G01X28763Y4086D01*
G01X28744Y4090D01*
G01X28726Y4094D01*
G01X28707Y4097D01*
G01X28688Y4099D01*
G01X28650Y4101D01*
G01X28630Y4100D01*
G01X28611Y4099D01*
G01X28592Y4097D01*
G01X28572Y4094D01*
G01X28553Y4090D01*
G01X28535Y4086D01*
G01X28516Y4080D01*
G01X28498Y4074D01*
G01X28462Y4060D01*
G01X28444Y4051D01*
G01X28427Y4042D01*
G01X28411Y4032D01*
G01X28379Y4010D01*
G01X28349Y3986D01*
G01X28335Y3973D01*
G01X28321Y3959D01*
G01X28308Y3944D01*
G01X28296Y3930D01*
G01X28284Y3914D01*
G01X28273Y3898D01*
G01X28263Y3882D01*
G01X28253Y3865D01*
G01X28244Y3848D01*
G01X28241Y3842D01*
G01X28232Y3833D01*
G01X28227Y3830D01*
G01X28215Y3826D01*
G01X28183Y3826D01*
G01X28171Y3830D01*
G01X28165Y3833D01*
G01X27683Y4315D01*
G01X27677Y4327D01*
G01X27676Y4333D01*
G01X27676Y27109D01*
G01X27677Y27115D01*
G01X27680Y27120D01*
G01X27682Y27126D01*
G01X27690Y27138D01*
G01X27697Y27151D01*
G01X27703Y27164D01*
G01X27709Y27178D01*
G01X27713Y27192D01*
G01X27716Y27206D01*
G01X27718Y27220D01*
G01X27720Y27235D01*
G01X27721Y27250D01*
G01X27719Y27276D01*
G01X27717Y27289D01*
G01X27714Y27302D01*
G01X27706Y27328D01*
G01X27701Y27340D01*
G01X27689Y27364D01*
G01X27673Y27386D01*
G01X27665Y27396D01*
G01X27656Y27406D01*
G01X27646Y27415D01*
G01X27636Y27423D01*
G01X27614Y27439D01*
G01X27590Y27451D01*
G01X27578Y27456D01*
G01X27565Y27461D01*
G01X27539Y27467D01*
G01X27526Y27469D01*
G37*
G36*
G01X26669Y30205D02*
G01X26630Y30205D01*
G01X26611Y30204D01*
G01X26592Y30202D01*
G01X26572Y30199D01*
G01X26553Y30195D01*
G01X26535Y30191D01*
G01X26516Y30185D01*
G01X26480Y30173D01*
G01X26444Y30157D01*
G01X26427Y30148D01*
G01X26411Y30138D01*
G01X26394Y30127D01*
G01X26379Y30116D01*
G01X26349Y30092D01*
G01X26335Y30079D01*
G01X26321Y30065D01*
G01X26308Y30051D01*
G01X26295Y30036D01*
G01X26284Y30021D01*
G01X26272Y30005D01*
G01X26262Y29989D01*
G01X26252Y29972D01*
G01X26243Y29955D01*
G01X26235Y29938D01*
G01X26227Y29920D01*
G01X26220Y29902D01*
G01X26214Y29883D01*
G01X26209Y29865D01*
G01X26204Y29846D01*
G01X26198Y29808D01*
G01X26196Y29789D01*
G01X26194Y29769D01*
G01X26194Y29730D01*
G01X26196Y29711D01*
G01X26198Y29691D01*
G01X26201Y29672D01*
G01X26209Y29634D01*
G01X26221Y29596D01*
G01X26228Y29578D01*
G01X26244Y29542D01*
G01X26264Y29508D01*
G01X26286Y29476D01*
G01X26298Y29461D01*
G01X26324Y29431D01*
G01X26338Y29418D01*
G01X26368Y29392D01*
G01X26384Y29380D01*
G01X26400Y29369D01*
G01X26434Y29349D01*
G01X26451Y29340D01*
G01X26456Y29337D01*
G01X26461Y29333D01*
G01X26469Y29323D01*
G01X26472Y29317D01*
G01X26473Y29311D01*
G01X26473Y7733D01*
G01X26472Y7726D01*
G01X26469Y7721D01*
G01X26466Y7715D01*
G01X22837Y4086D01*
G01X22827Y4078D01*
G01X22821Y4076D01*
G01X22809Y4074D01*
G01X22802Y4075D01*
G01X22796Y4076D01*
G01X22775Y4082D01*
G01X22755Y4088D01*
G01X22713Y4096D01*
G01X22671Y4100D01*
G01X22650Y4101D01*
G01X22630Y4100D01*
G01X22611Y4099D01*
G01X22592Y4097D01*
G01X22573Y4094D01*
G01X22555Y4090D01*
G01X22536Y4086D01*
G01X22518Y4081D01*
G01X22499Y4075D01*
G01X22481Y4068D01*
G01X22464Y4061D01*
G01X22413Y4034D01*
G01X22381Y4012D01*
G01X22366Y4000D01*
G01X22352Y3988D01*
G01X22338Y3975D01*
G01X22311Y3948D01*
G01X22287Y3918D01*
G01X22265Y3886D01*
G01X22256Y3869D01*
G01X22247Y3853D01*
G01X22239Y3835D01*
G01X22231Y3818D01*
G01X22224Y3800D01*
G01X22218Y3782D01*
G01X22213Y3763D01*
G01X22209Y3744D01*
G01X22205Y3726D01*
G01X22202Y3707D01*
G01X22200Y3688D01*
G01X22198Y3650D01*
G01X22199Y3630D01*
G01X22200Y3611D01*
G01X22202Y3592D01*
G01X22205Y3573D01*
G01X22209Y3555D01*
G01X22213Y3536D01*
G01X22218Y3517D01*
G01X22224Y3499D01*
G01X22231Y3481D01*
G01X22239Y3464D01*
G01X22247Y3446D01*
G01X22256Y3430D01*
G01X22265Y3413D01*
G01X22287Y3381D01*
G01X22311Y3351D01*
G01X22338Y3324D01*
G01X22352Y3311D01*
G01X22366Y3299D01*
G01X22381Y3287D01*
G01X22413Y3265D01*
G01X22464Y3238D01*
G01X22481Y3231D01*
G01X22499Y3224D01*
G01X22518Y3218D01*
G01X22536Y3213D01*
G01X22555Y3209D01*
G01X22573Y3205D01*
G01X22592Y3202D01*
G01X22611Y3200D01*
G01X22630Y3199D01*
G01X22650Y3198D01*
G01X22688Y3200D01*
G01X22707Y3202D01*
G01X22726Y3205D01*
G01X22744Y3209D01*
G01X22763Y3213D01*
G01X22781Y3218D01*
G01X22800Y3224D01*
G01X22818Y3231D01*
G01X22835Y3238D01*
G01X22886Y3265D01*
G01X22918Y3287D01*
G01X22933Y3299D01*
G01X22947Y3311D01*
G01X22961Y3324D01*
G01X22988Y3351D01*
G01X23012Y3381D01*
G01X23034Y3413D01*
G01X23043Y3430D01*
G01X23052Y3446D01*
G01X23060Y3464D01*
G01X23068Y3481D01*
G01X23075Y3499D01*
G01X23081Y3517D01*
G01X23086Y3536D01*
G01X23090Y3555D01*
G01X23094Y3573D01*
G01X23097Y3592D01*
G01X23099Y3611D01*
G01X23100Y3630D01*
G01X23101Y3650D01*
G01X23100Y3671D01*
G01X23096Y3713D01*
G01X23093Y3734D01*
G01X23088Y3755D01*
G01X23082Y3775D01*
G01X23076Y3796D01*
G01X23075Y3802D01*
G01X23074Y3809D01*
G01X23076Y3821D01*
G01X23078Y3827D01*
G01X23086Y3837D01*
G01X26774Y7525D01*
G01X26782Y7534D01*
G01X26790Y7544D01*
G01X26797Y7554D01*
G01X26804Y7565D01*
G01X26810Y7576D01*
G01X26822Y7612D01*
G01X26824Y7625D01*
G01X26825Y7637D01*
G01X26826Y7650D01*
G01X26826Y29311D01*
G01X26827Y29317D01*
G01X26830Y29323D01*
G01X26833Y29328D01*
G01X26838Y29333D01*
G01X26843Y29337D01*
G01X26848Y29340D01*
G01X26865Y29349D01*
G01X26899Y29369D01*
G01X26915Y29380D01*
G01X26931Y29392D01*
G01X26961Y29418D01*
G01X26975Y29431D01*
G01X27001Y29461D01*
G01X27013Y29476D01*
G01X27025Y29492D01*
G01X27035Y29508D01*
G01X27055Y29542D01*
G01X27071Y29578D01*
G01X27078Y29596D01*
G01X27090Y29634D01*
G01X27098Y29672D01*
G01X27101Y29691D01*
G01X27103Y29711D01*
G01X27105Y29730D01*
G01X27105Y29769D01*
G01X27103Y29789D01*
G01X27101Y29808D01*
G01X27095Y29846D01*
G01X27090Y29865D01*
G01X27085Y29883D01*
G01X27079Y29902D01*
G01X27072Y29920D01*
G01X27064Y29938D01*
G01X27056Y29955D01*
G01X27047Y29972D01*
G01X27037Y29989D01*
G01X27027Y30005D01*
G01X27015Y30021D01*
G01X27004Y30036D01*
G01X26991Y30051D01*
G01X26978Y30065D01*
G01X26964Y30079D01*
G01X26950Y30092D01*
G01X26920Y30116D01*
G01X26905Y30127D01*
G01X26888Y30138D01*
G01X26872Y30148D01*
G01X26855Y30157D01*
G01X26819Y30173D01*
G01X26783Y30185D01*
G01X26764Y30191D01*
G01X26746Y30195D01*
G01X26727Y30199D01*
G01X26707Y30202D01*
G01X26688Y30204D01*
G01X26669Y30205D01*
G37*
G36*
G01X28688Y5099D02*
G01X28650Y5101D01*
G01X28630Y5100D01*
G01X28611Y5099D01*
G01X28592Y5097D01*
G01X28573Y5094D01*
G01X28555Y5090D01*
G01X28536Y5086D01*
G01X28518Y5081D01*
G01X28499Y5075D01*
G01X28481Y5068D01*
G01X28464Y5061D01*
G01X28413Y5034D01*
G01X28381Y5012D01*
G01X28366Y5000D01*
G01X28352Y4988D01*
G01X28338Y4975D01*
G01X28311Y4948D01*
G01X28287Y4918D01*
G01X28265Y4886D01*
G01X28256Y4869D01*
G01X28247Y4853D01*
G01X28239Y4835D01*
G01X28231Y4818D01*
G01X28224Y4800D01*
G01X28218Y4782D01*
G01X28213Y4763D01*
G01X28209Y4744D01*
G01X28205Y4726D01*
G01X28202Y4707D01*
G01X28200Y4688D01*
G01X28198Y4650D01*
G01X28199Y4630D01*
G01X28200Y4611D01*
G01X28202Y4592D01*
G01X28205Y4573D01*
G01X28209Y4555D01*
G01X28213Y4536D01*
G01X28218Y4517D01*
G01X28224Y4499D01*
G01X28231Y4481D01*
G01X28239Y4464D01*
G01X28247Y4446D01*
G01X28256Y4430D01*
G01X28265Y4413D01*
G01X28287Y4381D01*
G01X28311Y4351D01*
G01X28338Y4324D01*
G01X28352Y4311D01*
G01X28366Y4299D01*
G01X28381Y4287D01*
G01X28413Y4265D01*
G01X28464Y4238D01*
G01X28481Y4231D01*
G01X28499Y4224D01*
G01X28518Y4218D01*
G01X28536Y4213D01*
G01X28555Y4209D01*
G01X28573Y4205D01*
G01X28592Y4202D01*
G01X28611Y4200D01*
G01X28630Y4199D01*
G01X28650Y4198D01*
G01X28688Y4200D01*
G01X28707Y4202D01*
G01X28726Y4205D01*
G01X28744Y4209D01*
G01X28763Y4213D01*
G01X28781Y4218D01*
G01X28800Y4224D01*
G01X28818Y4231D01*
G01X28835Y4238D01*
G01X28886Y4265D01*
G01X28918Y4287D01*
G01X28933Y4299D01*
G01X28947Y4311D01*
G01X28961Y4324D01*
G01X28988Y4351D01*
G01X29012Y4381D01*
G01X29034Y4413D01*
G01X29043Y4430D01*
G01X29052Y4446D01*
G01X29060Y4464D01*
G01X29068Y4481D01*
G01X29075Y4499D01*
G01X29081Y4517D01*
G01X29086Y4536D01*
G01X29090Y4555D01*
G01X29094Y4573D01*
G01X29097Y4592D01*
G01X29099Y4611D01*
G01X29100Y4630D01*
G01X29101Y4650D01*
G01X29099Y4688D01*
G01X29097Y4707D01*
G01X29094Y4726D01*
G01X29090Y4744D01*
G01X29086Y4763D01*
G01X29081Y4782D01*
G01X29075Y4800D01*
G01X29068Y4818D01*
G01X29060Y4835D01*
G01X29052Y4853D01*
G01X29043Y4869D01*
G01X29034Y4886D01*
G01X29012Y4918D01*
G01X28988Y4948D01*
G01X28961Y4975D01*
G01X28947Y4988D01*
G01X28933Y5000D01*
G01X28918Y5012D01*
G01X28886Y5034D01*
G01X28835Y5061D01*
G01X28818Y5068D01*
G01X28800Y5075D01*
G01X28781Y5081D01*
G01X28763Y5086D01*
G01X28744Y5090D01*
G01X28726Y5094D01*
G01X28707Y5097D01*
G01X28688Y5099D01*
G37*
G36*
G01X25976Y25019D02*
G01X25950Y25021D01*
G01X25936Y25020D01*
G01X25923Y25019D01*
G01X25910Y25017D01*
G01X25884Y25011D01*
G01X25871Y25006D01*
G01X25859Y25001D01*
G01X25835Y24989D01*
G01X25813Y24973D01*
G01X25803Y24965D01*
G01X25793Y24956D01*
G01X25784Y24946D01*
G01X25776Y24936D01*
G01X25760Y24914D01*
G01X25748Y24890D01*
G01X25743Y24878D01*
G01X25735Y24852D01*
G01X25732Y24839D01*
G01X25730Y24826D01*
G01X25728Y24800D01*
G01X25729Y24785D01*
G01X25731Y24770D01*
G01X25733Y24756D01*
G01X25736Y24742D01*
G01X25740Y24728D01*
G01X25746Y24714D01*
G01X25752Y24701D01*
G01X25759Y24688D01*
G01X25767Y24676D01*
G01X25769Y24670D01*
G01X25772Y24665D01*
G01X25773Y24659D01*
G01X25773Y8033D01*
G01X25772Y8027D01*
G01X25766Y8015D01*
G01X22837Y5086D01*
G01X22827Y5078D01*
G01X22821Y5076D01*
G01X22809Y5074D01*
G01X22802Y5075D01*
G01X22796Y5076D01*
G01X22775Y5082D01*
G01X22755Y5088D01*
G01X22713Y5096D01*
G01X22671Y5100D01*
G01X22650Y5101D01*
G01X22630Y5100D01*
G01X22611Y5099D01*
G01X22592Y5097D01*
G01X22573Y5094D01*
G01X22555Y5090D01*
G01X22536Y5086D01*
G01X22518Y5081D01*
G01X22499Y5075D01*
G01X22481Y5068D01*
G01X22464Y5061D01*
G01X22413Y5034D01*
G01X22381Y5012D01*
G01X22366Y5000D01*
G01X22352Y4988D01*
G01X22338Y4975D01*
G01X22311Y4948D01*
G01X22287Y4918D01*
G01X22265Y4886D01*
G01X22256Y4869D01*
G01X22247Y4853D01*
G01X22239Y4835D01*
G01X22231Y4818D01*
G01X22224Y4800D01*
G01X22218Y4782D01*
G01X22213Y4763D01*
G01X22209Y4744D01*
G01X22205Y4726D01*
G01X22202Y4707D01*
G01X22200Y4688D01*
G01X22198Y4650D01*
G01X22199Y4630D01*
G01X22200Y4611D01*
G01X22202Y4592D01*
G01X22205Y4573D01*
G01X22209Y4555D01*
G01X22213Y4536D01*
G01X22218Y4517D01*
G01X22224Y4499D01*
G01X22231Y4481D01*
G01X22239Y4464D01*
G01X22247Y4446D01*
G01X22256Y4430D01*
G01X22265Y4413D01*
G01X22287Y4381D01*
G01X22311Y4351D01*
G01X22338Y4324D01*
G01X22352Y4311D01*
G01X22366Y4299D01*
G01X22381Y4287D01*
G01X22413Y4265D01*
G01X22464Y4238D01*
G01X22481Y4231D01*
G01X22499Y4224D01*
G01X22518Y4218D01*
G01X22536Y4213D01*
G01X22555Y4209D01*
G01X22573Y4205D01*
G01X22592Y4202D01*
G01X22611Y4200D01*
G01X22630Y4199D01*
G01X22650Y4198D01*
G01X22688Y4200D01*
G01X22707Y4202D01*
G01X22726Y4205D01*
G01X22744Y4209D01*
G01X22763Y4213D01*
G01X22781Y4218D01*
G01X22800Y4224D01*
G01X22818Y4231D01*
G01X22835Y4238D01*
G01X22886Y4265D01*
G01X22918Y4287D01*
G01X22933Y4299D01*
G01X22947Y4311D01*
G01X22961Y4324D01*
G01X22988Y4351D01*
G01X23012Y4381D01*
G01X23034Y4413D01*
G01X23043Y4430D01*
G01X23052Y4446D01*
G01X23060Y4464D01*
G01X23068Y4481D01*
G01X23075Y4499D01*
G01X23081Y4517D01*
G01X23086Y4536D01*
G01X23090Y4555D01*
G01X23094Y4573D01*
G01X23097Y4592D01*
G01X23099Y4611D01*
G01X23100Y4630D01*
G01X23101Y4650D01*
G01X23100Y4671D01*
G01X23096Y4713D01*
G01X23093Y4734D01*
G01X23088Y4755D01*
G01X23082Y4775D01*
G01X23076Y4796D01*
G01X23075Y4802D01*
G01X23074Y4809D01*
G01X23076Y4821D01*
G01X23078Y4827D01*
G01X23086Y4837D01*
G01X26074Y7825D01*
G01X26082Y7834D01*
G01X26090Y7844D01*
G01X26097Y7854D01*
G01X26104Y7865D01*
G01X26110Y7876D01*
G01X26122Y7912D01*
G01X26124Y7925D01*
G01X26125Y7937D01*
G01X26126Y7950D01*
G01X26126Y24659D01*
G01X26127Y24665D01*
G01X26130Y24670D01*
G01X26132Y24676D01*
G01X26140Y24688D01*
G01X26147Y24701D01*
G01X26153Y24714D01*
G01X26159Y24728D01*
G01X26163Y24742D01*
G01X26166Y24756D01*
G01X26168Y24770D01*
G01X26170Y24785D01*
G01X26171Y24800D01*
G01X26169Y24826D01*
G01X26167Y24839D01*
G01X26164Y24852D01*
G01X26156Y24878D01*
G01X26151Y24890D01*
G01X26139Y24914D01*
G01X26123Y24936D01*
G01X26115Y24946D01*
G01X26106Y24956D01*
G01X26096Y24965D01*
G01X26086Y24973D01*
G01X26064Y24989D01*
G01X26040Y25001D01*
G01X26028Y25006D01*
G01X26015Y25011D01*
G01X25989Y25017D01*
G01X25976Y25019D01*
G37*
G36*
G01X28688Y6099D02*
G01X28650Y6101D01*
G01X28630Y6100D01*
G01X28611Y6099D01*
G01X28592Y6097D01*
G01X28573Y6094D01*
G01X28555Y6090D01*
G01X28536Y6086D01*
G01X28518Y6081D01*
G01X28499Y6075D01*
G01X28481Y6068D01*
G01X28464Y6061D01*
G01X28413Y6034D01*
G01X28381Y6012D01*
G01X28366Y6000D01*
G01X28352Y5988D01*
G01X28338Y5975D01*
G01X28311Y5948D01*
G01X28287Y5918D01*
G01X28265Y5886D01*
G01X28256Y5869D01*
G01X28247Y5853D01*
G01X28239Y5835D01*
G01X28231Y5818D01*
G01X28224Y5800D01*
G01X28218Y5782D01*
G01X28213Y5763D01*
G01X28209Y5744D01*
G01X28205Y5726D01*
G01X28202Y5707D01*
G01X28200Y5688D01*
G01X28198Y5650D01*
G01X28199Y5630D01*
G01X28200Y5611D01*
G01X28202Y5592D01*
G01X28205Y5573D01*
G01X28209Y5555D01*
G01X28213Y5536D01*
G01X28218Y5517D01*
G01X28224Y5499D01*
G01X28231Y5481D01*
G01X28239Y5464D01*
G01X28247Y5446D01*
G01X28256Y5430D01*
G01X28265Y5413D01*
G01X28287Y5381D01*
G01X28311Y5351D01*
G01X28338Y5324D01*
G01X28352Y5311D01*
G01X28366Y5299D01*
G01X28381Y5287D01*
G01X28413Y5265D01*
G01X28464Y5238D01*
G01X28481Y5231D01*
G01X28499Y5224D01*
G01X28518Y5218D01*
G01X28536Y5213D01*
G01X28555Y5209D01*
G01X28573Y5205D01*
G01X28592Y5202D01*
G01X28611Y5200D01*
G01X28630Y5199D01*
G01X28650Y5198D01*
G01X28688Y5200D01*
G01X28707Y5202D01*
G01X28726Y5205D01*
G01X28744Y5209D01*
G01X28763Y5213D01*
G01X28781Y5218D01*
G01X28800Y5224D01*
G01X28818Y5231D01*
G01X28835Y5238D01*
G01X28886Y5265D01*
G01X28918Y5287D01*
G01X28933Y5299D01*
G01X28947Y5311D01*
G01X28961Y5324D01*
G01X28988Y5351D01*
G01X29012Y5381D01*
G01X29034Y5413D01*
G01X29043Y5430D01*
G01X29052Y5446D01*
G01X29060Y5464D01*
G01X29068Y5481D01*
G01X29075Y5499D01*
G01X29081Y5517D01*
G01X29086Y5536D01*
G01X29090Y5555D01*
G01X29094Y5573D01*
G01X29097Y5592D01*
G01X29099Y5611D01*
G01X29100Y5630D01*
G01X29101Y5650D01*
G01X29099Y5688D01*
G01X29097Y5707D01*
G01X29094Y5726D01*
G01X29090Y5744D01*
G01X29086Y5763D01*
G01X29081Y5782D01*
G01X29075Y5800D01*
G01X29068Y5818D01*
G01X29060Y5835D01*
G01X29052Y5853D01*
G01X29043Y5869D01*
G01X29034Y5886D01*
G01X29012Y5918D01*
G01X28988Y5948D01*
G01X28961Y5975D01*
G01X28947Y5988D01*
G01X28933Y6000D01*
G01X28918Y6012D01*
G01X28886Y6034D01*
G01X28835Y6061D01*
G01X28818Y6068D01*
G01X28800Y6075D01*
G01X28781Y6081D01*
G01X28763Y6086D01*
G01X28744Y6090D01*
G01X28726Y6094D01*
G01X28707Y6097D01*
G01X28688Y6099D01*
G37*
G36*
G01X25326Y23519D02*
G01X25300Y23521D01*
G01X25286Y23520D01*
G01X25273Y23519D01*
G01X25260Y23517D01*
G01X25234Y23511D01*
G01X25221Y23506D01*
G01X25209Y23501D01*
G01X25185Y23489D01*
G01X25163Y23473D01*
G01X25153Y23465D01*
G01X25143Y23456D01*
G01X25134Y23446D01*
G01X25126Y23436D01*
G01X25110Y23414D01*
G01X25098Y23390D01*
G01X25093Y23378D01*
G01X25085Y23352D01*
G01X25082Y23339D01*
G01X25080Y23326D01*
G01X25078Y23300D01*
G01X25079Y23285D01*
G01X25081Y23270D01*
G01X25083Y23256D01*
G01X25086Y23242D01*
G01X25090Y23228D01*
G01X25096Y23214D01*
G01X25102Y23201D01*
G01X25109Y23188D01*
G01X25117Y23176D01*
G01X25119Y23170D01*
G01X25122Y23165D01*
G01X25123Y23159D01*
G01X25123Y8383D01*
G01X25122Y8377D01*
G01X25116Y8365D01*
G01X22837Y6086D01*
G01X22827Y6078D01*
G01X22821Y6076D01*
G01X22809Y6074D01*
G01X22802Y6075D01*
G01X22796Y6076D01*
G01X22775Y6082D01*
G01X22755Y6088D01*
G01X22713Y6096D01*
G01X22671Y6100D01*
G01X22650Y6101D01*
G01X22630Y6100D01*
G01X22611Y6099D01*
G01X22592Y6097D01*
G01X22573Y6094D01*
G01X22555Y6090D01*
G01X22536Y6086D01*
G01X22518Y6081D01*
G01X22499Y6075D01*
G01X22481Y6068D01*
G01X22464Y6061D01*
G01X22413Y6034D01*
G01X22381Y6012D01*
G01X22366Y6000D01*
G01X22352Y5988D01*
G01X22338Y5975D01*
G01X22311Y5948D01*
G01X22287Y5918D01*
G01X22265Y5886D01*
G01X22256Y5869D01*
G01X22247Y5853D01*
G01X22239Y5835D01*
G01X22231Y5818D01*
G01X22224Y5800D01*
G01X22218Y5782D01*
G01X22213Y5763D01*
G01X22209Y5744D01*
G01X22205Y5726D01*
G01X22202Y5707D01*
G01X22200Y5688D01*
G01X22198Y5650D01*
G01X22199Y5630D01*
G01X22200Y5611D01*
G01X22202Y5592D01*
G01X22205Y5573D01*
G01X22209Y5555D01*
G01X22213Y5536D01*
G01X22218Y5517D01*
G01X22224Y5499D01*
G01X22231Y5481D01*
G01X22239Y5464D01*
G01X22247Y5446D01*
G01X22256Y5430D01*
G01X22265Y5413D01*
G01X22287Y5381D01*
G01X22311Y5351D01*
G01X22338Y5324D01*
G01X22352Y5311D01*
G01X22366Y5299D01*
G01X22381Y5287D01*
G01X22413Y5265D01*
G01X22464Y5238D01*
G01X22481Y5231D01*
G01X22499Y5224D01*
G01X22518Y5218D01*
G01X22536Y5213D01*
G01X22555Y5209D01*
G01X22573Y5205D01*
G01X22592Y5202D01*
G01X22611Y5200D01*
G01X22630Y5199D01*
G01X22650Y5198D01*
G01X22688Y5200D01*
G01X22707Y5202D01*
G01X22726Y5205D01*
G01X22744Y5209D01*
G01X22763Y5213D01*
G01X22781Y5218D01*
G01X22800Y5224D01*
G01X22818Y5231D01*
G01X22835Y5238D01*
G01X22886Y5265D01*
G01X22918Y5287D01*
G01X22933Y5299D01*
G01X22947Y5311D01*
G01X22961Y5324D01*
G01X22988Y5351D01*
G01X23012Y5381D01*
G01X23034Y5413D01*
G01X23043Y5430D01*
G01X23052Y5446D01*
G01X23060Y5464D01*
G01X23068Y5481D01*
G01X23075Y5499D01*
G01X23081Y5517D01*
G01X23086Y5536D01*
G01X23090Y5555D01*
G01X23094Y5573D01*
G01X23097Y5592D01*
G01X23099Y5611D01*
G01X23100Y5630D01*
G01X23101Y5650D01*
G01X23100Y5671D01*
G01X23096Y5713D01*
G01X23093Y5734D01*
G01X23088Y5755D01*
G01X23082Y5775D01*
G01X23076Y5796D01*
G01X23075Y5802D01*
G01X23074Y5809D01*
G01X23076Y5821D01*
G01X23078Y5827D01*
G01X23086Y5837D01*
G01X25424Y8175D01*
G01X25432Y8184D01*
G01X25440Y8194D01*
G01X25447Y8204D01*
G01X25454Y8215D01*
G01X25460Y8226D01*
G01X25472Y8262D01*
G01X25474Y8275D01*
G01X25475Y8287D01*
G01X25476Y8300D01*
G01X25476Y23159D01*
G01X25477Y23165D01*
G01X25480Y23170D01*
G01X25482Y23176D01*
G01X25490Y23188D01*
G01X25497Y23201D01*
G01X25503Y23214D01*
G01X25509Y23228D01*
G01X25513Y23242D01*
G01X25516Y23256D01*
G01X25518Y23270D01*
G01X25520Y23285D01*
G01X25521Y23300D01*
G01X25519Y23326D01*
G01X25517Y23339D01*
G01X25514Y23352D01*
G01X25506Y23378D01*
G01X25501Y23390D01*
G01X25489Y23414D01*
G01X25473Y23436D01*
G01X25465Y23446D01*
G01X25456Y23456D01*
G01X25446Y23465D01*
G01X25436Y23473D01*
G01X25414Y23489D01*
G01X25390Y23501D01*
G01X25378Y23506D01*
G01X25365Y23511D01*
G01X25339Y23517D01*
G01X25326Y23519D01*
G37*
G36*
G01X13559Y6450D02*
G01X13539Y6451D01*
G01X13501Y6449D01*
G01X13481Y6447D01*
G01X13462Y6444D01*
G01X13424Y6436D01*
G01X13405Y6431D01*
G01X13386Y6425D01*
G01X13350Y6411D01*
G01X13333Y6403D01*
G01X13315Y6394D01*
G01X13298Y6384D01*
G01X13282Y6374D01*
G01X13266Y6363D01*
G01X13250Y6351D01*
G01X13235Y6339D01*
G01X13221Y6326D01*
G01X13206Y6313D01*
G01X13193Y6298D01*
G01X13180Y6284D01*
G01X13168Y6269D01*
G01X13156Y6253D01*
G01X13145Y6237D01*
G01X13135Y6221D01*
G01X13125Y6204D01*
G01X13116Y6186D01*
G01X13108Y6169D01*
G01X13101Y6151D01*
G01X13094Y6132D01*
G01X13088Y6114D01*
G01X13078Y6076D01*
G01X13072Y6038D01*
G01X13070Y6018D01*
G01X13068Y5980D01*
G01X13069Y5960D01*
G01X13070Y5941D01*
G01X13072Y5921D01*
G01X13078Y5883D01*
G01X13088Y5845D01*
G01X13094Y5826D01*
G01X13108Y5790D01*
G01X13116Y5773D01*
G01X13125Y5755D01*
G01X13135Y5738D01*
G01X13145Y5722D01*
G01X13156Y5706D01*
G01X13168Y5690D01*
G01X13180Y5675D01*
G01X13193Y5661D01*
G01X13206Y5646D01*
G01X13221Y5633D01*
G01X13235Y5620D01*
G01X13250Y5608D01*
G01X13266Y5596D01*
G01X13282Y5585D01*
G01X13298Y5575D01*
G01X13315Y5565D01*
G01X13333Y5556D01*
G01X13350Y5548D01*
G01X13386Y5534D01*
G01X13405Y5528D01*
G01X13424Y5523D01*
G01X13462Y5515D01*
G01X13481Y5512D01*
G01X13501Y5510D01*
G01X13520Y5509D01*
G01X13559Y5509D01*
G01X13578Y5510D01*
G01X13598Y5512D01*
G01X13617Y5515D01*
G01X13655Y5523D01*
G01X13674Y5528D01*
G01X13693Y5534D01*
G01X13729Y5548D01*
G01X13746Y5556D01*
G01X13764Y5565D01*
G01X13781Y5575D01*
G01X13797Y5585D01*
G01X13813Y5596D01*
G01X13829Y5608D01*
G01X13844Y5620D01*
G01X13859Y5633D01*
G01X13872Y5646D01*
G01X13886Y5661D01*
G01X13899Y5675D01*
G01X13911Y5690D01*
G01X13923Y5706D01*
G01X13934Y5722D01*
G01X13944Y5738D01*
G01X13954Y5755D01*
G01X13963Y5773D01*
G01X13971Y5790D01*
G01X13985Y5826D01*
G01X13991Y5845D01*
G01X14001Y5883D01*
G01X14007Y5921D01*
G01X14009Y5941D01*
G01X14010Y5960D01*
G01X14010Y5999D01*
G01X14009Y6018D01*
G01X14007Y6038D01*
G01X14001Y6076D01*
G01X13991Y6114D01*
G01X13985Y6132D01*
G01X13978Y6151D01*
G01X13971Y6169D01*
G01X13963Y6186D01*
G01X13954Y6204D01*
G01X13944Y6221D01*
G01X13934Y6237D01*
G01X13923Y6253D01*
G01X13911Y6269D01*
G01X13899Y6284D01*
G01X13886Y6298D01*
G01X13872Y6313D01*
G01X13859Y6326D01*
G01X13844Y6339D01*
G01X13829Y6351D01*
G01X13813Y6363D01*
G01X13797Y6374D01*
G01X13781Y6384D01*
G01X13764Y6394D01*
G01X13746Y6403D01*
G01X13729Y6411D01*
G01X13693Y6425D01*
G01X13674Y6431D01*
G01X13655Y6436D01*
G01X13617Y6444D01*
G01X13598Y6447D01*
G01X13578Y6449D01*
G01X13559Y6450D01*
G37*
G36*
G01X37748Y6449D02*
G01X37710Y6451D01*
G01X37690Y6450D01*
G01X37671Y6449D01*
G01X37651Y6447D01*
G01X37632Y6444D01*
G01X37594Y6436D01*
G01X37575Y6431D01*
G01X37556Y6425D01*
G01X37520Y6411D01*
G01X37503Y6403D01*
G01X37485Y6394D01*
G01X37468Y6384D01*
G01X37452Y6374D01*
G01X37436Y6363D01*
G01X37420Y6351D01*
G01X37405Y6339D01*
G01X37390Y6326D01*
G01X37377Y6313D01*
G01X37363Y6298D01*
G01X37350Y6284D01*
G01X37338Y6269D01*
G01X37326Y6253D01*
G01X37315Y6237D01*
G01X37305Y6221D01*
G01X37295Y6204D01*
G01X37286Y6186D01*
G01X37278Y6169D01*
G01X37271Y6151D01*
G01X37264Y6132D01*
G01X37258Y6114D01*
G01X37248Y6076D01*
G01X37242Y6038D01*
G01X37240Y6018D01*
G01X37239Y5999D01*
G01X37239Y5960D01*
G01X37240Y5941D01*
G01X37242Y5921D01*
G01X37248Y5883D01*
G01X37258Y5845D01*
G01X37264Y5826D01*
G01X37278Y5790D01*
G01X37286Y5773D01*
G01X37295Y5755D01*
G01X37305Y5738D01*
G01X37315Y5722D01*
G01X37326Y5706D01*
G01X37338Y5690D01*
G01X37350Y5675D01*
G01X37363Y5661D01*
G01X37377Y5646D01*
G01X37390Y5633D01*
G01X37405Y5620D01*
G01X37420Y5608D01*
G01X37436Y5596D01*
G01X37452Y5585D01*
G01X37468Y5575D01*
G01X37485Y5565D01*
G01X37503Y5556D01*
G01X37520Y5548D01*
G01X37556Y5534D01*
G01X37575Y5528D01*
G01X37594Y5523D01*
G01X37632Y5515D01*
G01X37651Y5512D01*
G01X37671Y5510D01*
G01X37690Y5509D01*
G01X37729Y5509D01*
G01X37748Y5510D01*
G01X37768Y5512D01*
G01X37787Y5515D01*
G01X37825Y5523D01*
G01X37844Y5528D01*
G01X37863Y5534D01*
G01X37899Y5548D01*
G01X37916Y5556D01*
G01X37934Y5565D01*
G01X37951Y5575D01*
G01X37967Y5585D01*
G01X37983Y5596D01*
G01X37999Y5608D01*
G01X38014Y5620D01*
G01X38029Y5633D01*
G01X38043Y5646D01*
G01X38056Y5661D01*
G01X38069Y5675D01*
G01X38081Y5690D01*
G01X38093Y5706D01*
G01X38104Y5722D01*
G01X38114Y5738D01*
G01X38124Y5755D01*
G01X38133Y5773D01*
G01X38141Y5790D01*
G01X38155Y5826D01*
G01X38161Y5845D01*
G01X38171Y5883D01*
G01X38177Y5921D01*
G01X38179Y5941D01*
G01X38180Y5960D01*
G01X38181Y5980D01*
G01X38179Y6018D01*
G01X38177Y6038D01*
G01X38171Y6076D01*
G01X38161Y6114D01*
G01X38155Y6132D01*
G01X38148Y6151D01*
G01X38141Y6169D01*
G01X38133Y6186D01*
G01X38124Y6204D01*
G01X38114Y6221D01*
G01X38104Y6237D01*
G01X38093Y6253D01*
G01X38081Y6269D01*
G01X38069Y6284D01*
G01X38056Y6298D01*
G01X38043Y6313D01*
G01X38029Y6326D01*
G01X38014Y6339D01*
G01X37999Y6351D01*
G01X37983Y6363D01*
G01X37967Y6374D01*
G01X37951Y6384D01*
G01X37934Y6394D01*
G01X37916Y6403D01*
G01X37899Y6411D01*
G01X37863Y6425D01*
G01X37844Y6431D01*
G01X37825Y6436D01*
G01X37787Y6444D01*
G01X37768Y6447D01*
G01X37748Y6449D01*
G37*
G36*
G01X39509Y6450D02*
G01X39489Y6451D01*
G01X39451Y6449D01*
G01X39431Y6447D01*
G01X39412Y6444D01*
G01X39374Y6436D01*
G01X39355Y6431D01*
G01X39336Y6425D01*
G01X39300Y6411D01*
G01X39283Y6403D01*
G01X39265Y6394D01*
G01X39248Y6384D01*
G01X39232Y6374D01*
G01X39216Y6363D01*
G01X39200Y6351D01*
G01X39185Y6339D01*
G01X39171Y6326D01*
G01X39156Y6313D01*
G01X39143Y6298D01*
G01X39130Y6284D01*
G01X39118Y6269D01*
G01X39106Y6253D01*
G01X39095Y6237D01*
G01X39085Y6221D01*
G01X39075Y6204D01*
G01X39066Y6186D01*
G01X39058Y6169D01*
G01X39051Y6151D01*
G01X39044Y6132D01*
G01X39038Y6114D01*
G01X39033Y6095D01*
G01X39025Y6057D01*
G01X39022Y6038D01*
G01X39020Y6018D01*
G01X39018Y5980D01*
G01X39019Y5960D01*
G01X39020Y5941D01*
G01X39022Y5921D01*
G01X39025Y5902D01*
G01X39033Y5864D01*
G01X39038Y5845D01*
G01X39044Y5826D01*
G01X39058Y5790D01*
G01X39066Y5773D01*
G01X39075Y5755D01*
G01X39085Y5738D01*
G01X39095Y5722D01*
G01X39106Y5706D01*
G01X39118Y5690D01*
G01X39130Y5675D01*
G01X39143Y5661D01*
G01X39156Y5646D01*
G01X39171Y5633D01*
G01X39185Y5620D01*
G01X39200Y5608D01*
G01X39216Y5596D01*
G01X39232Y5585D01*
G01X39248Y5575D01*
G01X39265Y5565D01*
G01X39283Y5556D01*
G01X39300Y5548D01*
G01X39336Y5534D01*
G01X39355Y5528D01*
G01X39374Y5523D01*
G01X39412Y5515D01*
G01X39431Y5512D01*
G01X39451Y5510D01*
G01X39470Y5509D01*
G01X39509Y5509D01*
G01X39528Y5510D01*
G01X39548Y5512D01*
G01X39567Y5515D01*
G01X39605Y5523D01*
G01X39624Y5528D01*
G01X39643Y5534D01*
G01X39679Y5548D01*
G01X39696Y5556D01*
G01X39714Y5565D01*
G01X39731Y5575D01*
G01X39747Y5585D01*
G01X39763Y5596D01*
G01X39779Y5608D01*
G01X39794Y5620D01*
G01X39809Y5633D01*
G01X39822Y5646D01*
G01X39836Y5661D01*
G01X39849Y5675D01*
G01X39861Y5690D01*
G01X39873Y5706D01*
G01X39884Y5722D01*
G01X39894Y5738D01*
G01X39904Y5755D01*
G01X39913Y5773D01*
G01X39921Y5790D01*
G01X39935Y5826D01*
G01X39941Y5845D01*
G01X39951Y5883D01*
G01X39957Y5921D01*
G01X39959Y5941D01*
G01X39960Y5960D01*
G01X39960Y5999D01*
G01X39959Y6018D01*
G01X39957Y6038D01*
G01X39951Y6076D01*
G01X39941Y6114D01*
G01X39935Y6132D01*
G01X39928Y6151D01*
G01X39921Y6169D01*
G01X39913Y6186D01*
G01X39904Y6204D01*
G01X39894Y6221D01*
G01X39884Y6237D01*
G01X39873Y6253D01*
G01X39861Y6269D01*
G01X39849Y6284D01*
G01X39836Y6298D01*
G01X39822Y6313D01*
G01X39809Y6326D01*
G01X39794Y6339D01*
G01X39779Y6351D01*
G01X39763Y6363D01*
G01X39747Y6374D01*
G01X39731Y6384D01*
G01X39714Y6394D01*
G01X39696Y6403D01*
G01X39679Y6411D01*
G01X39643Y6425D01*
G01X39624Y6431D01*
G01X39605Y6436D01*
G01X39567Y6444D01*
G01X39548Y6447D01*
G01X39528Y6449D01*
G01X39509Y6450D01*
G37*
G36*
G01X11798Y6449D02*
G01X11760Y6451D01*
G01X11740Y6450D01*
G01X11721Y6449D01*
G01X11701Y6447D01*
G01X11682Y6444D01*
G01X11644Y6436D01*
G01X11625Y6431D01*
G01X11606Y6425D01*
G01X11570Y6411D01*
G01X11553Y6403D01*
G01X11535Y6394D01*
G01X11518Y6384D01*
G01X11502Y6374D01*
G01X11486Y6363D01*
G01X11470Y6351D01*
G01X11455Y6339D01*
G01X11440Y6326D01*
G01X11427Y6313D01*
G01X11413Y6298D01*
G01X11400Y6284D01*
G01X11388Y6269D01*
G01X11376Y6253D01*
G01X11365Y6237D01*
G01X11355Y6221D01*
G01X11345Y6204D01*
G01X11336Y6186D01*
G01X11328Y6169D01*
G01X11321Y6151D01*
G01X11314Y6132D01*
G01X11308Y6114D01*
G01X11298Y6076D01*
G01X11292Y6038D01*
G01X11290Y6018D01*
G01X11289Y5999D01*
G01X11289Y5960D01*
G01X11290Y5941D01*
G01X11292Y5921D01*
G01X11298Y5883D01*
G01X11308Y5845D01*
G01X11314Y5826D01*
G01X11328Y5790D01*
G01X11336Y5773D01*
G01X11345Y5755D01*
G01X11355Y5738D01*
G01X11365Y5722D01*
G01X11376Y5706D01*
G01X11388Y5690D01*
G01X11400Y5675D01*
G01X11413Y5661D01*
G01X11427Y5646D01*
G01X11440Y5633D01*
G01X11455Y5620D01*
G01X11470Y5608D01*
G01X11486Y5596D01*
G01X11502Y5585D01*
G01X11518Y5575D01*
G01X11535Y5565D01*
G01X11553Y5556D01*
G01X11570Y5548D01*
G01X11606Y5534D01*
G01X11625Y5528D01*
G01X11644Y5523D01*
G01X11682Y5515D01*
G01X11701Y5512D01*
G01X11721Y5510D01*
G01X11740Y5509D01*
G01X11779Y5509D01*
G01X11798Y5510D01*
G01X11818Y5512D01*
G01X11837Y5515D01*
G01X11875Y5523D01*
G01X11894Y5528D01*
G01X11913Y5534D01*
G01X11949Y5548D01*
G01X11966Y5556D01*
G01X11984Y5565D01*
G01X12001Y5575D01*
G01X12017Y5585D01*
G01X12033Y5596D01*
G01X12049Y5608D01*
G01X12064Y5620D01*
G01X12078Y5633D01*
G01X12093Y5646D01*
G01X12106Y5661D01*
G01X12119Y5675D01*
G01X12131Y5690D01*
G01X12143Y5706D01*
G01X12154Y5722D01*
G01X12164Y5738D01*
G01X12174Y5755D01*
G01X12183Y5773D01*
G01X12191Y5790D01*
G01X12205Y5826D01*
G01X12211Y5845D01*
G01X12221Y5883D01*
G01X12227Y5921D01*
G01X12229Y5941D01*
G01X12230Y5960D01*
G01X12231Y5980D01*
G01X12229Y6018D01*
G01X12227Y6038D01*
G01X12221Y6076D01*
G01X12211Y6114D01*
G01X12205Y6132D01*
G01X12198Y6151D01*
G01X12191Y6169D01*
G01X12183Y6186D01*
G01X12174Y6204D01*
G01X12164Y6221D01*
G01X12154Y6237D01*
G01X12143Y6253D01*
G01X12131Y6269D01*
G01X12119Y6284D01*
G01X12106Y6298D01*
G01X12093Y6313D01*
G01X12078Y6326D01*
G01X12064Y6339D01*
G01X12049Y6351D01*
G01X12033Y6363D01*
G01X12017Y6374D01*
G01X12001Y6384D01*
G01X11984Y6394D01*
G01X11966Y6403D01*
G01X11949Y6411D01*
G01X11913Y6425D01*
G01X11894Y6431D01*
G01X11875Y6436D01*
G01X11837Y6444D01*
G01X11818Y6447D01*
G01X11798Y6449D01*
G37*
G36*
G01X28688Y7099D02*
G01X28650Y7101D01*
G01X28630Y7100D01*
G01X28611Y7099D01*
G01X28592Y7097D01*
G01X28573Y7094D01*
G01X28555Y7090D01*
G01X28536Y7086D01*
G01X28518Y7081D01*
G01X28499Y7075D01*
G01X28481Y7068D01*
G01X28464Y7061D01*
G01X28413Y7034D01*
G01X28381Y7012D01*
G01X28366Y7000D01*
G01X28352Y6988D01*
G01X28338Y6975D01*
G01X28311Y6948D01*
G01X28287Y6918D01*
G01X28265Y6886D01*
G01X28256Y6869D01*
G01X28247Y6853D01*
G01X28239Y6835D01*
G01X28231Y6818D01*
G01X28224Y6800D01*
G01X28218Y6782D01*
G01X28213Y6763D01*
G01X28209Y6744D01*
G01X28205Y6726D01*
G01X28202Y6707D01*
G01X28200Y6688D01*
G01X28198Y6650D01*
G01X28199Y6630D01*
G01X28200Y6611D01*
G01X28202Y6592D01*
G01X28205Y6573D01*
G01X28209Y6555D01*
G01X28213Y6536D01*
G01X28218Y6517D01*
G01X28224Y6499D01*
G01X28231Y6481D01*
G01X28239Y6464D01*
G01X28247Y6446D01*
G01X28256Y6430D01*
G01X28265Y6413D01*
G01X28287Y6381D01*
G01X28311Y6351D01*
G01X28338Y6324D01*
G01X28352Y6311D01*
G01X28366Y6299D01*
G01X28381Y6287D01*
G01X28413Y6265D01*
G01X28464Y6238D01*
G01X28481Y6231D01*
G01X28499Y6224D01*
G01X28518Y6218D01*
G01X28536Y6213D01*
G01X28555Y6209D01*
G01X28573Y6205D01*
G01X28592Y6202D01*
G01X28611Y6200D01*
G01X28630Y6199D01*
G01X28650Y6198D01*
G01X28688Y6200D01*
G01X28707Y6202D01*
G01X28726Y6205D01*
G01X28744Y6209D01*
G01X28763Y6213D01*
G01X28781Y6218D01*
G01X28800Y6224D01*
G01X28818Y6231D01*
G01X28835Y6238D01*
G01X28886Y6265D01*
G01X28918Y6287D01*
G01X28933Y6299D01*
G01X28947Y6311D01*
G01X28961Y6324D01*
G01X28988Y6351D01*
G01X29012Y6381D01*
G01X29034Y6413D01*
G01X29043Y6430D01*
G01X29052Y6446D01*
G01X29060Y6464D01*
G01X29068Y6481D01*
G01X29075Y6499D01*
G01X29081Y6517D01*
G01X29086Y6536D01*
G01X29090Y6555D01*
G01X29094Y6573D01*
G01X29097Y6592D01*
G01X29099Y6611D01*
G01X29100Y6630D01*
G01X29101Y6650D01*
G01X29099Y6688D01*
G01X29097Y6707D01*
G01X29094Y6726D01*
G01X29090Y6744D01*
G01X29086Y6763D01*
G01X29081Y6782D01*
G01X29075Y6800D01*
G01X29068Y6818D01*
G01X29060Y6835D01*
G01X29052Y6853D01*
G01X29043Y6869D01*
G01X29034Y6886D01*
G01X29012Y6918D01*
G01X28988Y6948D01*
G01X28961Y6975D01*
G01X28947Y6988D01*
G01X28933Y7000D01*
G01X28918Y7012D01*
G01X28886Y7034D01*
G01X28835Y7061D01*
G01X28818Y7068D01*
G01X28800Y7075D01*
G01X28781Y7081D01*
G01X28763Y7086D01*
G01X28744Y7090D01*
G01X28726Y7094D01*
G01X28707Y7097D01*
G01X28688Y7099D01*
G37*
G36*
G01X24669Y30205D02*
G01X24630Y30205D01*
G01X24611Y30204D01*
G01X24592Y30202D01*
G01X24572Y30199D01*
G01X24553Y30195D01*
G01X24535Y30191D01*
G01X24516Y30185D01*
G01X24480Y30173D01*
G01X24444Y30157D01*
G01X24427Y30148D01*
G01X24411Y30138D01*
G01X24394Y30127D01*
G01X24379Y30116D01*
G01X24349Y30092D01*
G01X24335Y30079D01*
G01X24321Y30065D01*
G01X24308Y30051D01*
G01X24295Y30036D01*
G01X24284Y30021D01*
G01X24272Y30005D01*
G01X24262Y29989D01*
G01X24252Y29972D01*
G01X24243Y29955D01*
G01X24235Y29938D01*
G01X24227Y29920D01*
G01X24220Y29902D01*
G01X24214Y29883D01*
G01X24209Y29865D01*
G01X24204Y29846D01*
G01X24198Y29808D01*
G01X24196Y29789D01*
G01X24194Y29769D01*
G01X24194Y29730D01*
G01X24196Y29711D01*
G01X24198Y29691D01*
G01X24201Y29672D01*
G01X24209Y29634D01*
G01X24221Y29596D01*
G01X24228Y29578D01*
G01X24244Y29542D01*
G01X24264Y29508D01*
G01X24286Y29476D01*
G01X24298Y29461D01*
G01X24324Y29431D01*
G01X24338Y29418D01*
G01X24368Y29392D01*
G01X24384Y29380D01*
G01X24400Y29369D01*
G01X24434Y29349D01*
G01X24451Y29340D01*
G01X24456Y29337D01*
G01X24461Y29333D01*
G01X24469Y29323D01*
G01X24472Y29317D01*
G01X24473Y29311D01*
G01X24473Y8733D01*
G01X24472Y8726D01*
G01X24469Y8721D01*
G01X24466Y8715D01*
G01X22837Y7086D01*
G01X22827Y7078D01*
G01X22821Y7076D01*
G01X22809Y7074D01*
G01X22802Y7075D01*
G01X22796Y7076D01*
G01X22775Y7082D01*
G01X22755Y7088D01*
G01X22713Y7096D01*
G01X22671Y7100D01*
G01X22650Y7101D01*
G01X22630Y7100D01*
G01X22611Y7099D01*
G01X22592Y7097D01*
G01X22573Y7094D01*
G01X22555Y7090D01*
G01X22536Y7086D01*
G01X22518Y7081D01*
G01X22499Y7075D01*
G01X22481Y7068D01*
G01X22464Y7061D01*
G01X22413Y7034D01*
G01X22381Y7012D01*
G01X22366Y7000D01*
G01X22352Y6988D01*
G01X22338Y6975D01*
G01X22311Y6948D01*
G01X22287Y6918D01*
G01X22265Y6886D01*
G01X22256Y6869D01*
G01X22247Y6853D01*
G01X22239Y6835D01*
G01X22231Y6818D01*
G01X22224Y6800D01*
G01X22218Y6782D01*
G01X22213Y6763D01*
G01X22209Y6744D01*
G01X22205Y6726D01*
G01X22202Y6707D01*
G01X22200Y6688D01*
G01X22198Y6650D01*
G01X22199Y6630D01*
G01X22200Y6611D01*
G01X22202Y6592D01*
G01X22205Y6573D01*
G01X22209Y6555D01*
G01X22213Y6536D01*
G01X22218Y6517D01*
G01X22224Y6499D01*
G01X22231Y6481D01*
G01X22239Y6464D01*
G01X22247Y6446D01*
G01X22256Y6430D01*
G01X22265Y6413D01*
G01X22287Y6381D01*
G01X22311Y6351D01*
G01X22338Y6324D01*
G01X22352Y6311D01*
G01X22366Y6299D01*
G01X22381Y6287D01*
G01X22413Y6265D01*
G01X22464Y6238D01*
G01X22481Y6231D01*
G01X22499Y6224D01*
G01X22518Y6218D01*
G01X22536Y6213D01*
G01X22555Y6209D01*
G01X22573Y6205D01*
G01X22592Y6202D01*
G01X22611Y6200D01*
G01X22630Y6199D01*
G01X22650Y6198D01*
G01X22688Y6200D01*
G01X22707Y6202D01*
G01X22726Y6205D01*
G01X22744Y6209D01*
G01X22763Y6213D01*
G01X22781Y6218D01*
G01X22800Y6224D01*
G01X22818Y6231D01*
G01X22835Y6238D01*
G01X22886Y6265D01*
G01X22918Y6287D01*
G01X22933Y6299D01*
G01X22947Y6311D01*
G01X22961Y6324D01*
G01X22988Y6351D01*
G01X23012Y6381D01*
G01X23034Y6413D01*
G01X23043Y6430D01*
G01X23052Y6446D01*
G01X23060Y6464D01*
G01X23068Y6481D01*
G01X23075Y6499D01*
G01X23081Y6517D01*
G01X23086Y6536D01*
G01X23090Y6555D01*
G01X23094Y6573D01*
G01X23097Y6592D01*
G01X23099Y6611D01*
G01X23100Y6630D01*
G01X23101Y6650D01*
G01X23100Y6671D01*
G01X23096Y6713D01*
G01X23093Y6734D01*
G01X23088Y6755D01*
G01X23082Y6775D01*
G01X23076Y6796D01*
G01X23075Y6802D01*
G01X23074Y6809D01*
G01X23076Y6821D01*
G01X23078Y6827D01*
G01X23086Y6837D01*
G01X24774Y8525D01*
G01X24782Y8534D01*
G01X24790Y8544D01*
G01X24797Y8554D01*
G01X24804Y8565D01*
G01X24810Y8576D01*
G01X24822Y8612D01*
G01X24824Y8625D01*
G01X24825Y8637D01*
G01X24826Y8650D01*
G01X24826Y29311D01*
G01X24827Y29317D01*
G01X24830Y29323D01*
G01X24833Y29328D01*
G01X24838Y29333D01*
G01X24843Y29337D01*
G01X24848Y29340D01*
G01X24865Y29349D01*
G01X24899Y29369D01*
G01X24915Y29380D01*
G01X24931Y29392D01*
G01X24961Y29418D01*
G01X24975Y29431D01*
G01X25001Y29461D01*
G01X25013Y29476D01*
G01X25025Y29492D01*
G01X25035Y29508D01*
G01X25055Y29542D01*
G01X25071Y29578D01*
G01X25078Y29596D01*
G01X25090Y29634D01*
G01X25098Y29672D01*
G01X25101Y29691D01*
G01X25103Y29711D01*
G01X25105Y29730D01*
G01X25105Y29769D01*
G01X25103Y29789D01*
G01X25101Y29808D01*
G01X25095Y29846D01*
G01X25090Y29865D01*
G01X25085Y29883D01*
G01X25079Y29902D01*
G01X25072Y29920D01*
G01X25064Y29938D01*
G01X25056Y29955D01*
G01X25047Y29972D01*
G01X25037Y29989D01*
G01X25027Y30005D01*
G01X25015Y30021D01*
G01X25004Y30036D01*
G01X24991Y30051D01*
G01X24978Y30065D01*
G01X24964Y30079D01*
G01X24950Y30092D01*
G01X24920Y30116D01*
G01X24905Y30127D01*
G01X24888Y30138D01*
G01X24872Y30148D01*
G01X24855Y30157D01*
G01X24819Y30173D01*
G01X24783Y30185D01*
G01X24764Y30191D01*
G01X24746Y30195D01*
G01X24727Y30199D01*
G01X24707Y30202D01*
G01X24688Y30204D01*
G01X24669Y30205D01*
G37*
G36*
G01X22688Y8099D02*
G01X22650Y8101D01*
G01X22630Y8100D01*
G01X22611Y8099D01*
G01X22592Y8097D01*
G01X22573Y8094D01*
G01X22555Y8090D01*
G01X22536Y8086D01*
G01X22518Y8081D01*
G01X22499Y8075D01*
G01X22481Y8068D01*
G01X22464Y8061D01*
G01X22413Y8034D01*
G01X22381Y8012D01*
G01X22366Y8000D01*
G01X22352Y7988D01*
G01X22338Y7975D01*
G01X22311Y7948D01*
G01X22287Y7918D01*
G01X22265Y7886D01*
G01X22256Y7869D01*
G01X22247Y7853D01*
G01X22239Y7835D01*
G01X22231Y7818D01*
G01X22224Y7800D01*
G01X22218Y7782D01*
G01X22213Y7763D01*
G01X22209Y7744D01*
G01X22205Y7726D01*
G01X22202Y7707D01*
G01X22200Y7688D01*
G01X22198Y7650D01*
G01X22199Y7630D01*
G01X22200Y7611D01*
G01X22202Y7592D01*
G01X22205Y7573D01*
G01X22209Y7555D01*
G01X22213Y7536D01*
G01X22218Y7517D01*
G01X22224Y7499D01*
G01X22231Y7481D01*
G01X22239Y7464D01*
G01X22247Y7446D01*
G01X22256Y7430D01*
G01X22265Y7413D01*
G01X22287Y7381D01*
G01X22311Y7351D01*
G01X22338Y7324D01*
G01X22352Y7311D01*
G01X22366Y7299D01*
G01X22381Y7287D01*
G01X22413Y7265D01*
G01X22464Y7238D01*
G01X22481Y7231D01*
G01X22499Y7224D01*
G01X22518Y7218D01*
G01X22536Y7213D01*
G01X22555Y7209D01*
G01X22573Y7205D01*
G01X22592Y7202D01*
G01X22611Y7200D01*
G01X22630Y7199D01*
G01X22650Y7198D01*
G01X22688Y7200D01*
G01X22707Y7202D01*
G01X22726Y7205D01*
G01X22744Y7209D01*
G01X22763Y7213D01*
G01X22781Y7218D01*
G01X22800Y7224D01*
G01X22818Y7231D01*
G01X22835Y7238D01*
G01X22886Y7265D01*
G01X22918Y7287D01*
G01X22933Y7299D01*
G01X22947Y7311D01*
G01X22961Y7324D01*
G01X22988Y7351D01*
G01X23012Y7381D01*
G01X23034Y7413D01*
G01X23043Y7430D01*
G01X23052Y7446D01*
G01X23060Y7464D01*
G01X23068Y7481D01*
G01X23075Y7499D01*
G01X23081Y7517D01*
G01X23086Y7536D01*
G01X23090Y7555D01*
G01X23094Y7573D01*
G01X23097Y7592D01*
G01X23099Y7611D01*
G01X23100Y7630D01*
G01X23101Y7650D01*
G01X23099Y7688D01*
G01X23097Y7707D01*
G01X23094Y7726D01*
G01X23090Y7744D01*
G01X23086Y7763D01*
G01X23081Y7782D01*
G01X23075Y7800D01*
G01X23068Y7818D01*
G01X23060Y7835D01*
G01X23052Y7853D01*
G01X23043Y7869D01*
G01X23034Y7886D01*
G01X23012Y7918D01*
G01X22988Y7948D01*
G01X22961Y7975D01*
G01X22947Y7988D01*
G01X22933Y8000D01*
G01X22918Y8012D01*
G01X22886Y8034D01*
G01X22835Y8061D01*
G01X22818Y8068D01*
G01X22800Y8075D01*
G01X22781Y8081D01*
G01X22763Y8086D01*
G01X22744Y8090D01*
G01X22726Y8094D01*
G01X22707Y8097D01*
G01X22688Y8099D01*
G37*
G36*
G01X44175Y14454D02*
G01X44150Y14455D01*
G01X44125Y14454D01*
G01X44100Y14452D01*
G01X44075Y14449D01*
G01X44055Y14445D01*
G01X44036Y14441D01*
G01X44017Y14436D01*
G01X43998Y14429D01*
G01X43962Y14415D01*
G01X43926Y14397D01*
G01X43909Y14386D01*
G01X43893Y14376D01*
G01X43861Y14352D01*
G01X43846Y14339D01*
G01X43832Y14326D01*
G01X43818Y14312D01*
G01X43792Y14282D01*
G01X43780Y14266D01*
G01X43769Y14250D01*
G01X43758Y14233D01*
G01X43749Y14216D01*
G01X43740Y14198D01*
G01X43736Y14192D01*
G01X43732Y14188D01*
G01X43722Y14180D01*
G01X43710Y14176D01*
G01X42550Y14176D01*
G01X42537Y14175D01*
G01X42525Y14174D01*
G01X42512Y14171D01*
G01X42488Y14165D01*
G01X42476Y14159D01*
G01X42465Y14154D01*
G01X42454Y14148D01*
G01X42434Y14132D01*
G01X42425Y14124D01*
G01X36134Y7833D01*
G01X36128Y7830D01*
G01X36116Y7826D01*
G01X29084Y7826D01*
G01X29072Y7830D01*
G01X29067Y7833D01*
G01X29058Y7842D01*
G01X29055Y7848D01*
G01X29046Y7865D01*
G01X29036Y7882D01*
G01X29026Y7898D01*
G01X29015Y7914D01*
G01X29003Y7930D01*
G01X28991Y7944D01*
G01X28978Y7959D01*
G01X28964Y7973D01*
G01X28950Y7986D01*
G01X28920Y8010D01*
G01X28888Y8032D01*
G01X28872Y8042D01*
G01X28855Y8051D01*
G01X28837Y8060D01*
G01X28801Y8074D01*
G01X28783Y8080D01*
G01X28764Y8086D01*
G01X28746Y8090D01*
G01X28727Y8094D01*
G01X28707Y8097D01*
G01X28688Y8099D01*
G01X28650Y8101D01*
G01X28630Y8100D01*
G01X28611Y8099D01*
G01X28592Y8097D01*
G01X28573Y8094D01*
G01X28555Y8090D01*
G01X28536Y8086D01*
G01X28518Y8081D01*
G01X28499Y8075D01*
G01X28481Y8068D01*
G01X28464Y8061D01*
G01X28413Y8034D01*
G01X28381Y8012D01*
G01X28366Y8000D01*
G01X28352Y7988D01*
G01X28338Y7975D01*
G01X28311Y7948D01*
G01X28287Y7918D01*
G01X28265Y7886D01*
G01X28256Y7869D01*
G01X28247Y7853D01*
G01X28239Y7835D01*
G01X28231Y7818D01*
G01X28224Y7800D01*
G01X28218Y7782D01*
G01X28213Y7763D01*
G01X28209Y7744D01*
G01X28205Y7726D01*
G01X28202Y7707D01*
G01X28200Y7688D01*
G01X28198Y7650D01*
G01X28199Y7630D01*
G01X28200Y7611D01*
G01X28202Y7592D01*
G01X28205Y7573D01*
G01X28209Y7555D01*
G01X28213Y7536D01*
G01X28218Y7517D01*
G01X28224Y7499D01*
G01X28231Y7481D01*
G01X28239Y7464D01*
G01X28247Y7446D01*
G01X28256Y7430D01*
G01X28265Y7413D01*
G01X28287Y7381D01*
G01X28311Y7351D01*
G01X28338Y7324D01*
G01X28352Y7311D01*
G01X28366Y7299D01*
G01X28381Y7287D01*
G01X28413Y7265D01*
G01X28464Y7238D01*
G01X28481Y7231D01*
G01X28499Y7224D01*
G01X28518Y7218D01*
G01X28536Y7213D01*
G01X28555Y7209D01*
G01X28573Y7205D01*
G01X28592Y7202D01*
G01X28611Y7200D01*
G01X28630Y7199D01*
G01X28650Y7198D01*
G01X28688Y7200D01*
G01X28707Y7202D01*
G01X28727Y7205D01*
G01X28746Y7209D01*
G01X28764Y7213D01*
G01X28783Y7219D01*
G01X28801Y7225D01*
G01X28837Y7239D01*
G01X28855Y7248D01*
G01X28872Y7257D01*
G01X28888Y7267D01*
G01X28920Y7289D01*
G01X28950Y7313D01*
G01X28964Y7326D01*
G01X28978Y7340D01*
G01X28991Y7355D01*
G01X29003Y7369D01*
G01X29015Y7385D01*
G01X29026Y7401D01*
G01X29036Y7417D01*
G01X29046Y7434D01*
G01X29055Y7451D01*
G01X29058Y7457D01*
G01X29067Y7466D01*
G01X29072Y7469D01*
G01X29084Y7473D01*
G01X36200Y7473D01*
G01X36212Y7474D01*
G01X36225Y7475D01*
G01X36261Y7484D01*
G01X36273Y7490D01*
G01X36284Y7495D01*
G01X36295Y7501D01*
G01X36315Y7517D01*
G01X36324Y7525D01*
G01X42615Y13816D01*
G01X42621Y13819D01*
G01X42633Y13823D01*
G01X43710Y13823D01*
G01X43717Y13821D01*
G01X43722Y13819D01*
G01X43728Y13815D01*
G01X43732Y13811D01*
G01X43737Y13807D01*
G01X43740Y13801D01*
G01X43748Y13784D01*
G01X43758Y13767D01*
G01X43768Y13751D01*
G01X43779Y13735D01*
G01X43790Y13720D01*
G01X43802Y13705D01*
G01X43828Y13677D01*
G01X43856Y13651D01*
G01X43871Y13639D01*
G01X43903Y13617D01*
G01X43919Y13607D01*
G01X43935Y13598D01*
G01X43953Y13589D01*
G01X43970Y13581D01*
G01X43988Y13574D01*
G01X44024Y13562D01*
G01X44043Y13557D01*
G01X44061Y13553D01*
G01X44099Y13547D01*
G01X44105Y13546D01*
G01X44115Y13542D01*
G01X44120Y13538D01*
G01X44128Y13530D01*
G01X44131Y13525D01*
G01X44133Y13519D01*
G01X44135Y13507D01*
G01X44134Y13502D01*
G01X44133Y13496D01*
G01X44131Y13490D01*
G01X44128Y13486D01*
G01X44124Y13481D01*
G01X44120Y13477D01*
G01X44115Y13473D01*
G01X44105Y13469D01*
G01X44099Y13468D01*
G01X44080Y13465D01*
G01X44060Y13462D01*
G01X44041Y13457D01*
G01X44022Y13453D01*
G01X44004Y13446D01*
G01X43985Y13440D01*
G01X43967Y13432D01*
G01X43950Y13424D01*
G01X43932Y13415D01*
G01X43915Y13406D01*
G01X43883Y13384D01*
G01X43867Y13372D01*
G01X43852Y13360D01*
G01X43838Y13347D01*
G01X43823Y13333D01*
G01X43810Y13319D01*
G01X43797Y13304D01*
G01X43785Y13288D01*
G01X43774Y13273D01*
G01X43763Y13256D01*
G01X43753Y13240D01*
G01X43744Y13222D01*
G01X43735Y13205D01*
G01X43721Y13169D01*
G01X43714Y13150D01*
G01X43709Y13131D01*
G01X43701Y13093D01*
G01X43698Y13074D01*
G01X43696Y13054D01*
G01X43694Y13035D01*
G01X43694Y12996D01*
G01X43696Y12976D01*
G01X43698Y12957D01*
G01X43704Y12919D01*
G01X43709Y12901D01*
G01X43714Y12882D01*
G01X43720Y12863D01*
G01X43727Y12846D01*
G01X43743Y12810D01*
G01X43752Y12793D01*
G01X43762Y12776D01*
G01X43772Y12760D01*
G01X43784Y12744D01*
G01X43795Y12729D01*
G01X43808Y12714D01*
G01X43821Y12700D01*
G01X43835Y12686D01*
G01X43849Y12673D01*
G01X43879Y12649D01*
G01X43894Y12638D01*
G01X43911Y12628D01*
G01X43927Y12618D01*
G01X43944Y12609D01*
G01X43962Y12600D01*
G01X43998Y12586D01*
G01X44016Y12580D01*
G01X44054Y12570D01*
G01X44072Y12567D01*
G01X44092Y12563D01*
G01X44111Y12561D01*
G01X44130Y12560D01*
G01X44169Y12560D01*
G01X44188Y12561D01*
G01X44207Y12563D01*
G01X44227Y12567D01*
G01X44246Y12570D01*
G01X44264Y12575D01*
G01X44283Y12580D01*
G01X44301Y12586D01*
G01X44337Y12600D01*
G01X44355Y12609D01*
G01X44372Y12618D01*
G01X44388Y12628D01*
G01X44405Y12638D01*
G01X44420Y12649D01*
G01X44450Y12673D01*
G01X44464Y12686D01*
G01X44478Y12700D01*
G01X44491Y12714D01*
G01X44504Y12729D01*
G01X44515Y12744D01*
G01X44527Y12760D01*
G01X44537Y12776D01*
G01X44547Y12793D01*
G01X44556Y12810D01*
G01X44572Y12846D01*
G01X44579Y12863D01*
G01X44585Y12882D01*
G01X44590Y12901D01*
G01X44595Y12919D01*
G01X44601Y12957D01*
G01X44603Y12976D01*
G01X44605Y12996D01*
G01X44605Y13035D01*
G01X44603Y13054D01*
G01X44601Y13074D01*
G01X44598Y13093D01*
G01X44590Y13131D01*
G01X44585Y13150D01*
G01X44578Y13169D01*
G01X44564Y13205D01*
G01X44555Y13222D01*
G01X44546Y13240D01*
G01X44536Y13256D01*
G01X44525Y13273D01*
G01X44514Y13288D01*
G01X44502Y13304D01*
G01X44489Y13319D01*
G01X44476Y13333D01*
G01X44461Y13347D01*
G01X44447Y13360D01*
G01X44432Y13372D01*
G01X44416Y13384D01*
G01X44384Y13406D01*
G01X44350Y13424D01*
G01X44314Y13440D01*
G01X44295Y13446D01*
G01X44277Y13453D01*
G01X44258Y13457D01*
G01X44239Y13462D01*
G01X44219Y13465D01*
G01X44200Y13468D01*
G01X44194Y13469D01*
G01X44184Y13473D01*
G01X44179Y13477D01*
G01X44175Y13481D01*
G01X44171Y13486D01*
G01X44168Y13490D01*
G01X44166Y13496D01*
G01X44165Y13502D01*
G01X44164Y13507D01*
G01X44166Y13519D01*
G01X44168Y13525D01*
G01X44171Y13530D01*
G01X44179Y13538D01*
G01X44184Y13542D01*
G01X44194Y13546D01*
G01X44200Y13547D01*
G01X44219Y13550D01*
G01X44239Y13553D01*
G01X44258Y13557D01*
G01X44277Y13563D01*
G01X44295Y13568D01*
G01X44314Y13575D01*
G01X44332Y13582D01*
G01X44350Y13591D01*
G01X44384Y13609D01*
G01X44416Y13631D01*
G01X44432Y13643D01*
G01X44447Y13655D01*
G01X44461Y13668D01*
G01X44476Y13682D01*
G01X44489Y13696D01*
G01X44502Y13711D01*
G01X44514Y13726D01*
G01X44525Y13742D01*
G01X44536Y13759D01*
G01X44546Y13776D01*
G01X44564Y13810D01*
G01X44578Y13846D01*
G01X44585Y13865D01*
G01X44590Y13884D01*
G01X44598Y13922D01*
G01X44601Y13941D01*
G01X44603Y13961D01*
G01X44605Y13980D01*
G01X44605Y14019D01*
G01X44603Y14038D01*
G01X44601Y14058D01*
G01X44598Y14077D01*
G01X44590Y14115D01*
G01X44585Y14134D01*
G01X44579Y14152D01*
G01X44572Y14170D01*
G01X44564Y14188D01*
G01X44556Y14205D01*
G01X44547Y14223D01*
G01X44537Y14239D01*
G01X44515Y14271D01*
G01X44503Y14287D01*
G01X44490Y14301D01*
G01X44477Y14316D01*
G01X44464Y14329D01*
G01X44449Y14342D01*
G01X44435Y14355D01*
G01X44419Y14367D01*
G01X44403Y14378D01*
G01X44387Y14388D01*
G01X44370Y14398D01*
G01X44353Y14407D01*
G01X44335Y14415D01*
G01X44318Y14423D01*
G01X44299Y14430D01*
G01X44281Y14436D01*
G01X44262Y14441D01*
G01X44224Y14449D01*
G01X44200Y14452D01*
G01X44175Y14454D01*
G37*
G36*
G01X22688Y9099D02*
G01X22650Y9101D01*
G01X22630Y9100D01*
G01X22611Y9099D01*
G01X22592Y9097D01*
G01X22573Y9094D01*
G01X22555Y9090D01*
G01X22536Y9086D01*
G01X22518Y9081D01*
G01X22499Y9075D01*
G01X22481Y9068D01*
G01X22464Y9061D01*
G01X22413Y9034D01*
G01X22381Y9012D01*
G01X22366Y9000D01*
G01X22352Y8988D01*
G01X22338Y8975D01*
G01X22311Y8948D01*
G01X22287Y8918D01*
G01X22265Y8886D01*
G01X22256Y8869D01*
G01X22247Y8853D01*
G01X22239Y8835D01*
G01X22231Y8818D01*
G01X22224Y8800D01*
G01X22218Y8782D01*
G01X22213Y8763D01*
G01X22209Y8744D01*
G01X22205Y8726D01*
G01X22202Y8707D01*
G01X22200Y8688D01*
G01X22198Y8650D01*
G01X22199Y8630D01*
G01X22200Y8611D01*
G01X22202Y8592D01*
G01X22205Y8573D01*
G01X22209Y8555D01*
G01X22213Y8536D01*
G01X22218Y8517D01*
G01X22224Y8499D01*
G01X22231Y8481D01*
G01X22239Y8464D01*
G01X22247Y8446D01*
G01X22256Y8430D01*
G01X22265Y8413D01*
G01X22287Y8381D01*
G01X22311Y8351D01*
G01X22338Y8324D01*
G01X22352Y8311D01*
G01X22366Y8299D01*
G01X22381Y8287D01*
G01X22413Y8265D01*
G01X22464Y8238D01*
G01X22481Y8231D01*
G01X22499Y8224D01*
G01X22518Y8218D01*
G01X22536Y8213D01*
G01X22555Y8209D01*
G01X22573Y8205D01*
G01X22592Y8202D01*
G01X22611Y8200D01*
G01X22630Y8199D01*
G01X22650Y8198D01*
G01X22688Y8200D01*
G01X22707Y8202D01*
G01X22726Y8205D01*
G01X22744Y8209D01*
G01X22763Y8213D01*
G01X22781Y8218D01*
G01X22800Y8224D01*
G01X22818Y8231D01*
G01X22835Y8238D01*
G01X22886Y8265D01*
G01X22918Y8287D01*
G01X22933Y8299D01*
G01X22947Y8311D01*
G01X22961Y8324D01*
G01X22988Y8351D01*
G01X23012Y8381D01*
G01X23034Y8413D01*
G01X23043Y8430D01*
G01X23052Y8446D01*
G01X23060Y8464D01*
G01X23068Y8481D01*
G01X23075Y8499D01*
G01X23081Y8517D01*
G01X23086Y8536D01*
G01X23090Y8555D01*
G01X23094Y8573D01*
G01X23097Y8592D01*
G01X23099Y8611D01*
G01X23100Y8630D01*
G01X23101Y8650D01*
G01X23099Y8688D01*
G01X23097Y8707D01*
G01X23094Y8726D01*
G01X23090Y8744D01*
G01X23086Y8763D01*
G01X23081Y8782D01*
G01X23075Y8800D01*
G01X23068Y8818D01*
G01X23060Y8835D01*
G01X23052Y8853D01*
G01X23043Y8869D01*
G01X23034Y8886D01*
G01X23012Y8918D01*
G01X22988Y8948D01*
G01X22961Y8975D01*
G01X22947Y8988D01*
G01X22933Y9000D01*
G01X22918Y9012D01*
G01X22886Y9034D01*
G01X22835Y9061D01*
G01X22818Y9068D01*
G01X22800Y9075D01*
G01X22781Y9081D01*
G01X22763Y9086D01*
G01X22744Y9090D01*
G01X22726Y9094D01*
G01X22707Y9097D01*
G01X22688Y9099D01*
G37*
G36*
G01X42486Y27020D02*
G01X42450Y27022D01*
G01X42431Y27021D01*
G01X42413Y27020D01*
G01X42394Y27018D01*
G01X42358Y27012D01*
G01X42340Y27008D01*
G01X42322Y27003D01*
G01X42305Y26996D01*
G01X42288Y26990D01*
G01X42271Y26982D01*
G01X42255Y26974D01*
G01X42238Y26965D01*
G01X42222Y26956D01*
G01X42207Y26946D01*
G01X42192Y26935D01*
G01X42164Y26911D01*
G01X42138Y26885D01*
G01X42114Y26857D01*
G01X42104Y26842D01*
G01X42093Y26827D01*
G01X42084Y26811D01*
G01X42075Y26794D01*
G01X42067Y26778D01*
G01X42059Y26761D01*
G01X42052Y26744D01*
G01X42047Y26727D01*
G01X42041Y26709D01*
G01X42037Y26691D01*
G01X42031Y26655D01*
G01X42029Y26636D01*
G01X42027Y26618D01*
G01X42027Y26580D01*
G01X42031Y26542D01*
G01X42034Y26523D01*
G01X42038Y26505D01*
G01X42043Y26486D01*
G01X42048Y26468D01*
G01X42054Y26450D01*
G01X42061Y26432D01*
G01X42069Y26415D01*
G01X42078Y26398D01*
G01X42088Y26381D01*
G01X42098Y26365D01*
G01X42109Y26350D01*
G01X42121Y26334D01*
G01X42133Y26320D01*
G01X42159Y26292D01*
G01X42173Y26280D01*
G01X42188Y26267D01*
G01X42204Y26256D01*
G01X42219Y26245D01*
G01X42235Y26235D01*
G01X42252Y26226D01*
G01X42257Y26223D01*
G01X42262Y26219D01*
G01X42266Y26214D01*
G01X42269Y26209D01*
G01X42272Y26203D01*
G01X42273Y26197D01*
G01X42273Y14983D01*
G01X42272Y14977D01*
G01X42266Y14965D01*
G01X36134Y8833D01*
G01X36128Y8830D01*
G01X36116Y8826D01*
G01X29084Y8826D01*
G01X29072Y8830D01*
G01X29067Y8833D01*
G01X29058Y8842D01*
G01X29055Y8848D01*
G01X29046Y8865D01*
G01X29036Y8882D01*
G01X29026Y8898D01*
G01X29015Y8914D01*
G01X29003Y8930D01*
G01X28991Y8944D01*
G01X28978Y8959D01*
G01X28964Y8973D01*
G01X28950Y8986D01*
G01X28920Y9010D01*
G01X28888Y9032D01*
G01X28872Y9042D01*
G01X28855Y9051D01*
G01X28837Y9060D01*
G01X28801Y9074D01*
G01X28783Y9080D01*
G01X28764Y9086D01*
G01X28746Y9090D01*
G01X28727Y9094D01*
G01X28707Y9097D01*
G01X28688Y9099D01*
G01X28650Y9101D01*
G01X28630Y9100D01*
G01X28611Y9099D01*
G01X28592Y9097D01*
G01X28573Y9094D01*
G01X28555Y9090D01*
G01X28536Y9086D01*
G01X28518Y9081D01*
G01X28499Y9075D01*
G01X28481Y9068D01*
G01X28464Y9061D01*
G01X28413Y9034D01*
G01X28381Y9012D01*
G01X28366Y9000D01*
G01X28352Y8988D01*
G01X28338Y8975D01*
G01X28311Y8948D01*
G01X28287Y8918D01*
G01X28265Y8886D01*
G01X28256Y8869D01*
G01X28247Y8853D01*
G01X28239Y8835D01*
G01X28231Y8818D01*
G01X28224Y8800D01*
G01X28218Y8782D01*
G01X28213Y8763D01*
G01X28209Y8744D01*
G01X28205Y8726D01*
G01X28202Y8707D01*
G01X28200Y8688D01*
G01X28198Y8650D01*
G01X28199Y8630D01*
G01X28200Y8611D01*
G01X28202Y8592D01*
G01X28205Y8573D01*
G01X28209Y8555D01*
G01X28213Y8536D01*
G01X28218Y8517D01*
G01X28224Y8499D01*
G01X28231Y8481D01*
G01X28239Y8464D01*
G01X28247Y8446D01*
G01X28256Y8430D01*
G01X28265Y8413D01*
G01X28287Y8381D01*
G01X28311Y8351D01*
G01X28338Y8324D01*
G01X28352Y8311D01*
G01X28366Y8299D01*
G01X28381Y8287D01*
G01X28413Y8265D01*
G01X28464Y8238D01*
G01X28481Y8231D01*
G01X28499Y8224D01*
G01X28518Y8218D01*
G01X28536Y8213D01*
G01X28555Y8209D01*
G01X28573Y8205D01*
G01X28592Y8202D01*
G01X28611Y8200D01*
G01X28630Y8199D01*
G01X28650Y8198D01*
G01X28688Y8200D01*
G01X28707Y8202D01*
G01X28727Y8205D01*
G01X28746Y8209D01*
G01X28764Y8213D01*
G01X28783Y8219D01*
G01X28801Y8225D01*
G01X28837Y8239D01*
G01X28855Y8248D01*
G01X28872Y8257D01*
G01X28888Y8267D01*
G01X28920Y8289D01*
G01X28950Y8313D01*
G01X28964Y8326D01*
G01X28978Y8340D01*
G01X28991Y8355D01*
G01X29003Y8369D01*
G01X29015Y8385D01*
G01X29026Y8401D01*
G01X29036Y8417D01*
G01X29046Y8434D01*
G01X29055Y8451D01*
G01X29058Y8457D01*
G01X29067Y8466D01*
G01X29072Y8469D01*
G01X29084Y8473D01*
G01X36200Y8473D01*
G01X36212Y8474D01*
G01X36225Y8475D01*
G01X36261Y8484D01*
G01X36273Y8490D01*
G01X36284Y8495D01*
G01X36295Y8501D01*
G01X36315Y8517D01*
G01X36324Y8525D01*
G01X42574Y14775D01*
G01X42582Y14784D01*
G01X42590Y14794D01*
G01X42597Y14804D01*
G01X42604Y14815D01*
G01X42610Y14826D01*
G01X42622Y14862D01*
G01X42624Y14875D01*
G01X42625Y14887D01*
G01X42626Y14900D01*
G01X42626Y26197D01*
G01X42627Y26203D01*
G01X42630Y26209D01*
G01X42633Y26214D01*
G01X42637Y26219D01*
G01X42642Y26223D01*
G01X42647Y26226D01*
G01X42664Y26235D01*
G01X42680Y26245D01*
G01X42696Y26256D01*
G01X42711Y26267D01*
G01X42726Y26280D01*
G01X42740Y26292D01*
G01X42779Y26334D01*
G01X42790Y26350D01*
G01X42801Y26365D01*
G01X42811Y26381D01*
G01X42821Y26398D01*
G01X42830Y26415D01*
G01X42838Y26432D01*
G01X42845Y26450D01*
G01X42851Y26468D01*
G01X42856Y26486D01*
G01X42861Y26505D01*
G01X42865Y26523D01*
G01X42868Y26542D01*
G01X42872Y26580D01*
G01X42872Y26618D01*
G01X42870Y26636D01*
G01X42868Y26655D01*
G01X42862Y26691D01*
G01X42858Y26709D01*
G01X42852Y26727D01*
G01X42847Y26744D01*
G01X42840Y26761D01*
G01X42832Y26778D01*
G01X42824Y26794D01*
G01X42815Y26811D01*
G01X42806Y26827D01*
G01X42796Y26842D01*
G01X42785Y26857D01*
G01X42761Y26885D01*
G01X42735Y26911D01*
G01X42707Y26935D01*
G01X42692Y26946D01*
G01X42677Y26956D01*
G01X42661Y26965D01*
G01X42644Y26974D01*
G01X42628Y26982D01*
G01X42611Y26990D01*
G01X42594Y26996D01*
G01X42577Y27003D01*
G01X42559Y27008D01*
G01X42541Y27012D01*
G01X42505Y27018D01*
G01X42486Y27020D01*
G37*
G36*
G01X22688Y10099D02*
G01X22650Y10101D01*
G01X22630Y10100D01*
G01X22611Y10099D01*
G01X22592Y10097D01*
G01X22573Y10094D01*
G01X22555Y10090D01*
G01X22536Y10086D01*
G01X22518Y10081D01*
G01X22499Y10075D01*
G01X22481Y10068D01*
G01X22464Y10061D01*
G01X22413Y10034D01*
G01X22381Y10012D01*
G01X22366Y10000D01*
G01X22352Y9988D01*
G01X22338Y9975D01*
G01X22311Y9948D01*
G01X22287Y9918D01*
G01X22265Y9886D01*
G01X22256Y9869D01*
G01X22247Y9853D01*
G01X22239Y9835D01*
G01X22231Y9818D01*
G01X22224Y9800D01*
G01X22218Y9782D01*
G01X22213Y9763D01*
G01X22209Y9744D01*
G01X22205Y9726D01*
G01X22202Y9707D01*
G01X22200Y9688D01*
G01X22198Y9650D01*
G01X22199Y9630D01*
G01X22200Y9611D01*
G01X22202Y9592D01*
G01X22205Y9573D01*
G01X22209Y9555D01*
G01X22213Y9536D01*
G01X22218Y9517D01*
G01X22224Y9499D01*
G01X22231Y9481D01*
G01X22239Y9464D01*
G01X22247Y9446D01*
G01X22256Y9430D01*
G01X22265Y9413D01*
G01X22287Y9381D01*
G01X22311Y9351D01*
G01X22338Y9324D01*
G01X22352Y9311D01*
G01X22366Y9299D01*
G01X22381Y9287D01*
G01X22413Y9265D01*
G01X22464Y9238D01*
G01X22481Y9231D01*
G01X22499Y9224D01*
G01X22518Y9218D01*
G01X22536Y9213D01*
G01X22555Y9209D01*
G01X22573Y9205D01*
G01X22592Y9202D01*
G01X22611Y9200D01*
G01X22630Y9199D01*
G01X22650Y9198D01*
G01X22688Y9200D01*
G01X22707Y9202D01*
G01X22726Y9205D01*
G01X22744Y9209D01*
G01X22763Y9213D01*
G01X22781Y9218D01*
G01X22800Y9224D01*
G01X22818Y9231D01*
G01X22835Y9238D01*
G01X22886Y9265D01*
G01X22918Y9287D01*
G01X22933Y9299D01*
G01X22947Y9311D01*
G01X22961Y9324D01*
G01X22988Y9351D01*
G01X23012Y9381D01*
G01X23034Y9413D01*
G01X23043Y9430D01*
G01X23052Y9446D01*
G01X23060Y9464D01*
G01X23068Y9481D01*
G01X23075Y9499D01*
G01X23081Y9517D01*
G01X23086Y9536D01*
G01X23090Y9555D01*
G01X23094Y9573D01*
G01X23097Y9592D01*
G01X23099Y9611D01*
G01X23100Y9630D01*
G01X23101Y9650D01*
G01X23099Y9688D01*
G01X23097Y9707D01*
G01X23094Y9726D01*
G01X23090Y9744D01*
G01X23086Y9763D01*
G01X23081Y9782D01*
G01X23075Y9800D01*
G01X23068Y9818D01*
G01X23060Y9835D01*
G01X23052Y9853D01*
G01X23043Y9869D01*
G01X23034Y9886D01*
G01X23012Y9918D01*
G01X22988Y9948D01*
G01X22961Y9975D01*
G01X22947Y9988D01*
G01X22933Y10000D01*
G01X22918Y10012D01*
G01X22886Y10034D01*
G01X22835Y10061D01*
G01X22818Y10068D01*
G01X22800Y10075D01*
G01X22781Y10081D01*
G01X22763Y10086D01*
G01X22744Y10090D01*
G01X22726Y10094D01*
G01X22707Y10097D01*
G01X22688Y10099D01*
G37*
G36*
G01X41486Y27020D02*
G01X41450Y27022D01*
G01X41431Y27021D01*
G01X41413Y27020D01*
G01X41394Y27018D01*
G01X41358Y27012D01*
G01X41340Y27008D01*
G01X41322Y27003D01*
G01X41305Y26996D01*
G01X41288Y26990D01*
G01X41271Y26982D01*
G01X41255Y26974D01*
G01X41238Y26965D01*
G01X41222Y26956D01*
G01X41207Y26946D01*
G01X41192Y26935D01*
G01X41164Y26911D01*
G01X41138Y26885D01*
G01X41114Y26857D01*
G01X41104Y26842D01*
G01X41093Y26827D01*
G01X41084Y26811D01*
G01X41075Y26794D01*
G01X41067Y26778D01*
G01X41059Y26761D01*
G01X41052Y26744D01*
G01X41047Y26727D01*
G01X41041Y26709D01*
G01X41037Y26691D01*
G01X41031Y26655D01*
G01X41029Y26636D01*
G01X41027Y26618D01*
G01X41027Y26580D01*
G01X41031Y26542D01*
G01X41034Y26523D01*
G01X41038Y26505D01*
G01X41043Y26486D01*
G01X41048Y26468D01*
G01X41054Y26450D01*
G01X41061Y26432D01*
G01X41069Y26415D01*
G01X41078Y26398D01*
G01X41088Y26381D01*
G01X41098Y26365D01*
G01X41109Y26350D01*
G01X41121Y26334D01*
G01X41133Y26320D01*
G01X41159Y26292D01*
G01X41173Y26280D01*
G01X41188Y26267D01*
G01X41204Y26256D01*
G01X41219Y26245D01*
G01X41235Y26235D01*
G01X41252Y26226D01*
G01X41257Y26223D01*
G01X41262Y26219D01*
G01X41266Y26214D01*
G01X41269Y26209D01*
G01X41272Y26203D01*
G01X41273Y26197D01*
G01X41273Y15083D01*
G01X41272Y15077D01*
G01X41266Y15065D01*
G01X36034Y9833D01*
G01X36028Y9830D01*
G01X36016Y9826D01*
G01X29084Y9826D01*
G01X29072Y9830D01*
G01X29067Y9833D01*
G01X29058Y9842D01*
G01X29055Y9848D01*
G01X29046Y9865D01*
G01X29036Y9882D01*
G01X29026Y9898D01*
G01X29015Y9914D01*
G01X29003Y9930D01*
G01X28991Y9944D01*
G01X28978Y9959D01*
G01X28964Y9973D01*
G01X28950Y9986D01*
G01X28920Y10010D01*
G01X28888Y10032D01*
G01X28872Y10042D01*
G01X28855Y10051D01*
G01X28837Y10060D01*
G01X28801Y10074D01*
G01X28783Y10080D01*
G01X28764Y10086D01*
G01X28746Y10090D01*
G01X28727Y10094D01*
G01X28707Y10097D01*
G01X28688Y10099D01*
G01X28650Y10101D01*
G01X28630Y10100D01*
G01X28611Y10099D01*
G01X28592Y10097D01*
G01X28573Y10094D01*
G01X28555Y10090D01*
G01X28536Y10086D01*
G01X28518Y10081D01*
G01X28499Y10075D01*
G01X28481Y10068D01*
G01X28464Y10061D01*
G01X28413Y10034D01*
G01X28381Y10012D01*
G01X28366Y10000D01*
G01X28352Y9988D01*
G01X28338Y9975D01*
G01X28311Y9948D01*
G01X28287Y9918D01*
G01X28265Y9886D01*
G01X28256Y9869D01*
G01X28247Y9853D01*
G01X28239Y9835D01*
G01X28231Y9818D01*
G01X28224Y9800D01*
G01X28218Y9782D01*
G01X28213Y9763D01*
G01X28209Y9744D01*
G01X28205Y9726D01*
G01X28202Y9707D01*
G01X28200Y9688D01*
G01X28198Y9650D01*
G01X28199Y9630D01*
G01X28200Y9611D01*
G01X28202Y9592D01*
G01X28205Y9573D01*
G01X28209Y9555D01*
G01X28213Y9536D01*
G01X28218Y9517D01*
G01X28224Y9499D01*
G01X28231Y9481D01*
G01X28239Y9464D01*
G01X28247Y9446D01*
G01X28256Y9430D01*
G01X28265Y9413D01*
G01X28287Y9381D01*
G01X28311Y9351D01*
G01X28338Y9324D01*
G01X28352Y9311D01*
G01X28366Y9299D01*
G01X28381Y9287D01*
G01X28413Y9265D01*
G01X28464Y9238D01*
G01X28481Y9231D01*
G01X28499Y9224D01*
G01X28518Y9218D01*
G01X28536Y9213D01*
G01X28555Y9209D01*
G01X28573Y9205D01*
G01X28592Y9202D01*
G01X28611Y9200D01*
G01X28630Y9199D01*
G01X28650Y9198D01*
G01X28688Y9200D01*
G01X28707Y9202D01*
G01X28727Y9205D01*
G01X28746Y9209D01*
G01X28764Y9213D01*
G01X28783Y9219D01*
G01X28801Y9225D01*
G01X28837Y9239D01*
G01X28855Y9248D01*
G01X28872Y9257D01*
G01X28888Y9267D01*
G01X28920Y9289D01*
G01X28950Y9313D01*
G01X28964Y9326D01*
G01X28978Y9340D01*
G01X28991Y9355D01*
G01X29003Y9369D01*
G01X29015Y9385D01*
G01X29026Y9401D01*
G01X29036Y9417D01*
G01X29046Y9434D01*
G01X29055Y9451D01*
G01X29058Y9457D01*
G01X29067Y9466D01*
G01X29072Y9469D01*
G01X29084Y9473D01*
G01X36100Y9473D01*
G01X36112Y9474D01*
G01X36125Y9475D01*
G01X36161Y9484D01*
G01X36173Y9490D01*
G01X36184Y9495D01*
G01X36195Y9501D01*
G01X36215Y9517D01*
G01X36224Y9525D01*
G01X41574Y14875D01*
G01X41582Y14884D01*
G01X41590Y14894D01*
G01X41597Y14904D01*
G01X41604Y14915D01*
G01X41610Y14926D01*
G01X41622Y14962D01*
G01X41624Y14975D01*
G01X41625Y14987D01*
G01X41626Y15000D01*
G01X41626Y26197D01*
G01X41627Y26203D01*
G01X41630Y26209D01*
G01X41633Y26214D01*
G01X41637Y26219D01*
G01X41642Y26223D01*
G01X41647Y26226D01*
G01X41664Y26235D01*
G01X41680Y26245D01*
G01X41696Y26256D01*
G01X41711Y26267D01*
G01X41726Y26280D01*
G01X41740Y26292D01*
G01X41779Y26334D01*
G01X41790Y26350D01*
G01X41801Y26365D01*
G01X41811Y26381D01*
G01X41821Y26398D01*
G01X41830Y26415D01*
G01X41838Y26432D01*
G01X41845Y26450D01*
G01X41851Y26468D01*
G01X41856Y26486D01*
G01X41861Y26505D01*
G01X41865Y26523D01*
G01X41868Y26542D01*
G01X41872Y26580D01*
G01X41872Y26618D01*
G01X41870Y26636D01*
G01X41868Y26655D01*
G01X41862Y26691D01*
G01X41858Y26709D01*
G01X41852Y26727D01*
G01X41847Y26744D01*
G01X41840Y26761D01*
G01X41832Y26778D01*
G01X41824Y26794D01*
G01X41815Y26811D01*
G01X41806Y26827D01*
G01X41796Y26842D01*
G01X41785Y26857D01*
G01X41761Y26885D01*
G01X41735Y26911D01*
G01X41707Y26935D01*
G01X41692Y26946D01*
G01X41677Y26956D01*
G01X41661Y26965D01*
G01X41644Y26974D01*
G01X41628Y26982D01*
G01X41611Y26990D01*
G01X41594Y26996D01*
G01X41577Y27003D01*
G01X41559Y27008D01*
G01X41541Y27012D01*
G01X41505Y27018D01*
G01X41486Y27020D01*
G37*
G36*
G01X28688Y11099D02*
G01X28650Y11101D01*
G01X28630Y11100D01*
G01X28611Y11099D01*
G01X28592Y11097D01*
G01X28573Y11094D01*
G01X28555Y11090D01*
G01X28536Y11086D01*
G01X28518Y11081D01*
G01X28499Y11075D01*
G01X28481Y11068D01*
G01X28464Y11061D01*
G01X28413Y11034D01*
G01X28381Y11012D01*
G01X28366Y11000D01*
G01X28352Y10988D01*
G01X28338Y10975D01*
G01X28311Y10948D01*
G01X28287Y10918D01*
G01X28265Y10886D01*
G01X28256Y10869D01*
G01X28247Y10853D01*
G01X28239Y10835D01*
G01X28231Y10818D01*
G01X28224Y10800D01*
G01X28218Y10782D01*
G01X28213Y10763D01*
G01X28209Y10744D01*
G01X28205Y10726D01*
G01X28202Y10707D01*
G01X28200Y10688D01*
G01X28198Y10650D01*
G01X28199Y10630D01*
G01X28200Y10611D01*
G01X28202Y10592D01*
G01X28205Y10573D01*
G01X28209Y10555D01*
G01X28213Y10536D01*
G01X28218Y10517D01*
G01X28224Y10499D01*
G01X28231Y10481D01*
G01X28239Y10464D01*
G01X28247Y10446D01*
G01X28256Y10430D01*
G01X28265Y10413D01*
G01X28287Y10381D01*
G01X28311Y10351D01*
G01X28338Y10324D01*
G01X28352Y10311D01*
G01X28366Y10299D01*
G01X28381Y10287D01*
G01X28413Y10265D01*
G01X28464Y10238D01*
G01X28481Y10231D01*
G01X28499Y10224D01*
G01X28518Y10218D01*
G01X28536Y10213D01*
G01X28555Y10209D01*
G01X28573Y10205D01*
G01X28592Y10202D01*
G01X28611Y10200D01*
G01X28630Y10199D01*
G01X28650Y10198D01*
G01X28688Y10200D01*
G01X28707Y10202D01*
G01X28726Y10205D01*
G01X28744Y10209D01*
G01X28763Y10213D01*
G01X28781Y10218D01*
G01X28800Y10224D01*
G01X28818Y10231D01*
G01X28835Y10238D01*
G01X28886Y10265D01*
G01X28918Y10287D01*
G01X28933Y10299D01*
G01X28947Y10311D01*
G01X28961Y10324D01*
G01X28988Y10351D01*
G01X29012Y10381D01*
G01X29034Y10413D01*
G01X29043Y10430D01*
G01X29052Y10446D01*
G01X29060Y10464D01*
G01X29068Y10481D01*
G01X29075Y10499D01*
G01X29081Y10517D01*
G01X29086Y10536D01*
G01X29090Y10555D01*
G01X29094Y10573D01*
G01X29097Y10592D01*
G01X29099Y10611D01*
G01X29100Y10630D01*
G01X29101Y10650D01*
G01X29099Y10688D01*
G01X29097Y10707D01*
G01X29094Y10726D01*
G01X29090Y10744D01*
G01X29086Y10763D01*
G01X29081Y10782D01*
G01X29075Y10800D01*
G01X29068Y10818D01*
G01X29060Y10835D01*
G01X29052Y10853D01*
G01X29043Y10869D01*
G01X29034Y10886D01*
G01X29012Y10918D01*
G01X28988Y10948D01*
G01X28961Y10975D01*
G01X28947Y10988D01*
G01X28933Y11000D01*
G01X28918Y11012D01*
G01X28886Y11034D01*
G01X28835Y11061D01*
G01X28818Y11068D01*
G01X28800Y11075D01*
G01X28781Y11081D01*
G01X28763Y11086D01*
G01X28744Y11090D01*
G01X28726Y11094D01*
G01X28707Y11097D01*
G01X28688Y11099D01*
G37*
G36*
G01X22688Y11099D02*
G01X22650Y11101D01*
G01X22630Y11100D01*
G01X22611Y11099D01*
G01X22592Y11097D01*
G01X22573Y11094D01*
G01X22555Y11090D01*
G01X22536Y11086D01*
G01X22518Y11081D01*
G01X22499Y11075D01*
G01X22481Y11068D01*
G01X22464Y11061D01*
G01X22413Y11034D01*
G01X22381Y11012D01*
G01X22366Y11000D01*
G01X22352Y10988D01*
G01X22338Y10975D01*
G01X22311Y10948D01*
G01X22287Y10918D01*
G01X22265Y10886D01*
G01X22256Y10869D01*
G01X22247Y10853D01*
G01X22239Y10835D01*
G01X22231Y10818D01*
G01X22224Y10800D01*
G01X22218Y10782D01*
G01X22213Y10763D01*
G01X22209Y10744D01*
G01X22205Y10726D01*
G01X22202Y10707D01*
G01X22200Y10688D01*
G01X22198Y10650D01*
G01X22199Y10630D01*
G01X22200Y10611D01*
G01X22202Y10592D01*
G01X22205Y10573D01*
G01X22209Y10555D01*
G01X22213Y10536D01*
G01X22218Y10517D01*
G01X22224Y10499D01*
G01X22231Y10481D01*
G01X22239Y10464D01*
G01X22247Y10446D01*
G01X22256Y10430D01*
G01X22265Y10413D01*
G01X22287Y10381D01*
G01X22311Y10351D01*
G01X22338Y10324D01*
G01X22352Y10311D01*
G01X22366Y10299D01*
G01X22381Y10287D01*
G01X22413Y10265D01*
G01X22464Y10238D01*
G01X22481Y10231D01*
G01X22499Y10224D01*
G01X22518Y10218D01*
G01X22536Y10213D01*
G01X22555Y10209D01*
G01X22573Y10205D01*
G01X22592Y10202D01*
G01X22611Y10200D01*
G01X22630Y10199D01*
G01X22650Y10198D01*
G01X22688Y10200D01*
G01X22707Y10202D01*
G01X22726Y10205D01*
G01X22744Y10209D01*
G01X22763Y10213D01*
G01X22781Y10218D01*
G01X22800Y10224D01*
G01X22818Y10231D01*
G01X22835Y10238D01*
G01X22886Y10265D01*
G01X22918Y10287D01*
G01X22933Y10299D01*
G01X22947Y10311D01*
G01X22961Y10324D01*
G01X22988Y10351D01*
G01X23012Y10381D01*
G01X23034Y10413D01*
G01X23043Y10430D01*
G01X23052Y10446D01*
G01X23060Y10464D01*
G01X23068Y10481D01*
G01X23075Y10499D01*
G01X23081Y10517D01*
G01X23086Y10536D01*
G01X23090Y10555D01*
G01X23094Y10573D01*
G01X23097Y10592D01*
G01X23099Y10611D01*
G01X23100Y10630D01*
G01X23101Y10650D01*
G01X23099Y10688D01*
G01X23097Y10707D01*
G01X23094Y10726D01*
G01X23090Y10744D01*
G01X23086Y10763D01*
G01X23081Y10782D01*
G01X23075Y10800D01*
G01X23068Y10818D01*
G01X23060Y10835D01*
G01X23052Y10853D01*
G01X23043Y10869D01*
G01X23034Y10886D01*
G01X23012Y10918D01*
G01X22988Y10948D01*
G01X22961Y10975D01*
G01X22947Y10988D01*
G01X22933Y11000D01*
G01X22918Y11012D01*
G01X22886Y11034D01*
G01X22835Y11061D01*
G01X22818Y11068D01*
G01X22800Y11075D01*
G01X22781Y11081D01*
G01X22763Y11086D01*
G01X22744Y11090D01*
G01X22726Y11094D01*
G01X22707Y11097D01*
G01X22688Y11099D01*
G37*
G36*
G01X28688Y12099D02*
G01X28650Y12101D01*
G01X28630Y12100D01*
G01X28611Y12099D01*
G01X28592Y12097D01*
G01X28573Y12094D01*
G01X28555Y12090D01*
G01X28536Y12086D01*
G01X28518Y12081D01*
G01X28499Y12075D01*
G01X28481Y12068D01*
G01X28464Y12061D01*
G01X28413Y12034D01*
G01X28381Y12012D01*
G01X28366Y12000D01*
G01X28352Y11988D01*
G01X28338Y11975D01*
G01X28311Y11948D01*
G01X28287Y11918D01*
G01X28265Y11886D01*
G01X28256Y11869D01*
G01X28247Y11853D01*
G01X28239Y11835D01*
G01X28231Y11818D01*
G01X28224Y11800D01*
G01X28218Y11782D01*
G01X28213Y11763D01*
G01X28209Y11744D01*
G01X28205Y11726D01*
G01X28202Y11707D01*
G01X28200Y11688D01*
G01X28198Y11650D01*
G01X28199Y11630D01*
G01X28200Y11611D01*
G01X28202Y11592D01*
G01X28205Y11573D01*
G01X28209Y11555D01*
G01X28213Y11536D01*
G01X28218Y11517D01*
G01X28224Y11499D01*
G01X28231Y11481D01*
G01X28239Y11464D01*
G01X28247Y11446D01*
G01X28256Y11430D01*
G01X28265Y11413D01*
G01X28287Y11381D01*
G01X28311Y11351D01*
G01X28338Y11324D01*
G01X28352Y11311D01*
G01X28366Y11299D01*
G01X28381Y11287D01*
G01X28413Y11265D01*
G01X28464Y11238D01*
G01X28481Y11231D01*
G01X28499Y11224D01*
G01X28518Y11218D01*
G01X28536Y11213D01*
G01X28555Y11209D01*
G01X28573Y11205D01*
G01X28592Y11202D01*
G01X28611Y11200D01*
G01X28630Y11199D01*
G01X28650Y11198D01*
G01X28688Y11200D01*
G01X28707Y11202D01*
G01X28726Y11205D01*
G01X28744Y11209D01*
G01X28763Y11213D01*
G01X28781Y11218D01*
G01X28800Y11224D01*
G01X28818Y11231D01*
G01X28835Y11238D01*
G01X28886Y11265D01*
G01X28918Y11287D01*
G01X28933Y11299D01*
G01X28947Y11311D01*
G01X28961Y11324D01*
G01X28988Y11351D01*
G01X29012Y11381D01*
G01X29034Y11413D01*
G01X29043Y11430D01*
G01X29052Y11446D01*
G01X29060Y11464D01*
G01X29068Y11481D01*
G01X29075Y11499D01*
G01X29081Y11517D01*
G01X29086Y11536D01*
G01X29090Y11555D01*
G01X29094Y11573D01*
G01X29097Y11592D01*
G01X29099Y11611D01*
G01X29100Y11630D01*
G01X29101Y11650D01*
G01X29099Y11688D01*
G01X29097Y11707D01*
G01X29094Y11726D01*
G01X29090Y11744D01*
G01X29086Y11763D01*
G01X29081Y11782D01*
G01X29075Y11800D01*
G01X29068Y11818D01*
G01X29060Y11835D01*
G01X29052Y11853D01*
G01X29043Y11869D01*
G01X29034Y11886D01*
G01X29012Y11918D01*
G01X28988Y11948D01*
G01X28961Y11975D01*
G01X28947Y11988D01*
G01X28933Y12000D01*
G01X28918Y12012D01*
G01X28886Y12034D01*
G01X28835Y12061D01*
G01X28818Y12068D01*
G01X28800Y12075D01*
G01X28781Y12081D01*
G01X28763Y12086D01*
G01X28744Y12090D01*
G01X28726Y12094D01*
G01X28707Y12097D01*
G01X28688Y12099D01*
G37*
G36*
G01X23576Y23019D02*
G01X23550Y23021D01*
G01X23522Y23019D01*
G01X23508Y23017D01*
G01X23494Y23013D01*
G01X23481Y23010D01*
G01X23468Y23005D01*
G01X23456Y23000D01*
G01X23443Y22993D01*
G01X23431Y22986D01*
G01X23409Y22970D01*
G01X23398Y22961D01*
G01X23389Y22951D01*
G01X23379Y22940D01*
G01X23371Y22930D01*
G01X23363Y22918D01*
G01X23356Y22906D01*
G01X23350Y22894D01*
G01X23344Y22881D01*
G01X23339Y22868D01*
G01X23335Y22855D01*
G01X23332Y22841D01*
G01X23331Y22835D01*
G01X23322Y22820D01*
G01X19825Y19324D01*
G01X19817Y19315D01*
G01X19809Y19305D01*
G01X19802Y19295D01*
G01X19795Y19284D01*
G01X19789Y19273D01*
G01X19777Y19237D01*
G01X19775Y19225D01*
G01X19774Y19212D01*
G01X19773Y19200D01*
G01X19773Y11740D01*
G01X19772Y11734D01*
G01X19769Y11729D01*
G01X19767Y11723D01*
G01X19759Y11711D01*
G01X19752Y11698D01*
G01X19746Y11685D01*
G01X19740Y11671D01*
G01X19736Y11657D01*
G01X19733Y11643D01*
G01X19731Y11629D01*
G01X19729Y11614D01*
G01X19728Y11600D01*
G01X19729Y11586D01*
G01X19730Y11573D01*
G01X19732Y11560D01*
G01X19735Y11547D01*
G01X19743Y11521D01*
G01X19748Y11509D01*
G01X19760Y11485D01*
G01X19776Y11463D01*
G01X19784Y11453D01*
G01X19793Y11443D01*
G01X19803Y11434D01*
G01X19813Y11426D01*
G01X19835Y11410D01*
G01X19859Y11398D01*
G01X19871Y11393D01*
G01X19884Y11388D01*
G01X19910Y11382D01*
G01X19923Y11380D01*
G01X19936Y11379D01*
G01X19950Y11378D01*
G01X19976Y11380D01*
G01X19989Y11382D01*
G01X20015Y11388D01*
G01X20028Y11393D01*
G01X20040Y11398D01*
G01X20064Y11410D01*
G01X20086Y11426D01*
G01X20096Y11434D01*
G01X20106Y11443D01*
G01X20115Y11453D01*
G01X20123Y11463D01*
G01X20139Y11485D01*
G01X20151Y11509D01*
G01X20156Y11521D01*
G01X20164Y11547D01*
G01X20167Y11560D01*
G01X20169Y11573D01*
G01X20170Y11586D01*
G01X20171Y11600D01*
G01X20170Y11614D01*
G01X20168Y11629D01*
G01X20166Y11643D01*
G01X20163Y11657D01*
G01X20159Y11671D01*
G01X20153Y11685D01*
G01X20147Y11698D01*
G01X20140Y11711D01*
G01X20132Y11723D01*
G01X20130Y11729D01*
G01X20127Y11734D01*
G01X20126Y11740D01*
G01X20126Y19116D01*
G01X20127Y19122D01*
G01X20133Y19134D01*
G01X23570Y22571D01*
G01X23575Y22575D01*
G01X23585Y22581D01*
G01X23591Y22582D01*
G01X23605Y22586D01*
G01X23618Y22589D01*
G01X23631Y22594D01*
G01X23644Y22600D01*
G01X23656Y22606D01*
G01X23668Y22613D01*
G01X23680Y22621D01*
G01X23690Y22629D01*
G01X23701Y22638D01*
G01X23711Y22648D01*
G01X23720Y22659D01*
G01X23736Y22681D01*
G01X23750Y22705D01*
G01X23760Y22731D01*
G01X23764Y22744D01*
G01X23767Y22758D01*
G01X23769Y22772D01*
G01X23771Y22800D01*
G01X23769Y22826D01*
G01X23767Y22839D01*
G01X23764Y22852D01*
G01X23756Y22878D01*
G01X23751Y22890D01*
G01X23739Y22914D01*
G01X23723Y22936D01*
G01X23715Y22946D01*
G01X23706Y22956D01*
G01X23696Y22965D01*
G01X23686Y22973D01*
G01X23664Y22989D01*
G01X23640Y23001D01*
G01X23628Y23006D01*
G01X23615Y23011D01*
G01X23589Y23017D01*
G01X23576Y23019D01*
G37*
G36*
G01X28688Y13099D02*
G01X28650Y13101D01*
G01X28630Y13100D01*
G01X28611Y13099D01*
G01X28592Y13097D01*
G01X28573Y13094D01*
G01X28555Y13090D01*
G01X28536Y13086D01*
G01X28518Y13081D01*
G01X28499Y13075D01*
G01X28481Y13068D01*
G01X28464Y13061D01*
G01X28413Y13034D01*
G01X28381Y13012D01*
G01X28366Y13000D01*
G01X28352Y12988D01*
G01X28338Y12975D01*
G01X28311Y12948D01*
G01X28287Y12918D01*
G01X28265Y12886D01*
G01X28256Y12869D01*
G01X28247Y12853D01*
G01X28239Y12835D01*
G01X28231Y12818D01*
G01X28224Y12800D01*
G01X28218Y12782D01*
G01X28213Y12763D01*
G01X28209Y12744D01*
G01X28205Y12726D01*
G01X28202Y12707D01*
G01X28200Y12688D01*
G01X28198Y12650D01*
G01X28199Y12630D01*
G01X28200Y12611D01*
G01X28202Y12592D01*
G01X28205Y12573D01*
G01X28209Y12555D01*
G01X28213Y12536D01*
G01X28218Y12517D01*
G01X28224Y12499D01*
G01X28231Y12481D01*
G01X28239Y12464D01*
G01X28247Y12446D01*
G01X28256Y12430D01*
G01X28265Y12413D01*
G01X28287Y12381D01*
G01X28311Y12351D01*
G01X28338Y12324D01*
G01X28352Y12311D01*
G01X28366Y12299D01*
G01X28381Y12287D01*
G01X28413Y12265D01*
G01X28464Y12238D01*
G01X28481Y12231D01*
G01X28499Y12224D01*
G01X28518Y12218D01*
G01X28536Y12213D01*
G01X28555Y12209D01*
G01X28573Y12205D01*
G01X28592Y12202D01*
G01X28611Y12200D01*
G01X28630Y12199D01*
G01X28650Y12198D01*
G01X28688Y12200D01*
G01X28707Y12202D01*
G01X28726Y12205D01*
G01X28744Y12209D01*
G01X28763Y12213D01*
G01X28781Y12218D01*
G01X28800Y12224D01*
G01X28818Y12231D01*
G01X28835Y12238D01*
G01X28886Y12265D01*
G01X28918Y12287D01*
G01X28933Y12299D01*
G01X28947Y12311D01*
G01X28961Y12324D01*
G01X28988Y12351D01*
G01X29012Y12381D01*
G01X29034Y12413D01*
G01X29043Y12430D01*
G01X29052Y12446D01*
G01X29060Y12464D01*
G01X29068Y12481D01*
G01X29075Y12499D01*
G01X29081Y12517D01*
G01X29086Y12536D01*
G01X29090Y12555D01*
G01X29094Y12573D01*
G01X29097Y12592D01*
G01X29099Y12611D01*
G01X29100Y12630D01*
G01X29101Y12650D01*
G01X29099Y12688D01*
G01X29097Y12707D01*
G01X29094Y12726D01*
G01X29090Y12744D01*
G01X29086Y12763D01*
G01X29081Y12782D01*
G01X29075Y12800D01*
G01X29068Y12818D01*
G01X29060Y12835D01*
G01X29052Y12853D01*
G01X29043Y12869D01*
G01X29034Y12886D01*
G01X29012Y12918D01*
G01X28988Y12948D01*
G01X28961Y12975D01*
G01X28947Y12988D01*
G01X28933Y13000D01*
G01X28918Y13012D01*
G01X28886Y13034D01*
G01X28835Y13061D01*
G01X28818Y13068D01*
G01X28800Y13075D01*
G01X28781Y13081D01*
G01X28763Y13086D01*
G01X28744Y13090D01*
G01X28726Y13094D01*
G01X28707Y13097D01*
G01X28688Y13099D01*
G37*
G36*
G01X23676Y22169D02*
G01X23650Y22171D01*
G01X23622Y22169D01*
G01X23608Y22167D01*
G01X23594Y22163D01*
G01X23581Y22160D01*
G01X23568Y22155D01*
G01X23556Y22150D01*
G01X23543Y22143D01*
G01X23531Y22136D01*
G01X23509Y22120D01*
G01X23498Y22111D01*
G01X23489Y22101D01*
G01X23479Y22090D01*
G01X23471Y22080D01*
G01X23463Y22068D01*
G01X23456Y22056D01*
G01X23450Y22044D01*
G01X23444Y22031D01*
G01X23439Y22018D01*
G01X23435Y22005D01*
G01X23432Y21991D01*
G01X23431Y21985D01*
G01X23422Y21970D01*
G01X20425Y18974D01*
G01X20417Y18965D01*
G01X20409Y18955D01*
G01X20402Y18945D01*
G01X20395Y18934D01*
G01X20389Y18923D01*
G01X20377Y18887D01*
G01X20375Y18875D01*
G01X20374Y18862D01*
G01X20373Y18850D01*
G01X20373Y13750D01*
G01X20374Y13737D01*
G01X20375Y13725D01*
G01X20377Y13712D01*
G01X20389Y13676D01*
G01X20395Y13665D01*
G01X20402Y13654D01*
G01X20409Y13644D01*
G01X20417Y13634D01*
G01X20425Y13625D01*
G01X21525Y12525D01*
G01X21534Y12517D01*
G01X21554Y12501D01*
G01X21565Y12495D01*
G01X21576Y12490D01*
G01X21588Y12484D01*
G01X21612Y12478D01*
G01X21625Y12475D01*
G01X21637Y12474D01*
G01X21650Y12473D01*
G01X22215Y12473D01*
G01X22227Y12469D01*
G01X22232Y12466D01*
G01X22241Y12457D01*
G01X22244Y12451D01*
G01X22253Y12434D01*
G01X22263Y12417D01*
G01X22273Y12401D01*
G01X22284Y12385D01*
G01X22296Y12369D01*
G01X22308Y12355D01*
G01X22321Y12340D01*
G01X22335Y12326D01*
G01X22349Y12313D01*
G01X22379Y12289D01*
G01X22411Y12267D01*
G01X22427Y12257D01*
G01X22444Y12248D01*
G01X22462Y12239D01*
G01X22498Y12225D01*
G01X22516Y12219D01*
G01X22535Y12213D01*
G01X22553Y12209D01*
G01X22572Y12205D01*
G01X22592Y12202D01*
G01X22611Y12200D01*
G01X22630Y12199D01*
G01X22650Y12198D01*
G01X22688Y12200D01*
G01X22707Y12202D01*
G01X22726Y12205D01*
G01X22744Y12209D01*
G01X22763Y12213D01*
G01X22781Y12218D01*
G01X22800Y12224D01*
G01X22818Y12231D01*
G01X22835Y12238D01*
G01X22886Y12265D01*
G01X22918Y12287D01*
G01X22933Y12299D01*
G01X22947Y12311D01*
G01X22961Y12324D01*
G01X22988Y12351D01*
G01X23012Y12381D01*
G01X23034Y12413D01*
G01X23043Y12430D01*
G01X23052Y12446D01*
G01X23060Y12464D01*
G01X23068Y12481D01*
G01X23075Y12499D01*
G01X23081Y12517D01*
G01X23086Y12536D01*
G01X23090Y12555D01*
G01X23094Y12573D01*
G01X23097Y12592D01*
G01X23099Y12611D01*
G01X23100Y12630D01*
G01X23101Y12650D01*
G01X23099Y12688D01*
G01X23097Y12707D01*
G01X23094Y12726D01*
G01X23090Y12744D01*
G01X23086Y12763D01*
G01X23081Y12782D01*
G01X23075Y12800D01*
G01X23068Y12818D01*
G01X23060Y12835D01*
G01X23052Y12853D01*
G01X23043Y12869D01*
G01X23034Y12886D01*
G01X23012Y12918D01*
G01X22988Y12948D01*
G01X22961Y12975D01*
G01X22947Y12988D01*
G01X22933Y13000D01*
G01X22918Y13012D01*
G01X22886Y13034D01*
G01X22835Y13061D01*
G01X22818Y13068D01*
G01X22800Y13075D01*
G01X22781Y13081D01*
G01X22763Y13086D01*
G01X22744Y13090D01*
G01X22726Y13094D01*
G01X22707Y13097D01*
G01X22688Y13099D01*
G01X22650Y13101D01*
G01X22630Y13100D01*
G01X22611Y13099D01*
G01X22592Y13097D01*
G01X22572Y13094D01*
G01X22553Y13090D01*
G01X22535Y13086D01*
G01X22516Y13080D01*
G01X22498Y13074D01*
G01X22462Y13060D01*
G01X22444Y13051D01*
G01X22427Y13042D01*
G01X22411Y13032D01*
G01X22379Y13010D01*
G01X22349Y12986D01*
G01X22335Y12973D01*
G01X22321Y12959D01*
G01X22308Y12944D01*
G01X22296Y12930D01*
G01X22284Y12914D01*
G01X22273Y12898D01*
G01X22263Y12882D01*
G01X22253Y12865D01*
G01X22244Y12848D01*
G01X22241Y12842D01*
G01X22232Y12833D01*
G01X22227Y12830D01*
G01X22215Y12826D01*
G01X21733Y12826D01*
G01X21721Y12830D01*
G01X21715Y12833D01*
G01X20733Y13815D01*
G01X20727Y13827D01*
G01X20726Y13833D01*
G01X20726Y18766D01*
G01X20727Y18772D01*
G01X20733Y18784D01*
G01X23670Y21721D01*
G01X23675Y21725D01*
G01X23685Y21731D01*
G01X23691Y21732D01*
G01X23705Y21736D01*
G01X23718Y21739D01*
G01X23731Y21744D01*
G01X23744Y21750D01*
G01X23756Y21756D01*
G01X23768Y21763D01*
G01X23780Y21771D01*
G01X23790Y21779D01*
G01X23801Y21788D01*
G01X23811Y21798D01*
G01X23820Y21809D01*
G01X23836Y21831D01*
G01X23850Y21855D01*
G01X23860Y21881D01*
G01X23864Y21894D01*
G01X23867Y21908D01*
G01X23869Y21922D01*
G01X23871Y21950D01*
G01X23869Y21976D01*
G01X23867Y21989D01*
G01X23864Y22002D01*
G01X23856Y22028D01*
G01X23851Y22040D01*
G01X23839Y22064D01*
G01X23823Y22086D01*
G01X23815Y22096D01*
G01X23806Y22106D01*
G01X23796Y22115D01*
G01X23786Y22123D01*
G01X23764Y22139D01*
G01X23740Y22151D01*
G01X23728Y22156D01*
G01X23715Y22161D01*
G01X23689Y22167D01*
G01X23676Y22169D01*
G37*
G36*
G01X8555Y12813D02*
G01X8302Y12813D01*
G01X8302Y12560D01*
G01X8463Y12560D01*
G01X8472Y12561D01*
G01X8490Y12567D01*
G01X8499Y12571D01*
G01X8507Y12575D01*
G01X8515Y12580D01*
G01X8522Y12586D01*
G01X8528Y12593D01*
G01X8535Y12600D01*
G01X8540Y12608D01*
G01X8548Y12624D01*
G01X8551Y12633D01*
G01X8553Y12642D01*
G01X8554Y12651D01*
G01X8555Y12661D01*
G01X8555Y12813D01*
G37*
G36*
G01X7897Y12813D02*
G01X7644Y12813D01*
G01X7644Y12661D01*
G01X7645Y12651D01*
G01X7646Y12642D01*
G01X7648Y12633D01*
G01X7651Y12624D01*
G01X7659Y12608D01*
G01X7664Y12600D01*
G01X7671Y12593D01*
G01X7677Y12586D01*
G01X7684Y12580D01*
G01X7692Y12575D01*
G01X7700Y12571D01*
G01X7709Y12567D01*
G01X7727Y12561D01*
G01X7736Y12560D01*
G01X7897Y12560D01*
G01X7897Y12813D01*
G37*
G36*
G01X22688Y14099D02*
G01X22650Y14101D01*
G01X22630Y14100D01*
G01X22611Y14099D01*
G01X22592Y14097D01*
G01X22573Y14094D01*
G01X22555Y14090D01*
G01X22536Y14086D01*
G01X22518Y14081D01*
G01X22499Y14075D01*
G01X22481Y14068D01*
G01X22464Y14061D01*
G01X22413Y14034D01*
G01X22381Y14012D01*
G01X22366Y14000D01*
G01X22352Y13988D01*
G01X22338Y13975D01*
G01X22311Y13948D01*
G01X22287Y13918D01*
G01X22265Y13886D01*
G01X22256Y13869D01*
G01X22247Y13853D01*
G01X22239Y13835D01*
G01X22231Y13818D01*
G01X22224Y13800D01*
G01X22218Y13782D01*
G01X22213Y13763D01*
G01X22209Y13744D01*
G01X22205Y13726D01*
G01X22202Y13707D01*
G01X22200Y13688D01*
G01X22198Y13650D01*
G01X22199Y13630D01*
G01X22200Y13611D01*
G01X22202Y13592D01*
G01X22205Y13573D01*
G01X22209Y13555D01*
G01X22213Y13536D01*
G01X22218Y13517D01*
G01X22224Y13499D01*
G01X22231Y13481D01*
G01X22239Y13464D01*
G01X22247Y13446D01*
G01X22256Y13430D01*
G01X22265Y13413D01*
G01X22287Y13381D01*
G01X22311Y13351D01*
G01X22338Y13324D01*
G01X22352Y13311D01*
G01X22366Y13299D01*
G01X22381Y13287D01*
G01X22413Y13265D01*
G01X22464Y13238D01*
G01X22481Y13231D01*
G01X22499Y13224D01*
G01X22518Y13218D01*
G01X22536Y13213D01*
G01X22555Y13209D01*
G01X22573Y13205D01*
G01X22592Y13202D01*
G01X22611Y13200D01*
G01X22630Y13199D01*
G01X22650Y13198D01*
G01X22688Y13200D01*
G01X22707Y13202D01*
G01X22726Y13205D01*
G01X22744Y13209D01*
G01X22763Y13213D01*
G01X22781Y13218D01*
G01X22800Y13224D01*
G01X22818Y13231D01*
G01X22835Y13238D01*
G01X22886Y13265D01*
G01X22918Y13287D01*
G01X22933Y13299D01*
G01X22947Y13311D01*
G01X22961Y13324D01*
G01X22988Y13351D01*
G01X23012Y13381D01*
G01X23034Y13413D01*
G01X23043Y13430D01*
G01X23052Y13446D01*
G01X23060Y13464D01*
G01X23068Y13481D01*
G01X23075Y13499D01*
G01X23081Y13517D01*
G01X23086Y13536D01*
G01X23090Y13555D01*
G01X23094Y13573D01*
G01X23097Y13592D01*
G01X23099Y13611D01*
G01X23100Y13630D01*
G01X23101Y13650D01*
G01X23099Y13688D01*
G01X23097Y13707D01*
G01X23094Y13726D01*
G01X23090Y13744D01*
G01X23086Y13763D01*
G01X23081Y13782D01*
G01X23075Y13800D01*
G01X23068Y13818D01*
G01X23060Y13835D01*
G01X23052Y13853D01*
G01X23043Y13869D01*
G01X23034Y13886D01*
G01X23012Y13918D01*
G01X22988Y13948D01*
G01X22961Y13975D01*
G01X22947Y13988D01*
G01X22933Y14000D01*
G01X22918Y14012D01*
G01X22886Y14034D01*
G01X22835Y14061D01*
G01X22818Y14068D01*
G01X22800Y14075D01*
G01X22781Y14081D01*
G01X22763Y14086D01*
G01X22744Y14090D01*
G01X22726Y14094D01*
G01X22707Y14097D01*
G01X22688Y14099D01*
G37*
G36*
G01X28688Y14099D02*
G01X28650Y14101D01*
G01X28630Y14100D01*
G01X28611Y14099D01*
G01X28592Y14097D01*
G01X28573Y14094D01*
G01X28555Y14090D01*
G01X28536Y14086D01*
G01X28518Y14081D01*
G01X28499Y14075D01*
G01X28481Y14068D01*
G01X28464Y14061D01*
G01X28413Y14034D01*
G01X28381Y14012D01*
G01X28366Y14000D01*
G01X28352Y13988D01*
G01X28338Y13975D01*
G01X28311Y13948D01*
G01X28287Y13918D01*
G01X28265Y13886D01*
G01X28256Y13869D01*
G01X28247Y13853D01*
G01X28239Y13835D01*
G01X28231Y13818D01*
G01X28224Y13800D01*
G01X28218Y13782D01*
G01X28213Y13763D01*
G01X28209Y13744D01*
G01X28205Y13726D01*
G01X28202Y13707D01*
G01X28200Y13688D01*
G01X28198Y13650D01*
G01X28199Y13630D01*
G01X28200Y13611D01*
G01X28202Y13592D01*
G01X28205Y13573D01*
G01X28209Y13555D01*
G01X28213Y13536D01*
G01X28218Y13517D01*
G01X28224Y13499D01*
G01X28231Y13481D01*
G01X28239Y13464D01*
G01X28247Y13446D01*
G01X28256Y13430D01*
G01X28265Y13413D01*
G01X28287Y13381D01*
G01X28311Y13351D01*
G01X28338Y13324D01*
G01X28352Y13311D01*
G01X28366Y13299D01*
G01X28381Y13287D01*
G01X28413Y13265D01*
G01X28464Y13238D01*
G01X28481Y13231D01*
G01X28499Y13224D01*
G01X28518Y13218D01*
G01X28536Y13213D01*
G01X28555Y13209D01*
G01X28573Y13205D01*
G01X28592Y13202D01*
G01X28611Y13200D01*
G01X28630Y13199D01*
G01X28650Y13198D01*
G01X28688Y13200D01*
G01X28707Y13202D01*
G01X28726Y13205D01*
G01X28744Y13209D01*
G01X28763Y13213D01*
G01X28781Y13218D01*
G01X28800Y13224D01*
G01X28818Y13231D01*
G01X28835Y13238D01*
G01X28886Y13265D01*
G01X28918Y13287D01*
G01X28933Y13299D01*
G01X28947Y13311D01*
G01X28961Y13324D01*
G01X28988Y13351D01*
G01X29012Y13381D01*
G01X29034Y13413D01*
G01X29043Y13430D01*
G01X29052Y13446D01*
G01X29060Y13464D01*
G01X29068Y13481D01*
G01X29075Y13499D01*
G01X29081Y13517D01*
G01X29086Y13536D01*
G01X29090Y13555D01*
G01X29094Y13573D01*
G01X29097Y13592D01*
G01X29099Y13611D01*
G01X29100Y13630D01*
G01X29101Y13650D01*
G01X29099Y13688D01*
G01X29097Y13707D01*
G01X29094Y13726D01*
G01X29090Y13744D01*
G01X29086Y13763D01*
G01X29081Y13782D01*
G01X29075Y13800D01*
G01X29068Y13818D01*
G01X29060Y13835D01*
G01X29052Y13853D01*
G01X29043Y13869D01*
G01X29034Y13886D01*
G01X29012Y13918D01*
G01X28988Y13948D01*
G01X28961Y13975D01*
G01X28947Y13988D01*
G01X28933Y14000D01*
G01X28918Y14012D01*
G01X28886Y14034D01*
G01X28835Y14061D01*
G01X28818Y14068D01*
G01X28800Y14075D01*
G01X28781Y14081D01*
G01X28763Y14086D01*
G01X28744Y14090D01*
G01X28726Y14094D01*
G01X28707Y14097D01*
G01X28688Y14099D01*
G37*
G36*
G01X8454Y13471D02*
G01X8302Y13471D01*
G01X8302Y13217D01*
G01X8555Y13217D01*
G01X8555Y13369D01*
G01X8554Y13379D01*
G01X8553Y13388D01*
G01X8551Y13397D01*
G01X8548Y13406D01*
G01X8544Y13415D01*
G01X8540Y13423D01*
G01X8535Y13430D01*
G01X8528Y13438D01*
G01X8522Y13444D01*
G01X8515Y13450D01*
G01X8499Y13460D01*
G01X8490Y13464D01*
G01X8481Y13467D01*
G01X8472Y13469D01*
G01X8454Y13471D01*
G37*
G36*
G01X7897Y13471D02*
G01X7745Y13471D01*
G01X7727Y13469D01*
G01X7718Y13467D01*
G01X7709Y13464D01*
G01X7700Y13460D01*
G01X7684Y13450D01*
G01X7677Y13444D01*
G01X7671Y13438D01*
G01X7664Y13430D01*
G01X7659Y13423D01*
G01X7655Y13415D01*
G01X7651Y13406D01*
G01X7648Y13397D01*
G01X7646Y13388D01*
G01X7645Y13379D01*
G01X7644Y13369D01*
G01X7644Y13217D01*
G01X7897Y13217D01*
G01X7897Y13471D01*
G37*
G36*
G01X8138Y15438D02*
G01X8100Y15440D01*
G01X8080Y15439D01*
G01X8061Y15438D01*
G01X8042Y15436D01*
G01X8022Y15433D01*
G01X8003Y15429D01*
G01X7985Y15425D01*
G01X7966Y15420D01*
G01X7948Y15413D01*
G01X7930Y15407D01*
G01X7894Y15391D01*
G01X7877Y15382D01*
G01X7861Y15372D01*
G01X7844Y15361D01*
G01X7829Y15350D01*
G01X7799Y15326D01*
G01X7785Y15313D01*
G01X7771Y15299D01*
G01X7758Y15285D01*
G01X7745Y15270D01*
G01X7734Y15255D01*
G01X7722Y15239D01*
G01X7712Y15223D01*
G01X7702Y15206D01*
G01X7693Y15189D01*
G01X7685Y15172D01*
G01X7677Y15154D01*
G01X7670Y15136D01*
G01X7664Y15117D01*
G01X7659Y15099D01*
G01X7654Y15080D01*
G01X7648Y15042D01*
G01X7646Y15023D01*
G01X7644Y15003D01*
G01X7644Y14965D01*
G01X7646Y14945D01*
G01X7648Y14926D01*
G01X7651Y14906D01*
G01X7659Y14868D01*
G01X7671Y14830D01*
G01X7678Y14812D01*
G01X7694Y14776D01*
G01X7714Y14742D01*
G01X7736Y14710D01*
G01X7748Y14695D01*
G01X7761Y14680D01*
G01X7774Y14666D01*
G01X7788Y14652D01*
G01X7818Y14626D01*
G01X7834Y14615D01*
G01X7850Y14603D01*
G01X7866Y14593D01*
G01X7884Y14584D01*
G01X7901Y14575D01*
G01X7919Y14566D01*
G01X7955Y14552D01*
G01X7974Y14546D01*
G01X7993Y14542D01*
G01X8012Y14537D01*
G01X8031Y14534D01*
G01X8051Y14532D01*
G01X8057Y14530D01*
G01X8062Y14528D01*
G01X8068Y14526D01*
G01X8072Y14523D01*
G01X8076Y14519D01*
G01X8080Y14514D01*
G01X8083Y14509D01*
G01X8085Y14503D01*
G01X8086Y14498D01*
G01X8087Y14492D01*
G01X8085Y14480D01*
G01X8083Y14475D01*
G01X8080Y14470D01*
G01X8076Y14465D01*
G01X8068Y14457D01*
G01X8062Y14455D01*
G01X8057Y14453D01*
G01X8051Y14452D01*
G01X8031Y14450D01*
G01X7993Y14442D01*
G01X7974Y14437D01*
G01X7955Y14431D01*
G01X7937Y14425D01*
G01X7901Y14409D01*
G01X7884Y14400D01*
G01X7866Y14390D01*
G01X7850Y14380D01*
G01X7834Y14369D01*
G01X7818Y14357D01*
G01X7803Y14345D01*
G01X7788Y14332D01*
G01X7774Y14318D01*
G01X7761Y14303D01*
G01X7748Y14289D01*
G01X7736Y14273D01*
G01X7714Y14241D01*
G01X7694Y14207D01*
G01X7678Y14171D01*
G01X7671Y14153D01*
G01X7659Y14115D01*
G01X7651Y14077D01*
G01X7648Y14058D01*
G01X7646Y14038D01*
G01X7644Y14019D01*
G01X7644Y13980D01*
G01X7646Y13961D01*
G01X7648Y13941D01*
G01X7651Y13922D01*
G01X7659Y13884D01*
G01X7664Y13865D01*
G01X7671Y13847D01*
G01X7677Y13829D01*
G01X7685Y13811D01*
G01X7693Y13794D01*
G01X7702Y13776D01*
G01X7712Y13759D01*
G01X7723Y13743D01*
G01X7734Y13728D01*
G01X7746Y13712D01*
G01X7759Y13697D01*
G01X7772Y13683D01*
G01X7786Y13669D01*
G01X7800Y13656D01*
G01X7830Y13632D01*
G01X7846Y13621D01*
G01X7863Y13611D01*
G01X7879Y13601D01*
G01X7897Y13592D01*
G01X7914Y13583D01*
G01X7950Y13569D01*
G01X7969Y13563D01*
G01X7987Y13558D01*
G01X8006Y13553D01*
G01X8025Y13550D01*
G01X8075Y13544D01*
G01X8124Y13544D01*
G01X8174Y13550D01*
G01X8193Y13553D01*
G01X8212Y13558D01*
G01X8230Y13563D01*
G01X8249Y13569D01*
G01X8285Y13583D01*
G01X8302Y13592D01*
G01X8320Y13601D01*
G01X8336Y13611D01*
G01X8353Y13621D01*
G01X8369Y13632D01*
G01X8399Y13656D01*
G01X8413Y13669D01*
G01X8427Y13683D01*
G01X8440Y13697D01*
G01X8453Y13712D01*
G01X8465Y13728D01*
G01X8476Y13743D01*
G01X8487Y13759D01*
G01X8497Y13776D01*
G01X8506Y13794D01*
G01X8514Y13811D01*
G01X8522Y13829D01*
G01X8528Y13847D01*
G01X8535Y13865D01*
G01X8540Y13884D01*
G01X8548Y13922D01*
G01X8551Y13941D01*
G01X8553Y13961D01*
G01X8555Y13980D01*
G01X8555Y14019D01*
G01X8553Y14038D01*
G01X8551Y14058D01*
G01X8548Y14077D01*
G01X8540Y14115D01*
G01X8528Y14153D01*
G01X8521Y14171D01*
G01X8505Y14207D01*
G01X8485Y14241D01*
G01X8475Y14257D01*
G01X8451Y14289D01*
G01X8438Y14303D01*
G01X8425Y14318D01*
G01X8411Y14332D01*
G01X8396Y14345D01*
G01X8381Y14357D01*
G01X8365Y14369D01*
G01X8349Y14380D01*
G01X8333Y14390D01*
G01X8315Y14400D01*
G01X8298Y14409D01*
G01X8262Y14425D01*
G01X8244Y14431D01*
G01X8225Y14437D01*
G01X8206Y14442D01*
G01X8168Y14450D01*
G01X8148Y14452D01*
G01X8142Y14453D01*
G01X8137Y14455D01*
G01X8131Y14457D01*
G01X8123Y14465D01*
G01X8119Y14470D01*
G01X8116Y14475D01*
G01X8114Y14480D01*
G01X8112Y14492D01*
G01X8113Y14498D01*
G01X8114Y14503D01*
G01X8116Y14509D01*
G01X8119Y14514D01*
G01X8123Y14519D01*
G01X8127Y14523D01*
G01X8131Y14526D01*
G01X8137Y14528D01*
G01X8142Y14530D01*
G01X8148Y14532D01*
G01X8168Y14534D01*
G01X8187Y14537D01*
G01X8206Y14542D01*
G01X8225Y14546D01*
G01X8244Y14552D01*
G01X8280Y14566D01*
G01X8298Y14575D01*
G01X8315Y14584D01*
G01X8333Y14593D01*
G01X8349Y14603D01*
G01X8365Y14615D01*
G01X8381Y14626D01*
G01X8411Y14652D01*
G01X8425Y14666D01*
G01X8438Y14680D01*
G01X8451Y14695D01*
G01X8463Y14710D01*
G01X8475Y14726D01*
G01X8485Y14742D01*
G01X8505Y14776D01*
G01X8521Y14812D01*
G01X8528Y14830D01*
G01X8540Y14868D01*
G01X8548Y14906D01*
G01X8551Y14926D01*
G01X8553Y14945D01*
G01X8555Y14965D01*
G01X8555Y15003D01*
G01X8553Y15023D01*
G01X8551Y15042D01*
G01X8545Y15080D01*
G01X8540Y15099D01*
G01X8535Y15117D01*
G01X8529Y15136D01*
G01X8522Y15154D01*
G01X8514Y15172D01*
G01X8506Y15189D01*
G01X8497Y15206D01*
G01X8487Y15223D01*
G01X8477Y15239D01*
G01X8465Y15255D01*
G01X8454Y15270D01*
G01X8441Y15285D01*
G01X8428Y15299D01*
G01X8414Y15313D01*
G01X8400Y15326D01*
G01X8370Y15350D01*
G01X8355Y15361D01*
G01X8338Y15372D01*
G01X8322Y15382D01*
G01X8305Y15391D01*
G01X8269Y15407D01*
G01X8251Y15413D01*
G01X8233Y15420D01*
G01X8214Y15425D01*
G01X8196Y15429D01*
G01X8177Y15433D01*
G01X8157Y15436D01*
G01X8138Y15438D01*
G37*
G36*
G01X22688Y15099D02*
G01X22650Y15101D01*
G01X22630Y15100D01*
G01X22611Y15099D01*
G01X22592Y15097D01*
G01X22573Y15094D01*
G01X22555Y15090D01*
G01X22536Y15086D01*
G01X22518Y15081D01*
G01X22499Y15075D01*
G01X22481Y15068D01*
G01X22464Y15061D01*
G01X22413Y15034D01*
G01X22381Y15012D01*
G01X22366Y15000D01*
G01X22352Y14988D01*
G01X22338Y14975D01*
G01X22311Y14948D01*
G01X22287Y14918D01*
G01X22265Y14886D01*
G01X22256Y14869D01*
G01X22247Y14853D01*
G01X22239Y14835D01*
G01X22231Y14818D01*
G01X22224Y14800D01*
G01X22218Y14782D01*
G01X22213Y14763D01*
G01X22209Y14744D01*
G01X22205Y14726D01*
G01X22202Y14707D01*
G01X22200Y14688D01*
G01X22198Y14650D01*
G01X22199Y14630D01*
G01X22200Y14611D01*
G01X22202Y14592D01*
G01X22205Y14573D01*
G01X22209Y14555D01*
G01X22213Y14536D01*
G01X22218Y14517D01*
G01X22224Y14499D01*
G01X22231Y14481D01*
G01X22239Y14464D01*
G01X22247Y14446D01*
G01X22256Y14430D01*
G01X22265Y14413D01*
G01X22287Y14381D01*
G01X22311Y14351D01*
G01X22338Y14324D01*
G01X22352Y14311D01*
G01X22366Y14299D01*
G01X22381Y14287D01*
G01X22413Y14265D01*
G01X22464Y14238D01*
G01X22481Y14231D01*
G01X22499Y14224D01*
G01X22518Y14218D01*
G01X22536Y14213D01*
G01X22555Y14209D01*
G01X22573Y14205D01*
G01X22592Y14202D01*
G01X22611Y14200D01*
G01X22630Y14199D01*
G01X22650Y14198D01*
G01X22688Y14200D01*
G01X22707Y14202D01*
G01X22726Y14205D01*
G01X22744Y14209D01*
G01X22763Y14213D01*
G01X22781Y14218D01*
G01X22800Y14224D01*
G01X22818Y14231D01*
G01X22835Y14238D01*
G01X22886Y14265D01*
G01X22918Y14287D01*
G01X22933Y14299D01*
G01X22947Y14311D01*
G01X22961Y14324D01*
G01X22988Y14351D01*
G01X23012Y14381D01*
G01X23034Y14413D01*
G01X23043Y14430D01*
G01X23052Y14446D01*
G01X23060Y14464D01*
G01X23068Y14481D01*
G01X23075Y14499D01*
G01X23081Y14517D01*
G01X23086Y14536D01*
G01X23090Y14555D01*
G01X23094Y14573D01*
G01X23097Y14592D01*
G01X23099Y14611D01*
G01X23100Y14630D01*
G01X23101Y14650D01*
G01X23099Y14688D01*
G01X23097Y14707D01*
G01X23094Y14726D01*
G01X23090Y14744D01*
G01X23086Y14763D01*
G01X23081Y14782D01*
G01X23075Y14800D01*
G01X23068Y14818D01*
G01X23060Y14835D01*
G01X23052Y14853D01*
G01X23043Y14869D01*
G01X23034Y14886D01*
G01X23012Y14918D01*
G01X22988Y14948D01*
G01X22961Y14975D01*
G01X22947Y14988D01*
G01X22933Y15000D01*
G01X22918Y15012D01*
G01X22886Y15034D01*
G01X22835Y15061D01*
G01X22818Y15068D01*
G01X22800Y15075D01*
G01X22781Y15081D01*
G01X22763Y15086D01*
G01X22744Y15090D01*
G01X22726Y15094D01*
G01X22707Y15097D01*
G01X22688Y15099D01*
G37*
G36*
G01X28688Y15099D02*
G01X28650Y15101D01*
G01X28630Y15100D01*
G01X28611Y15099D01*
G01X28592Y15097D01*
G01X28573Y15094D01*
G01X28555Y15090D01*
G01X28536Y15086D01*
G01X28518Y15081D01*
G01X28499Y15075D01*
G01X28481Y15068D01*
G01X28464Y15061D01*
G01X28413Y15034D01*
G01X28381Y15012D01*
G01X28366Y15000D01*
G01X28352Y14988D01*
G01X28338Y14975D01*
G01X28311Y14948D01*
G01X28287Y14918D01*
G01X28265Y14886D01*
G01X28256Y14869D01*
G01X28247Y14853D01*
G01X28239Y14835D01*
G01X28231Y14818D01*
G01X28224Y14800D01*
G01X28218Y14782D01*
G01X28213Y14763D01*
G01X28209Y14744D01*
G01X28205Y14726D01*
G01X28202Y14707D01*
G01X28200Y14688D01*
G01X28198Y14650D01*
G01X28199Y14630D01*
G01X28200Y14611D01*
G01X28202Y14592D01*
G01X28205Y14573D01*
G01X28209Y14555D01*
G01X28213Y14536D01*
G01X28218Y14517D01*
G01X28224Y14499D01*
G01X28231Y14481D01*
G01X28239Y14464D01*
G01X28247Y14446D01*
G01X28256Y14430D01*
G01X28265Y14413D01*
G01X28287Y14381D01*
G01X28311Y14351D01*
G01X28338Y14324D01*
G01X28352Y14311D01*
G01X28366Y14299D01*
G01X28381Y14287D01*
G01X28413Y14265D01*
G01X28464Y14238D01*
G01X28481Y14231D01*
G01X28499Y14224D01*
G01X28518Y14218D01*
G01X28536Y14213D01*
G01X28555Y14209D01*
G01X28573Y14205D01*
G01X28592Y14202D01*
G01X28611Y14200D01*
G01X28630Y14199D01*
G01X28650Y14198D01*
G01X28688Y14200D01*
G01X28707Y14202D01*
G01X28726Y14205D01*
G01X28744Y14209D01*
G01X28763Y14213D01*
G01X28781Y14218D01*
G01X28800Y14224D01*
G01X28818Y14231D01*
G01X28835Y14238D01*
G01X28886Y14265D01*
G01X28918Y14287D01*
G01X28933Y14299D01*
G01X28947Y14311D01*
G01X28961Y14324D01*
G01X28988Y14351D01*
G01X29012Y14381D01*
G01X29034Y14413D01*
G01X29043Y14430D01*
G01X29052Y14446D01*
G01X29060Y14464D01*
G01X29068Y14481D01*
G01X29075Y14499D01*
G01X29081Y14517D01*
G01X29086Y14536D01*
G01X29090Y14555D01*
G01X29094Y14573D01*
G01X29097Y14592D01*
G01X29099Y14611D01*
G01X29100Y14630D01*
G01X29101Y14650D01*
G01X29099Y14688D01*
G01X29097Y14707D01*
G01X29094Y14726D01*
G01X29090Y14744D01*
G01X29086Y14763D01*
G01X29081Y14782D01*
G01X29075Y14800D01*
G01X29068Y14818D01*
G01X29060Y14835D01*
G01X29052Y14853D01*
G01X29043Y14869D01*
G01X29034Y14886D01*
G01X29012Y14918D01*
G01X28988Y14948D01*
G01X28961Y14975D01*
G01X28947Y14988D01*
G01X28933Y15000D01*
G01X28918Y15012D01*
G01X28886Y15034D01*
G01X28835Y15061D01*
G01X28818Y15068D01*
G01X28800Y15075D01*
G01X28781Y15081D01*
G01X28763Y15086D01*
G01X28744Y15090D01*
G01X28726Y15094D01*
G01X28707Y15097D01*
G01X28688Y15099D01*
G37*
G36*
G01X43947Y14782D02*
G01X43694Y14782D01*
G01X43694Y14629D01*
G01X43696Y14611D01*
G01X43698Y14602D01*
G01X43701Y14593D01*
G01X43705Y14584D01*
G01X43709Y14576D01*
G01X43714Y14569D01*
G01X43721Y14561D01*
G01X43727Y14555D01*
G01X43734Y14549D01*
G01X43750Y14539D01*
G01X43759Y14535D01*
G01X43768Y14532D01*
G01X43777Y14530D01*
G01X43795Y14528D01*
G01X43947Y14528D01*
G01X43947Y14782D01*
G37*
G36*
G01X44605Y14782D02*
G01X44352Y14782D01*
G01X44352Y14528D01*
G01X44504Y14528D01*
G01X44522Y14530D01*
G01X44531Y14532D01*
G01X44540Y14535D01*
G01X44549Y14539D01*
G01X44565Y14549D01*
G01X44579Y14561D01*
G01X44585Y14569D01*
G01X44590Y14576D01*
G01X44594Y14584D01*
G01X44598Y14593D01*
G01X44601Y14602D01*
G01X44603Y14611D01*
G01X44605Y14629D01*
G01X44605Y14782D01*
G37*
G36*
G01X36486Y27020D02*
G01X36450Y27022D01*
G01X36431Y27021D01*
G01X36413Y27020D01*
G01X36394Y27018D01*
G01X36358Y27012D01*
G01X36340Y27008D01*
G01X36322Y27003D01*
G01X36305Y26996D01*
G01X36288Y26990D01*
G01X36271Y26982D01*
G01X36255Y26974D01*
G01X36238Y26965D01*
G01X36222Y26956D01*
G01X36207Y26946D01*
G01X36192Y26935D01*
G01X36164Y26911D01*
G01X36138Y26885D01*
G01X36114Y26857D01*
G01X36104Y26842D01*
G01X36093Y26827D01*
G01X36084Y26811D01*
G01X36075Y26794D01*
G01X36067Y26778D01*
G01X36059Y26761D01*
G01X36052Y26744D01*
G01X36047Y26727D01*
G01X36041Y26709D01*
G01X36037Y26691D01*
G01X36031Y26655D01*
G01X36029Y26636D01*
G01X36027Y26618D01*
G01X36027Y26581D01*
G01X36031Y26543D01*
G01X36034Y26525D01*
G01X36038Y26506D01*
G01X36042Y26488D01*
G01X36047Y26470D01*
G01X36054Y26452D01*
G01X36060Y26434D01*
G01X36068Y26417D01*
G01X36077Y26401D01*
G01X36086Y26384D01*
G01X36096Y26368D01*
G01X36118Y26338D01*
G01X36130Y26323D01*
G01X36143Y26309D01*
G01X36156Y26296D01*
G01X36170Y26283D01*
G01X36184Y26271D01*
G01X36199Y26259D01*
G01X36214Y26248D01*
G01X36230Y26238D01*
G01X36247Y26229D01*
G01X36263Y26220D01*
G01X36281Y26212D01*
G01X36298Y26205D01*
G01X36303Y26203D01*
G01X36313Y26195D01*
G01X36317Y26190D01*
G01X36319Y26185D01*
G01X36322Y26180D01*
G01X36323Y26174D01*
G01X36323Y19354D01*
G01X36322Y19348D01*
G01X36319Y19342D01*
G01X36316Y19337D01*
G01X36312Y19332D01*
G01X32600Y15621D01*
G01X32596Y15617D01*
G01X32591Y15613D01*
G01X32585Y15611D01*
G01X32580Y15610D01*
G01X32566Y15607D01*
G01X32552Y15603D01*
G01X32539Y15598D01*
G01X32527Y15592D01*
G01X32514Y15586D01*
G01X32502Y15579D01*
G01X32480Y15563D01*
G01X32470Y15553D01*
G01X32460Y15544D01*
G01X32442Y15522D01*
G01X32434Y15511D01*
G01X32427Y15499D01*
G01X32421Y15486D01*
G01X32415Y15474D01*
G01X32407Y15448D01*
G01X32404Y15434D01*
G01X32402Y15420D01*
G01X32401Y15407D01*
G01X32400Y15392D01*
G01X32402Y15366D01*
G01X32406Y15340D01*
G01X32414Y15314D01*
G01X32419Y15302D01*
G01X32425Y15290D01*
G01X32432Y15278D01*
G01X32439Y15267D01*
G01X32447Y15256D01*
G01X32465Y15236D01*
G01X32475Y15227D01*
G01X32485Y15219D01*
G01X32507Y15203D01*
G01X32518Y15197D01*
G01X32530Y15191D01*
G01X32543Y15186D01*
G01X32555Y15182D01*
G01X32568Y15178D01*
G01X32581Y15175D01*
G01X32594Y15173D01*
G01X32608Y15172D01*
G01X32621Y15171D01*
G01X32649Y15173D01*
G01X32663Y15176D01*
G01X32676Y15178D01*
G01X32689Y15182D01*
G01X32715Y15192D01*
G01X32739Y15206D01*
G01X32751Y15214D01*
G01X32762Y15222D01*
G01X32772Y15231D01*
G01X32782Y15241D01*
G01X32791Y15251D01*
G01X32800Y15263D01*
G01X32807Y15274D01*
G01X32815Y15286D01*
G01X32821Y15298D01*
G01X32827Y15311D01*
G01X32831Y15324D01*
G01X32835Y15338D01*
G01X32838Y15351D01*
G01X32840Y15357D01*
G01X32842Y15362D01*
G01X32845Y15367D01*
G01X32849Y15372D01*
G01X36624Y19146D01*
G01X36632Y19156D01*
G01X36640Y19165D01*
G01X36654Y19187D01*
G01X36660Y19198D01*
G01X36664Y19209D01*
G01X36668Y19221D01*
G01X36672Y19234D01*
G01X36674Y19246D01*
G01X36675Y19259D01*
G01X36676Y19271D01*
G01X36676Y26228D01*
G01X36677Y26234D01*
G01X36680Y26240D01*
G01X36683Y26245D01*
G01X36688Y26250D01*
G01X36693Y26254D01*
G01X36707Y26265D01*
G01X36722Y26276D01*
G01X36735Y26288D01*
G01X36749Y26301D01*
G01X36761Y26315D01*
G01X36773Y26328D01*
G01X36785Y26343D01*
G01X36796Y26357D01*
G01X36816Y26389D01*
G01X36825Y26405D01*
G01X36832Y26421D01*
G01X36840Y26438D01*
G01X36847Y26455D01*
G01X36852Y26473D01*
G01X36858Y26490D01*
G01X36866Y26526D01*
G01X36868Y26544D01*
G01X36870Y26563D01*
G01X36872Y26581D01*
G01X36872Y26618D01*
G01X36870Y26636D01*
G01X36868Y26655D01*
G01X36862Y26691D01*
G01X36858Y26709D01*
G01X36852Y26727D01*
G01X36847Y26744D01*
G01X36840Y26761D01*
G01X36832Y26778D01*
G01X36824Y26794D01*
G01X36815Y26811D01*
G01X36806Y26827D01*
G01X36796Y26842D01*
G01X36785Y26857D01*
G01X36761Y26885D01*
G01X36735Y26911D01*
G01X36707Y26935D01*
G01X36692Y26946D01*
G01X36677Y26956D01*
G01X36661Y26965D01*
G01X36644Y26974D01*
G01X36628Y26982D01*
G01X36611Y26990D01*
G01X36594Y26996D01*
G01X36577Y27003D01*
G01X36559Y27008D01*
G01X36541Y27012D01*
G01X36505Y27018D01*
G01X36486Y27020D01*
G37*
G36*
G01X43947Y15439D02*
G01X43795Y15439D01*
G01X43777Y15437D01*
G01X43768Y15435D01*
G01X43759Y15432D01*
G01X43750Y15428D01*
G01X43742Y15424D01*
G01X43734Y15419D01*
G01X43727Y15413D01*
G01X43721Y15406D01*
G01X43714Y15399D01*
G01X43709Y15391D01*
G01X43701Y15375D01*
G01X43698Y15366D01*
G01X43696Y15357D01*
G01X43695Y15347D01*
G01X43694Y15338D01*
G01X43694Y15186D01*
G01X43947Y15186D01*
G01X43947Y15439D01*
G37*
G36*
G01X44504Y15439D02*
G01X44352Y15439D01*
G01X44352Y15186D01*
G01X44605Y15186D01*
G01X44605Y15338D01*
G01X44604Y15347D01*
G01X44603Y15357D01*
G01X44601Y15366D01*
G01X44598Y15375D01*
G01X44590Y15391D01*
G01X44585Y15399D01*
G01X44579Y15406D01*
G01X44572Y15413D01*
G01X44565Y15419D01*
G01X44557Y15424D01*
G01X44549Y15428D01*
G01X44540Y15432D01*
G01X44531Y15435D01*
G01X44522Y15437D01*
G01X44504Y15439D01*
G37*
G36*
G01X22688Y16099D02*
G01X22650Y16101D01*
G01X22630Y16100D01*
G01X22611Y16099D01*
G01X22592Y16097D01*
G01X22573Y16094D01*
G01X22555Y16090D01*
G01X22536Y16086D01*
G01X22518Y16081D01*
G01X22499Y16075D01*
G01X22481Y16068D01*
G01X22464Y16061D01*
G01X22413Y16034D01*
G01X22381Y16012D01*
G01X22366Y16000D01*
G01X22352Y15988D01*
G01X22338Y15975D01*
G01X22311Y15948D01*
G01X22287Y15918D01*
G01X22265Y15886D01*
G01X22256Y15869D01*
G01X22247Y15853D01*
G01X22239Y15835D01*
G01X22231Y15818D01*
G01X22224Y15800D01*
G01X22218Y15782D01*
G01X22213Y15763D01*
G01X22209Y15744D01*
G01X22205Y15726D01*
G01X22202Y15707D01*
G01X22200Y15688D01*
G01X22198Y15650D01*
G01X22199Y15630D01*
G01X22200Y15611D01*
G01X22202Y15592D01*
G01X22205Y15573D01*
G01X22209Y15555D01*
G01X22213Y15536D01*
G01X22218Y15517D01*
G01X22224Y15499D01*
G01X22231Y15481D01*
G01X22239Y15464D01*
G01X22247Y15446D01*
G01X22256Y15430D01*
G01X22265Y15413D01*
G01X22287Y15381D01*
G01X22311Y15351D01*
G01X22338Y15324D01*
G01X22352Y15311D01*
G01X22366Y15299D01*
G01X22381Y15287D01*
G01X22413Y15265D01*
G01X22464Y15238D01*
G01X22481Y15231D01*
G01X22499Y15224D01*
G01X22518Y15218D01*
G01X22536Y15213D01*
G01X22555Y15209D01*
G01X22573Y15205D01*
G01X22592Y15202D01*
G01X22611Y15200D01*
G01X22630Y15199D01*
G01X22650Y15198D01*
G01X22688Y15200D01*
G01X22707Y15202D01*
G01X22726Y15205D01*
G01X22744Y15209D01*
G01X22763Y15213D01*
G01X22781Y15218D01*
G01X22800Y15224D01*
G01X22818Y15231D01*
G01X22835Y15238D01*
G01X22886Y15265D01*
G01X22918Y15287D01*
G01X22933Y15299D01*
G01X22947Y15311D01*
G01X22961Y15324D01*
G01X22988Y15351D01*
G01X23012Y15381D01*
G01X23034Y15413D01*
G01X23043Y15430D01*
G01X23052Y15446D01*
G01X23060Y15464D01*
G01X23068Y15481D01*
G01X23075Y15499D01*
G01X23081Y15517D01*
G01X23086Y15536D01*
G01X23090Y15555D01*
G01X23094Y15573D01*
G01X23097Y15592D01*
G01X23099Y15611D01*
G01X23100Y15630D01*
G01X23101Y15650D01*
G01X23099Y15688D01*
G01X23097Y15707D01*
G01X23094Y15726D01*
G01X23090Y15744D01*
G01X23086Y15763D01*
G01X23081Y15782D01*
G01X23075Y15800D01*
G01X23068Y15818D01*
G01X23060Y15835D01*
G01X23052Y15853D01*
G01X23043Y15869D01*
G01X23034Y15886D01*
G01X23012Y15918D01*
G01X22988Y15948D01*
G01X22961Y15975D01*
G01X22947Y15988D01*
G01X22933Y16000D01*
G01X22918Y16012D01*
G01X22886Y16034D01*
G01X22835Y16061D01*
G01X22818Y16068D01*
G01X22800Y16075D01*
G01X22781Y16081D01*
G01X22763Y16086D01*
G01X22744Y16090D01*
G01X22726Y16094D01*
G01X22707Y16097D01*
G01X22688Y16099D01*
G37*
G36*
G01X28688Y16099D02*
G01X28650Y16101D01*
G01X28630Y16100D01*
G01X28611Y16099D01*
G01X28592Y16097D01*
G01X28573Y16094D01*
G01X28555Y16090D01*
G01X28536Y16086D01*
G01X28518Y16081D01*
G01X28499Y16075D01*
G01X28481Y16068D01*
G01X28464Y16061D01*
G01X28413Y16034D01*
G01X28381Y16012D01*
G01X28366Y16000D01*
G01X28352Y15988D01*
G01X28338Y15975D01*
G01X28311Y15948D01*
G01X28287Y15918D01*
G01X28265Y15886D01*
G01X28256Y15869D01*
G01X28247Y15853D01*
G01X28239Y15835D01*
G01X28231Y15818D01*
G01X28224Y15800D01*
G01X28218Y15782D01*
G01X28213Y15763D01*
G01X28209Y15744D01*
G01X28205Y15726D01*
G01X28202Y15707D01*
G01X28200Y15688D01*
G01X28198Y15650D01*
G01X28199Y15630D01*
G01X28200Y15611D01*
G01X28202Y15592D01*
G01X28205Y15573D01*
G01X28209Y15555D01*
G01X28213Y15536D01*
G01X28218Y15517D01*
G01X28224Y15499D01*
G01X28231Y15481D01*
G01X28239Y15464D01*
G01X28247Y15446D01*
G01X28256Y15430D01*
G01X28265Y15413D01*
G01X28287Y15381D01*
G01X28311Y15351D01*
G01X28338Y15324D01*
G01X28352Y15311D01*
G01X28366Y15299D01*
G01X28381Y15287D01*
G01X28413Y15265D01*
G01X28464Y15238D01*
G01X28481Y15231D01*
G01X28499Y15224D01*
G01X28518Y15218D01*
G01X28536Y15213D01*
G01X28555Y15209D01*
G01X28573Y15205D01*
G01X28592Y15202D01*
G01X28611Y15200D01*
G01X28630Y15199D01*
G01X28650Y15198D01*
G01X28688Y15200D01*
G01X28707Y15202D01*
G01X28726Y15205D01*
G01X28744Y15209D01*
G01X28763Y15213D01*
G01X28781Y15218D01*
G01X28800Y15224D01*
G01X28818Y15231D01*
G01X28835Y15238D01*
G01X28886Y15265D01*
G01X28918Y15287D01*
G01X28933Y15299D01*
G01X28947Y15311D01*
G01X28961Y15324D01*
G01X28988Y15351D01*
G01X29012Y15381D01*
G01X29034Y15413D01*
G01X29043Y15430D01*
G01X29052Y15446D01*
G01X29060Y15464D01*
G01X29068Y15481D01*
G01X29075Y15499D01*
G01X29081Y15517D01*
G01X29086Y15536D01*
G01X29090Y15555D01*
G01X29094Y15573D01*
G01X29097Y15592D01*
G01X29099Y15611D01*
G01X29100Y15630D01*
G01X29101Y15650D01*
G01X29099Y15688D01*
G01X29097Y15707D01*
G01X29094Y15726D01*
G01X29090Y15744D01*
G01X29086Y15763D01*
G01X29081Y15782D01*
G01X29075Y15800D01*
G01X29068Y15818D01*
G01X29060Y15835D01*
G01X29052Y15853D01*
G01X29043Y15869D01*
G01X29034Y15886D01*
G01X29012Y15918D01*
G01X28988Y15948D01*
G01X28961Y15975D01*
G01X28947Y15988D01*
G01X28933Y16000D01*
G01X28918Y16012D01*
G01X28886Y16034D01*
G01X28835Y16061D01*
G01X28818Y16068D01*
G01X28800Y16075D01*
G01X28781Y16081D01*
G01X28763Y16086D01*
G01X28744Y16090D01*
G01X28726Y16094D01*
G01X28707Y16097D01*
G01X28688Y16099D01*
G37*
G36*
G01X28450Y16450D02*
G01X28198Y16450D01*
G01X28198Y16300D01*
G01X28199Y16290D01*
G01X28200Y16281D01*
G01X28202Y16272D01*
G01X28205Y16263D01*
G01X28209Y16255D01*
G01X28214Y16246D01*
G01X28219Y16239D01*
G01X28231Y16225D01*
G01X28239Y16219D01*
G01X28246Y16214D01*
G01X28255Y16209D01*
G01X28263Y16205D01*
G01X28272Y16202D01*
G01X28281Y16200D01*
G01X28290Y16199D01*
G01X28300Y16198D01*
G01X28450Y16198D01*
G01X28450Y16450D01*
G37*
G36*
G01X29101Y16450D02*
G01X28850Y16450D01*
G01X28850Y16198D01*
G01X29000Y16198D01*
G01X29018Y16200D01*
G01X29027Y16202D01*
G01X29036Y16205D01*
G01X29044Y16209D01*
G01X29053Y16214D01*
G01X29060Y16219D01*
G01X29068Y16225D01*
G01X29080Y16239D01*
G01X29085Y16246D01*
G01X29090Y16255D01*
G01X29094Y16263D01*
G01X29097Y16272D01*
G01X29099Y16281D01*
G01X29100Y16290D01*
G01X29101Y16300D01*
G01X29101Y16450D01*
G37*
G36*
G01X23676Y21269D02*
G01X23650Y21271D01*
G01X23622Y21269D01*
G01X23608Y21267D01*
G01X23594Y21263D01*
G01X23581Y21260D01*
G01X23568Y21255D01*
G01X23556Y21250D01*
G01X23543Y21243D01*
G01X23531Y21236D01*
G01X23509Y21220D01*
G01X23498Y21211D01*
G01X23489Y21201D01*
G01X23479Y21190D01*
G01X23471Y21180D01*
G01X23463Y21168D01*
G01X23456Y21156D01*
G01X23450Y21144D01*
G01X23444Y21131D01*
G01X23439Y21118D01*
G01X23435Y21105D01*
G01X23432Y21091D01*
G01X23431Y21085D01*
G01X23422Y21070D01*
G01X21125Y18774D01*
G01X21117Y18765D01*
G01X21109Y18755D01*
G01X21102Y18745D01*
G01X21095Y18734D01*
G01X21089Y18723D01*
G01X21077Y18687D01*
G01X21075Y18675D01*
G01X21074Y18662D01*
G01X21073Y18650D01*
G01X21073Y17100D01*
G01X21074Y17087D01*
G01X21075Y17075D01*
G01X21077Y17062D01*
G01X21089Y17026D01*
G01X21095Y17015D01*
G01X21102Y17004D01*
G01X21109Y16994D01*
G01X21117Y16984D01*
G01X21125Y16975D01*
G01X21575Y16525D01*
G01X21584Y16517D01*
G01X21594Y16509D01*
G01X21604Y16502D01*
G01X21615Y16495D01*
G01X21626Y16490D01*
G01X21638Y16484D01*
G01X21662Y16478D01*
G01X21675Y16475D01*
G01X21687Y16474D01*
G01X21700Y16473D01*
G01X22215Y16473D01*
G01X22227Y16469D01*
G01X22232Y16466D01*
G01X22241Y16457D01*
G01X22244Y16451D01*
G01X22253Y16434D01*
G01X22263Y16417D01*
G01X22273Y16401D01*
G01X22284Y16385D01*
G01X22296Y16369D01*
G01X22308Y16355D01*
G01X22321Y16340D01*
G01X22335Y16326D01*
G01X22349Y16313D01*
G01X22379Y16289D01*
G01X22411Y16267D01*
G01X22427Y16257D01*
G01X22444Y16248D01*
G01X22462Y16239D01*
G01X22498Y16225D01*
G01X22516Y16219D01*
G01X22535Y16213D01*
G01X22553Y16209D01*
G01X22572Y16205D01*
G01X22592Y16202D01*
G01X22611Y16200D01*
G01X22630Y16199D01*
G01X22650Y16198D01*
G01X22688Y16200D01*
G01X22707Y16202D01*
G01X22726Y16205D01*
G01X22744Y16209D01*
G01X22763Y16213D01*
G01X22781Y16218D01*
G01X22800Y16224D01*
G01X22818Y16231D01*
G01X22835Y16238D01*
G01X22886Y16265D01*
G01X22918Y16287D01*
G01X22933Y16299D01*
G01X22947Y16311D01*
G01X22961Y16324D01*
G01X22988Y16351D01*
G01X23012Y16381D01*
G01X23034Y16413D01*
G01X23043Y16430D01*
G01X23052Y16446D01*
G01X23060Y16464D01*
G01X23068Y16481D01*
G01X23075Y16499D01*
G01X23081Y16517D01*
G01X23086Y16536D01*
G01X23090Y16555D01*
G01X23094Y16573D01*
G01X23097Y16592D01*
G01X23099Y16611D01*
G01X23100Y16630D01*
G01X23101Y16650D01*
G01X23099Y16688D01*
G01X23097Y16707D01*
G01X23094Y16726D01*
G01X23090Y16744D01*
G01X23086Y16763D01*
G01X23081Y16782D01*
G01X23075Y16800D01*
G01X23068Y16818D01*
G01X23060Y16835D01*
G01X23052Y16853D01*
G01X23043Y16869D01*
G01X23034Y16886D01*
G01X23012Y16918D01*
G01X22988Y16948D01*
G01X22961Y16975D01*
G01X22947Y16988D01*
G01X22933Y17000D01*
G01X22918Y17012D01*
G01X22886Y17034D01*
G01X22835Y17061D01*
G01X22818Y17068D01*
G01X22800Y17075D01*
G01X22781Y17081D01*
G01X22763Y17086D01*
G01X22744Y17090D01*
G01X22726Y17094D01*
G01X22707Y17097D01*
G01X22688Y17099D01*
G01X22650Y17101D01*
G01X22630Y17100D01*
G01X22611Y17099D01*
G01X22592Y17097D01*
G01X22572Y17094D01*
G01X22553Y17090D01*
G01X22535Y17086D01*
G01X22516Y17080D01*
G01X22498Y17074D01*
G01X22462Y17060D01*
G01X22444Y17051D01*
G01X22427Y17042D01*
G01X22411Y17032D01*
G01X22379Y17010D01*
G01X22349Y16986D01*
G01X22335Y16973D01*
G01X22321Y16959D01*
G01X22308Y16944D01*
G01X22296Y16930D01*
G01X22284Y16914D01*
G01X22273Y16898D01*
G01X22263Y16882D01*
G01X22253Y16865D01*
G01X22244Y16848D01*
G01X22241Y16842D01*
G01X22232Y16833D01*
G01X22227Y16830D01*
G01X22215Y16826D01*
G01X21783Y16826D01*
G01X21771Y16830D01*
G01X21765Y16833D01*
G01X21433Y17165D01*
G01X21427Y17177D01*
G01X21426Y17183D01*
G01X21426Y18566D01*
G01X21427Y18572D01*
G01X21433Y18584D01*
G01X23670Y20821D01*
G01X23675Y20825D01*
G01X23685Y20831D01*
G01X23691Y20832D01*
G01X23705Y20836D01*
G01X23718Y20839D01*
G01X23731Y20844D01*
G01X23744Y20850D01*
G01X23756Y20856D01*
G01X23768Y20863D01*
G01X23780Y20871D01*
G01X23790Y20879D01*
G01X23801Y20888D01*
G01X23811Y20898D01*
G01X23820Y20909D01*
G01X23836Y20931D01*
G01X23850Y20955D01*
G01X23860Y20981D01*
G01X23864Y20994D01*
G01X23867Y21008D01*
G01X23869Y21022D01*
G01X23871Y21050D01*
G01X23869Y21076D01*
G01X23867Y21089D01*
G01X23864Y21102D01*
G01X23856Y21128D01*
G01X23851Y21140D01*
G01X23839Y21164D01*
G01X23823Y21186D01*
G01X23815Y21196D01*
G01X23806Y21206D01*
G01X23796Y21215D01*
G01X23786Y21223D01*
G01X23764Y21239D01*
G01X23740Y21251D01*
G01X23728Y21256D01*
G01X23715Y21261D01*
G01X23689Y21267D01*
G01X23676Y21269D01*
G37*
G36*
G01X28450Y17101D02*
G01X28300Y17101D01*
G01X28290Y17100D01*
G01X28281Y17099D01*
G01X28272Y17097D01*
G01X28263Y17094D01*
G01X28255Y17090D01*
G01X28246Y17085D01*
G01X28239Y17080D01*
G01X28231Y17074D01*
G01X28219Y17060D01*
G01X28214Y17053D01*
G01X28209Y17044D01*
G01X28205Y17036D01*
G01X28202Y17027D01*
G01X28200Y17018D01*
G01X28198Y17000D01*
G01X28198Y16850D01*
G01X28450Y16850D01*
G01X28450Y17101D01*
G37*
G36*
G01X29000Y17101D02*
G01X28850Y17101D01*
G01X28850Y16850D01*
G01X29101Y16850D01*
G01X29101Y17000D01*
G01X29099Y17018D01*
G01X29097Y17027D01*
G01X29094Y17036D01*
G01X29090Y17044D01*
G01X29085Y17053D01*
G01X29080Y17060D01*
G01X29068Y17074D01*
G01X29060Y17080D01*
G01X29053Y17085D01*
G01X29044Y17090D01*
G01X29036Y17094D01*
G01X29027Y17097D01*
G01X29018Y17099D01*
G01X29000Y17101D01*
G37*
G36*
G01X28688Y18099D02*
G01X28650Y18101D01*
G01X28630Y18100D01*
G01X28611Y18099D01*
G01X28592Y18097D01*
G01X28573Y18094D01*
G01X28555Y18090D01*
G01X28536Y18086D01*
G01X28518Y18081D01*
G01X28499Y18075D01*
G01X28481Y18068D01*
G01X28464Y18061D01*
G01X28413Y18034D01*
G01X28381Y18012D01*
G01X28366Y18000D01*
G01X28352Y17988D01*
G01X28338Y17975D01*
G01X28311Y17948D01*
G01X28287Y17918D01*
G01X28265Y17886D01*
G01X28256Y17869D01*
G01X28247Y17853D01*
G01X28239Y17835D01*
G01X28231Y17818D01*
G01X28224Y17800D01*
G01X28218Y17782D01*
G01X28213Y17763D01*
G01X28209Y17744D01*
G01X28205Y17726D01*
G01X28202Y17707D01*
G01X28200Y17688D01*
G01X28198Y17650D01*
G01X28199Y17630D01*
G01X28200Y17611D01*
G01X28202Y17592D01*
G01X28205Y17573D01*
G01X28209Y17555D01*
G01X28213Y17536D01*
G01X28218Y17517D01*
G01X28224Y17499D01*
G01X28231Y17481D01*
G01X28239Y17464D01*
G01X28247Y17446D01*
G01X28256Y17430D01*
G01X28265Y17413D01*
G01X28287Y17381D01*
G01X28299Y17366D01*
G01X28311Y17352D01*
G01X28324Y17338D01*
G01X28338Y17324D01*
G01X28352Y17311D01*
G01X28366Y17299D01*
G01X28381Y17287D01*
G01X28413Y17265D01*
G01X28464Y17238D01*
G01X28481Y17231D01*
G01X28499Y17224D01*
G01X28518Y17218D01*
G01X28536Y17213D01*
G01X28555Y17209D01*
G01X28573Y17205D01*
G01X28592Y17202D01*
G01X28611Y17200D01*
G01X28630Y17199D01*
G01X28650Y17198D01*
G01X28688Y17200D01*
G01X28707Y17202D01*
G01X28726Y17205D01*
G01X28744Y17209D01*
G01X28763Y17213D01*
G01X28781Y17218D01*
G01X28800Y17224D01*
G01X28818Y17231D01*
G01X28835Y17238D01*
G01X28886Y17265D01*
G01X28918Y17287D01*
G01X28933Y17299D01*
G01X28947Y17311D01*
G01X28961Y17324D01*
G01X28975Y17338D01*
G01X28988Y17352D01*
G01X29000Y17366D01*
G01X29012Y17381D01*
G01X29034Y17413D01*
G01X29043Y17430D01*
G01X29052Y17446D01*
G01X29060Y17464D01*
G01X29068Y17481D01*
G01X29075Y17499D01*
G01X29081Y17517D01*
G01X29086Y17536D01*
G01X29090Y17555D01*
G01X29094Y17573D01*
G01X29097Y17592D01*
G01X29099Y17611D01*
G01X29100Y17630D01*
G01X29101Y17650D01*
G01X29099Y17688D01*
G01X29097Y17707D01*
G01X29094Y17726D01*
G01X29090Y17744D01*
G01X29086Y17763D01*
G01X29081Y17782D01*
G01X29075Y17800D01*
G01X29068Y17818D01*
G01X29060Y17835D01*
G01X29052Y17853D01*
G01X29043Y17869D01*
G01X29034Y17886D01*
G01X29012Y17918D01*
G01X28988Y17948D01*
G01X28961Y17975D01*
G01X28947Y17988D01*
G01X28933Y18000D01*
G01X28918Y18012D01*
G01X28886Y18034D01*
G01X28835Y18061D01*
G01X28818Y18068D01*
G01X28800Y18075D01*
G01X28781Y18081D01*
G01X28763Y18086D01*
G01X28744Y18090D01*
G01X28726Y18094D01*
G01X28707Y18097D01*
G01X28688Y18099D01*
G37*
G36*
G01X24126Y20669D02*
G01X24100Y20671D01*
G01X24086Y20670D01*
G01X24073Y20669D01*
G01X24060Y20667D01*
G01X24034Y20661D01*
G01X24021Y20656D01*
G01X24009Y20651D01*
G01X23985Y20639D01*
G01X23963Y20623D01*
G01X23953Y20615D01*
G01X23943Y20606D01*
G01X23934Y20596D01*
G01X23926Y20586D01*
G01X23910Y20564D01*
G01X23898Y20540D01*
G01X23893Y20528D01*
G01X23885Y20502D01*
G01X23882Y20489D01*
G01X23880Y20476D01*
G01X23878Y20450D01*
G01X23879Y20435D01*
G01X23881Y20420D01*
G01X23883Y20406D01*
G01X23886Y20392D01*
G01X23890Y20378D01*
G01X23896Y20364D01*
G01X23902Y20351D01*
G01X23909Y20338D01*
G01X23917Y20326D01*
G01X23919Y20320D01*
G01X23922Y20315D01*
G01X23923Y20309D01*
G01X23923Y18233D01*
G01X23922Y18227D01*
G01X23916Y18215D01*
G01X23534Y17833D01*
G01X23528Y17830D01*
G01X23516Y17826D01*
G01X23084Y17826D01*
G01X23072Y17830D01*
G01X23067Y17833D01*
G01X23058Y17842D01*
G01X23055Y17848D01*
G01X23046Y17865D01*
G01X23036Y17882D01*
G01X23026Y17898D01*
G01X23015Y17914D01*
G01X23003Y17930D01*
G01X22991Y17944D01*
G01X22978Y17959D01*
G01X22964Y17973D01*
G01X22950Y17986D01*
G01X22920Y18010D01*
G01X22888Y18032D01*
G01X22872Y18042D01*
G01X22855Y18051D01*
G01X22837Y18060D01*
G01X22801Y18074D01*
G01X22783Y18080D01*
G01X22764Y18086D01*
G01X22746Y18090D01*
G01X22727Y18094D01*
G01X22707Y18097D01*
G01X22688Y18099D01*
G01X22650Y18101D01*
G01X22630Y18100D01*
G01X22611Y18099D01*
G01X22592Y18097D01*
G01X22573Y18094D01*
G01X22555Y18090D01*
G01X22536Y18086D01*
G01X22518Y18081D01*
G01X22499Y18075D01*
G01X22481Y18068D01*
G01X22464Y18061D01*
G01X22413Y18034D01*
G01X22381Y18012D01*
G01X22366Y18000D01*
G01X22352Y17988D01*
G01X22338Y17975D01*
G01X22311Y17948D01*
G01X22287Y17918D01*
G01X22265Y17886D01*
G01X22256Y17869D01*
G01X22247Y17853D01*
G01X22239Y17835D01*
G01X22231Y17818D01*
G01X22224Y17800D01*
G01X22218Y17782D01*
G01X22213Y17763D01*
G01X22209Y17744D01*
G01X22205Y17726D01*
G01X22202Y17707D01*
G01X22200Y17688D01*
G01X22198Y17650D01*
G01X22199Y17630D01*
G01X22200Y17611D01*
G01X22202Y17592D01*
G01X22205Y17573D01*
G01X22209Y17555D01*
G01X22213Y17536D01*
G01X22218Y17517D01*
G01X22224Y17499D01*
G01X22231Y17481D01*
G01X22239Y17464D01*
G01X22247Y17446D01*
G01X22256Y17430D01*
G01X22265Y17413D01*
G01X22287Y17381D01*
G01X22299Y17366D01*
G01X22311Y17352D01*
G01X22324Y17338D01*
G01X22338Y17324D01*
G01X22352Y17311D01*
G01X22366Y17299D01*
G01X22381Y17287D01*
G01X22413Y17265D01*
G01X22464Y17238D01*
G01X22481Y17231D01*
G01X22499Y17224D01*
G01X22518Y17218D01*
G01X22536Y17213D01*
G01X22555Y17209D01*
G01X22573Y17205D01*
G01X22592Y17202D01*
G01X22611Y17200D01*
G01X22630Y17199D01*
G01X22650Y17198D01*
G01X22688Y17200D01*
G01X22707Y17202D01*
G01X22727Y17205D01*
G01X22746Y17209D01*
G01X22764Y17213D01*
G01X22783Y17219D01*
G01X22801Y17225D01*
G01X22837Y17239D01*
G01X22855Y17248D01*
G01X22872Y17257D01*
G01X22888Y17267D01*
G01X22920Y17289D01*
G01X22950Y17313D01*
G01X22964Y17326D01*
G01X22978Y17340D01*
G01X22991Y17355D01*
G01X23003Y17369D01*
G01X23015Y17385D01*
G01X23026Y17401D01*
G01X23036Y17417D01*
G01X23046Y17434D01*
G01X23055Y17451D01*
G01X23058Y17457D01*
G01X23067Y17466D01*
G01X23072Y17469D01*
G01X23084Y17473D01*
G01X23600Y17473D01*
G01X23612Y17474D01*
G01X23625Y17475D01*
G01X23661Y17484D01*
G01X23673Y17490D01*
G01X23684Y17495D01*
G01X23695Y17502D01*
G01X23705Y17509D01*
G01X23715Y17517D01*
G01X23724Y17525D01*
G01X24224Y18025D01*
G01X24232Y18034D01*
G01X24240Y18044D01*
G01X24247Y18054D01*
G01X24254Y18065D01*
G01X24260Y18076D01*
G01X24272Y18112D01*
G01X24274Y18125D01*
G01X24275Y18137D01*
G01X24276Y18150D01*
G01X24276Y20309D01*
G01X24277Y20315D01*
G01X24280Y20320D01*
G01X24282Y20326D01*
G01X24290Y20338D01*
G01X24297Y20351D01*
G01X24303Y20364D01*
G01X24309Y20378D01*
G01X24313Y20392D01*
G01X24316Y20406D01*
G01X24318Y20420D01*
G01X24320Y20435D01*
G01X24321Y20450D01*
G01X24319Y20476D01*
G01X24317Y20489D01*
G01X24314Y20502D01*
G01X24306Y20528D01*
G01X24301Y20540D01*
G01X24289Y20564D01*
G01X24273Y20586D01*
G01X24265Y20596D01*
G01X24256Y20606D01*
G01X24246Y20615D01*
G01X24236Y20623D01*
G01X24214Y20639D01*
G01X24190Y20651D01*
G01X24178Y20656D01*
G01X24165Y20661D01*
G01X24139Y20667D01*
G01X24126Y20669D01*
G37*
G36*
G01X6900Y20951D02*
G01X6200Y20951D01*
G01X6190Y20950D01*
G01X6181Y20949D01*
G01X6172Y20947D01*
G01X6163Y20944D01*
G01X6155Y20940D01*
G01X6146Y20935D01*
G01X6139Y20930D01*
G01X6131Y20924D01*
G01X6119Y20910D01*
G01X6114Y20903D01*
G01X6109Y20894D01*
G01X6105Y20886D01*
G01X6102Y20877D01*
G01X6100Y20868D01*
G01X6098Y20850D01*
G01X6098Y20150D01*
G01X6099Y20140D01*
G01X6100Y20131D01*
G01X6102Y20122D01*
G01X6105Y20113D01*
G01X6109Y20105D01*
G01X6114Y20096D01*
G01X6119Y20089D01*
G01X6131Y20075D01*
G01X6139Y20069D01*
G01X6146Y20064D01*
G01X6155Y20059D01*
G01X6163Y20055D01*
G01X6172Y20052D01*
G01X6181Y20050D01*
G01X6190Y20049D01*
G01X6200Y20048D01*
G01X6900Y20048D01*
G01X6918Y20050D01*
G01X6927Y20052D01*
G01X6936Y20055D01*
G01X6944Y20059D01*
G01X6953Y20064D01*
G01X6960Y20069D01*
G01X6968Y20075D01*
G01X6980Y20089D01*
G01X6985Y20096D01*
G01X6990Y20105D01*
G01X6994Y20113D01*
G01X6997Y20122D01*
G01X6999Y20131D01*
G01X7000Y20140D01*
G01X7001Y20150D01*
G01X7001Y20850D01*
G01X6999Y20868D01*
G01X6997Y20877D01*
G01X6994Y20886D01*
G01X6990Y20894D01*
G01X6985Y20903D01*
G01X6980Y20910D01*
G01X6968Y20924D01*
G01X6960Y20930D01*
G01X6953Y20935D01*
G01X6944Y20940D01*
G01X6936Y20944D01*
G01X6927Y20947D01*
G01X6918Y20949D01*
G01X6900Y20951D01*
G37*
G36*
G01X6588Y21949D02*
G01X6550Y21951D01*
G01X6530Y21950D01*
G01X6511Y21949D01*
G01X6492Y21947D01*
G01X6473Y21944D01*
G01X6455Y21940D01*
G01X6436Y21936D01*
G01X6418Y21931D01*
G01X6399Y21925D01*
G01X6381Y21918D01*
G01X6364Y21911D01*
G01X6313Y21884D01*
G01X6281Y21862D01*
G01X6266Y21850D01*
G01X6252Y21838D01*
G01X6238Y21825D01*
G01X6211Y21798D01*
G01X6187Y21768D01*
G01X6165Y21736D01*
G01X6156Y21719D01*
G01X6147Y21703D01*
G01X6139Y21685D01*
G01X6131Y21668D01*
G01X6124Y21650D01*
G01X6118Y21632D01*
G01X6113Y21613D01*
G01X6109Y21594D01*
G01X6105Y21576D01*
G01X6102Y21557D01*
G01X6100Y21538D01*
G01X6098Y21500D01*
G01X6099Y21480D01*
G01X6100Y21461D01*
G01X6102Y21442D01*
G01X6105Y21423D01*
G01X6109Y21405D01*
G01X6113Y21386D01*
G01X6118Y21367D01*
G01X6124Y21349D01*
G01X6131Y21331D01*
G01X6139Y21314D01*
G01X6147Y21296D01*
G01X6156Y21280D01*
G01X6165Y21263D01*
G01X6187Y21231D01*
G01X6199Y21216D01*
G01X6211Y21202D01*
G01X6224Y21188D01*
G01X6238Y21174D01*
G01X6252Y21161D01*
G01X6266Y21149D01*
G01X6281Y21137D01*
G01X6313Y21115D01*
G01X6364Y21088D01*
G01X6381Y21081D01*
G01X6399Y21074D01*
G01X6418Y21068D01*
G01X6436Y21063D01*
G01X6455Y21059D01*
G01X6473Y21055D01*
G01X6492Y21052D01*
G01X6511Y21050D01*
G01X6530Y21049D01*
G01X6550Y21048D01*
G01X6588Y21050D01*
G01X6607Y21052D01*
G01X6626Y21055D01*
G01X6644Y21059D01*
G01X6663Y21063D01*
G01X6681Y21068D01*
G01X6700Y21074D01*
G01X6718Y21081D01*
G01X6735Y21088D01*
G01X6786Y21115D01*
G01X6818Y21137D01*
G01X6833Y21149D01*
G01X6847Y21161D01*
G01X6861Y21174D01*
G01X6875Y21188D01*
G01X6888Y21202D01*
G01X6900Y21216D01*
G01X6912Y21231D01*
G01X6934Y21263D01*
G01X6943Y21280D01*
G01X6952Y21296D01*
G01X6960Y21314D01*
G01X6968Y21331D01*
G01X6975Y21349D01*
G01X6981Y21367D01*
G01X6986Y21386D01*
G01X6990Y21405D01*
G01X6994Y21423D01*
G01X6997Y21442D01*
G01X6999Y21461D01*
G01X7000Y21480D01*
G01X7001Y21500D01*
G01X6999Y21538D01*
G01X6997Y21557D01*
G01X6994Y21576D01*
G01X6990Y21594D01*
G01X6986Y21613D01*
G01X6981Y21632D01*
G01X6975Y21650D01*
G01X6968Y21668D01*
G01X6960Y21685D01*
G01X6952Y21703D01*
G01X6943Y21719D01*
G01X6934Y21736D01*
G01X6912Y21768D01*
G01X6888Y21798D01*
G01X6861Y21825D01*
G01X6847Y21838D01*
G01X6833Y21850D01*
G01X6818Y21862D01*
G01X6786Y21884D01*
G01X6735Y21911D01*
G01X6718Y21918D01*
G01X6700Y21925D01*
G01X6681Y21931D01*
G01X6663Y21936D01*
G01X6644Y21940D01*
G01X6626Y21944D01*
G01X6607Y21947D01*
G01X6588Y21949D01*
G37*
G36*
G01X9930Y25140D02*
G01X9419Y25140D01*
G01X9401Y25138D01*
G01X9382Y25136D01*
G01X9344Y25130D01*
G01X9326Y25125D01*
G01X9307Y25120D01*
G01X9289Y25113D01*
G01X9272Y25107D01*
G01X9238Y25091D01*
G01X9221Y25082D01*
G01X9205Y25072D01*
G01X9173Y25050D01*
G01X9159Y25038D01*
G01X9144Y25025D01*
G01X9117Y24998D01*
G01X9105Y24984D01*
G01X9093Y24969D01*
G01X9082Y24954D01*
G01X9071Y24938D01*
G01X9061Y24922D01*
G01X9052Y24905D01*
G01X9036Y24871D01*
G01X9029Y24853D01*
G01X9023Y24835D01*
G01X9018Y24817D01*
G01X9013Y24798D01*
G01X9010Y24780D01*
G01X9007Y24761D01*
G01X9003Y24723D01*
G01X9003Y24685D01*
G01X9007Y24647D01*
G01X9010Y24628D01*
G01X9013Y24610D01*
G01X9018Y24592D01*
G01X9023Y24573D01*
G01X9029Y24555D01*
G01X9036Y24538D01*
G01X9044Y24520D01*
G01X9052Y24503D01*
G01X9061Y24486D01*
G01X9071Y24470D01*
G01X9082Y24454D01*
G01X9093Y24439D01*
G01X9105Y24424D01*
G01X9117Y24410D01*
G01X9144Y24383D01*
G01X9159Y24371D01*
G01X9173Y24359D01*
G01X9189Y24347D01*
G01X9221Y24327D01*
G01X9255Y24309D01*
G01X9289Y24295D01*
G01X9307Y24289D01*
G01X9326Y24283D01*
G01X9344Y24279D01*
G01X9363Y24275D01*
G01X9382Y24272D01*
G01X9401Y24270D01*
G01X9419Y24269D01*
G01X9930Y24269D01*
G01X9949Y24270D01*
G01X9968Y24272D01*
G01X9986Y24275D01*
G01X10005Y24279D01*
G01X10023Y24283D01*
G01X10042Y24289D01*
G01X10060Y24295D01*
G01X10077Y24302D01*
G01X10095Y24309D01*
G01X10112Y24318D01*
G01X10128Y24327D01*
G01X10145Y24337D01*
G01X10161Y24347D01*
G01X10191Y24371D01*
G01X10205Y24383D01*
G01X10219Y24396D01*
G01X10232Y24410D01*
G01X10244Y24424D01*
G01X10268Y24454D01*
G01X10288Y24486D01*
G01X10306Y24520D01*
G01X10313Y24538D01*
G01X10320Y24555D01*
G01X10326Y24573D01*
G01X10331Y24592D01*
G01X10336Y24610D01*
G01X10340Y24628D01*
G01X10343Y24647D01*
G01X10345Y24666D01*
G01X10346Y24685D01*
G01X10346Y24723D01*
G01X10345Y24742D01*
G01X10343Y24761D01*
G01X10340Y24780D01*
G01X10336Y24798D01*
G01X10331Y24817D01*
G01X10326Y24835D01*
G01X10320Y24853D01*
G01X10313Y24871D01*
G01X10306Y24888D01*
G01X10288Y24922D01*
G01X10268Y24954D01*
G01X10244Y24984D01*
G01X10232Y24998D01*
G01X10219Y25012D01*
G01X10191Y25038D01*
G01X10176Y25050D01*
G01X10161Y25061D01*
G01X10145Y25072D01*
G01X10128Y25082D01*
G01X10112Y25091D01*
G01X10095Y25099D01*
G01X10077Y25107D01*
G01X10060Y25113D01*
G01X10042Y25120D01*
G01X10023Y25125D01*
G01X10005Y25130D01*
G01X9986Y25133D01*
G01X9968Y25136D01*
G01X9930Y25140D01*
G37*
G36*
G01X20018Y25566D02*
G01X19783Y25566D01*
G01X19783Y25331D01*
G01X19917Y25331D01*
G01X19935Y25333D01*
G01X19945Y25335D01*
G01X19953Y25338D01*
G01X19962Y25342D01*
G01X19970Y25346D01*
G01X19978Y25352D01*
G01X19985Y25357D01*
G01X19992Y25364D01*
G01X19997Y25371D01*
G01X20003Y25379D01*
G01X20007Y25387D01*
G01X20011Y25396D01*
G01X20014Y25404D01*
G01X20016Y25413D01*
G01X20018Y25423D01*
G01X20018Y25566D01*
G37*
G36*
G01X19416Y25566D02*
G01X19181Y25566D01*
G01X19181Y25423D01*
G01X19183Y25413D01*
G01X19185Y25404D01*
G01X19188Y25396D01*
G01X19192Y25387D01*
G01X19196Y25379D01*
G01X19202Y25371D01*
G01X19207Y25364D01*
G01X19214Y25357D01*
G01X19221Y25352D01*
G01X19229Y25346D01*
G01X19237Y25342D01*
G01X19246Y25338D01*
G01X19254Y25335D01*
G01X19264Y25333D01*
G01X19282Y25331D01*
G01X19416Y25331D01*
G01X19416Y25566D01*
G37*
G36*
G01X18618Y26167D02*
G01X18600Y26168D01*
G01X18562Y26166D01*
G01X18543Y26164D01*
G01X18525Y26161D01*
G01X18506Y26157D01*
G01X18488Y26153D01*
G01X18470Y26148D01*
G01X18452Y26141D01*
G01X18418Y26127D01*
G01X18401Y26118D01*
G01X18385Y26109D01*
G01X18369Y26099D01*
G01X18353Y26088D01*
G01X18339Y26077D01*
G01X18324Y26065D01*
G01X18310Y26052D01*
G01X18297Y26039D01*
G01X18284Y26025D01*
G01X18272Y26011D01*
G01X18261Y25996D01*
G01X18250Y25980D01*
G01X18240Y25964D01*
G01X18231Y25948D01*
G01X18222Y25931D01*
G01X18215Y25914D01*
G01X18208Y25896D01*
G01X18202Y25879D01*
G01X18196Y25861D01*
G01X18192Y25843D01*
G01X18188Y25824D01*
G01X18185Y25806D01*
G01X18181Y25768D01*
G01X18181Y25731D01*
G01X18185Y25693D01*
G01X18188Y25675D01*
G01X18192Y25656D01*
G01X18196Y25638D01*
G01X18202Y25620D01*
G01X18208Y25603D01*
G01X18215Y25585D01*
G01X18222Y25568D01*
G01X18231Y25551D01*
G01X18240Y25535D01*
G01X18250Y25519D01*
G01X18261Y25503D01*
G01X18272Y25488D01*
G01X18284Y25474D01*
G01X18297Y25460D01*
G01X18310Y25447D01*
G01X18324Y25434D01*
G01X18339Y25422D01*
G01X18353Y25411D01*
G01X18369Y25400D01*
G01X18385Y25390D01*
G01X18401Y25381D01*
G01X18435Y25365D01*
G01X18452Y25358D01*
G01X18488Y25346D01*
G01X18506Y25342D01*
G01X18525Y25338D01*
G01X18543Y25335D01*
G01X18562Y25333D01*
G01X18600Y25331D01*
G01X18618Y25332D01*
G01X18637Y25333D01*
G01X18656Y25335D01*
G01X18674Y25338D01*
G01X18693Y25342D01*
G01X18711Y25346D01*
G01X18747Y25358D01*
G01X18764Y25365D01*
G01X18798Y25381D01*
G01X18814Y25390D01*
G01X18830Y25400D01*
G01X18846Y25411D01*
G01X18860Y25422D01*
G01X18875Y25434D01*
G01X18889Y25447D01*
G01X18902Y25460D01*
G01X18915Y25474D01*
G01X18927Y25488D01*
G01X18938Y25503D01*
G01X18949Y25519D01*
G01X18959Y25535D01*
G01X18968Y25551D01*
G01X18977Y25568D01*
G01X18984Y25585D01*
G01X18991Y25603D01*
G01X18997Y25620D01*
G01X19003Y25638D01*
G01X19007Y25656D01*
G01X19011Y25675D01*
G01X19014Y25693D01*
G01X19018Y25731D01*
G01X19018Y25768D01*
G01X19014Y25806D01*
G01X19011Y25824D01*
G01X19007Y25843D01*
G01X19003Y25861D01*
G01X18997Y25879D01*
G01X18991Y25896D01*
G01X18984Y25914D01*
G01X18977Y25931D01*
G01X18968Y25948D01*
G01X18959Y25964D01*
G01X18949Y25980D01*
G01X18938Y25996D01*
G01X18927Y26011D01*
G01X18915Y26025D01*
G01X18902Y26039D01*
G01X18889Y26052D01*
G01X18875Y26065D01*
G01X18860Y26077D01*
G01X18846Y26088D01*
G01X18830Y26099D01*
G01X18814Y26109D01*
G01X18798Y26118D01*
G01X18781Y26127D01*
G01X18747Y26141D01*
G01X18729Y26148D01*
G01X18711Y26153D01*
G01X18693Y26157D01*
G01X18674Y26161D01*
G01X18656Y26164D01*
G01X18637Y26166D01*
G01X18618Y26167D01*
G37*
G36*
G01X17618Y26167D02*
G01X17600Y26168D01*
G01X17562Y26166D01*
G01X17543Y26164D01*
G01X17525Y26161D01*
G01X17506Y26157D01*
G01X17488Y26153D01*
G01X17470Y26148D01*
G01X17452Y26141D01*
G01X17418Y26127D01*
G01X17401Y26118D01*
G01X17385Y26109D01*
G01X17369Y26099D01*
G01X17353Y26088D01*
G01X17339Y26077D01*
G01X17324Y26065D01*
G01X17310Y26052D01*
G01X17297Y26039D01*
G01X17284Y26025D01*
G01X17272Y26011D01*
G01X17261Y25996D01*
G01X17250Y25980D01*
G01X17240Y25964D01*
G01X17231Y25948D01*
G01X17222Y25931D01*
G01X17215Y25914D01*
G01X17208Y25896D01*
G01X17202Y25879D01*
G01X17196Y25861D01*
G01X17192Y25843D01*
G01X17188Y25824D01*
G01X17185Y25806D01*
G01X17181Y25768D01*
G01X17181Y25731D01*
G01X17185Y25693D01*
G01X17188Y25675D01*
G01X17192Y25656D01*
G01X17196Y25638D01*
G01X17202Y25620D01*
G01X17208Y25603D01*
G01X17215Y25585D01*
G01X17222Y25568D01*
G01X17231Y25551D01*
G01X17240Y25535D01*
G01X17250Y25519D01*
G01X17261Y25503D01*
G01X17272Y25488D01*
G01X17284Y25474D01*
G01X17297Y25460D01*
G01X17310Y25447D01*
G01X17324Y25434D01*
G01X17339Y25422D01*
G01X17353Y25411D01*
G01X17369Y25400D01*
G01X17385Y25390D01*
G01X17401Y25381D01*
G01X17435Y25365D01*
G01X17452Y25358D01*
G01X17488Y25346D01*
G01X17506Y25342D01*
G01X17525Y25338D01*
G01X17543Y25335D01*
G01X17562Y25333D01*
G01X17600Y25331D01*
G01X17618Y25332D01*
G01X17637Y25333D01*
G01X17656Y25335D01*
G01X17674Y25338D01*
G01X17693Y25342D01*
G01X17711Y25346D01*
G01X17747Y25358D01*
G01X17764Y25365D01*
G01X17798Y25381D01*
G01X17814Y25390D01*
G01X17830Y25400D01*
G01X17846Y25411D01*
G01X17860Y25422D01*
G01X17875Y25434D01*
G01X17889Y25447D01*
G01X17902Y25460D01*
G01X17915Y25474D01*
G01X17927Y25488D01*
G01X17938Y25503D01*
G01X17949Y25519D01*
G01X17959Y25535D01*
G01X17968Y25551D01*
G01X17977Y25568D01*
G01X17984Y25585D01*
G01X17991Y25603D01*
G01X17997Y25620D01*
G01X18003Y25638D01*
G01X18007Y25656D01*
G01X18011Y25675D01*
G01X18014Y25693D01*
G01X18018Y25731D01*
G01X18018Y25768D01*
G01X18014Y25806D01*
G01X18011Y25824D01*
G01X18007Y25843D01*
G01X18003Y25861D01*
G01X17997Y25879D01*
G01X17991Y25896D01*
G01X17984Y25914D01*
G01X17977Y25931D01*
G01X17968Y25948D01*
G01X17959Y25964D01*
G01X17949Y25980D01*
G01X17938Y25996D01*
G01X17927Y26011D01*
G01X17915Y26025D01*
G01X17902Y26039D01*
G01X17889Y26052D01*
G01X17875Y26065D01*
G01X17860Y26077D01*
G01X17846Y26088D01*
G01X17830Y26099D01*
G01X17814Y26109D01*
G01X17798Y26118D01*
G01X17781Y26127D01*
G01X17747Y26141D01*
G01X17729Y26148D01*
G01X17711Y26153D01*
G01X17693Y26157D01*
G01X17674Y26161D01*
G01X17656Y26164D01*
G01X17637Y26166D01*
G01X17618Y26167D01*
G37*
G36*
G01X19917Y26168D02*
G01X19783Y26168D01*
G01X19783Y25933D01*
G01X20018Y25933D01*
G01X20018Y26076D01*
G01X20016Y26086D01*
G01X20014Y26095D01*
G01X20011Y26103D01*
G01X20007Y26112D01*
G01X20003Y26120D01*
G01X19997Y26128D01*
G01X19992Y26135D01*
G01X19985Y26142D01*
G01X19978Y26148D01*
G01X19970Y26153D01*
G01X19962Y26157D01*
G01X19953Y26161D01*
G01X19945Y26164D01*
G01X19935Y26166D01*
G01X19917Y26168D01*
G37*
G36*
G01X19416Y26168D02*
G01X19282Y26168D01*
G01X19264Y26166D01*
G01X19254Y26164D01*
G01X19246Y26161D01*
G01X19237Y26157D01*
G01X19229Y26153D01*
G01X19221Y26148D01*
G01X19214Y26142D01*
G01X19207Y26135D01*
G01X19202Y26128D01*
G01X19196Y26120D01*
G01X19192Y26112D01*
G01X19188Y26103D01*
G01X19185Y26095D01*
G01X19183Y26086D01*
G01X19181Y26076D01*
G01X19181Y25933D01*
G01X19416Y25933D01*
G01X19416Y26168D01*
G37*
G36*
G01X9930Y26994D02*
G01X9419Y26994D01*
G01X9401Y26992D01*
G01X9363Y26988D01*
G01X9344Y26984D01*
G01X9326Y26980D01*
G01X9307Y26974D01*
G01X9289Y26968D01*
G01X9272Y26961D01*
G01X9238Y26945D01*
G01X9221Y26936D01*
G01X9205Y26926D01*
G01X9173Y26904D01*
G01X9159Y26892D01*
G01X9144Y26880D01*
G01X9117Y26853D01*
G01X9105Y26839D01*
G01X9093Y26824D01*
G01X9082Y26809D01*
G01X9071Y26793D01*
G01X9061Y26777D01*
G01X9052Y26760D01*
G01X9044Y26743D01*
G01X9036Y26725D01*
G01X9029Y26707D01*
G01X9023Y26690D01*
G01X9018Y26671D01*
G01X9013Y26653D01*
G01X9007Y26615D01*
G01X9005Y26596D01*
G01X9003Y26578D01*
G01X9003Y26540D01*
G01X9007Y26502D01*
G01X9013Y26464D01*
G01X9023Y26428D01*
G01X9029Y26410D01*
G01X9036Y26392D01*
G01X9044Y26375D01*
G01X9052Y26357D01*
G01X9061Y26341D01*
G01X9071Y26325D01*
G01X9093Y26293D01*
G01X9105Y26278D01*
G01X9117Y26264D01*
G01X9131Y26251D01*
G01X9144Y26238D01*
G01X9159Y26225D01*
G01X9173Y26213D01*
G01X9205Y26191D01*
G01X9221Y26181D01*
G01X9238Y26172D01*
G01X9272Y26156D01*
G01X9289Y26149D01*
G01X9307Y26143D01*
G01X9326Y26138D01*
G01X9344Y26133D01*
G01X9382Y26127D01*
G01X9401Y26125D01*
G01X9419Y26123D01*
G01X9930Y26123D01*
G01X9968Y26127D01*
G01X9986Y26130D01*
G01X10005Y26133D01*
G01X10023Y26138D01*
G01X10042Y26143D01*
G01X10060Y26149D01*
G01X10077Y26156D01*
G01X10095Y26164D01*
G01X10112Y26172D01*
G01X10128Y26181D01*
G01X10145Y26191D01*
G01X10161Y26202D01*
G01X10176Y26213D01*
G01X10191Y26225D01*
G01X10219Y26251D01*
G01X10232Y26264D01*
G01X10244Y26278D01*
G01X10256Y26293D01*
G01X10268Y26309D01*
G01X10288Y26341D01*
G01X10297Y26357D01*
G01X10306Y26375D01*
G01X10313Y26392D01*
G01X10320Y26410D01*
G01X10326Y26428D01*
G01X10336Y26464D01*
G01X10340Y26483D01*
G01X10343Y26502D01*
G01X10345Y26521D01*
G01X10346Y26540D01*
G01X10346Y26578D01*
G01X10345Y26596D01*
G01X10343Y26615D01*
G01X10340Y26634D01*
G01X10336Y26653D01*
G01X10331Y26671D01*
G01X10326Y26690D01*
G01X10320Y26707D01*
G01X10306Y26743D01*
G01X10288Y26777D01*
G01X10268Y26809D01*
G01X10244Y26839D01*
G01X10232Y26853D01*
G01X10219Y26867D01*
G01X10205Y26880D01*
G01X10191Y26892D01*
G01X10176Y26904D01*
G01X10161Y26915D01*
G01X10145Y26926D01*
G01X10128Y26936D01*
G01X10112Y26945D01*
G01X10095Y26953D01*
G01X10077Y26961D01*
G01X10060Y26968D01*
G01X10042Y26974D01*
G01X10023Y26980D01*
G01X10005Y26984D01*
G01X9986Y26988D01*
G01X9968Y26990D01*
G01X9930Y26994D01*
G37*
G36*
G01X35872Y26414D02*
G01X35635Y26414D01*
G01X35635Y26177D01*
G01X35771Y26177D01*
G01X35789Y26179D01*
G01X35799Y26181D01*
G01X35807Y26184D01*
G01X35816Y26188D01*
G01X35824Y26192D01*
G01X35832Y26198D01*
G01X35839Y26203D01*
G01X35846Y26210D01*
G01X35852Y26217D01*
G01X35857Y26225D01*
G01X35861Y26233D01*
G01X35865Y26242D01*
G01X35868Y26250D01*
G01X35870Y26259D01*
G01X35872Y26269D01*
G01X35872Y26414D01*
G37*
G36*
G01X35264Y26414D02*
G01X35027Y26414D01*
G01X35027Y26269D01*
G01X35029Y26259D01*
G01X35031Y26250D01*
G01X35034Y26242D01*
G01X35038Y26233D01*
G01X35042Y26225D01*
G01X35047Y26217D01*
G01X35053Y26210D01*
G01X35060Y26203D01*
G01X35067Y26198D01*
G01X35075Y26192D01*
G01X35083Y26188D01*
G01X35092Y26184D01*
G01X35100Y26181D01*
G01X35110Y26179D01*
G01X35128Y26177D01*
G01X35264Y26177D01*
G01X35264Y26414D01*
G37*
G36*
G01X37486Y27020D02*
G01X37450Y27022D01*
G01X37431Y27021D01*
G01X37413Y27020D01*
G01X37394Y27018D01*
G01X37358Y27012D01*
G01X37340Y27008D01*
G01X37322Y27003D01*
G01X37305Y26996D01*
G01X37288Y26990D01*
G01X37271Y26982D01*
G01X37255Y26974D01*
G01X37238Y26965D01*
G01X37222Y26956D01*
G01X37207Y26946D01*
G01X37192Y26935D01*
G01X37164Y26911D01*
G01X37138Y26885D01*
G01X37114Y26857D01*
G01X37104Y26842D01*
G01X37093Y26827D01*
G01X37084Y26811D01*
G01X37075Y26794D01*
G01X37067Y26778D01*
G01X37059Y26761D01*
G01X37052Y26744D01*
G01X37047Y26727D01*
G01X37041Y26709D01*
G01X37037Y26691D01*
G01X37031Y26655D01*
G01X37029Y26636D01*
G01X37027Y26618D01*
G01X37027Y26581D01*
G01X37029Y26563D01*
G01X37031Y26544D01*
G01X37037Y26508D01*
G01X37041Y26490D01*
G01X37047Y26473D01*
G01X37052Y26455D01*
G01X37059Y26438D01*
G01X37067Y26421D01*
G01X37075Y26405D01*
G01X37084Y26388D01*
G01X37093Y26373D01*
G01X37104Y26357D01*
G01X37114Y26342D01*
G01X37138Y26314D01*
G01X37164Y26288D01*
G01X37192Y26264D01*
G01X37207Y26253D01*
G01X37222Y26243D01*
G01X37238Y26234D01*
G01X37255Y26225D01*
G01X37271Y26217D01*
G01X37288Y26209D01*
G01X37305Y26203D01*
G01X37322Y26196D01*
G01X37340Y26191D01*
G01X37358Y26187D01*
G01X37394Y26181D01*
G01X37413Y26179D01*
G01X37431Y26178D01*
G01X37450Y26177D01*
G01X37486Y26179D01*
G01X37505Y26181D01*
G01X37541Y26187D01*
G01X37559Y26191D01*
G01X37577Y26196D01*
G01X37594Y26203D01*
G01X37611Y26209D01*
G01X37628Y26217D01*
G01X37644Y26225D01*
G01X37661Y26234D01*
G01X37677Y26243D01*
G01X37692Y26253D01*
G01X37707Y26264D01*
G01X37735Y26288D01*
G01X37761Y26314D01*
G01X37785Y26342D01*
G01X37796Y26357D01*
G01X37806Y26373D01*
G01X37815Y26388D01*
G01X37824Y26405D01*
G01X37832Y26421D01*
G01X37840Y26438D01*
G01X37847Y26455D01*
G01X37852Y26473D01*
G01X37858Y26490D01*
G01X37862Y26508D01*
G01X37868Y26544D01*
G01X37870Y26563D01*
G01X37872Y26581D01*
G01X37872Y26618D01*
G01X37870Y26636D01*
G01X37868Y26655D01*
G01X37862Y26691D01*
G01X37858Y26709D01*
G01X37852Y26727D01*
G01X37847Y26744D01*
G01X37840Y26761D01*
G01X37832Y26778D01*
G01X37824Y26794D01*
G01X37815Y26811D01*
G01X37806Y26827D01*
G01X37796Y26842D01*
G01X37785Y26857D01*
G01X37761Y26885D01*
G01X37735Y26911D01*
G01X37707Y26935D01*
G01X37692Y26946D01*
G01X37677Y26956D01*
G01X37661Y26965D01*
G01X37644Y26974D01*
G01X37628Y26982D01*
G01X37611Y26990D01*
G01X37594Y26996D01*
G01X37577Y27003D01*
G01X37559Y27008D01*
G01X37541Y27012D01*
G01X37505Y27018D01*
G01X37486Y27020D01*
G37*
G36*
G01X39486Y27020D02*
G01X39450Y27022D01*
G01X39431Y27021D01*
G01X39413Y27020D01*
G01X39394Y27018D01*
G01X39358Y27012D01*
G01X39340Y27008D01*
G01X39322Y27003D01*
G01X39305Y26996D01*
G01X39288Y26990D01*
G01X39271Y26982D01*
G01X39255Y26974D01*
G01X39238Y26965D01*
G01X39222Y26956D01*
G01X39207Y26946D01*
G01X39192Y26935D01*
G01X39164Y26911D01*
G01X39138Y26885D01*
G01X39114Y26857D01*
G01X39104Y26842D01*
G01X39093Y26827D01*
G01X39084Y26811D01*
G01X39075Y26794D01*
G01X39067Y26778D01*
G01X39059Y26761D01*
G01X39052Y26744D01*
G01X39047Y26727D01*
G01X39041Y26709D01*
G01X39037Y26691D01*
G01X39031Y26655D01*
G01X39029Y26636D01*
G01X39027Y26618D01*
G01X39027Y26581D01*
G01X39029Y26563D01*
G01X39031Y26544D01*
G01X39037Y26508D01*
G01X39041Y26490D01*
G01X39047Y26473D01*
G01X39052Y26455D01*
G01X39059Y26438D01*
G01X39067Y26421D01*
G01X39075Y26405D01*
G01X39084Y26388D01*
G01X39093Y26373D01*
G01X39104Y26357D01*
G01X39114Y26342D01*
G01X39138Y26314D01*
G01X39164Y26288D01*
G01X39192Y26264D01*
G01X39207Y26253D01*
G01X39222Y26243D01*
G01X39238Y26234D01*
G01X39255Y26225D01*
G01X39271Y26217D01*
G01X39288Y26209D01*
G01X39305Y26203D01*
G01X39322Y26196D01*
G01X39340Y26191D01*
G01X39358Y26187D01*
G01X39394Y26181D01*
G01X39413Y26179D01*
G01X39431Y26178D01*
G01X39450Y26177D01*
G01X39486Y26179D01*
G01X39505Y26181D01*
G01X39541Y26187D01*
G01X39559Y26191D01*
G01X39577Y26196D01*
G01X39594Y26203D01*
G01X39611Y26209D01*
G01X39628Y26217D01*
G01X39644Y26225D01*
G01X39661Y26234D01*
G01X39677Y26243D01*
G01X39692Y26253D01*
G01X39707Y26264D01*
G01X39735Y26288D01*
G01X39761Y26314D01*
G01X39785Y26342D01*
G01X39796Y26357D01*
G01X39806Y26373D01*
G01X39815Y26388D01*
G01X39824Y26405D01*
G01X39832Y26421D01*
G01X39840Y26438D01*
G01X39847Y26455D01*
G01X39852Y26473D01*
G01X39858Y26490D01*
G01X39862Y26508D01*
G01X39868Y26544D01*
G01X39870Y26563D01*
G01X39872Y26581D01*
G01X39872Y26618D01*
G01X39870Y26636D01*
G01X39868Y26655D01*
G01X39862Y26691D01*
G01X39858Y26709D01*
G01X39852Y26727D01*
G01X39847Y26744D01*
G01X39840Y26761D01*
G01X39832Y26778D01*
G01X39824Y26794D01*
G01X39815Y26811D01*
G01X39806Y26827D01*
G01X39796Y26842D01*
G01X39785Y26857D01*
G01X39761Y26885D01*
G01X39735Y26911D01*
G01X39707Y26935D01*
G01X39692Y26946D01*
G01X39677Y26956D01*
G01X39661Y26965D01*
G01X39644Y26974D01*
G01X39628Y26982D01*
G01X39611Y26990D01*
G01X39594Y26996D01*
G01X39577Y27003D01*
G01X39559Y27008D01*
G01X39541Y27012D01*
G01X39505Y27018D01*
G01X39486Y27020D01*
G37*
G36*
G01X40486Y27020D02*
G01X40450Y27022D01*
G01X40431Y27021D01*
G01X40413Y27020D01*
G01X40394Y27018D01*
G01X40358Y27012D01*
G01X40340Y27008D01*
G01X40322Y27003D01*
G01X40305Y26996D01*
G01X40288Y26990D01*
G01X40271Y26982D01*
G01X40255Y26974D01*
G01X40238Y26965D01*
G01X40222Y26956D01*
G01X40207Y26946D01*
G01X40192Y26935D01*
G01X40164Y26911D01*
G01X40138Y26885D01*
G01X40114Y26857D01*
G01X40104Y26842D01*
G01X40093Y26827D01*
G01X40084Y26811D01*
G01X40075Y26794D01*
G01X40067Y26778D01*
G01X40059Y26761D01*
G01X40052Y26744D01*
G01X40047Y26727D01*
G01X40041Y26709D01*
G01X40037Y26691D01*
G01X40031Y26655D01*
G01X40029Y26636D01*
G01X40027Y26618D01*
G01X40027Y26581D01*
G01X40029Y26563D01*
G01X40031Y26544D01*
G01X40037Y26508D01*
G01X40041Y26490D01*
G01X40047Y26473D01*
G01X40052Y26455D01*
G01X40059Y26438D01*
G01X40067Y26421D01*
G01X40075Y26405D01*
G01X40084Y26388D01*
G01X40093Y26373D01*
G01X40104Y26357D01*
G01X40114Y26342D01*
G01X40138Y26314D01*
G01X40164Y26288D01*
G01X40192Y26264D01*
G01X40207Y26253D01*
G01X40222Y26243D01*
G01X40238Y26234D01*
G01X40255Y26225D01*
G01X40271Y26217D01*
G01X40288Y26209D01*
G01X40305Y26203D01*
G01X40322Y26196D01*
G01X40340Y26191D01*
G01X40358Y26187D01*
G01X40394Y26181D01*
G01X40413Y26179D01*
G01X40431Y26178D01*
G01X40450Y26177D01*
G01X40486Y26179D01*
G01X40505Y26181D01*
G01X40541Y26187D01*
G01X40559Y26191D01*
G01X40577Y26196D01*
G01X40594Y26203D01*
G01X40611Y26209D01*
G01X40628Y26217D01*
G01X40644Y26225D01*
G01X40661Y26234D01*
G01X40677Y26243D01*
G01X40692Y26253D01*
G01X40707Y26264D01*
G01X40735Y26288D01*
G01X40761Y26314D01*
G01X40785Y26342D01*
G01X40796Y26357D01*
G01X40806Y26373D01*
G01X40815Y26388D01*
G01X40824Y26405D01*
G01X40832Y26421D01*
G01X40840Y26438D01*
G01X40847Y26455D01*
G01X40852Y26473D01*
G01X40858Y26490D01*
G01X40862Y26508D01*
G01X40868Y26544D01*
G01X40870Y26563D01*
G01X40872Y26581D01*
G01X40872Y26618D01*
G01X40870Y26636D01*
G01X40868Y26655D01*
G01X40862Y26691D01*
G01X40858Y26709D01*
G01X40852Y26727D01*
G01X40847Y26744D01*
G01X40840Y26761D01*
G01X40832Y26778D01*
G01X40824Y26794D01*
G01X40815Y26811D01*
G01X40806Y26827D01*
G01X40796Y26842D01*
G01X40785Y26857D01*
G01X40761Y26885D01*
G01X40735Y26911D01*
G01X40707Y26935D01*
G01X40692Y26946D01*
G01X40677Y26956D01*
G01X40661Y26965D01*
G01X40644Y26974D01*
G01X40628Y26982D01*
G01X40611Y26990D01*
G01X40594Y26996D01*
G01X40577Y27003D01*
G01X40559Y27008D01*
G01X40541Y27012D01*
G01X40505Y27018D01*
G01X40486Y27020D01*
G37*
G36*
G01X38486Y27020D02*
G01X38450Y27022D01*
G01X38431Y27021D01*
G01X38413Y27020D01*
G01X38394Y27018D01*
G01X38358Y27012D01*
G01X38340Y27008D01*
G01X38322Y27003D01*
G01X38305Y26996D01*
G01X38288Y26990D01*
G01X38271Y26982D01*
G01X38255Y26974D01*
G01X38238Y26965D01*
G01X38222Y26956D01*
G01X38207Y26946D01*
G01X38192Y26935D01*
G01X38164Y26911D01*
G01X38138Y26885D01*
G01X38114Y26857D01*
G01X38104Y26842D01*
G01X38093Y26827D01*
G01X38084Y26811D01*
G01X38075Y26794D01*
G01X38067Y26778D01*
G01X38059Y26761D01*
G01X38052Y26744D01*
G01X38047Y26727D01*
G01X38041Y26709D01*
G01X38037Y26691D01*
G01X38031Y26655D01*
G01X38029Y26636D01*
G01X38027Y26618D01*
G01X38027Y26581D01*
G01X38029Y26563D01*
G01X38031Y26544D01*
G01X38037Y26508D01*
G01X38041Y26490D01*
G01X38047Y26473D01*
G01X38052Y26455D01*
G01X38059Y26438D01*
G01X38067Y26421D01*
G01X38075Y26405D01*
G01X38084Y26388D01*
G01X38093Y26373D01*
G01X38104Y26357D01*
G01X38114Y26342D01*
G01X38138Y26314D01*
G01X38164Y26288D01*
G01X38192Y26264D01*
G01X38207Y26253D01*
G01X38222Y26243D01*
G01X38238Y26234D01*
G01X38255Y26225D01*
G01X38271Y26217D01*
G01X38288Y26209D01*
G01X38305Y26203D01*
G01X38322Y26196D01*
G01X38340Y26191D01*
G01X38358Y26187D01*
G01X38394Y26181D01*
G01X38413Y26179D01*
G01X38431Y26178D01*
G01X38450Y26177D01*
G01X38486Y26179D01*
G01X38505Y26181D01*
G01X38541Y26187D01*
G01X38559Y26191D01*
G01X38577Y26196D01*
G01X38594Y26203D01*
G01X38611Y26209D01*
G01X38628Y26217D01*
G01X38644Y26225D01*
G01X38661Y26234D01*
G01X38677Y26243D01*
G01X38692Y26253D01*
G01X38707Y26264D01*
G01X38735Y26288D01*
G01X38761Y26314D01*
G01X38785Y26342D01*
G01X38796Y26357D01*
G01X38806Y26373D01*
G01X38815Y26388D01*
G01X38824Y26405D01*
G01X38832Y26421D01*
G01X38840Y26438D01*
G01X38847Y26455D01*
G01X38852Y26473D01*
G01X38858Y26490D01*
G01X38862Y26508D01*
G01X38868Y26544D01*
G01X38870Y26563D01*
G01X38872Y26581D01*
G01X38872Y26618D01*
G01X38870Y26636D01*
G01X38868Y26655D01*
G01X38862Y26691D01*
G01X38858Y26709D01*
G01X38852Y26727D01*
G01X38847Y26744D01*
G01X38840Y26761D01*
G01X38832Y26778D01*
G01X38824Y26794D01*
G01X38815Y26811D01*
G01X38806Y26827D01*
G01X38796Y26842D01*
G01X38785Y26857D01*
G01X38761Y26885D01*
G01X38735Y26911D01*
G01X38707Y26935D01*
G01X38692Y26946D01*
G01X38677Y26956D01*
G01X38661Y26965D01*
G01X38644Y26974D01*
G01X38628Y26982D01*
G01X38611Y26990D01*
G01X38594Y26996D01*
G01X38577Y27003D01*
G01X38559Y27008D01*
G01X38541Y27012D01*
G01X38505Y27018D01*
G01X38486Y27020D01*
G37*
G36*
G01X35771Y27022D02*
G01X35635Y27022D01*
G01X35635Y26785D01*
G01X35872Y26785D01*
G01X35872Y26930D01*
G01X35870Y26940D01*
G01X35868Y26949D01*
G01X35865Y26957D01*
G01X35861Y26966D01*
G01X35857Y26974D01*
G01X35852Y26982D01*
G01X35846Y26989D01*
G01X35839Y26996D01*
G01X35832Y27002D01*
G01X35824Y27007D01*
G01X35816Y27011D01*
G01X35807Y27015D01*
G01X35799Y27018D01*
G01X35789Y27020D01*
G01X35771Y27022D01*
G37*
G36*
G01X35264Y27022D02*
G01X35128Y27022D01*
G01X35110Y27020D01*
G01X35100Y27018D01*
G01X35092Y27015D01*
G01X35083Y27011D01*
G01X35075Y27007D01*
G01X35067Y27002D01*
G01X35060Y26996D01*
G01X35053Y26989D01*
G01X35047Y26982D01*
G01X35042Y26974D01*
G01X35038Y26966D01*
G01X35034Y26957D01*
G01X35031Y26949D01*
G01X35029Y26940D01*
G01X35027Y26930D01*
G01X35027Y26785D01*
G01X35264Y26785D01*
G01X35264Y27022D01*
G37*
G36*
G01X25669Y30205D02*
G01X25630Y30205D01*
G01X25611Y30204D01*
G01X25592Y30202D01*
G01X25572Y30199D01*
G01X25553Y30195D01*
G01X25535Y30191D01*
G01X25516Y30185D01*
G01X25480Y30173D01*
G01X25444Y30157D01*
G01X25427Y30148D01*
G01X25411Y30138D01*
G01X25394Y30127D01*
G01X25379Y30116D01*
G01X25349Y30092D01*
G01X25335Y30079D01*
G01X25321Y30065D01*
G01X25308Y30051D01*
G01X25295Y30036D01*
G01X25284Y30021D01*
G01X25272Y30005D01*
G01X25262Y29989D01*
G01X25252Y29972D01*
G01X25243Y29955D01*
G01X25235Y29938D01*
G01X25227Y29920D01*
G01X25220Y29902D01*
G01X25214Y29883D01*
G01X25209Y29865D01*
G01X25204Y29846D01*
G01X25198Y29808D01*
G01X25196Y29789D01*
G01X25194Y29769D01*
G01X25194Y29730D01*
G01X25196Y29711D01*
G01X25198Y29691D01*
G01X25201Y29672D01*
G01X25209Y29634D01*
G01X25221Y29596D01*
G01X25228Y29578D01*
G01X25244Y29542D01*
G01X25264Y29508D01*
G01X25286Y29476D01*
G01X25298Y29461D01*
G01X25324Y29431D01*
G01X25338Y29418D01*
G01X25368Y29392D01*
G01X25384Y29380D01*
G01X25400Y29369D01*
G01X25434Y29349D01*
G01X25451Y29340D01*
G01X25456Y29337D01*
G01X25461Y29333D01*
G01X25469Y29323D01*
G01X25472Y29317D01*
G01X25473Y29311D01*
G01X25473Y27390D01*
G01X25472Y27384D01*
G01X25469Y27379D01*
G01X25467Y27373D01*
G01X25459Y27361D01*
G01X25452Y27348D01*
G01X25446Y27335D01*
G01X25440Y27321D01*
G01X25436Y27307D01*
G01X25433Y27293D01*
G01X25431Y27279D01*
G01X25429Y27264D01*
G01X25428Y27250D01*
G01X25429Y27236D01*
G01X25430Y27223D01*
G01X25432Y27210D01*
G01X25435Y27197D01*
G01X25443Y27171D01*
G01X25448Y27159D01*
G01X25460Y27135D01*
G01X25476Y27113D01*
G01X25484Y27103D01*
G01X25493Y27093D01*
G01X25503Y27084D01*
G01X25513Y27076D01*
G01X25535Y27060D01*
G01X25559Y27048D01*
G01X25571Y27043D01*
G01X25584Y27038D01*
G01X25610Y27032D01*
G01X25623Y27030D01*
G01X25636Y27029D01*
G01X25650Y27028D01*
G01X25676Y27030D01*
G01X25689Y27032D01*
G01X25715Y27038D01*
G01X25728Y27043D01*
G01X25740Y27048D01*
G01X25764Y27060D01*
G01X25786Y27076D01*
G01X25796Y27084D01*
G01X25806Y27093D01*
G01X25815Y27103D01*
G01X25823Y27113D01*
G01X25839Y27135D01*
G01X25851Y27159D01*
G01X25856Y27171D01*
G01X25864Y27197D01*
G01X25867Y27210D01*
G01X25869Y27223D01*
G01X25870Y27236D01*
G01X25871Y27250D01*
G01X25870Y27264D01*
G01X25868Y27279D01*
G01X25866Y27293D01*
G01X25863Y27307D01*
G01X25859Y27321D01*
G01X25853Y27335D01*
G01X25847Y27348D01*
G01X25840Y27361D01*
G01X25832Y27373D01*
G01X25830Y27379D01*
G01X25827Y27384D01*
G01X25826Y27390D01*
G01X25826Y29311D01*
G01X25827Y29317D01*
G01X25830Y29323D01*
G01X25833Y29328D01*
G01X25838Y29333D01*
G01X25843Y29337D01*
G01X25848Y29340D01*
G01X25865Y29349D01*
G01X25899Y29369D01*
G01X25915Y29380D01*
G01X25931Y29392D01*
G01X25961Y29418D01*
G01X25975Y29431D01*
G01X26001Y29461D01*
G01X26013Y29476D01*
G01X26025Y29492D01*
G01X26035Y29508D01*
G01X26055Y29542D01*
G01X26071Y29578D01*
G01X26078Y29596D01*
G01X26090Y29634D01*
G01X26098Y29672D01*
G01X26101Y29691D01*
G01X26103Y29711D01*
G01X26105Y29730D01*
G01X26105Y29769D01*
G01X26103Y29789D01*
G01X26101Y29808D01*
G01X26095Y29846D01*
G01X26090Y29865D01*
G01X26085Y29883D01*
G01X26079Y29902D01*
G01X26072Y29920D01*
G01X26064Y29938D01*
G01X26056Y29955D01*
G01X26047Y29972D01*
G01X26037Y29989D01*
G01X26027Y30005D01*
G01X26015Y30021D01*
G01X26004Y30036D01*
G01X25991Y30051D01*
G01X25978Y30065D01*
G01X25964Y30079D01*
G01X25950Y30092D01*
G01X25920Y30116D01*
G01X25905Y30127D01*
G01X25888Y30138D01*
G01X25872Y30148D01*
G01X25855Y30157D01*
G01X25819Y30173D01*
G01X25783Y30185D01*
G01X25764Y30191D01*
G01X25746Y30195D01*
G01X25727Y30199D01*
G01X25707Y30202D01*
G01X25688Y30204D01*
G01X25669Y30205D01*
G37*
G36*
G01X9930Y28848D02*
G01X9419Y28848D01*
G01X9401Y28847D01*
G01X9382Y28845D01*
G01X9363Y28842D01*
G01X9344Y28838D01*
G01X9326Y28834D01*
G01X9307Y28828D01*
G01X9289Y28822D01*
G01X9255Y28808D01*
G01X9221Y28790D01*
G01X9189Y28770D01*
G01X9173Y28759D01*
G01X9159Y28747D01*
G01X9144Y28734D01*
G01X9117Y28707D01*
G01X9105Y28693D01*
G01X9093Y28678D01*
G01X9082Y28663D01*
G01X9071Y28647D01*
G01X9061Y28631D01*
G01X9052Y28614D01*
G01X9036Y28580D01*
G01X9029Y28562D01*
G01X9023Y28544D01*
G01X9018Y28526D01*
G01X9013Y28507D01*
G01X9010Y28488D01*
G01X9007Y28470D01*
G01X9003Y28432D01*
G01X9003Y28394D01*
G01X9007Y28356D01*
G01X9010Y28337D01*
G01X9013Y28319D01*
G01X9018Y28300D01*
G01X9023Y28282D01*
G01X9029Y28264D01*
G01X9036Y28246D01*
G01X9052Y28212D01*
G01X9061Y28195D01*
G01X9071Y28179D01*
G01X9082Y28163D01*
G01X9093Y28148D01*
G01X9105Y28133D01*
G01X9117Y28119D01*
G01X9144Y28092D01*
G01X9159Y28079D01*
G01X9173Y28067D01*
G01X9189Y28056D01*
G01X9221Y28036D01*
G01X9255Y28018D01*
G01X9272Y28011D01*
G01X9289Y28003D01*
G01X9307Y27998D01*
G01X9326Y27992D01*
G01X9344Y27988D01*
G01X9363Y27984D01*
G01X9382Y27981D01*
G01X9401Y27979D01*
G01X9419Y27978D01*
G01X9439Y27977D01*
G01X9911Y27977D01*
G01X9949Y27979D01*
G01X9968Y27981D01*
G01X9986Y27984D01*
G01X10005Y27988D01*
G01X10023Y27992D01*
G01X10042Y27998D01*
G01X10060Y28003D01*
G01X10077Y28011D01*
G01X10095Y28018D01*
G01X10112Y28027D01*
G01X10128Y28036D01*
G01X10145Y28046D01*
G01X10161Y28056D01*
G01X10176Y28067D01*
G01X10191Y28079D01*
G01X10219Y28105D01*
G01X10232Y28119D01*
G01X10244Y28133D01*
G01X10268Y28163D01*
G01X10288Y28195D01*
G01X10306Y28229D01*
G01X10313Y28246D01*
G01X10320Y28264D01*
G01X10326Y28282D01*
G01X10331Y28300D01*
G01X10336Y28319D01*
G01X10340Y28337D01*
G01X10343Y28356D01*
G01X10345Y28375D01*
G01X10346Y28394D01*
G01X10346Y28432D01*
G01X10345Y28451D01*
G01X10343Y28470D01*
G01X10340Y28488D01*
G01X10336Y28507D01*
G01X10331Y28526D01*
G01X10326Y28544D01*
G01X10320Y28562D01*
G01X10313Y28580D01*
G01X10306Y28597D01*
G01X10288Y28631D01*
G01X10268Y28663D01*
G01X10244Y28693D01*
G01X10232Y28707D01*
G01X10219Y28721D01*
G01X10191Y28747D01*
G01X10176Y28759D01*
G01X10161Y28770D01*
G01X10145Y28780D01*
G01X10128Y28790D01*
G01X10112Y28799D01*
G01X10095Y28808D01*
G01X10077Y28815D01*
G01X10060Y28822D01*
G01X10042Y28828D01*
G01X10023Y28834D01*
G01X10005Y28838D01*
G01X9986Y28842D01*
G01X9968Y28845D01*
G01X9949Y28847D01*
G01X9930Y28848D01*
G37*
G36*
G01X23448Y29547D02*
G01X23195Y29547D01*
G01X23195Y29395D01*
G01X23196Y29385D01*
G01X23197Y29376D01*
G01X23199Y29367D01*
G01X23202Y29358D01*
G01X23210Y29342D01*
G01X23215Y29334D01*
G01X23222Y29327D01*
G01X23228Y29320D01*
G01X23235Y29314D01*
G01X23251Y29304D01*
G01X23260Y29301D01*
G01X23268Y29298D01*
G01X23278Y29295D01*
G01X23287Y29294D01*
G01X23448Y29294D01*
G01X23448Y29547D01*
G37*
G36*
G01X24106Y29547D02*
G01X23853Y29547D01*
G01X23853Y29294D01*
G01X24014Y29294D01*
G01X24023Y29295D01*
G01X24050Y29304D01*
G01X24066Y29314D01*
G01X24073Y29320D01*
G01X24080Y29327D01*
G01X24085Y29334D01*
G01X24091Y29342D01*
G01X24099Y29358D01*
G01X24102Y29367D01*
G01X24104Y29376D01*
G01X24105Y29385D01*
G01X24106Y29395D01*
G01X24106Y29547D01*
G37*
G36*
G01X18412Y29762D02*
G01X18173Y29762D01*
G01X18173Y29625D01*
G01X18174Y29615D01*
G01X18175Y29606D01*
G01X18177Y29597D01*
G01X18180Y29588D01*
G01X18184Y29580D01*
G01X18189Y29571D01*
G01X18194Y29564D01*
G01X18206Y29550D01*
G01X18214Y29544D01*
G01X18221Y29539D01*
G01X18230Y29534D01*
G01X18238Y29530D01*
G01X18247Y29527D01*
G01X18256Y29525D01*
G01X18265Y29524D01*
G01X18275Y29523D01*
G01X18412Y29523D01*
G01X18412Y29762D01*
G37*
G36*
G01X19026Y29762D02*
G01X18787Y29762D01*
G01X18787Y29523D01*
G01X18925Y29523D01*
G01X18943Y29525D01*
G01X18952Y29527D01*
G01X18961Y29530D01*
G01X18969Y29534D01*
G01X18978Y29539D01*
G01X18985Y29544D01*
G01X18993Y29550D01*
G01X19005Y29564D01*
G01X19010Y29571D01*
G01X19015Y29580D01*
G01X19019Y29588D01*
G01X19022Y29597D01*
G01X19024Y29606D01*
G01X19025Y29615D01*
G01X19026Y29625D01*
G01X19026Y29762D01*
G37*
G36*
G01X17618Y30375D02*
G01X17600Y30376D01*
G01X17562Y30374D01*
G01X17544Y30372D01*
G01X17526Y30369D01*
G01X17507Y30365D01*
G01X17489Y30361D01*
G01X17471Y30356D01*
G01X17454Y30350D01*
G01X17436Y30343D01*
G01X17419Y30336D01*
G01X17403Y30327D01*
G01X17386Y30319D01*
G01X17371Y30309D01*
G01X17355Y30298D01*
G01X17340Y30288D01*
G01X17326Y30276D01*
G01X17312Y30263D01*
G01X17298Y30251D01*
G01X17285Y30237D01*
G01X17261Y30209D01*
G01X17251Y30194D01*
G01X17240Y30178D01*
G01X17231Y30163D01*
G01X17222Y30146D01*
G01X17214Y30130D01*
G01X17206Y30113D01*
G01X17199Y30095D01*
G01X17193Y30078D01*
G01X17188Y30060D01*
G01X17184Y30042D01*
G01X17180Y30023D01*
G01X17177Y30005D01*
G01X17175Y29987D01*
G01X17174Y29968D01*
G01X17173Y29950D01*
G01X17175Y29912D01*
G01X17177Y29894D01*
G01X17180Y29876D01*
G01X17184Y29857D01*
G01X17188Y29839D01*
G01X17193Y29821D01*
G01X17199Y29804D01*
G01X17206Y29786D01*
G01X17214Y29769D01*
G01X17222Y29753D01*
G01X17231Y29736D01*
G01X17240Y29721D01*
G01X17251Y29705D01*
G01X17261Y29690D01*
G01X17285Y29662D01*
G01X17298Y29648D01*
G01X17312Y29636D01*
G01X17326Y29623D01*
G01X17340Y29611D01*
G01X17355Y29601D01*
G01X17371Y29590D01*
G01X17386Y29580D01*
G01X17403Y29572D01*
G01X17419Y29563D01*
G01X17436Y29556D01*
G01X17454Y29549D01*
G01X17471Y29543D01*
G01X17489Y29538D01*
G01X17507Y29534D01*
G01X17526Y29530D01*
G01X17544Y29527D01*
G01X17562Y29525D01*
G01X17600Y29523D01*
G01X17618Y29524D01*
G01X17637Y29525D01*
G01X17655Y29527D01*
G01X17673Y29530D01*
G01X17692Y29534D01*
G01X17710Y29538D01*
G01X17728Y29543D01*
G01X17745Y29549D01*
G01X17763Y29556D01*
G01X17780Y29563D01*
G01X17796Y29572D01*
G01X17813Y29580D01*
G01X17828Y29590D01*
G01X17844Y29601D01*
G01X17859Y29611D01*
G01X17873Y29623D01*
G01X17887Y29636D01*
G01X17901Y29648D01*
G01X17914Y29662D01*
G01X17938Y29690D01*
G01X17948Y29705D01*
G01X17959Y29721D01*
G01X17968Y29736D01*
G01X17977Y29753D01*
G01X17985Y29769D01*
G01X17993Y29786D01*
G01X18000Y29804D01*
G01X18006Y29821D01*
G01X18011Y29839D01*
G01X18015Y29857D01*
G01X18019Y29876D01*
G01X18022Y29894D01*
G01X18024Y29912D01*
G01X18026Y29950D01*
G01X18025Y29968D01*
G01X18024Y29987D01*
G01X18022Y30005D01*
G01X18019Y30023D01*
G01X18015Y30042D01*
G01X18011Y30060D01*
G01X18006Y30078D01*
G01X18000Y30095D01*
G01X17993Y30113D01*
G01X17985Y30130D01*
G01X17977Y30146D01*
G01X17968Y30163D01*
G01X17959Y30178D01*
G01X17948Y30194D01*
G01X17938Y30209D01*
G01X17914Y30237D01*
G01X17901Y30251D01*
G01X17887Y30263D01*
G01X17873Y30276D01*
G01X17859Y30288D01*
G01X17844Y30298D01*
G01X17828Y30309D01*
G01X17813Y30319D01*
G01X17796Y30327D01*
G01X17780Y30336D01*
G01X17763Y30343D01*
G01X17745Y30350D01*
G01X17728Y30356D01*
G01X17710Y30361D01*
G01X17692Y30365D01*
G01X17673Y30369D01*
G01X17655Y30372D01*
G01X17637Y30374D01*
G01X17618Y30375D01*
G37*
G36*
G01X33251Y30425D02*
G01X32925Y30425D01*
G01X32925Y29848D01*
G01X33150Y29848D01*
G01X33168Y29850D01*
G01X33177Y29852D01*
G01X33186Y29855D01*
G01X33194Y29859D01*
G01X33203Y29864D01*
G01X33210Y29869D01*
G01X33218Y29875D01*
G01X33230Y29889D01*
G01X33235Y29896D01*
G01X33240Y29905D01*
G01X33244Y29913D01*
G01X33247Y29922D01*
G01X33249Y29931D01*
G01X33250Y29940D01*
G01X33251Y29950D01*
G01X33251Y30425D01*
G37*
G36*
G01X32375Y30425D02*
G01X32048Y30425D01*
G01X32048Y29950D01*
G01X32049Y29940D01*
G01X32050Y29931D01*
G01X32052Y29922D01*
G01X32055Y29913D01*
G01X32059Y29905D01*
G01X32064Y29896D01*
G01X32069Y29889D01*
G01X32081Y29875D01*
G01X32089Y29869D01*
G01X32096Y29864D01*
G01X32105Y29859D01*
G01X32113Y29855D01*
G01X32122Y29852D01*
G01X32131Y29850D01*
G01X32140Y29849D01*
G01X32150Y29848D01*
G01X32375Y29848D01*
G01X32375Y30425D01*
G37*
G36*
G01X24014Y30204D02*
G01X23853Y30204D01*
G01X23853Y29951D01*
G01X24106Y29951D01*
G01X24106Y30103D01*
G01X24105Y30113D01*
G01X24104Y30122D01*
G01X24102Y30131D01*
G01X24099Y30140D01*
G01X24095Y30148D01*
G01X24091Y30157D01*
G01X24085Y30164D01*
G01X24080Y30171D01*
G01X24073Y30178D01*
G01X24066Y30184D01*
G01X24050Y30194D01*
G01X24041Y30198D01*
G01X24032Y30201D01*
G01X24023Y30203D01*
G01X24014Y30204D01*
G37*
G36*
G01X23448Y30204D02*
G01X23287Y30204D01*
G01X23278Y30203D01*
G01X23268Y30201D01*
G01X23260Y30198D01*
G01X23251Y30194D01*
G01X23235Y30184D01*
G01X23228Y30178D01*
G01X23222Y30171D01*
G01X23215Y30164D01*
G01X23210Y30157D01*
G01X23206Y30148D01*
G01X23202Y30140D01*
G01X23199Y30131D01*
G01X23197Y30122D01*
G01X23196Y30113D01*
G01X23195Y30103D01*
G01X23195Y29951D01*
G01X23448Y29951D01*
G01X23448Y30204D01*
G37*
G36*
G01X18412Y30376D02*
G01X18275Y30376D01*
G01X18265Y30375D01*
G01X18256Y30374D01*
G01X18247Y30372D01*
G01X18238Y30369D01*
G01X18230Y30365D01*
G01X18221Y30360D01*
G01X18214Y30355D01*
G01X18206Y30349D01*
G01X18194Y30335D01*
G01X18189Y30328D01*
G01X18184Y30319D01*
G01X18180Y30311D01*
G01X18177Y30302D01*
G01X18175Y30293D01*
G01X18173Y30275D01*
G01X18173Y30137D01*
G01X18412Y30137D01*
G01X18412Y30376D01*
G37*
G36*
G01X18925Y30376D02*
G01X18787Y30376D01*
G01X18787Y30137D01*
G01X19026Y30137D01*
G01X19026Y30275D01*
G01X19024Y30293D01*
G01X19022Y30302D01*
G01X19019Y30311D01*
G01X19015Y30319D01*
G01X19010Y30328D01*
G01X19005Y30335D01*
G01X18993Y30349D01*
G01X18985Y30355D01*
G01X18978Y30360D01*
G01X18969Y30365D01*
G01X18961Y30369D01*
G01X18952Y30372D01*
G01X18943Y30374D01*
G01X18925Y30376D01*
G37*
G36*
G01X24669Y31205D02*
G01X24630Y31205D01*
G01X24611Y31204D01*
G01X24592Y31202D01*
G01X24572Y31199D01*
G01X24553Y31195D01*
G01X24535Y31191D01*
G01X24516Y31185D01*
G01X24480Y31173D01*
G01X24444Y31157D01*
G01X24427Y31148D01*
G01X24411Y31138D01*
G01X24394Y31127D01*
G01X24379Y31116D01*
G01X24349Y31092D01*
G01X24335Y31079D01*
G01X24321Y31065D01*
G01X24308Y31051D01*
G01X24295Y31036D01*
G01X24284Y31021D01*
G01X24272Y31005D01*
G01X24262Y30989D01*
G01X24252Y30972D01*
G01X24243Y30955D01*
G01X24235Y30938D01*
G01X24227Y30920D01*
G01X24220Y30902D01*
G01X24214Y30883D01*
G01X24209Y30865D01*
G01X24204Y30846D01*
G01X24198Y30808D01*
G01X24196Y30789D01*
G01X24194Y30769D01*
G01X24194Y30731D01*
G01X24196Y30711D01*
G01X24198Y30692D01*
G01X24204Y30654D01*
G01X24209Y30635D01*
G01X24214Y30617D01*
G01X24220Y30598D01*
G01X24227Y30580D01*
G01X24235Y30563D01*
G01X24243Y30545D01*
G01X24252Y30528D01*
G01X24262Y30511D01*
G01X24272Y30495D01*
G01X24284Y30479D01*
G01X24295Y30464D01*
G01X24308Y30449D01*
G01X24321Y30435D01*
G01X24335Y30421D01*
G01X24349Y30408D01*
G01X24379Y30384D01*
G01X24394Y30373D01*
G01X24411Y30362D01*
G01X24427Y30353D01*
G01X24444Y30344D01*
G01X24462Y30335D01*
G01X24498Y30321D01*
G01X24516Y30315D01*
G01X24535Y30309D01*
G01X24553Y30305D01*
G01X24572Y30301D01*
G01X24592Y30298D01*
G01X24611Y30296D01*
G01X24630Y30295D01*
G01X24669Y30295D01*
G01X24688Y30296D01*
G01X24707Y30298D01*
G01X24727Y30301D01*
G01X24746Y30305D01*
G01X24764Y30309D01*
G01X24783Y30315D01*
G01X24801Y30321D01*
G01X24837Y30335D01*
G01X24855Y30344D01*
G01X24872Y30353D01*
G01X24888Y30362D01*
G01X24905Y30373D01*
G01X24920Y30384D01*
G01X24950Y30408D01*
G01X24964Y30421D01*
G01X24978Y30435D01*
G01X24991Y30449D01*
G01X25004Y30464D01*
G01X25015Y30479D01*
G01X25027Y30495D01*
G01X25037Y30511D01*
G01X25047Y30528D01*
G01X25056Y30545D01*
G01X25064Y30563D01*
G01X25072Y30580D01*
G01X25079Y30598D01*
G01X25085Y30617D01*
G01X25090Y30635D01*
G01X25095Y30654D01*
G01X25101Y30692D01*
G01X25103Y30711D01*
G01X25105Y30731D01*
G01X25105Y30769D01*
G01X25103Y30789D01*
G01X25101Y30808D01*
G01X25095Y30846D01*
G01X25090Y30865D01*
G01X25085Y30883D01*
G01X25079Y30902D01*
G01X25072Y30920D01*
G01X25064Y30938D01*
G01X25056Y30955D01*
G01X25047Y30972D01*
G01X25037Y30989D01*
G01X25027Y31005D01*
G01X25015Y31021D01*
G01X25004Y31036D01*
G01X24991Y31051D01*
G01X24978Y31065D01*
G01X24964Y31079D01*
G01X24950Y31092D01*
G01X24920Y31116D01*
G01X24905Y31127D01*
G01X24888Y31138D01*
G01X24872Y31148D01*
G01X24855Y31157D01*
G01X24819Y31173D01*
G01X24783Y31185D01*
G01X24764Y31191D01*
G01X24746Y31195D01*
G01X24727Y31199D01*
G01X24707Y31202D01*
G01X24688Y31204D01*
G01X24669Y31205D01*
G37*
G36*
G01X26669Y31205D02*
G01X26630Y31205D01*
G01X26611Y31204D01*
G01X26592Y31202D01*
G01X26572Y31199D01*
G01X26553Y31195D01*
G01X26535Y31191D01*
G01X26516Y31185D01*
G01X26480Y31173D01*
G01X26444Y31157D01*
G01X26427Y31148D01*
G01X26411Y31138D01*
G01X26394Y31127D01*
G01X26379Y31116D01*
G01X26349Y31092D01*
G01X26335Y31079D01*
G01X26321Y31065D01*
G01X26308Y31051D01*
G01X26295Y31036D01*
G01X26284Y31021D01*
G01X26272Y31005D01*
G01X26262Y30989D01*
G01X26252Y30972D01*
G01X26243Y30955D01*
G01X26235Y30938D01*
G01X26227Y30920D01*
G01X26220Y30902D01*
G01X26214Y30883D01*
G01X26209Y30865D01*
G01X26204Y30846D01*
G01X26198Y30808D01*
G01X26196Y30789D01*
G01X26194Y30769D01*
G01X26194Y30731D01*
G01X26196Y30711D01*
G01X26198Y30692D01*
G01X26204Y30654D01*
G01X26209Y30635D01*
G01X26214Y30617D01*
G01X26220Y30598D01*
G01X26227Y30580D01*
G01X26235Y30563D01*
G01X26243Y30545D01*
G01X26252Y30528D01*
G01X26262Y30511D01*
G01X26272Y30495D01*
G01X26284Y30479D01*
G01X26295Y30464D01*
G01X26308Y30449D01*
G01X26321Y30435D01*
G01X26335Y30421D01*
G01X26349Y30408D01*
G01X26379Y30384D01*
G01X26394Y30373D01*
G01X26411Y30362D01*
G01X26427Y30353D01*
G01X26444Y30344D01*
G01X26462Y30335D01*
G01X26498Y30321D01*
G01X26516Y30315D01*
G01X26535Y30309D01*
G01X26553Y30305D01*
G01X26572Y30301D01*
G01X26592Y30298D01*
G01X26611Y30296D01*
G01X26630Y30295D01*
G01X26669Y30295D01*
G01X26688Y30296D01*
G01X26707Y30298D01*
G01X26727Y30301D01*
G01X26746Y30305D01*
G01X26764Y30309D01*
G01X26783Y30315D01*
G01X26801Y30321D01*
G01X26837Y30335D01*
G01X26855Y30344D01*
G01X26872Y30353D01*
G01X26888Y30362D01*
G01X26905Y30373D01*
G01X26920Y30384D01*
G01X26950Y30408D01*
G01X26964Y30421D01*
G01X26978Y30435D01*
G01X26991Y30449D01*
G01X27004Y30464D01*
G01X27015Y30479D01*
G01X27027Y30495D01*
G01X27037Y30511D01*
G01X27047Y30528D01*
G01X27056Y30545D01*
G01X27064Y30563D01*
G01X27072Y30580D01*
G01X27079Y30598D01*
G01X27085Y30617D01*
G01X27090Y30635D01*
G01X27095Y30654D01*
G01X27101Y30692D01*
G01X27103Y30711D01*
G01X27105Y30731D01*
G01X27105Y30769D01*
G01X27103Y30789D01*
G01X27101Y30808D01*
G01X27095Y30846D01*
G01X27090Y30865D01*
G01X27085Y30883D01*
G01X27079Y30902D01*
G01X27072Y30920D01*
G01X27064Y30938D01*
G01X27056Y30955D01*
G01X27047Y30972D01*
G01X27037Y30989D01*
G01X27027Y31005D01*
G01X27015Y31021D01*
G01X27004Y31036D01*
G01X26991Y31051D01*
G01X26978Y31065D01*
G01X26964Y31079D01*
G01X26950Y31092D01*
G01X26920Y31116D01*
G01X26905Y31127D01*
G01X26888Y31138D01*
G01X26872Y31148D01*
G01X26855Y31157D01*
G01X26819Y31173D01*
G01X26783Y31185D01*
G01X26764Y31191D01*
G01X26746Y31195D01*
G01X26727Y31199D01*
G01X26707Y31202D01*
G01X26688Y31204D01*
G01X26669Y31205D01*
G37*
G36*
G01X25669Y31205D02*
G01X25630Y31205D01*
G01X25611Y31204D01*
G01X25592Y31202D01*
G01X25572Y31199D01*
G01X25553Y31195D01*
G01X25535Y31191D01*
G01X25516Y31185D01*
G01X25480Y31173D01*
G01X25444Y31157D01*
G01X25427Y31148D01*
G01X25411Y31138D01*
G01X25394Y31127D01*
G01X25379Y31116D01*
G01X25349Y31092D01*
G01X25335Y31079D01*
G01X25321Y31065D01*
G01X25308Y31051D01*
G01X25295Y31036D01*
G01X25284Y31021D01*
G01X25272Y31005D01*
G01X25262Y30989D01*
G01X25252Y30972D01*
G01X25243Y30955D01*
G01X25235Y30938D01*
G01X25227Y30920D01*
G01X25220Y30902D01*
G01X25214Y30883D01*
G01X25209Y30865D01*
G01X25204Y30846D01*
G01X25198Y30808D01*
G01X25196Y30789D01*
G01X25194Y30769D01*
G01X25194Y30731D01*
G01X25196Y30711D01*
G01X25198Y30692D01*
G01X25204Y30654D01*
G01X25209Y30635D01*
G01X25214Y30617D01*
G01X25220Y30598D01*
G01X25227Y30580D01*
G01X25235Y30563D01*
G01X25243Y30545D01*
G01X25252Y30528D01*
G01X25262Y30511D01*
G01X25272Y30495D01*
G01X25284Y30479D01*
G01X25295Y30464D01*
G01X25308Y30449D01*
G01X25321Y30435D01*
G01X25335Y30421D01*
G01X25349Y30408D01*
G01X25379Y30384D01*
G01X25394Y30373D01*
G01X25411Y30362D01*
G01X25427Y30353D01*
G01X25444Y30344D01*
G01X25462Y30335D01*
G01X25498Y30321D01*
G01X25516Y30315D01*
G01X25535Y30309D01*
G01X25553Y30305D01*
G01X25572Y30301D01*
G01X25592Y30298D01*
G01X25611Y30296D01*
G01X25630Y30295D01*
G01X25669Y30295D01*
G01X25688Y30296D01*
G01X25707Y30298D01*
G01X25727Y30301D01*
G01X25746Y30305D01*
G01X25764Y30309D01*
G01X25783Y30315D01*
G01X25801Y30321D01*
G01X25837Y30335D01*
G01X25855Y30344D01*
G01X25872Y30353D01*
G01X25888Y30362D01*
G01X25905Y30373D01*
G01X25920Y30384D01*
G01X25950Y30408D01*
G01X25964Y30421D01*
G01X25978Y30435D01*
G01X25991Y30449D01*
G01X26004Y30464D01*
G01X26015Y30479D01*
G01X26027Y30495D01*
G01X26037Y30511D01*
G01X26047Y30528D01*
G01X26056Y30545D01*
G01X26064Y30563D01*
G01X26072Y30580D01*
G01X26079Y30598D01*
G01X26085Y30617D01*
G01X26090Y30635D01*
G01X26095Y30654D01*
G01X26101Y30692D01*
G01X26103Y30711D01*
G01X26105Y30731D01*
G01X26105Y30769D01*
G01X26103Y30789D01*
G01X26101Y30808D01*
G01X26095Y30846D01*
G01X26090Y30865D01*
G01X26085Y30883D01*
G01X26079Y30902D01*
G01X26072Y30920D01*
G01X26064Y30938D01*
G01X26056Y30955D01*
G01X26047Y30972D01*
G01X26037Y30989D01*
G01X26027Y31005D01*
G01X26015Y31021D01*
G01X26004Y31036D01*
G01X25991Y31051D01*
G01X25978Y31065D01*
G01X25964Y31079D01*
G01X25950Y31092D01*
G01X25920Y31116D01*
G01X25905Y31127D01*
G01X25888Y31138D01*
G01X25872Y31148D01*
G01X25855Y31157D01*
G01X25819Y31173D01*
G01X25783Y31185D01*
G01X25764Y31191D01*
G01X25746Y31195D01*
G01X25727Y31199D01*
G01X25707Y31202D01*
G01X25688Y31204D01*
G01X25669Y31205D01*
G37*
G36*
G01X23669Y31205D02*
G01X23630Y31205D01*
G01X23611Y31204D01*
G01X23592Y31202D01*
G01X23572Y31199D01*
G01X23553Y31195D01*
G01X23535Y31191D01*
G01X23516Y31185D01*
G01X23480Y31173D01*
G01X23444Y31157D01*
G01X23427Y31148D01*
G01X23411Y31138D01*
G01X23394Y31127D01*
G01X23379Y31116D01*
G01X23349Y31092D01*
G01X23335Y31079D01*
G01X23321Y31065D01*
G01X23308Y31051D01*
G01X23295Y31036D01*
G01X23284Y31021D01*
G01X23272Y31005D01*
G01X23262Y30989D01*
G01X23252Y30972D01*
G01X23243Y30955D01*
G01X23235Y30938D01*
G01X23227Y30920D01*
G01X23220Y30902D01*
G01X23214Y30883D01*
G01X23209Y30865D01*
G01X23204Y30846D01*
G01X23198Y30808D01*
G01X23196Y30789D01*
G01X23194Y30769D01*
G01X23194Y30731D01*
G01X23196Y30711D01*
G01X23198Y30692D01*
G01X23204Y30654D01*
G01X23209Y30635D01*
G01X23214Y30617D01*
G01X23220Y30598D01*
G01X23227Y30580D01*
G01X23235Y30563D01*
G01X23243Y30545D01*
G01X23252Y30528D01*
G01X23262Y30511D01*
G01X23272Y30495D01*
G01X23284Y30479D01*
G01X23295Y30464D01*
G01X23308Y30449D01*
G01X23321Y30435D01*
G01X23335Y30421D01*
G01X23349Y30408D01*
G01X23379Y30384D01*
G01X23394Y30373D01*
G01X23411Y30362D01*
G01X23427Y30353D01*
G01X23444Y30344D01*
G01X23462Y30335D01*
G01X23498Y30321D01*
G01X23516Y30315D01*
G01X23535Y30309D01*
G01X23553Y30305D01*
G01X23572Y30301D01*
G01X23592Y30298D01*
G01X23611Y30296D01*
G01X23630Y30295D01*
G01X23669Y30295D01*
G01X23688Y30296D01*
G01X23707Y30298D01*
G01X23727Y30301D01*
G01X23746Y30305D01*
G01X23764Y30309D01*
G01X23783Y30315D01*
G01X23801Y30321D01*
G01X23837Y30335D01*
G01X23855Y30344D01*
G01X23872Y30353D01*
G01X23888Y30362D01*
G01X23905Y30373D01*
G01X23920Y30384D01*
G01X23950Y30408D01*
G01X23964Y30421D01*
G01X23978Y30435D01*
G01X23991Y30449D01*
G01X24004Y30464D01*
G01X24015Y30479D01*
G01X24027Y30495D01*
G01X24037Y30511D01*
G01X24047Y30528D01*
G01X24056Y30545D01*
G01X24064Y30563D01*
G01X24072Y30580D01*
G01X24079Y30598D01*
G01X24085Y30617D01*
G01X24090Y30635D01*
G01X24095Y30654D01*
G01X24101Y30692D01*
G01X24103Y30711D01*
G01X24105Y30731D01*
G01X24105Y30769D01*
G01X24103Y30789D01*
G01X24101Y30808D01*
G01X24095Y30846D01*
G01X24090Y30865D01*
G01X24085Y30883D01*
G01X24079Y30902D01*
G01X24072Y30920D01*
G01X24064Y30938D01*
G01X24056Y30955D01*
G01X24047Y30972D01*
G01X24037Y30989D01*
G01X24027Y31005D01*
G01X24015Y31021D01*
G01X24004Y31036D01*
G01X23991Y31051D01*
G01X23978Y31065D01*
G01X23964Y31079D01*
G01X23950Y31092D01*
G01X23920Y31116D01*
G01X23905Y31127D01*
G01X23888Y31138D01*
G01X23872Y31148D01*
G01X23855Y31157D01*
G01X23819Y31173D01*
G01X23783Y31185D01*
G01X23764Y31191D01*
G01X23746Y31195D01*
G01X23727Y31199D01*
G01X23707Y31202D01*
G01X23688Y31204D01*
G01X23669Y31205D01*
G37*
G36*
G01X33150Y32051D02*
G01X32925Y32051D01*
G01X32925Y31475D01*
G01X33251Y31475D01*
G01X33251Y31950D01*
G01X33249Y31968D01*
G01X33247Y31977D01*
G01X33244Y31986D01*
G01X33240Y31994D01*
G01X33235Y32003D01*
G01X33230Y32010D01*
G01X33218Y32024D01*
G01X33210Y32030D01*
G01X33203Y32035D01*
G01X33194Y32040D01*
G01X33186Y32044D01*
G01X33177Y32047D01*
G01X33168Y32049D01*
G01X33150Y32051D01*
G37*
G36*
G01X32375Y32051D02*
G01X32150Y32051D01*
G01X32140Y32050D01*
G01X32131Y32049D01*
G01X32122Y32047D01*
G01X32113Y32044D01*
G01X32105Y32040D01*
G01X32096Y32035D01*
G01X32089Y32030D01*
G01X32081Y32024D01*
G01X32069Y32010D01*
G01X32064Y32003D01*
G01X32059Y31994D01*
G01X32055Y31986D01*
G01X32052Y31977D01*
G01X32050Y31968D01*
G01X32048Y31950D01*
G01X32048Y31475D01*
G01X32375Y31475D01*
G01X32375Y32051D01*
G37*
G36*
G01X20012Y32262D02*
G01X19773Y32262D01*
G01X19773Y32125D01*
G01X19774Y32115D01*
G01X19775Y32106D01*
G01X19777Y32097D01*
G01X19780Y32088D01*
G01X19784Y32080D01*
G01X19789Y32071D01*
G01X19794Y32064D01*
G01X19806Y32050D01*
G01X19814Y32044D01*
G01X19821Y32039D01*
G01X19830Y32034D01*
G01X19838Y32030D01*
G01X19847Y32027D01*
G01X19856Y32025D01*
G01X19865Y32024D01*
G01X19875Y32023D01*
G01X20012Y32023D01*
G01X20012Y32262D01*
G37*
G36*
G01X20626Y32262D02*
G01X20387Y32262D01*
G01X20387Y32023D01*
G01X20525Y32023D01*
G01X20543Y32025D01*
G01X20552Y32027D01*
G01X20561Y32030D01*
G01X20569Y32034D01*
G01X20578Y32039D01*
G01X20585Y32044D01*
G01X20593Y32050D01*
G01X20605Y32064D01*
G01X20610Y32071D01*
G01X20615Y32080D01*
G01X20619Y32088D01*
G01X20622Y32097D01*
G01X20624Y32106D01*
G01X20625Y32115D01*
G01X20626Y32125D01*
G01X20626Y32262D01*
G37*
G36*
G01X19218Y32875D02*
G01X19200Y32876D01*
G01X19162Y32874D01*
G01X19144Y32872D01*
G01X19126Y32869D01*
G01X19107Y32865D01*
G01X19089Y32861D01*
G01X19071Y32856D01*
G01X19054Y32850D01*
G01X19036Y32843D01*
G01X19019Y32836D01*
G01X19003Y32827D01*
G01X18986Y32819D01*
G01X18971Y32809D01*
G01X18955Y32798D01*
G01X18940Y32788D01*
G01X18926Y32776D01*
G01X18912Y32763D01*
G01X18898Y32751D01*
G01X18885Y32737D01*
G01X18861Y32709D01*
G01X18851Y32694D01*
G01X18840Y32678D01*
G01X18831Y32663D01*
G01X18822Y32646D01*
G01X18814Y32630D01*
G01X18806Y32613D01*
G01X18799Y32595D01*
G01X18793Y32578D01*
G01X18788Y32560D01*
G01X18784Y32542D01*
G01X18780Y32523D01*
G01X18777Y32505D01*
G01X18775Y32487D01*
G01X18774Y32468D01*
G01X18773Y32450D01*
G01X18775Y32412D01*
G01X18777Y32394D01*
G01X18780Y32376D01*
G01X18784Y32357D01*
G01X18788Y32339D01*
G01X18793Y32321D01*
G01X18799Y32304D01*
G01X18806Y32286D01*
G01X18814Y32269D01*
G01X18822Y32253D01*
G01X18831Y32236D01*
G01X18840Y32221D01*
G01X18851Y32205D01*
G01X18861Y32190D01*
G01X18885Y32162D01*
G01X18898Y32148D01*
G01X18912Y32136D01*
G01X18926Y32123D01*
G01X18940Y32111D01*
G01X18955Y32101D01*
G01X18971Y32090D01*
G01X18986Y32080D01*
G01X19003Y32072D01*
G01X19019Y32063D01*
G01X19036Y32056D01*
G01X19054Y32049D01*
G01X19071Y32043D01*
G01X19089Y32038D01*
G01X19107Y32034D01*
G01X19126Y32030D01*
G01X19144Y32027D01*
G01X19162Y32025D01*
G01X19200Y32023D01*
G01X19218Y32024D01*
G01X19237Y32025D01*
G01X19255Y32027D01*
G01X19273Y32030D01*
G01X19292Y32034D01*
G01X19310Y32038D01*
G01X19328Y32043D01*
G01X19345Y32049D01*
G01X19363Y32056D01*
G01X19380Y32063D01*
G01X19396Y32072D01*
G01X19413Y32080D01*
G01X19428Y32090D01*
G01X19444Y32101D01*
G01X19459Y32111D01*
G01X19473Y32123D01*
G01X19487Y32136D01*
G01X19501Y32148D01*
G01X19514Y32162D01*
G01X19538Y32190D01*
G01X19548Y32205D01*
G01X19559Y32221D01*
G01X19568Y32236D01*
G01X19577Y32253D01*
G01X19585Y32269D01*
G01X19593Y32286D01*
G01X19600Y32304D01*
G01X19606Y32321D01*
G01X19611Y32339D01*
G01X19615Y32357D01*
G01X19619Y32376D01*
G01X19622Y32394D01*
G01X19624Y32412D01*
G01X19626Y32450D01*
G01X19625Y32468D01*
G01X19624Y32487D01*
G01X19622Y32505D01*
G01X19619Y32523D01*
G01X19615Y32542D01*
G01X19611Y32560D01*
G01X19606Y32578D01*
G01X19600Y32595D01*
G01X19593Y32613D01*
G01X19585Y32630D01*
G01X19577Y32646D01*
G01X19568Y32663D01*
G01X19559Y32678D01*
G01X19548Y32694D01*
G01X19538Y32709D01*
G01X19514Y32737D01*
G01X19501Y32751D01*
G01X19487Y32763D01*
G01X19473Y32776D01*
G01X19459Y32788D01*
G01X19444Y32798D01*
G01X19428Y32809D01*
G01X19413Y32819D01*
G01X19396Y32827D01*
G01X19380Y32836D01*
G01X19363Y32843D01*
G01X19345Y32850D01*
G01X19328Y32856D01*
G01X19310Y32861D01*
G01X19292Y32865D01*
G01X19273Y32869D01*
G01X19255Y32872D01*
G01X19237Y32874D01*
G01X19218Y32875D01*
G37*
G36*
G01X20012Y32876D02*
G01X19875Y32876D01*
G01X19865Y32875D01*
G01X19856Y32874D01*
G01X19847Y32872D01*
G01X19838Y32869D01*
G01X19830Y32865D01*
G01X19821Y32860D01*
G01X19814Y32855D01*
G01X19806Y32849D01*
G01X19794Y32835D01*
G01X19789Y32828D01*
G01X19784Y32819D01*
G01X19780Y32811D01*
G01X19777Y32802D01*
G01X19775Y32793D01*
G01X19773Y32775D01*
G01X19773Y32637D01*
G01X20012Y32637D01*
G01X20012Y32876D01*
G37*
G36*
G01X20525Y32876D02*
G01X20387Y32876D01*
G01X20387Y32637D01*
G01X20626Y32637D01*
G01X20626Y32775D01*
G01X20624Y32793D01*
G01X20622Y32802D01*
G01X20619Y32811D01*
G01X20615Y32819D01*
G01X20610Y32828D01*
G01X20605Y32835D01*
G01X20593Y32849D01*
G01X20585Y32855D01*
G01X20578Y32860D01*
G01X20569Y32865D01*
G01X20561Y32869D01*
G01X20552Y32872D01*
G01X20543Y32874D01*
G01X20525Y32876D01*
G37*

%LPD*%
G54D11*
G01X28650Y7650D02*
G01X36200Y7650D01*
G01X42550Y14000D01*
G01X44150Y14000D01*
G01X26649Y29750D02*
G01X26649Y7649D01*
G01X22650Y3650D01*
G01X25649Y29750D02*
G01X25649Y27250D01*
G01X27500Y27250D02*
G01X27500Y4250D01*
G01X28100Y3650D01*
G01X28650Y3650D01*
G01X25950Y24800D02*
G01X25950Y7950D01*
G01X22650Y4650D01*
G01X25300Y23300D02*
G01X25300Y8300D01*
G01X22650Y5650D01*
G01X24649Y29750D02*
G01X24649Y8649D01*
G01X22650Y6650D01*
G01X37710Y3419D02*
G01X32869Y3419D01*
G01X32250Y2800D01*
G01X21050Y2800D01*
G01X19850Y4000D01*
G01X19850Y9700D01*
G01X21800Y11650D01*
G01X22650Y11650D01*
G01X28650Y8650D02*
G01X36200Y8650D01*
G01X42450Y14900D01*
G01X42450Y26600D01*
G01X28650Y9650D02*
G01X36100Y9650D01*
G01X41450Y15000D01*
G01X41450Y26600D01*
G01X22650Y17650D02*
G01X23600Y17650D01*
G01X24100Y18150D01*
G01X24100Y20450D01*
G01X22650Y16650D02*
G01X21700Y16650D01*
G01X21250Y17100D01*
G01X21250Y18650D01*
G01X23650Y21050D01*
G01X22650Y12650D02*
G01X21650Y12650D01*
G01X20550Y13750D01*
G01X20550Y18850D01*
G01X23650Y21950D01*
G01X19950Y11600D02*
G01X19950Y19200D01*
G01X23550Y22800D01*
G01X36450Y26600D02*
G01X36500Y26550D01*
G01X36500Y19271D01*
G01X32621Y15393D01*
G54D14*
G01X32650Y30950D03*
G54D15*
G01X8100Y13015D03*
G54D16*
G01X8100Y14000D03*
G01X8100Y14984D03*
G54D17*
G01X22650Y17650D03*
G01X22650Y16650D03*
G01X22650Y15650D03*
G01X22650Y14650D03*
G01X22650Y13650D03*
G01X22650Y12650D03*
G01X22650Y11650D03*
G01X22650Y10650D03*
G01X22650Y9650D03*
G01X22650Y8650D03*
G01X22650Y7650D03*
G01X22650Y6650D03*
G01X22650Y5650D03*
G01X22650Y4650D03*
G01X22650Y3650D03*
G01X28650Y17650D03*
G54D18*
G01X28650Y16650D03*
G54D17*
G01X28650Y15650D03*
G01X28650Y14650D03*
G01X28650Y13650D03*
G01X28650Y12650D03*
G01X28650Y11650D03*
G01X28650Y10650D03*
G01X28650Y9650D03*
G01X28650Y8650D03*
G01X28650Y7650D03*
G01X28650Y6650D03*
G01X28650Y5650D03*
G01X28650Y4650D03*
G01X28650Y3650D03*
G54D19*
G01X19600Y25750D03*
G54D20*
G01X18600Y25750D03*
G01X17600Y25750D03*
G54D21*
G01X17600Y29950D03*
G54D22*
G01X18600Y29950D03*
G54D21*
G01X19200Y32450D03*
G54D22*
G01X20200Y32450D03*
G54D17*
G01X6550Y21500D03*
G54D18*
G01X6550Y20500D03*
G54D23*
G01X13539Y5980D03*
G01X13539Y3419D03*
G01X11760Y5980D03*
G01X11760Y3419D03*
G01X37710Y3419D03*
G01X37710Y5980D03*
G01X39489Y3419D03*
G01X39489Y5980D03*
G54D15*
G01X23651Y29749D03*
G54D16*
G01X23650Y30750D03*
G01X24650Y29750D03*
G01X24650Y30750D03*
G01X25650Y29750D03*
G01X25650Y30750D03*
G01X26650Y29750D03*
G01X26650Y30750D03*
G54D15*
G01X44150Y14984D03*
G54D16*
G01X44150Y13999D03*
G01X44150Y13015D03*
G54D24*
G01X35450Y26600D03*
G54D25*
G01X36450Y26600D03*
G01X37450Y26600D03*
G01X38450Y26600D03*
G01X39450Y26600D03*
G01X40450Y26600D03*
G01X41450Y26600D03*
G01X42450Y26600D03*
G54D13*
G01X25650Y27250D03*
G01X27500Y27250D03*
G01X25950Y24800D03*
G01X25300Y23300D03*
G01X24100Y20450D03*
G01X23650Y21050D03*
G01X23650Y21950D03*
G01X19950Y11600D03*
G01X23550Y22800D03*
G01X32621Y15393D03*
G54D26*
G01X9438Y24704D02*
G01X9911Y24704D01*
G01X9438Y26559D02*
G01X9911Y26559D01*
G01X9438Y28413D02*
G01X9911Y28413D01*
M00*
M02*
